<?xml version="1.0" encoding="UTF-8" standalone="no"?>
<!DOCTYPE svg PUBLIC "-//W3C//DTD SVG 1.1//EN" "http://www.w3.org/Graphics/SVG/1.1/DTD/svg11.dtd">
<svg width="100%" height="100%" viewBox="0 0 24 24" version="1.1" xmlns="http://www.w3.org/2000/svg" xmlns:xlink="http://www.w3.org/1999/xlink" xml:space="preserve" xmlns:serif="http://www.serif.com/" style="fill-rule:evenodd;clip-rule:evenodd;stroke-linejoin:round;stroke-miterlimit:2;">
    <g transform="matrix(1,0,0,1,-106.521,-131.543)">
        <g transform="matrix(1,0,0,1,-27.4286,-16.4571)">
            <path d="M137.5,168.5C135.133,166.133 133.95,163.3 133.95,160C133.95,156.667 135.133,153.833 137.5,151.5C139.8,149.167 142.617,148 145.95,148C149.217,148 152.033,149.167 154.4,151.5L154.45,151.5C156.783,153.833 157.95,156.667 157.95,160C157.95,163.3 156.783,166.133 154.45,168.5C152.083,170.833 149.25,172 145.95,172C142.617,172 139.8,170.817 137.5,168.45L137.5,168.5M153,152.9C151.033,150.967 148.683,150 145.95,150C143.183,150 140.833,150.967 138.9,152.9C136.933,154.867 135.95,157.233 135.95,160C135.95,162.733 136.933,165.083 138.9,167.05C140.833,169.017 143.183,170 145.95,170C148.683,170 151.033,169.017 153,167.05C154.967,165.083 155.95,162.733 155.95,160C155.95,157.233 154.967,154.867 153,152.9" style="fill:rgb(101,122,123);fill-rule:nonzero;"/>
            <path d="M153,152.9C154.967,154.867 155.95,157.233 155.95,160C155.95,162.733 154.967,165.083 153,167.05C151.033,169.017 148.683,170 145.95,170C143.183,170 140.833,169.017 138.9,167.05C136.933,165.083 135.95,162.733 135.95,160C135.95,157.233 136.933,154.867 138.9,152.9C140.833,150.967 143.183,150 145.95,150C148.683,150 151.033,150.967 153,152.9M145.95,154C147.583,154 149,154.6 150.2,155.8C151.367,156.967 151.95,158.367 151.95,160C151.95,161.633 151.367,163.05 150.2,164.25C149,165.417 147.583,166 145.95,166C144.317,166 142.933,165.417 141.8,164.25C140.567,163.05 139.95,161.633 139.95,160C139.95,158.367 140.55,156.967 141.75,155.8L141.8,155.75C142.933,154.583 144.317,154 145.95,154M149,157.5C149,157.1 148.85,156.75 148.55,156.45C148.25,156.15 147.9,156 147.5,156C147.067,156 146.717,156.15 146.45,156.45C146.15,156.75 146,157.1 146,157.5C146,157.9 146.15,158.25 146.45,158.55C146.717,158.85 147.067,159 147.5,159C147.9,159 148.25,158.85 148.55,158.55C148.85,158.25 149,157.9 149,157.5M151.6,154.35C150.033,152.783 148.15,152 145.95,152C143.75,152 141.883,152.783 140.35,154.35C138.75,155.917 137.95,157.8 137.95,160C137.95,162.167 138.75,164.05 140.35,165.65C141.883,167.217 143.75,168 145.95,168C148.117,168 150,167.217 151.6,165.65C153.167,164.05 153.95,162.167 153.95,160C153.95,157.8 153.167,155.917 151.6,154.35" style="fill:rgb(137,164,166);fill-rule:nonzero;"/>
            <path d="M145.95,154C144.317,154 142.933,154.583 141.8,155.75L141.75,155.8C140.55,156.967 139.95,158.367 139.95,160C139.95,161.633 140.567,163.05 141.8,164.25C142.933,165.417 144.317,166 145.95,166C147.583,166 149,165.417 150.2,164.25C151.367,163.05 151.95,161.633 151.95,160C151.95,158.367 151.367,156.967 150.2,155.8C149,154.6 147.583,154 145.95,154M151.6,154.35C153.167,155.917 153.95,157.8 153.95,160C153.95,162.167 153.167,164.05 151.6,165.65C150,167.217 148.117,168 145.95,168C143.75,168 141.883,167.217 140.35,165.65C138.75,164.05 137.95,162.167 137.95,160C137.95,157.8 138.75,155.917 140.35,154.35C141.883,152.783 143.75,152 145.95,152C148.15,152 150.033,152.783 151.6,154.35" style="fill:rgb(121,145,147);fill-rule:nonzero;"/>
            <path d="M149,157.5C149,157.9 148.85,158.25 148.55,158.55C148.25,158.85 147.9,159 147.5,159C147.067,159 146.717,158.85 146.45,158.55C146.15,158.25 146,157.9 146,157.5C146,157.1 146.15,156.75 146.45,156.45C146.717,156.15 147.067,156 147.5,156C147.9,156 148.25,156.15 148.55,156.45C148.85,156.75 149,157.1 149,157.5" style="fill:rgb(105,126,128);fill-rule:nonzero;"/>
        </g>
    </g>
</svg>
