<?xml version="1.0" encoding="UTF-8" standalone="no"?>
<!DOCTYPE svg PUBLIC "-//W3C//DTD SVG 1.1//EN" "http://www.w3.org/Graphics/SVG/1.1/DTD/svg11.dtd">
<svg width="100%" height="100%" viewBox="0 0 24 24" version="1.1" xmlns="http://www.w3.org/2000/svg" xmlns:xlink="http://www.w3.org/1999/xlink" xml:space="preserve" xmlns:serif="http://www.serif.com/" style="fill-rule:evenodd;clip-rule:evenodd;stroke-linejoin:round;stroke-miterlimit:2;">
    <g transform="matrix(1,0,0,1,-76.5214,-131.543)">
        <g transform="matrix(1,0,0,1,-27.4286,-16.4571)">
            <path d="M115.95,154C114.317,154 112.933,154.583 111.8,155.75L111.75,155.8C110.55,156.967 109.95,158.367 109.95,160C109.95,161.633 110.567,163.05 111.8,164.25C112.933,165.417 114.317,166 115.95,166C117.583,166 119,165.417 120.2,164.25C121.367,163.05 121.95,161.633 121.95,160C121.95,158.367 121.367,156.967 120.2,155.8C119,154.6 117.583,154 115.95,154M121.6,154.35C123.167,155.917 123.95,157.8 123.95,160C123.95,162.167 123.167,164.05 121.6,165.65C120,167.217 118.117,168 115.95,168C113.75,168 111.883,167.217 110.35,165.65C108.75,164.05 107.95,162.167 107.95,160C107.95,157.8 108.75,155.917 110.35,154.35C111.883,152.783 113.75,152 115.95,152C118.15,152 120.033,152.783 121.6,154.35" style="fill:rgb(208,68,54);fill-rule:nonzero;"/>
            <path d="M115.95,154C117.583,154 119,154.6 120.2,155.8C121.367,156.967 121.95,158.367 121.95,160C121.95,161.633 121.367,163.05 120.2,164.25C119,165.417 117.583,166 115.95,166C114.317,166 112.933,165.417 111.8,164.25C110.567,163.05 109.95,161.633 109.95,160C109.95,158.367 110.55,156.967 111.75,155.8L111.8,155.75C112.933,154.583 114.317,154 115.95,154M119,157.5C119,157.1 118.85,156.75 118.55,156.45C118.25,156.15 117.9,156 117.5,156C117.067,156 116.717,156.15 116.45,156.45C116.15,156.75 116,157.1 116,157.5C116,157.9 116.15,158.25 116.45,158.55C116.717,158.85 117.067,159 117.5,159C117.9,159 118.25,158.85 118.55,158.55L119,157.5" style="fill:rgb(231,76,60);fill-rule:nonzero;"/>
            <path d="M119,157.5L118.55,158.55C118.25,158.85 117.9,159 117.5,159C117.067,159 116.717,158.85 116.45,158.55C116.15,158.25 116,157.9 116,157.5C116,157.1 116.15,156.75 116.45,156.45C116.717,156.15 117.067,156 117.5,156C117.9,156 118.25,156.15 118.55,156.45C118.85,156.75 119,157.1 119,157.5" style="fill:rgb(194,63,49);fill-rule:nonzero;"/>
            <path d="M123,152.9C124.967,154.867 125.95,157.233 125.95,160C125.95,162.733 124.967,165.083 123,167.05C121.033,169.017 118.683,170 115.95,170C113.183,170 110.833,169.017 108.9,167.05C106.933,165.083 105.95,162.733 105.95,160C105.95,157.233 106.933,154.867 108.9,152.9C110.833,150.967 113.183,150 115.95,150C118.683,150 121.033,150.967 123,152.9M121.6,154.35C120.033,152.783 118.15,152 115.95,152C113.75,152 111.883,152.783 110.35,154.35C108.75,155.917 107.95,157.8 107.95,160C107.95,162.167 108.75,164.05 110.35,165.65C111.883,167.217 113.75,168 115.95,168C118.117,168 120,167.217 121.6,165.65C123.167,164.05 123.95,162.167 123.95,160C123.95,157.8 123.167,155.917 121.6,154.35" style="fill:rgb(95,93,85);fill-rule:nonzero;"/>
            <path d="M123,152.9C121.033,150.967 118.683,150 115.95,150C113.183,150 110.833,150.967 108.9,152.9C106.933,154.867 105.95,157.233 105.95,160C105.95,162.733 106.933,165.083 108.9,167.05C110.833,169.017 113.183,170 115.95,170C118.683,170 121.033,169.017 123,167.05C124.967,165.083 125.95,162.733 125.95,160C125.95,157.233 124.967,154.867 123,152.9M107.5,168.5C105.133,166.133 103.95,163.3 103.95,160C103.95,156.667 105.133,153.833 107.5,151.5C109.8,149.167 112.617,148 115.95,148C119.217,148 122.033,149.167 124.4,151.5L124.45,151.5C126.783,153.833 127.95,156.667 127.95,160C127.95,163.3 126.783,166.133 124.45,168.5C122.083,170.833 119.25,172 115.95,172C112.617,172 109.8,170.817 107.5,168.45L107.5,168.5" style="fill:rgb(63,61,56);fill-rule:nonzero;"/>
        </g>
    </g>
</svg>
