<?xml version="1.0" encoding="UTF-8" standalone="no"?>
<!DOCTYPE svg PUBLIC "-//W3C//DTD SVG 1.1//EN" "http://www.w3.org/Graphics/SVG/1.1/DTD/svg11.dtd">
<svg width="100%" height="100%" viewBox="0 0 34 22" version="1.1" xmlns="http://www.w3.org/2000/svg" xmlns:xlink="http://www.w3.org/1999/xlink" xml:space="preserve" xmlns:serif="http://www.serif.com/" style="fill-rule:evenodd;clip-rule:evenodd;stroke-linejoin:round;stroke-miterlimit:2;">
    <g transform="matrix(1,0,0,1,-408.221,-177.643)">
        <g transform="matrix(1,0,0,1,-27.4286,-16.4571)">
            <path d="M441.9,199.95L442,199.9C442.5,199.867 442.917,199.683 443.25,199.35C443.617,198.983 443.8,198.533 443.8,198C443.8,197.467 443.6,197.017 443.2,196.65C442.9,196.317 442.517,196.133 442.05,196.1L441.9,196.1C440.9,196.1 440.05,196.267 439.35,196.6C438.65,197 438.3,197.467 438.3,198C438.267,198.533 438.617,198.983 439.35,199.35C440.05,199.75 440.9,199.95 441.9,199.95M442.2,194.1C443.2,194.167 444.017,194.567 444.65,195.3C445.417,196.033 445.8,196.933 445.8,198C445.8,199.1 445.417,200.033 444.65,200.8C444.117,201.333 443.467,201.683 442.7,201.85L441.9,201.95C440.533,201.95 439.383,201.683 438.45,201.15L438.35,201.1C436.75,200.267 436.067,199.217 436.3,197.95L436.3,197.9C436.233,196.7 436.917,195.7 438.35,194.9L438.5,194.8C439.433,194.333 440.567,194.1 441.9,194.1L442.2,194.1" style="fill:rgb(26,123,68);fill-rule:nonzero;"/>
            <path d="M441.9,199.95C440.9,199.95 440.05,199.75 439.35,199.35C438.617,198.983 438.267,198.533 438.3,198C438.3,197.467 438.65,197 439.35,196.6C440.05,196.267 440.9,196.1 441.9,196.1L442.05,196.1C442.517,196.133 442.9,196.317 443.2,196.65C443.6,197.017 443.8,197.467 443.8,198C443.8,198.533 443.617,198.983 443.25,199.35C442.917,199.683 442.5,199.867 442,199.9L441.9,199.95" style="fill:rgb(57,194,114);fill-rule:nonzero;"/>
            <path d="M450.45,196.2L451.9,197.65C452.267,198.017 452.45,198.483 452.45,199.05C452.45,199.617 452.267,200.1 451.9,200.5L446.2,206.15C446.567,206.55 446.75,207.017 446.75,207.55C446.75,208.117 446.567,208.6 446.2,209C445.8,209.367 445.317,209.55 444.75,209.55L442.8,209.55L440.55,211.85C440.15,212.217 439.667,212.4 439.1,212.4C438.533,212.4 438.067,212.217 437.7,211.85L436.25,210.4C435.85,210 435.65,209.517 435.65,208.95C435.65,208.383 435.85,207.917 436.25,207.55L442.75,201L442.75,199.05C442.75,198.483 442.95,198.017 443.35,197.65C443.717,197.25 444.183,197.05 444.75,197.05C445.283,197.05 445.75,197.233 446.15,197.6L447.6,196.2C447.967,195.8 448.433,195.6 449,195.6C449.567,195.6 450.05,195.8 450.45,196.2M444.75,201.85L437.65,208.95L439.1,210.4L441.95,207.55L444.75,207.55L443.35,206.15L450.45,199.05L449,197.6L446.15,200.45L444.75,199.05L444.75,201.85" style="fill:rgb(135,92,48);fill-rule:nonzero;"/>
            <path d="M444.75,201.85L444.75,199.05L446.15,200.45L449,197.6L450.45,199.05L443.35,206.15L444.75,207.55L441.95,207.55L439.1,210.4L437.65,208.95L444.75,201.85" style="fill:rgb(187,128,68);fill-rule:nonzero;"/>
            <path d="M456.55,201.85L457.95,199.4L456.05,199.9L455,196L453.05,196.55L455.6,206.25L453.7,206.75L456.15,208.15L457.15,212.05L459.15,211.5L456.55,201.85M454.45,194.1L456,194.25C456.467,194.55 456.767,194.967 456.9,195.5L457.45,197.45L458.95,197.65C459.45,197.917 459.75,198.333 459.85,198.9C460.017,199.4 459.967,199.9 459.7,200.4L458.7,202.1L461.05,211C461.217,211.533 461.167,212.033 460.9,212.5C460.6,213 460.167,213.333 459.6,213.5L457.65,214L456.15,213.75C455.65,213.483 455.333,213.1 455.2,212.6L454.4,209.45L452.7,208.5C452.233,208.2 451.9,207.783 451.7,207.25C451.6,206.75 451.7,206.25 452,205.75C452.267,205.283 452.65,204.967 453.15,204.8L451,197.05C450.9,196.55 451,196.05 451.3,195.55C451.567,195.05 451.95,194.733 452.45,194.6L454.45,194.1" style="fill:rgb(135,92,48);fill-rule:nonzero;"/>
            <path d="M456.55,201.85L459.15,211.5L457.15,212.05L456.15,208.15L453.7,206.75L455.6,206.25L453.05,196.55L455,196L456.05,199.9L457.95,199.4L456.55,201.85" style="fill:rgb(187,128,68);fill-rule:nonzero;"/>
            <path d="M467,201.15L466.95,201.05C466.917,200.55 466.733,200.133 466.4,199.8C466.033,199.433 465.583,199.25 465.05,199.25C464.517,199.25 464.067,199.45 463.7,199.85C463.367,200.15 463.183,200.533 463.15,201L463.15,201.15C463.15,202.15 463.317,203 463.65,203.7C464.05,204.4 464.517,204.75 465.05,204.75C465.583,204.783 466.033,204.433 466.4,203.7C466.8,203 467,202.15 467,201.15M461.15,200.85C461.217,199.85 461.617,199.033 462.35,198.4C463.083,197.633 463.983,197.25 465.05,197.25C466.15,197.25 467.083,197.633 467.85,198.4C468.383,198.933 468.733,199.583 468.9,200.35L469,201.15C469,202.517 468.733,203.667 468.2,204.6L468.15,204.7C467.317,206.3 466.267,206.983 465,206.75L464.95,206.75C463.75,206.817 462.75,206.133 461.95,204.7L461.85,204.55C461.383,203.617 461.15,202.483 461.15,201.15L461.15,200.85" style="fill:rgb(26,123,68);fill-rule:nonzero;"/>
            <path d="M467,201.15C467,202.15 466.8,203 466.4,203.7C466.033,204.433 465.583,204.783 465.05,204.75C464.517,204.75 464.05,204.4 463.65,203.7C463.317,203 463.15,202.15 463.15,201.15L463.15,201C463.183,200.533 463.367,200.15 463.7,199.85C464.067,199.45 464.517,199.25 465.05,199.25C465.583,199.25 466.033,199.433 466.4,199.8C466.733,200.133 466.917,200.55 466.95,201.05L467,201.15" style="fill:rgb(57,194,114);fill-rule:nonzero;"/>
            <path d="M445.7,210.3L445.65,210.25L445.6,210.25C445.333,209.983 444.983,209.85 444.55,209.85C444.117,209.85 443.733,210.017 443.4,210.35C443.067,210.65 442.9,211.033 442.9,211.5C442.9,211.933 443.033,212.3 443.3,212.6L443.3,212.65L443.35,212.65C443.95,213.283 444.6,213.683 445.3,213.85L446.7,213.7C447.067,213.367 447.133,212.883 446.9,212.25C446.733,211.583 446.333,210.933 445.7,210.3M447.1,208.85L447.15,208.9C448.05,209.833 448.617,210.8 448.85,211.8C449.35,213.267 449.083,214.4 448.05,215.2L448.15,215.15C447.45,216.017 446.35,216.233 444.85,215.8C443.917,215.6 443.05,215.117 442.25,214.35L441.9,214.1L441.5,213.5C441.1,212.933 440.9,212.267 440.9,211.5C440.9,210.467 441.267,209.617 442,208.95L442.05,208.9C442.783,208.167 443.617,207.817 444.55,207.85C445.417,207.85 446.15,208.083 446.75,208.55L446.8,208.6L447.1,208.85" style="fill:rgb(26,123,68);fill-rule:nonzero;"/>
            <path d="M445.7,210.3C446.333,210.933 446.733,211.583 446.9,212.25C447.133,212.883 447.067,213.367 446.7,213.7L445.3,213.85C444.6,213.683 443.95,213.283 443.35,212.65L443.3,212.65L443.3,212.6C443.033,212.3 442.9,211.933 442.9,211.5C442.9,211.033 443.067,210.65 443.4,210.35C443.733,210.017 444.117,209.85 444.55,209.85C444.983,209.85 445.333,209.983 445.6,210.25L445.65,210.25L445.7,210.3" style="fill:rgb(57,194,114);fill-rule:nonzero;"/>
        </g>
    </g>
</svg>
