<?xml version="1.0" encoding="UTF-8" standalone="no"?>
<!DOCTYPE svg PUBLIC "-//W3C//DTD SVG 1.1//EN" "http://www.w3.org/Graphics/SVG/1.1/DTD/svg11.dtd">
<svg width="100%" height="100%" viewBox="0 0 64 65" version="1.1" xmlns="http://www.w3.org/2000/svg" xmlns:xlink="http://www.w3.org/1999/xlink" xml:space="preserve" xmlns:serif="http://www.serif.com/" style="fill-rule:evenodd;clip-rule:evenodd;stroke-linejoin:round;stroke-miterlimit:2;">
    <g transform="matrix(1,0,0,1,-326.571,-133.543)">
        <g transform="matrix(1,0,0,1,-27.4286,-16.4571)">
            <path d="M385.9,150C389.267,150.033 392.267,151.017 394.9,152.95L398.4,152.55L398.45,152.55C403.083,152.583 407.033,154.25 410.3,157.55C413.567,160.817 415.217,164.783 415.25,169.45L415.05,172.4L414.95,172.95L415.15,173.2L415.25,173.3C416.683,175.367 417.567,177.667 417.9,180.2L418,182.1L417.7,185.1L417.75,185.05C417.583,186.017 417.3,186.95 416.9,187.85L416.9,187.9C416.433,189.1 415.8,190.25 415,191.35L415.35,193.65L415.35,194.7C415.35,199.367 413.717,203.317 410.45,206.55L410.5,206.55C407.233,209.817 403.283,211.45 398.65,211.45L398.6,211.45L395.2,211.1C392.6,213.067 389.567,214.033 386.1,214C382.667,213.967 379.617,212.95 376.95,210.95L373.35,211.3C368.783,211.3 364.833,209.667 361.5,206.4C358.233,203.1 356.583,199.133 356.55,194.5L356.55,194.45L356.6,193.25C356.667,192.417 356.783,191.617 356.95,190.85C356.083,189.717 355.433,188.533 355,187.3C354.667,186.5 354.433,185.667 354.3,184.8L354.3,184.85C354.1,183.883 354,182.9 354,181.9C354,181.2 354.05,180.533 354.15,179.9C354.383,177.6 355.15,175.483 356.45,173.55L356.45,173.5L356.95,172.9L356.8,172.3L356.8,172.35C356.567,171.35 356.45,170.3 356.45,169.2C356.45,164.567 358.067,160.633 361.3,157.4C364.6,154.133 368.55,152.5 373.15,152.5L376.8,152.9C379.433,150.967 382.45,150 385.85,150L385.9,150M358.6,193.45L358.55,194.45C358.583,198.55 360.033,202.05 362.9,204.95C365.833,207.85 369.317,209.3 373.35,209.3L377.4,208.8C379.9,210.9 382.8,211.967 386.1,212C389.433,212.033 392.3,211 394.7,208.9L398.65,209.45C402.717,209.45 406.183,208 409.05,205.1C411.917,202.267 413.35,198.8 413.35,194.7L413.35,193.85L412.8,190.85C413.8,189.683 414.567,188.433 415.1,187.1L415.8,184.7L416.05,182.1L415.95,180.45C415.683,178.25 414.9,176.25 413.6,174.45L412.75,173.4L413.05,172.1L413.25,169.45C413.217,165.35 411.75,161.85 408.85,158.95C405.983,156.05 402.5,154.583 398.4,154.55L394.45,155.1C391.983,153.067 389.117,152.033 385.85,152C382.583,152 379.717,153.017 377.25,155.05C375.983,154.683 374.617,154.5 373.15,154.5C369.083,154.5 365.6,155.933 362.7,158.8C359.867,161.667 358.45,165.133 358.45,169.2C358.45,170.133 358.55,171.033 358.75,171.9L359.05,173.4L358.1,174.65C357,176.317 356.35,178.133 356.15,180.1C356.05,180.667 356,181.267 356,181.9L356.25,184.45L356.85,186.6C357.35,187.933 358.1,189.2 359.1,190.4C358.833,191.367 358.667,192.383 358.6,193.45" style="fill:rgb(26,123,68);fill-rule:nonzero;"/>
            <path d="M358.6,193.45C358.667,192.383 358.833,191.367 359.1,190.4C358.1,189.2 357.35,187.933 356.85,186.6L356.25,184.45L356,181.9C356,181.267 356.05,180.667 356.15,180.1C356.35,178.133 357,176.317 358.1,174.65L359.05,173.4L358.75,171.9C358.55,171.033 358.45,170.133 358.45,169.2C358.45,165.133 359.867,161.667 362.7,158.8C365.6,155.933 369.083,154.5 373.15,154.5C374.617,154.5 375.983,154.683 377.25,155.05C379.717,153.017 382.583,152 385.85,152C389.117,152.033 391.983,153.067 394.45,155.1L398.4,154.55C402.5,154.583 405.983,156.05 408.85,158.95C411.75,161.85 413.217,165.35 413.25,169.45L413.05,172.1L412.75,173.4L413.6,174.45C414.9,176.25 415.683,178.25 415.95,180.45L416.05,182.1L415.8,184.7L415.1,187.1C414.567,188.433 413.8,189.683 412.8,190.85L413.35,193.85L413.35,194.7C413.35,198.8 411.917,202.267 409.05,205.1C406.183,208 402.717,209.45 398.65,209.45L394.7,208.9C392.3,211 389.433,212.033 386.1,212C382.8,211.967 379.9,210.9 377.4,208.8L373.35,209.3C369.317,209.3 365.833,207.85 362.9,204.95C360.033,202.05 358.583,198.55 358.55,194.45L358.6,193.45M395.6,158.95L393.65,159.05C393.017,158.883 392.433,158.6 391.9,158.2C390.167,156.767 388.15,156.033 385.85,156L385.8,156C383.533,156 381.533,156.717 379.8,158.15C379.3,158.55 378.733,158.833 378.1,159L376.15,158.9L373.15,158.5C370.183,158.5 367.65,159.533 365.55,161.6L365.5,161.65C363.467,163.75 362.45,166.267 362.45,169.2L362.65,171L362.7,171.15L363,172.65L362.95,174.4L362.15,175.95L361.45,176.85L361.4,176.95C360.7,178.017 360.283,179.2 360.15,180.5L360.1,180.8L360,181.9L360.2,183.7L360.2,183.75L360.6,185.2C360.967,186.133 361.5,187.017 362.2,187.85C362.6,188.35 362.867,188.917 363,189.55L362.95,191.5C362.75,192.2 362.633,192.933 362.6,193.7L362.6,193.85L362.55,194.45C362.583,197.417 363.633,199.967 365.7,202.1L365.75,202.15C367.883,204.25 370.417,205.3 373.35,205.3L376.35,204.95L378.25,204.9C378.883,205.033 379.467,205.317 380,205.75C381.767,207.217 383.817,207.967 386.15,208C388.45,208.033 390.433,207.333 392.1,205.9C392.6,205.467 393.167,205.167 393.8,205L395.75,205.05L398.75,205.45C401.65,205.417 404.133,204.367 406.2,202.3L406.25,202.25C408.317,200.183 409.35,197.667 409.35,194.7L409.35,194L408.95,191.95C408.783,191.283 408.767,190.633 408.9,190C409.033,189.333 409.333,188.75 409.8,188.25C410.467,187.417 411,186.55 411.4,185.65L411.45,185.5L411.85,184.1L411.9,183.95L412.05,182.1L412,180.95C411.8,179.417 411.25,178.033 410.35,176.8L409.65,175.9C409.217,175.367 408.95,174.783 408.85,174.15C408.717,173.517 408.75,172.883 408.95,172.25L409.1,171.5L409.25,169.5L409.25,169.45C409.217,166.45 408.15,163.9 406.05,161.8L406,161.75C403.9,159.65 401.367,158.583 398.4,158.55L395.6,158.95" style="fill:rgb(52,180,105);fill-rule:nonzero;"/>
            <path d="M395.6,158.95L398.4,158.55C401.367,158.583 403.9,159.65 406,161.75L406.05,161.8C408.15,163.9 409.217,166.45 409.25,169.45L409.25,169.5L409.1,171.5L408.95,172.25C408.75,172.883 408.717,173.517 408.85,174.15C408.95,174.783 409.217,175.367 409.65,175.9L410.35,176.8C411.25,178.033 411.8,179.417 412,180.95L412.05,182.1L411.9,183.95L411.85,184.1L411.45,185.5L411.4,185.65C411,186.55 410.467,187.417 409.8,188.25C409.333,188.75 409.033,189.333 408.9,190C408.767,190.633 408.783,191.283 408.95,191.95L409.35,194L409.35,194.7C409.35,197.667 408.317,200.183 406.25,202.25L406.2,202.3C404.133,204.367 401.65,205.417 398.75,205.45L395.75,205.05L393.8,205C393.167,205.167 392.6,205.467 392.1,205.9C390.433,207.333 388.45,208.033 386.15,208C383.817,207.967 381.767,207.217 380,205.75C379.467,205.317 378.883,205.033 378.25,204.9L376.35,204.95L373.35,205.3C370.417,205.3 367.883,204.25 365.75,202.15L365.7,202.1C363.633,199.967 362.583,197.417 362.55,194.45L362.6,193.85L362.6,193.7C362.633,192.933 362.75,192.2 362.95,191.5L363,189.55C362.867,188.917 362.6,188.35 362.2,187.85C361.5,187.017 360.967,186.133 360.6,185.2L360.2,183.75L360.2,183.7L360,181.9L360.1,180.8L360.15,180.5C360.283,179.2 360.7,178.017 361.4,176.95L361.45,176.85L362.15,175.95L362.95,174.4L363,172.65L362.7,171.15L362.65,171L362.45,169.2C362.45,166.267 363.467,163.75 365.5,161.65L365.55,161.6C367.65,159.533 370.183,158.5 373.15,158.5L376.15,158.9L378.1,159C378.733,158.833 379.3,158.55 379.8,158.15C381.533,156.717 383.533,156 385.8,156L385.85,156C388.15,156.033 390.167,156.767 391.9,158.2C392.433,158.6 393.017,158.883 393.65,159.05L395.6,158.95M402.1,188.15L402.05,188.05L402,188C401.533,187.6 400.95,187.4 400.25,187.4C399.55,187.4 398.933,187.667 398.4,188.2C397.867,188.7 397.6,189.317 397.6,190.05C397.567,190.75 397.767,191.35 398.2,191.85L398.25,191.9L398.35,191.95C399.317,192.95 400.35,193.6 401.45,193.9C402.517,194.233 403.283,194.15 403.75,193.65C404.35,193.117 404.467,192.317 404.1,191.25C403.8,190.183 403.133,189.15 402.1,188.15M397.55,194.85L397.5,194.7C397.467,193.9 397.167,193.233 396.6,192.7C396,192.1 395.283,191.783 394.45,191.75C393.55,191.783 392.8,192.117 392.2,192.75C391.667,193.25 391.367,193.883 391.3,194.65L391.35,194.75L391.3,194.9C391.3,196.5 391.583,197.867 392.15,199C392.817,200.133 393.583,200.717 394.45,200.75C395.283,200.783 396.017,200.2 396.65,199C397.283,197.867 397.583,196.5 397.55,194.9L397.55,194.85M372.75,174.2L372.6,174.25L372.55,174.3C371.35,174.967 370.467,175.8 369.9,176.8C369.267,177.767 369.133,178.55 369.5,179.15C369.867,179.817 370.617,180.133 371.75,180.1C372.85,180.067 374.017,179.7 375.25,179L375.35,178.95L375.4,178.85C375.967,178.517 376.317,178.017 376.45,177.35C376.65,176.65 376.567,175.967 376.2,175.3C375.833,174.633 375.3,174.217 374.6,174.05L372.75,174.2M378.5,163.15C377.867,162.45 377.233,162.167 376.6,162.3C375.967,162.5 375.55,163.067 375.35,164C375.117,164.967 375.15,166.05 375.45,167.25L375.45,167.3L375.55,167.4C375.717,167.9 376.067,168.317 376.6,168.65L378.35,168.8C378.983,168.667 379.467,168.333 379.8,167.8C380.067,167.233 380.15,166.683 380.05,166.15L380,166.05L380,166C379.667,164.833 379.167,163.883 378.5,163.15M371.7,166.75L371.55,166.7L367.4,166.5C366.133,166.833 365.383,167.417 365.15,168.25C364.917,169.05 365.283,169.9 366.25,170.8C367.183,171.7 368.417,172.367 369.95,172.8L370.15,172.8C370.917,172.933 371.65,172.8 372.35,172.4C373.05,172 373.533,171.383 373.8,170.55C374,169.717 373.867,168.917 373.4,168.15C373.067,167.45 372.533,166.983 371.8,166.75L371.7,166.75" style="fill:rgb(57,194,114);fill-rule:nonzero;"/>
            <path d="M371.7,166.75L371.8,166.75C372.533,166.983 373.067,167.45 373.4,168.15C373.867,168.917 374,169.717 373.8,170.55C373.533,171.383 373.05,172 372.35,172.4C371.65,172.8 370.917,172.933 370.15,172.8L369.95,172.8C368.417,172.367 367.183,171.7 366.25,170.8C365.283,169.9 364.917,169.05 365.15,168.25C365.383,167.417 366.133,166.833 367.4,166.5L371.55,166.7L371.7,166.75M378.5,163.15C379.167,163.883 379.667,164.833 380,166L380,166.05L380.05,166.15C380.15,166.683 380.067,167.233 379.8,167.8C379.467,168.333 378.983,168.667 378.35,168.8L376.6,168.65C376.067,168.317 375.717,167.9 375.55,167.4L375.45,167.3L375.45,167.25C375.15,166.05 375.117,164.967 375.35,164C375.55,163.067 375.967,162.5 376.6,162.3C377.233,162.167 377.867,162.45 378.5,163.15M372.75,174.2L374.6,174.05C375.3,174.217 375.833,174.633 376.2,175.3C376.567,175.967 376.65,176.65 376.45,177.35C376.317,178.017 375.967,178.517 375.4,178.85L375.35,178.95L375.25,179C374.017,179.7 372.85,180.067 371.75,180.1C370.617,180.133 369.867,179.817 369.5,179.15C369.133,178.55 369.267,177.767 369.9,176.8C370.467,175.8 371.35,174.967 372.55,174.3L372.6,174.25L372.75,174.2M397.55,194.85L397.55,194.9C397.583,196.5 397.283,197.867 396.65,199C396.017,200.2 395.283,200.783 394.45,200.75C393.583,200.717 392.817,200.133 392.15,199C391.583,197.867 391.3,196.5 391.3,194.9L391.35,194.75L391.3,194.65C391.367,193.883 391.667,193.25 392.2,192.75C392.8,192.117 393.55,191.783 394.45,191.75C395.283,191.783 396,192.1 396.6,192.7C397.167,193.233 397.467,193.9 397.5,194.7L397.55,194.85M402.1,188.15C403.133,189.15 403.8,190.183 404.1,191.25C404.467,192.317 404.35,193.117 403.75,193.65C403.283,194.15 402.517,194.233 401.45,193.9C400.35,193.6 399.317,192.95 398.35,191.95L398.25,191.9L398.2,191.85C397.767,191.35 397.567,190.75 397.6,190.05C397.6,189.317 397.867,188.7 398.4,188.2C398.933,187.667 399.55,187.4 400.25,187.4C400.95,187.4 401.533,187.6 402,188L402.05,188.05L402.1,188.15" style="fill:rgb(67,205,125);fill-rule:nonzero;"/>
        </g>
    </g>
</svg>
