<?xml version="1.0" encoding="UTF-8" standalone="no"?>
<!DOCTYPE svg PUBLIC "-//W3C//DTD SVG 1.1//EN" "http://www.w3.org/Graphics/SVG/1.1/DTD/svg11.dtd">
<svg width="100%" height="100%" viewBox="0 0 34 22" version="1.1" xmlns="http://www.w3.org/2000/svg" xmlns:xlink="http://www.w3.org/1999/xlink" xml:space="preserve" xmlns:serif="http://www.serif.com/" style="fill-rule:evenodd;clip-rule:evenodd;stroke-linejoin:round;stroke-miterlimit:2;">
    <g transform="matrix(1,0,0,1,-408.221,-257.643)">
        <g transform="matrix(1,0,0,1,-27.4286,-16.4571)">
            <path d="M441.8,281.95C440.467,281.95 439.35,281.683 438.45,281.15L438.35,281.1C436.75,280.267 436.067,279.217 436.3,277.95L436.3,277.9C436.233,276.7 436.917,275.7 438.35,274.9L438.5,274.8C439.433,274.333 440.567,274.1 441.9,274.1L442.2,274.1C443.2,274.167 444.017,274.567 444.65,275.3C445.25,275.867 445.617,276.533 445.75,277.3L444.75,277.05L443.7,277.35L443.2,276.65C442.9,276.317 442.517,276.133 442.05,276.1L441.9,276.1C440.9,276.1 440.05,276.267 439.35,276.6C438.65,277 438.3,277.467 438.3,278C438.267,278.533 438.617,278.983 439.35,279.35C440.05,279.75 440.9,279.95 441.9,279.95L442,279.9L442.75,279.7L442.75,281L441.8,281.95M446.6,288.45L446.75,288.55L446.8,288.6L447.1,288.85L447.15,288.9C448.05,289.833 448.617,290.8 448.85,291.8C449.35,293.267 449.083,294.4 448.05,295.2L448.15,295.15C447.45,296.017 446.35,296.233 444.85,295.8C443.917,295.6 443.05,295.117 442.25,294.35L441.9,294.1L441.5,293.5C441.1,292.933 440.9,292.267 440.9,291.5C440.9,290.467 441.267,289.617 442,288.95L442.05,288.9C442.783,288.167 443.617,287.817 444.55,287.85C445.35,287.85 446.033,288.05 446.6,288.45M445.7,290.3L445.65,290.25L445.6,290.25C445.333,289.983 444.983,289.85 444.55,289.85C444.117,289.85 443.733,290.017 443.4,290.35C443.067,290.65 442.9,291.033 442.9,291.5C442.9,291.933 443.033,292.3 443.3,292.6L443.3,292.65L443.35,292.65C443.95,293.283 444.6,293.683 445.3,293.85L446.7,293.7C447.067,293.367 447.133,292.883 446.9,292.25C446.733,291.583 446.333,290.933 445.7,290.3M461.15,280.85C461.217,279.85 461.617,279.033 462.35,278.4C463.083,277.633 463.983,277.25 465.05,277.25C466.15,277.25 467.083,277.633 467.85,278.4C468.383,278.933 468.733,279.583 468.9,280.35L469,281.15C469,282.517 468.733,283.667 468.2,284.6L468.15,284.7C467.317,286.3 466.267,286.983 465,286.75L464.95,286.75C463.75,286.817 462.75,286.133 461.95,284.7L461.85,284.55C461.383,283.617 461.15,282.483 461.15,281.15L461.15,280.85M467,281.15L466.95,281.05C466.917,280.55 466.733,280.133 466.4,279.8C466.033,279.433 465.583,279.25 465.05,279.25C464.517,279.25 464.067,279.45 463.7,279.85C463.367,280.15 463.183,280.533 463.15,281L463.15,281.15C463.15,282.15 463.317,283 463.65,283.7C464.05,284.4 464.517,284.75 465.05,284.75C465.583,284.783 466.033,284.433 466.4,283.7C466.8,283 467,282.15 467,281.15" style="fill:rgb(149,78,40);fill-rule:nonzero;"/>
            <path d="M467,281.15C467,282.15 466.8,283 466.4,283.7C466.033,284.433 465.583,284.783 465.05,284.75C464.517,284.75 464.05,284.4 463.65,283.7C463.317,283 463.15,282.15 463.15,281.15L463.15,281C463.183,280.533 463.367,280.15 463.7,279.85C464.067,279.45 464.517,279.25 465.05,279.25C465.583,279.25 466.033,279.433 466.4,279.8C466.733,280.133 466.917,280.55 466.95,281.05L467,281.15M442.75,279.7L442,279.9L441.9,279.95C440.9,279.95 440.05,279.75 439.35,279.35C438.617,278.983 438.267,278.533 438.3,278C438.3,277.467 438.65,277 439.35,276.6C440.05,276.267 440.9,276.1 441.9,276.1L442.05,276.1C442.517,276.133 442.9,276.317 443.2,276.65L443.7,277.35L443.35,277.65C442.95,278.017 442.75,278.483 442.75,279.05L442.75,279.7M445.7,290.3C446.333,290.933 446.733,291.583 446.9,292.25C447.133,292.883 447.067,293.367 446.7,293.7L445.3,293.85C444.6,293.683 443.95,293.283 443.35,292.65L443.3,292.65L443.3,292.6C443.033,292.3 442.9,291.933 442.9,291.5C442.9,291.033 443.067,290.65 443.4,290.35C443.733,290.017 444.117,289.85 444.55,289.85C444.983,289.85 445.333,289.983 445.6,290.25L445.65,290.25L445.7,290.3" style="fill:rgb(208,108,59);fill-rule:nonzero;"/>
            <path d="M445.75,277.3L446.15,277.6L447.6,276.2C447.967,275.8 448.433,275.6 449,275.6C449.567,275.6 450.05,275.8 450.45,276.2L451,276.75C450.967,276.35 451.067,275.95 451.3,275.55C451.567,275.05 451.95,274.733 452.45,274.6L454.45,274.1L456,274.25C456.467,274.55 456.767,274.967 456.9,275.5L457.45,277.45L458.95,277.65C459.45,277.917 459.75,278.333 459.85,278.9C460.017,279.4 459.967,279.9 459.7,280.4L458.7,282.1L461.05,291C461.217,291.533 461.167,292.033 460.9,292.5C460.6,293 460.167,293.333 459.6,293.5L457.65,294L456.15,293.75C455.65,293.483 455.333,293.1 455.2,292.6L454.4,289.45L452.7,288.5C452.233,288.2 451.9,287.783 451.7,287.25C451.6,286.75 451.7,286.25 452,285.75C452.267,285.283 452.65,284.967 453.15,284.8L451.95,280.45L446.2,286.15C446.567,286.55 446.75,287.017 446.75,287.55L446.6,288.45C446.033,288.05 445.35,287.85 444.55,287.85C443.617,287.817 442.783,288.167 442.05,288.9L442,288.95C441.267,289.617 440.9,290.467 440.9,291.5L440.55,291.85C440.15,292.217 439.667,292.4 439.1,292.4C438.533,292.4 438.067,292.217 437.7,291.85L436.25,290.4C435.85,290 435.65,289.517 435.65,288.95C435.65,288.383 435.85,287.917 436.25,287.55L441.8,281.95L442.75,281L442.75,279.05C442.75,278.483 442.95,278.017 443.35,277.65L443.7,277.35L444.75,277.05L445.75,277.3M444.75,281.85L437.65,288.95L439.1,290.4L441.95,287.55L444.75,287.55L443.35,286.15L450.45,279.05L449,277.6L446.15,280.45L444.75,279.05L444.75,281.85M456.55,281.85L457.95,279.4L456.05,279.9L455,276L453.05,276.55L455.6,286.25L453.7,286.75L456.15,288.15L457.15,292.05L459.15,291.5L456.55,281.85" style="fill:rgb(135,92,48);fill-rule:nonzero;"/>
            <path d="M444.75,281.85L444.75,279.05L446.15,280.45L449,277.6L450.45,279.05L443.35,286.15L444.75,287.55L441.95,287.55L439.1,290.4L437.65,288.95L444.75,281.85M456.55,281.85L459.15,291.5L457.15,292.05L456.15,288.15L453.7,286.75L455.6,286.25L453.05,276.55L455,276L456.05,279.9L457.95,279.4L456.55,281.85" style="fill:rgb(187,128,68);fill-rule:nonzero;"/>
        </g>
    </g>
</svg>
