<?xml version="1.0" encoding="UTF-8" standalone="no"?>
<!DOCTYPE svg PUBLIC "-//W3C//DTD SVG 1.1//EN" "http://www.w3.org/Graphics/SVG/1.1/DTD/svg11.dtd">
<svg width="100%" height="100%" viewBox="0 0 33 43" version="1.1" xmlns="http://www.w3.org/2000/svg" xmlns:xlink="http://www.w3.org/1999/xlink" xml:space="preserve" xmlns:serif="http://www.serif.com/" style="fill-rule:evenodd;clip-rule:evenodd;stroke-linejoin:round;stroke-miterlimit:2;">
    <g transform="matrix(1,0,0,1,-90.15,-332)">
        <g transform="matrix(1,0,0,1,-2049.85,-40)">
            <g id="Layer0_62_MEMBER_1_FILL">
                <path d="M2160.35,403.5C2160.28,404.033 2160.2,404.567 2160.1,405.1L2159.65,407.3C2159.55,408.333 2159.08,409.217 2158.25,409.95C2157.52,410.683 2156.65,411.05 2155.65,411.05L2153.4,411.05C2153.13,411.05 2152.88,411.033 2152.65,411C2154.32,412.1 2156.18,412.667 2158.25,412.7C2159.05,412.733 2159.87,412.683 2160.7,412.55L2164.75,411.95C2165.02,411.917 2165.23,411.833 2165.4,411.7C2165.53,411.5 2165.6,411.25 2165.6,410.95C2165.57,410.883 2165.57,410.8 2165.6,410.7L2165.6,410.3C2165.53,407.933 2164.92,405.717 2163.75,403.65L2163.7,403.65C2163.63,403.55 2163.6,403.45 2163.6,403.35C2163.47,403.15 2163.27,403 2163,402.9C2162.8,402.8 2162.58,402.817 2162.35,402.95L2160.35,403.5M2165.4,376.15C2165.23,375.983 2165.02,375.9 2164.75,375.9L2160.7,375.3C2159.87,375.167 2159.05,375.117 2158.25,375.15C2156.18,375.183 2154.32,375.75 2152.65,376.85C2152.88,376.817 2153.13,376.8 2153.4,376.8L2155.65,376.8C2156.65,376.8 2157.52,377.15 2158.25,377.85C2159.08,378.617 2159.55,379.517 2159.65,380.55L2160.1,382.75C2160.2,383.283 2160.28,383.817 2160.35,384.35L2162.35,384.9C2162.58,385 2162.8,385.017 2163,384.95C2163.27,384.85 2163.47,384.683 2163.6,384.45C2163.6,384.35 2163.63,384.267 2163.7,384.2L2163.75,384.15C2164.92,382.117 2165.53,379.917 2165.6,377.55L2165.6,377.15C2165.57,377.05 2165.57,376.967 2165.6,376.9C2165.6,376.6 2165.53,376.35 2165.4,376.15Z" style="fill:rgb(65,65,65);fill-rule:nonzero;"/>
                <path d="M2167.1,412.8C2167.2,412.633 2167.3,412.467 2167.4,412.3L2165.6,410.7C2165.57,410.8 2165.57,410.883 2165.6,410.95C2165.6,411.25 2165.53,411.5 2165.4,411.7C2165.23,411.833 2165.02,411.917 2164.75,411.95L2160.7,412.55C2159.87,412.683 2159.05,412.733 2158.25,412.7C2156.18,412.667 2154.32,412.1 2152.65,411C2152.88,411.033 2153.13,411.05 2153.4,411.05L2155.65,411.05C2156.65,411.05 2157.52,410.683 2158.25,409.95C2159.08,409.217 2159.55,408.333 2159.65,407.3L2160.1,405.1C2160.2,404.567 2160.28,404.033 2160.35,403.5L2162.35,402.95C2162.58,402.817 2162.8,402.8 2163,402.9C2163.27,403 2163.47,403.15 2163.6,403.35C2163.6,403.45 2163.63,403.55 2163.7,403.65L2163.75,403.65L2164.45,401.4C2164.28,401.3 2164.1,401.2 2163.9,401.1C2163.2,400.7 2162.45,400.7 2161.65,401.1L2159.85,401.6C2159.45,401.7 2159.12,401.9 2158.85,402.2C2158.58,402.5 2158.43,402.85 2158.4,403.25C2158.33,403.517 2158.28,403.783 2158.25,404.05C2158.22,404.283 2158.18,404.517 2158.15,404.75L2158.15,404.7L2157.7,406.9C2157.67,406.967 2157.65,407.033 2157.65,407.1C2157.58,407.633 2157.35,408.083 2156.95,408.45C2156.92,408.483 2156.88,408.517 2156.85,408.55C2156.52,408.883 2156.12,409.05 2155.65,409.05L2152.95,409.05C2152.72,408.983 2152.48,408.983 2152.25,409.05C2152.05,409.083 2151.85,409.167 2151.65,409.3C2151.22,409.533 2150.93,409.867 2150.8,410.3C2150.63,410.733 2150.62,411.183 2150.75,411.65C2150.88,412.083 2151.15,412.433 2151.55,412.7C2151.78,412.833 2152.02,412.967 2152.25,413.1C2154.05,414.133 2156.05,414.683 2158.25,414.75C2159.15,414.75 2160.07,414.683 2161,414.55L2165.05,413.95L2165,413.95C2165.67,413.85 2166.22,413.617 2166.65,413.25C2166.82,413.117 2166.97,412.967 2167.1,412.8M2164.75,375.9C2165.02,375.9 2165.23,375.983 2165.4,376.15C2165.53,376.35 2165.6,376.6 2165.6,376.9C2165.57,376.967 2165.57,377.05 2165.6,377.15L2167.4,375.6C2167.3,375.4 2167.2,375.217 2167.1,375.05C2167,374.95 2166.92,374.85 2166.85,374.75C2166.35,374.217 2165.7,373.933 2164.9,373.9L2161,373.35C2160.07,373.183 2159.15,373.1 2158.25,373.1C2156.05,373.133 2154.05,373.683 2152.25,374.75C2152.02,374.883 2151.78,375.033 2151.55,375.2C2151.15,375.433 2150.88,375.783 2150.75,376.25C2150.62,376.683 2150.63,377.117 2150.8,377.55C2150.93,377.983 2151.22,378.333 2151.65,378.6C2151.85,378.7 2152.05,378.783 2152.25,378.85C2152.48,378.883 2152.72,378.883 2152.95,378.85C2153.08,378.817 2153.23,378.8 2153.4,378.8L2155.65,378.8C2156.12,378.8 2156.53,378.967 2156.9,379.3L2156.9,379.35C2157.33,379.75 2157.58,380.217 2157.65,380.75C2157.65,380.817 2157.67,380.883 2157.7,380.95L2158.15,383.15C2158.18,383.35 2158.22,383.567 2158.25,383.8C2158.28,384.067 2158.33,384.333 2158.4,384.6C2158.43,385 2158.58,385.35 2158.85,385.65C2159.12,385.95 2159.45,386.167 2159.85,386.3L2161.55,386.75C2162.28,387.05 2162.98,387.083 2163.65,386.85L2163.7,386.85C2164,386.717 2164.27,386.583 2164.5,386.45L2163.75,384.15L2163.7,384.2C2163.63,384.267 2163.6,384.35 2163.6,384.45C2163.47,384.683 2163.27,384.85 2163,384.95C2162.8,385.017 2162.58,385 2162.35,384.9L2160.35,384.35C2160.28,383.817 2160.2,383.283 2160.1,382.75L2159.65,380.55C2159.55,379.517 2159.08,378.617 2158.25,377.85C2157.52,377.15 2156.65,376.8 2155.65,376.8L2153.4,376.8C2153.13,376.8 2152.88,376.817 2152.65,376.85C2154.32,375.75 2156.18,375.183 2158.25,375.15C2159.05,375.117 2159.87,375.167 2160.7,375.3L2164.75,375.9Z" style="fill:rgb(46,46,46);fill-rule:nonzero;"/>
                <path d="M2169.6,404.05C2169.23,402.817 2168.37,402.383 2167,402.75L2163.75,403.65C2164.92,405.717 2165.53,407.933 2165.6,410.3L2165.6,410.7L2168.85,409.75C2169.15,409.683 2169.4,409.6 2169.6,409.5C2169.83,409.367 2170.02,409.217 2170.15,409.05C2170.58,408.583 2170.7,407.95 2170.5,407.15L2169.65,404.25C2169.65,404.183 2169.63,404.117 2169.6,404.05M2165.6,377.15L2165.6,377.55C2165.53,379.917 2164.92,382.117 2163.75,384.15L2167,385.05C2168.37,385.417 2169.23,385 2169.6,383.8C2169.63,383.733 2169.65,383.667 2169.65,383.6L2170.5,380.7C2170.7,379.9 2170.58,379.25 2170.15,378.75C2170.02,378.583 2169.83,378.45 2169.6,378.35C2169.4,378.25 2169.15,378.167 2168.85,378.1L2165.6,377.15Z" style="fill:rgb(255,208,163);fill-rule:nonzero;"/>
                <path d="M2167,402.75C2168.37,402.383 2169.23,402.817 2169.6,404.05C2169.63,404.117 2169.65,404.183 2169.65,404.25L2170.5,407.15C2170.7,407.95 2170.58,408.583 2170.15,409.05C2170.02,409.217 2169.83,409.367 2169.6,409.5C2169.4,409.6 2169.15,409.683 2168.85,409.75L2165.6,410.7L2167.4,412.3L2169.4,411.7C2169.47,411.667 2169.53,411.65 2169.6,411.65C2170.5,411.383 2171.18,410.967 2171.65,410.4C2172.58,409.5 2172.85,408.267 2172.45,406.7L2172.45,406.6L2171.6,403.8C2171.27,402.433 2170.65,401.533 2169.75,401.1C2169.68,401.067 2169.63,401.033 2169.6,401C2168.8,400.533 2167.75,400.483 2166.45,400.85L2166.5,400.85L2164.45,401.4L2163.75,403.65L2167,402.75M2166.5,387L2166.45,387C2167.75,387.333 2168.8,387.267 2169.6,386.8C2169.63,386.8 2169.67,386.783 2169.7,386.75C2170.6,386.317 2171.23,385.467 2171.6,384.2L2171.6,384.1L2172.45,381.3L2172.45,381.2C2172.82,379.633 2172.55,378.383 2171.65,377.45C2171.22,376.883 2170.53,376.483 2169.6,376.25C2169.53,376.217 2169.47,376.2 2169.4,376.2L2167.4,375.6L2165.6,377.15L2168.85,378.1C2169.15,378.167 2169.4,378.25 2169.6,378.35C2169.83,378.45 2170.02,378.583 2170.15,378.75C2170.58,379.25 2170.7,379.9 2170.5,380.7L2169.65,383.6C2169.65,383.667 2169.63,383.733 2169.6,383.8C2169.23,385 2168.37,385.417 2167,385.05L2163.75,384.15L2164.5,386.45L2166.5,387Z" style="fill:rgb(163,133,104);fill-rule:nonzero;"/>
            </g>
        </g>
        <g transform="matrix(1,0,0,1,-2049.85,-40)">
            <g id="Layer0_62_MEMBER_2_FILL">
                <path d="M2159.95,405.1L2159.35,408L2159.35,407.9C2159.22,409.333 2158.58,410.55 2157.45,411.55C2156.42,412.517 2155.23,413 2153.9,413L2150.85,413C2149.52,413 2148.3,412.517 2147.2,411.55C2146.2,410.583 2145.58,409.383 2145.35,407.95L2144.45,400.3L2142.55,401.2L2143.4,408.2C2143.37,408.2 2143.37,408.233 2143.4,408.3C2143.7,410.167 2144.5,411.733 2145.8,413C2145.83,413 2145.87,413.017 2145.9,413.05C2146.23,413.35 2146.58,413.617 2146.95,413.85C2148.15,414.617 2149.45,415 2150.85,415L2153.9,415C2155.3,415 2156.58,414.617 2157.75,413.85C2158.12,413.617 2158.47,413.35 2158.8,413.05C2158.8,413.017 2158.82,413 2158.85,413C2160.32,411.7 2161.15,410.117 2161.35,408.25L2161.9,405.5L2161.95,405.5C2162.15,404.3 2162.33,403.083 2162.5,401.85L2160.6,400.95C2160.43,402.35 2160.22,403.733 2159.95,405.1M2143.35,379L2143.35,379.1L2142.45,386.5L2144.35,387.35L2145.35,379.1L2145.35,379C2145.58,377.567 2146.2,376.367 2147.2,375.4C2148.3,374.467 2149.52,374 2150.85,374L2153.9,374C2155.23,374 2156.42,374.45 2157.45,375.35L2157.45,375.4C2158.58,376.4 2159.22,377.6 2159.35,379L2159.95,381.9C2160.25,383.467 2160.5,385.067 2160.7,386.7L2162.6,385.85C2162.4,384.383 2162.18,382.95 2161.95,381.55L2161.9,381.5L2161.3,378.6L2161.35,378.8C2161.18,377 2160.43,375.467 2159.1,374.2C2159,374.067 2158.9,373.95 2158.8,373.85C2157.37,372.617 2155.73,372 2153.9,372L2150.85,372C2149.05,372 2147.4,372.633 2145.9,373.9C2145.87,373.9 2145.83,373.917 2145.8,373.95C2144.5,375.217 2143.7,376.8 2143.4,378.7C2143.37,378.8 2143.35,378.9 2143.35,379Z" style="fill:rgb(46,46,46);fill-rule:nonzero;"/>
                <path d="M2160.6,400.95C2160.5,401.05 2160.42,401.133 2160.35,401.2C2158.78,402.767 2156.93,403.683 2154.8,403.95C2154.67,403.983 2154.53,404 2154.4,404C2154.1,404.067 2153.8,404.1 2153.5,404.1C2150.3,404.1 2147.58,403.133 2145.35,401.2C2145.02,400.9 2144.72,400.6 2144.45,400.3L2145.35,407.95C2145.58,409.383 2146.2,410.583 2147.2,411.55C2148.3,412.517 2149.52,413 2150.85,413L2153.9,413C2155.23,413 2156.42,412.517 2157.45,411.55C2158.58,410.55 2159.22,409.333 2159.35,407.9L2159.35,408L2159.95,405.1C2160.22,403.733 2160.43,402.35 2160.6,400.95M2145.35,379L2145.35,379.1L2144.35,387.35C2144.65,386.983 2144.98,386.65 2145.35,386.35C2147.58,384.417 2150.3,383.45 2153.5,383.45C2153.8,383.45 2154.1,383.483 2154.4,383.55C2154.53,383.55 2154.67,383.567 2154.8,383.6C2156.93,383.833 2158.78,384.75 2160.35,386.35C2160.45,386.45 2160.57,386.567 2160.7,386.7C2160.5,385.067 2160.25,383.467 2159.95,381.9L2159.35,379C2159.22,377.6 2158.58,376.4 2157.45,375.4L2157.45,375.35C2156.42,374.45 2155.23,374 2153.9,374L2150.85,374C2149.52,374 2148.3,374.467 2147.2,375.4C2146.2,376.367 2145.58,377.567 2145.35,379Z" style="fill:rgb(65,65,65);fill-rule:nonzero;"/>
                <path d="M2162.9,390.55C2163.13,391.383 2163.25,392.317 2163.25,393.35L2163.25,394.2C2163.25,394.667 2163.23,395.117 2163.2,395.55L2163.45,395.3C2164.85,393.9 2164.88,392.517 2163.55,391.15L2162.9,390.55Z" style="fill:rgb(229,186,146);fill-rule:nonzero;"/>
                <path d="M2164.65,389.45C2164.18,388.15 2163.5,386.95 2162.6,385.85L2160.7,386.7C2161.73,387.833 2162.47,389.117 2162.9,390.55L2163.55,391.15C2164.88,392.517 2164.85,393.9 2163.45,395.3L2163.2,395.55C2162.9,397.617 2162.03,399.417 2160.6,400.95L2162.5,401.85C2163.8,400.283 2164.65,398.517 2165.05,396.55C2167.22,394.25 2167.2,391.983 2165,389.75C2164.97,389.717 2164.93,389.7 2164.9,389.7L2164.65,389.45Z" style="fill:rgb(163,133,104);fill-rule:nonzero;"/>
                <path d="M2143.45,393.8L2143.45,393.9C2143.45,395.767 2144.12,397.35 2145.45,398.65C2146.58,399.817 2147.87,400.25 2149.3,399.95C2153.2,399.783 2155.03,401.117 2154.8,403.95C2156.93,403.683 2158.78,402.767 2160.35,401.2C2160.42,401.133 2160.5,401.05 2160.6,400.95C2162.03,399.417 2162.9,397.617 2163.2,395.55C2163.23,395.117 2163.25,394.667 2163.25,394.2L2163.25,393.35C2163.25,392.317 2163.13,391.383 2162.9,390.55C2162.47,389.117 2161.73,387.833 2160.7,386.7C2160.57,386.567 2160.45,386.45 2160.35,386.35C2158.78,384.75 2156.93,383.833 2154.8,383.6C2155.1,386.6 2153.27,388.017 2149.3,387.85C2147.87,387.55 2146.58,387.983 2145.45,389.15C2144.12,390.45 2143.45,392 2143.45,393.8M2151.45,393.8L2151.45,393.75C2151.45,393.15 2151.67,392.65 2152.1,392.25C2152.43,391.883 2152.8,391.633 2153.2,391.5L2154.95,390.8C2155.18,390.7 2155.42,390.7 2155.65,390.8C2155.85,390.9 2156.02,391.083 2156.15,391.35C2156.25,391.583 2156.25,391.833 2156.15,392.1L2155.45,393.65L2156.85,395.4C2156.98,395.567 2157.05,395.75 2157.05,395.95C2157.05,396.15 2157,396.35 2156.9,396.55C2156.77,396.683 2156.62,396.783 2156.45,396.85C2156.22,396.883 2156.02,396.883 2155.85,396.85L2153.35,396.1C2152.92,396 2152.5,395.75 2152.1,395.35C2151.67,394.883 2151.45,394.367 2151.45,393.8Z" style="fill:rgb(255,208,163);fill-rule:nonzero;"/>
                <path d="M2151.45,393.75L2151.45,393.8C2151.45,394.367 2151.67,394.883 2152.1,395.35C2152.5,395.75 2152.92,396 2153.35,396.1L2155.85,396.85C2156.02,396.883 2156.22,396.883 2156.45,396.85C2156.62,396.783 2156.77,396.683 2156.9,396.55C2157,396.35 2157.05,396.15 2157.05,395.95C2157.05,395.75 2156.98,395.567 2156.85,395.4L2155.45,393.65L2156.15,392.1C2156.25,391.833 2156.25,391.583 2156.15,391.35C2156.02,391.083 2155.85,390.9 2155.65,390.8C2155.42,390.7 2155.18,390.7 2154.95,390.8L2153.2,391.5C2152.8,391.633 2152.43,391.883 2152.1,392.25C2151.67,392.65 2151.45,393.15 2151.45,393.75M2145.35,386.35C2144.98,386.65 2144.65,386.983 2144.35,387.35C2142.78,389.083 2142,391.083 2142,393.35L2142,394.2C2142,396.533 2142.82,398.567 2144.45,400.3C2144.72,400.6 2145.02,400.9 2145.35,401.2C2147.58,403.133 2150.3,404.1 2153.5,404.1C2153.8,404.1 2154.1,404.067 2154.4,404C2154.53,404 2154.67,403.983 2154.8,403.95C2155.03,401.117 2153.2,399.783 2149.3,399.95C2147.87,400.25 2146.58,399.817 2145.45,398.65C2144.12,397.35 2143.45,395.767 2143.45,393.9L2143.45,393.8C2143.45,392 2144.12,390.45 2145.45,389.15C2146.58,387.983 2147.87,387.55 2149.3,387.85C2153.27,388.017 2155.1,386.6 2154.8,383.6C2154.67,383.567 2154.53,383.55 2154.4,383.55C2154.1,383.483 2153.8,383.45 2153.5,383.45C2150.3,383.45 2147.58,384.417 2145.35,386.35Z" style="fill:rgb(204,204,204);fill-rule:nonzero;"/>
                <path d="M2144.35,387.35L2142.45,386.5C2140.82,388.5 2140,390.783 2140,393.35L2140,394.2C2140,396.833 2140.85,399.167 2142.55,401.2L2144.45,400.3C2142.82,398.567 2142,396.533 2142,394.2L2142,393.35C2142,391.083 2142.78,389.083 2144.35,387.35Z" style="fill:rgb(170,170,170);fill-rule:nonzero;"/>
            </g>
        </g>
    </g>
</svg>
