<?xml version="1.0" encoding="UTF-8" standalone="no"?>
<!DOCTYPE svg PUBLIC "-//W3C//DTD SVG 1.1//EN" "http://www.w3.org/Graphics/SVG/1.1/DTD/svg11.dtd">
<svg width="100%" height="100%" viewBox="0 0 33 43" version="1.1" xmlns="http://www.w3.org/2000/svg" xmlns:xlink="http://www.w3.org/1999/xlink" xml:space="preserve" xmlns:serif="http://www.serif.com/" style="fill-rule:evenodd;clip-rule:evenodd;stroke-linejoin:round;stroke-miterlimit:2;">
    <g transform="matrix(1,0,0,1,-150.15,-332)">
        <g transform="matrix(1,0,0,1,-2049.85,-40)">
            <g id="Layer0_63_MEMBER_1_FILL">
                <path d="M2220.35,403.5C2220.28,404.033 2220.2,404.567 2220.1,405.1L2219.65,407.3C2219.55,408.333 2219.08,409.217 2218.25,409.95C2217.52,410.683 2216.65,411.05 2215.65,411.05L2213.4,411.05C2213.13,411.05 2212.88,411.033 2212.65,411C2214.32,412.1 2216.18,412.667 2218.25,412.7C2219.05,412.733 2219.87,412.683 2220.7,412.55L2224.75,411.95C2225.02,411.917 2225.23,411.833 2225.4,411.7C2225.53,411.5 2225.6,411.25 2225.6,410.95C2225.57,410.883 2225.57,410.8 2225.6,410.7L2225.6,410.3C2225.53,407.933 2224.92,405.717 2223.75,403.65L2223.7,403.65C2223.63,403.55 2223.6,403.45 2223.6,403.35C2223.47,403.15 2223.27,403 2223,402.9C2222.8,402.8 2222.58,402.817 2222.35,402.95L2220.35,403.5Z" style="fill:rgb(65,65,65);fill-rule:nonzero;"/>
                <path d="M2224.45,401.4C2224.28,401.3 2224.1,401.2 2223.9,401.1C2223.2,400.7 2222.45,400.7 2221.65,401.1L2219.85,401.6C2219.45,401.7 2219.12,401.9 2218.85,402.2C2218.58,402.5 2218.43,402.85 2218.4,403.25C2218.33,403.517 2218.28,403.783 2218.25,404.05C2218.22,404.283 2218.18,404.517 2218.15,404.75L2218.15,404.7L2217.7,406.9C2217.67,406.967 2217.65,407.033 2217.65,407.1C2217.58,407.633 2217.35,408.083 2216.95,408.45C2216.92,408.483 2216.88,408.517 2216.85,408.55C2216.52,408.883 2216.12,409.05 2215.65,409.05L2212.95,409.05C2212.72,408.983 2212.48,408.983 2212.25,409.05C2212.05,409.083 2211.85,409.167 2211.65,409.3C2211.22,409.533 2210.93,409.867 2210.8,410.3C2210.63,410.733 2210.62,411.183 2210.75,411.65C2210.88,412.083 2211.15,412.433 2211.55,412.7C2211.78,412.833 2212.02,412.967 2212.25,413.1C2214.05,414.133 2216.05,414.683 2218.25,414.75C2219.15,414.75 2220.07,414.683 2221,414.55L2225.05,413.95L2225,413.95C2225.67,413.85 2226.22,413.617 2226.65,413.25C2226.82,413.117 2226.97,412.967 2227.1,412.8C2227.2,412.633 2227.3,412.467 2227.4,412.3L2225.6,410.7C2225.57,410.8 2225.57,410.883 2225.6,410.95C2225.6,411.25 2225.53,411.5 2225.4,411.7C2225.23,411.833 2225.02,411.917 2224.75,411.95L2220.7,412.55C2219.87,412.683 2219.05,412.733 2218.25,412.7C2216.18,412.667 2214.32,412.1 2212.65,411C2212.88,411.033 2213.13,411.05 2213.4,411.05L2215.65,411.05C2216.65,411.05 2217.52,410.683 2218.25,409.95C2219.08,409.217 2219.55,408.333 2219.65,407.3L2220.1,405.1C2220.2,404.567 2220.28,404.033 2220.35,403.5L2222.35,402.95C2222.58,402.817 2222.8,402.8 2223,402.9C2223.27,403 2223.47,403.15 2223.6,403.35C2223.6,403.45 2223.63,403.55 2223.7,403.65L2223.75,403.65L2224.45,401.4Z" style="fill:rgb(46,46,46);fill-rule:nonzero;"/>
                <path d="M2229.65,404.25C2229.65,404.183 2229.63,404.117 2229.6,404.05C2229.23,402.817 2228.37,402.383 2227,402.75L2223.75,403.65C2224.92,405.717 2225.53,407.933 2225.6,410.3L2225.6,410.7L2228.85,409.75C2229.15,409.683 2229.4,409.6 2229.6,409.5C2229.83,409.367 2230.02,409.217 2230.15,409.05C2230.58,408.583 2230.7,407.95 2230.5,407.15L2229.65,404.25Z" style="fill:rgb(255,208,163);fill-rule:nonzero;"/>
                <path d="M2229.75,401.1C2229.68,401.067 2229.63,401.033 2229.6,401C2228.8,400.533 2227.75,400.483 2226.45,400.85L2226.5,400.85L2224.45,401.4L2223.75,403.65L2227,402.75C2228.37,402.383 2229.23,402.817 2229.6,404.05C2229.63,404.117 2229.65,404.183 2229.65,404.25L2230.5,407.15C2230.7,407.95 2230.58,408.583 2230.15,409.05C2230.02,409.217 2229.83,409.367 2229.6,409.5C2229.4,409.6 2229.15,409.683 2228.85,409.75L2225.6,410.7L2227.4,412.3L2229.4,411.7C2229.47,411.667 2229.53,411.65 2229.6,411.65C2230.5,411.383 2231.18,410.967 2231.65,410.4C2232.58,409.5 2232.85,408.267 2232.45,406.7L2232.45,406.6L2231.6,403.8C2231.27,402.433 2230.65,401.533 2229.75,401.1Z" style="fill:rgb(163,133,104);fill-rule:nonzero;"/>
            </g>
        </g>
        <g transform="matrix(1,0,0,1,-2049.85,-40)">
            <g id="Layer0_63_MEMBER_2_FILL">
                <path d="M2221.9,405.5L2221.95,405.5C2222.15,404.3 2222.33,403.083 2222.5,401.85L2220.6,400.95C2220.43,402.35 2220.22,403.733 2219.95,405.1L2219.35,408L2219.35,407.9C2219.22,409.333 2218.58,410.55 2217.45,411.55C2216.42,412.517 2215.23,413 2213.9,413L2210.85,413C2209.52,413 2208.3,412.517 2207.2,411.55C2206.2,410.583 2205.58,409.383 2205.35,407.95L2204.45,400.3L2202.55,401.2L2203.4,408.2C2203.37,408.2 2203.37,408.233 2203.4,408.3C2203.7,410.167 2204.5,411.733 2205.8,413C2205.83,413 2205.87,413.017 2205.9,413.05C2206.23,413.35 2206.58,413.617 2206.95,413.85C2208.15,414.617 2209.45,415 2210.85,415L2213.9,415C2215.3,415 2216.58,414.617 2217.75,413.85C2218.12,413.617 2218.47,413.35 2218.8,413.05C2218.8,413.017 2218.82,413 2218.85,413C2220.32,411.7 2221.15,410.117 2221.35,408.25L2221.9,405.5M2205.9,373.9C2205.87,373.9 2205.83,373.917 2205.8,373.95C2204.5,375.217 2203.7,376.8 2203.4,378.7C2203.37,378.8 2203.35,378.9 2203.35,379L2203.35,379.1L2202.45,386.5L2204.35,387.35L2205.35,379.1L2205.35,379C2205.58,377.567 2206.2,376.367 2207.2,375.4C2208.3,374.467 2209.52,374 2210.85,374L2213.9,374C2215.23,374 2216.42,374.45 2217.45,375.35L2217.45,375.4C2218.58,376.4 2219.22,377.6 2219.35,379L2219.95,381.9C2220.25,383.467 2220.5,385.067 2220.7,386.7L2222.6,385.85C2222.4,384.383 2222.18,382.95 2221.95,381.55L2221.9,381.5L2221.3,378.6L2221.35,378.8C2221.18,377 2220.43,375.467 2219.1,374.2C2219,374.067 2218.9,373.95 2218.8,373.85C2217.37,372.617 2215.73,372 2213.9,372L2210.85,372C2209.05,372 2207.4,372.633 2205.9,373.9Z" style="fill:rgb(46,46,46);fill-rule:nonzero;"/>
                <path d="M2220.6,400.95C2220.5,401.05 2220.42,401.133 2220.35,401.2C2218.78,402.767 2216.93,403.683 2214.8,403.95C2214.67,403.983 2214.53,404 2214.4,404C2214.1,404.067 2213.8,404.1 2213.5,404.1C2210.3,404.1 2207.58,403.133 2205.35,401.2C2205.02,400.9 2204.72,400.6 2204.45,400.3L2205.35,407.95C2205.58,409.383 2206.2,410.583 2207.2,411.55C2208.3,412.517 2209.52,413 2210.85,413L2213.9,413C2215.23,413 2216.42,412.517 2217.45,411.55C2218.58,410.55 2219.22,409.333 2219.35,407.9L2219.35,408L2219.95,405.1C2220.22,403.733 2220.43,402.35 2220.6,400.95M2205.35,379L2205.35,379.1L2204.35,387.35C2204.65,386.983 2204.98,386.65 2205.35,386.35C2207.58,384.417 2210.3,383.45 2213.5,383.45C2213.8,383.45 2214.1,383.483 2214.4,383.55C2214.53,383.55 2214.67,383.567 2214.8,383.6C2216.93,383.833 2218.78,384.75 2220.35,386.35C2220.45,386.45 2220.57,386.567 2220.7,386.7C2220.5,385.067 2220.25,383.467 2219.95,381.9L2219.35,379C2219.22,377.6 2218.58,376.4 2217.45,375.4L2217.45,375.35C2216.42,374.45 2215.23,374 2213.9,374L2210.85,374C2209.52,374 2208.3,374.467 2207.2,375.4C2206.2,376.367 2205.58,377.567 2205.35,379Z" style="fill:rgb(65,65,65);fill-rule:nonzero;"/>
                <path d="M2223.25,393.35L2223.25,394.2C2223.25,394.667 2223.23,395.117 2223.2,395.55L2223.45,395.3C2224.85,393.9 2224.88,392.517 2223.55,391.15L2222.9,390.55C2223.13,391.383 2223.25,392.317 2223.25,393.35Z" style="fill:rgb(229,186,146);fill-rule:nonzero;"/>
                <path d="M2224.65,389.45C2224.18,388.15 2223.5,386.95 2222.6,385.85L2220.7,386.7C2221.73,387.833 2222.47,389.117 2222.9,390.55L2223.55,391.15C2224.88,392.517 2224.85,393.9 2223.45,395.3L2223.2,395.55C2222.9,397.617 2222.03,399.417 2220.6,400.95L2222.5,401.85C2223.8,400.283 2224.65,398.517 2225.05,396.55C2227.22,394.25 2227.2,391.983 2225,389.75C2224.97,389.717 2224.93,389.7 2224.9,389.7L2224.65,389.45Z" style="fill:rgb(163,133,104);fill-rule:nonzero;"/>
                <path d="M2203.45,393.8L2203.45,393.9C2203.45,395.767 2204.12,397.35 2205.45,398.65C2206.58,399.817 2207.87,400.25 2209.3,399.95C2213.2,399.783 2215.03,401.117 2214.8,403.95C2216.93,403.683 2218.78,402.767 2220.35,401.2C2220.42,401.133 2220.5,401.05 2220.6,400.95C2222.03,399.417 2222.9,397.617 2223.2,395.55C2223.23,395.117 2223.25,394.667 2223.25,394.2L2223.25,393.35C2223.25,392.317 2223.13,391.383 2222.9,390.55C2222.47,389.117 2221.73,387.833 2220.7,386.7C2220.57,386.567 2220.45,386.45 2220.35,386.35C2218.78,384.75 2216.93,383.833 2214.8,383.6C2215.1,386.6 2213.27,388.017 2209.3,387.85C2207.87,387.55 2206.58,387.983 2205.45,389.15C2204.12,390.45 2203.45,392 2203.45,393.8M2212.1,395.35C2211.67,394.883 2211.45,394.367 2211.45,393.8L2211.45,393.75C2211.45,393.15 2211.67,392.65 2212.1,392.25C2212.43,391.883 2212.8,391.633 2213.2,391.5L2214.95,390.8C2215.18,390.7 2215.42,390.7 2215.65,390.8C2215.85,390.9 2216.02,391.083 2216.15,391.35C2216.25,391.583 2216.25,391.833 2216.15,392.1L2215.45,393.65L2216.85,395.4C2216.98,395.567 2217.05,395.75 2217.05,395.95C2217.05,396.15 2217,396.35 2216.9,396.55C2216.77,396.683 2216.62,396.783 2216.45,396.85C2216.22,396.883 2216.02,396.883 2215.85,396.85L2213.35,396.1C2212.92,396 2212.5,395.75 2212.1,395.35Z" style="fill:rgb(255,208,163);fill-rule:nonzero;"/>
                <path d="M2211.45,393.8C2211.45,394.367 2211.67,394.883 2212.1,395.35C2212.5,395.75 2212.92,396 2213.35,396.1L2215.85,396.85C2216.02,396.883 2216.22,396.883 2216.45,396.85C2216.62,396.783 2216.77,396.683 2216.9,396.55C2217,396.35 2217.05,396.15 2217.05,395.95C2217.05,395.75 2216.98,395.567 2216.85,395.4L2215.45,393.65L2216.15,392.1C2216.25,391.833 2216.25,391.583 2216.15,391.35C2216.02,391.083 2215.85,390.9 2215.65,390.8C2215.42,390.7 2215.18,390.7 2214.95,390.8L2213.2,391.5C2212.8,391.633 2212.43,391.883 2212.1,392.25C2211.67,392.65 2211.45,393.15 2211.45,393.75L2211.45,393.8M2205.35,386.35C2204.98,386.65 2204.65,386.983 2204.35,387.35C2202.78,389.083 2202,391.083 2202,393.35L2202,394.2C2202,396.533 2202.82,398.567 2204.45,400.3C2204.72,400.6 2205.02,400.9 2205.35,401.2C2207.58,403.133 2210.3,404.1 2213.5,404.1C2213.8,404.1 2214.1,404.067 2214.4,404C2214.53,404 2214.67,403.983 2214.8,403.95C2215.03,401.117 2213.2,399.783 2209.3,399.95C2207.87,400.25 2206.58,399.817 2205.45,398.65C2204.12,397.35 2203.45,395.767 2203.45,393.9L2203.45,393.8C2203.45,392 2204.12,390.45 2205.45,389.15C2206.58,387.983 2207.87,387.55 2209.3,387.85C2213.27,388.017 2215.1,386.6 2214.8,383.6C2214.67,383.567 2214.53,383.55 2214.4,383.55C2214.1,383.483 2213.8,383.45 2213.5,383.45C2210.3,383.45 2207.58,384.417 2205.35,386.35Z" style="fill:rgb(204,204,204);fill-rule:nonzero;"/>
                <path d="M2204.35,387.35L2202.45,386.5C2200.82,388.5 2200,390.783 2200,393.35L2200,394.2C2200,396.833 2200.85,399.167 2202.55,401.2L2204.45,400.3C2202.82,398.567 2202,396.533 2202,394.2L2202,393.35C2202,391.083 2202.78,389.083 2204.35,387.35Z" style="fill:rgb(170,170,170);fill-rule:nonzero;"/>
            </g>
        </g>
    </g>
</svg>
