<?xml version="1.0" encoding="UTF-8" standalone="no"?>
<!DOCTYPE svg PUBLIC "-//W3C//DTD SVG 1.1//EN" "http://www.w3.org/Graphics/SVG/1.1/DTD/svg11.dtd">
<svg width="100%" height="100%" viewBox="0 0 27 44" version="1.1" xmlns="http://www.w3.org/2000/svg" xmlns:xlink="http://www.w3.org/1999/xlink" xml:space="preserve" xmlns:serif="http://www.serif.com/" style="fill-rule:evenodd;clip-rule:evenodd;stroke-linejoin:round;stroke-miterlimit:2;">
    <g transform="matrix(1,0,0,1,-30.15,-332)">
        <g transform="matrix(1,0,0,1,-2049.85,-40)">
            <g id="Layer0_61_MEMBER_1_FILL">
                <path d="M2099.95,405.1L2099.35,408L2099.35,407.9C2099.22,409.333 2098.58,410.55 2097.45,411.55C2096.42,412.517 2095.23,413 2093.9,413L2090.85,413C2089.52,413 2088.3,412.517 2087.2,411.55C2086.2,410.583 2085.58,409.383 2085.35,407.95L2084.45,400.3L2082.55,401.2L2083.35,408.15C2083.37,408.196 2083.37,408.229 2083.35,408.25C2083.67,410.149 2084.49,411.732 2085.8,413C2085.83,413.016 2085.84,413.033 2085.85,413.05C2086.21,413.352 2086.56,413.618 2086.9,413.85C2088.13,414.628 2089.45,415.011 2090.85,415L2093.9,415C2095.31,415.005 2096.59,414.622 2097.75,413.85C2098.11,413.618 2098.44,413.352 2098.75,413.05C2098.78,413.033 2098.8,413.016 2098.8,413C2100.28,411.688 2101.12,410.104 2101.3,408.25L2101.9,405.5L2101.9,405.45C2102.14,404.268 2102.34,403.068 2102.5,401.85L2100.6,400.95C2100.43,402.35 2100.22,403.733 2099.95,405.1M2083.35,378.65C2083.35,378.776 2083.35,378.893 2083.35,379L2083.35,379.1L2082.45,386.5L2084.35,387.35L2085.35,379.1L2085.35,379C2085.58,377.567 2086.2,376.367 2087.2,375.4C2088.3,374.467 2089.52,374 2090.85,374L2093.9,374C2095.23,374 2096.42,374.45 2097.45,375.35L2097.45,375.4C2098.58,376.4 2099.22,377.6 2099.35,379L2099.95,381.9C2100.25,383.467 2100.5,385.067 2100.7,386.7L2102.6,385.85C2102.41,384.378 2102.18,382.928 2101.9,381.5L2101.3,378.6L2101.35,378.8C2101.19,377.014 2100.42,375.464 2099.05,374.15C2098.98,374.046 2098.88,373.946 2098.75,373.85C2097.35,372.615 2095.73,371.998 2093.9,372L2090.85,372C2089.04,371.988 2087.39,372.604 2085.9,373.85C2085.87,373.891 2085.84,373.925 2085.8,373.95C2084.49,375.218 2083.67,376.784 2083.35,378.65Z" style="fill:rgb(46,46,46);fill-rule:nonzero;"/>
                <path d="M2100.6,400.95C2100.5,401.05 2100.42,401.133 2100.35,401.2C2098.78,402.774 2096.91,403.691 2094.75,403.95C2094.64,403.972 2094.53,403.989 2094.4,404C2094.1,404.067 2093.8,404.1 2093.5,404.1C2090.3,404.1 2087.58,403.133 2085.35,401.2C2085.02,400.9 2084.72,400.6 2084.45,400.3L2085.35,407.95C2085.58,409.383 2086.2,410.583 2087.2,411.55C2088.3,412.517 2089.52,413 2090.85,413L2093.9,413C2095.23,413 2096.42,412.517 2097.45,411.55C2098.58,410.55 2099.22,409.333 2099.35,407.9L2099.35,408L2099.95,405.1C2100.22,403.733 2100.43,402.35 2100.6,400.95M2085.35,379L2085.35,379.1L2084.35,387.35C2084.65,386.983 2084.98,386.65 2085.35,386.35C2087.58,384.417 2090.3,383.45 2093.5,383.45C2093.8,383.45 2094.1,383.483 2094.4,383.55C2094.52,383.559 2094.64,383.559 2094.75,383.55C2096.91,383.808 2098.77,384.741 2100.35,386.35C2100.45,386.45 2100.57,386.567 2100.7,386.7C2100.5,385.067 2100.25,383.467 2099.95,381.9L2099.35,379C2099.22,377.6 2098.58,376.4 2097.45,375.4L2097.45,375.35C2096.42,374.45 2095.23,374 2093.9,374L2090.85,374C2089.52,374 2088.3,374.467 2087.2,375.4C2086.2,376.367 2085.58,377.567 2085.35,379Z" style="fill:rgb(65,65,65);fill-rule:nonzero;"/>
                <path d="M2103.55,391.15L2102.9,390.55C2103.13,391.383 2103.25,392.317 2103.25,393.35L2103.25,394.2C2103.25,394.667 2103.23,395.117 2103.2,395.55L2103.45,395.3C2104.85,393.9 2104.88,392.517 2103.55,391.15Z" style="fill:rgb(229,186,146);fill-rule:nonzero;"/>
                <path d="M2104.65,389.45C2104.18,388.136 2103.5,386.936 2102.6,385.85L2100.7,386.7C2101.73,387.833 2102.47,389.117 2102.9,390.55L2103.55,391.15C2104.88,392.517 2104.85,393.9 2103.45,395.3L2103.2,395.55C2102.9,397.617 2102.03,399.417 2100.6,400.95L2102.5,401.85L2102.5,401.8C2103.8,400.266 2104.65,398.516 2105.05,396.55C2107.22,394.256 2107.18,391.989 2104.95,389.75C2104.94,389.725 2104.92,389.692 2104.9,389.65L2104.65,389.45Z" style="fill:rgb(163,133,104);fill-rule:nonzero;"/>
                <path d="M2083.45,393.8L2083.45,393.9C2083.45,395.767 2084.12,397.35 2085.45,398.65C2086.58,399.817 2087.87,400.25 2089.3,399.95C2093.2,399.794 2095.02,401.127 2094.75,403.95C2096.91,403.691 2098.78,402.774 2100.35,401.2C2100.42,401.133 2100.5,401.05 2100.6,400.95C2102.03,399.417 2102.9,397.617 2103.2,395.55C2103.23,395.117 2103.25,394.667 2103.25,394.2L2103.25,393.35C2103.25,392.317 2103.13,391.383 2102.9,390.55C2102.47,389.117 2101.73,387.833 2100.7,386.7C2100.57,386.567 2100.45,386.45 2100.35,386.35C2098.77,384.741 2096.91,383.808 2094.75,383.55C2095.08,386.575 2093.26,388.008 2089.3,387.85C2087.87,387.55 2086.58,387.983 2085.45,389.15C2084.12,390.45 2083.45,392 2083.45,393.8M2092.1,395.35C2091.67,394.883 2091.45,394.367 2091.45,393.8L2091.45,393.75C2091.45,393.15 2091.67,392.65 2092.1,392.25C2092.43,391.883 2092.8,391.633 2093.2,391.5L2094.95,390.8C2095.18,390.7 2095.42,390.7 2095.65,390.8C2095.85,390.9 2096.02,391.083 2096.15,391.35C2096.25,391.583 2096.25,391.833 2096.15,392.1L2095.45,393.65L2096.85,395.4C2096.98,395.567 2097.05,395.75 2097.05,395.95C2097.05,396.15 2097,396.35 2096.9,396.55C2096.77,396.683 2096.62,396.783 2096.45,396.85C2096.22,396.883 2096.02,396.883 2095.85,396.85L2093.35,396.1C2092.92,396 2092.5,395.75 2092.1,395.35Z" style="fill:rgb(255,208,163);fill-rule:nonzero;"/>
                <path d="M2091.45,393.8C2091.45,394.367 2091.67,394.883 2092.1,395.35C2092.5,395.75 2092.92,396 2093.35,396.1L2095.85,396.85C2096.02,396.883 2096.22,396.883 2096.45,396.85C2096.62,396.783 2096.77,396.683 2096.9,396.55C2097,396.35 2097.05,396.15 2097.05,395.95C2097.05,395.75 2096.98,395.567 2096.85,395.4L2095.45,393.65L2096.15,392.1C2096.25,391.833 2096.25,391.583 2096.15,391.35C2096.02,391.083 2095.85,390.9 2095.65,390.8C2095.42,390.7 2095.18,390.7 2094.95,390.8L2093.2,391.5C2092.8,391.633 2092.43,391.883 2092.1,392.25C2091.67,392.65 2091.45,393.15 2091.45,393.75L2091.45,393.8M2085.35,386.35C2084.98,386.65 2084.65,386.983 2084.35,387.35C2082.78,389.083 2082,391.083 2082,393.35L2082,394.2C2082,396.533 2082.82,398.567 2084.45,400.3C2084.72,400.6 2085.02,400.9 2085.35,401.2C2087.58,403.133 2090.3,404.1 2093.5,404.1C2093.8,404.1 2094.1,404.067 2094.4,404C2094.53,403.989 2094.64,403.972 2094.75,403.95C2095.02,401.127 2093.2,399.794 2089.3,399.95C2087.87,400.25 2086.58,399.817 2085.45,398.65C2084.12,397.35 2083.45,395.767 2083.45,393.9L2083.45,393.8C2083.45,392 2084.12,390.45 2085.45,389.15C2086.58,387.983 2087.87,387.55 2089.3,387.85C2093.26,388.008 2095.08,386.575 2094.75,383.55C2094.64,383.559 2094.52,383.559 2094.4,383.55C2094.1,383.483 2093.8,383.45 2093.5,383.45C2090.3,383.45 2087.58,384.417 2085.35,386.35Z" style="fill:rgb(204,204,204);fill-rule:nonzero;"/>
                <path d="M2084.35,387.35L2082.45,386.5C2080.81,388.503 2080,390.786 2080,393.35L2080,394.2C2080,396.837 2080.85,399.154 2082.55,401.15L2082.55,401.2L2084.45,400.3C2082.82,398.567 2082,396.533 2082,394.2L2082,393.35C2082,391.083 2082.78,389.083 2084.35,387.35Z" style="fill:rgb(170,170,170);fill-rule:nonzero;"/>
            </g>
        </g>
    </g>
</svg>
