<?xml version="1.0" encoding="UTF-8" standalone="no"?>
<!DOCTYPE svg PUBLIC "-//W3C//DTD SVG 1.1//EN" "http://www.w3.org/Graphics/SVG/1.1/DTD/svg11.dtd">
<svg width="100%" height="100%" viewBox="0 0 22 42" version="1.1" xmlns="http://www.w3.org/2000/svg" xmlns:xlink="http://www.w3.org/1999/xlink" xml:space="preserve" xmlns:serif="http://www.serif.com/" style="fill-rule:evenodd;clip-rule:evenodd;stroke-linejoin:round;stroke-miterlimit:2;">
    <g transform="matrix(1,0,0,1,-100.811,-333.1)">
        <g transform="matrix(1,0,0,1,-2049.85,-40)">
            <g id="Layer0_62_MEMBER_1_FILL">
                <path d="M2160.35,403.5C2160.28,404.033 2160.2,404.567 2160.1,405.1L2159.65,407.3C2159.55,408.333 2159.08,409.217 2158.25,409.95C2157.52,410.683 2156.65,411.05 2155.65,411.05L2153.4,411.05C2153.13,411.05 2152.88,411.033 2152.65,411C2154.32,412.1 2156.18,412.667 2158.25,412.7C2159.05,412.733 2159.87,412.683 2160.7,412.55L2164.75,411.95C2165.02,411.917 2165.23,411.833 2165.4,411.7C2165.53,411.5 2165.6,411.25 2165.6,410.95C2165.57,410.883 2165.57,410.8 2165.6,410.7L2165.6,410.3C2165.53,407.933 2164.92,405.717 2163.75,403.65L2163.7,403.65C2163.63,403.55 2163.6,403.45 2163.6,403.35C2163.47,403.15 2163.27,403 2163,402.9C2162.8,402.8 2162.58,402.817 2162.35,402.95L2160.35,403.5M2165.4,376.15C2165.23,375.983 2165.02,375.9 2164.75,375.9L2160.7,375.3C2159.87,375.167 2159.05,375.117 2158.25,375.15C2156.18,375.183 2154.32,375.75 2152.65,376.85C2152.88,376.817 2153.13,376.8 2153.4,376.8L2155.65,376.8C2156.65,376.8 2157.52,377.15 2158.25,377.85C2159.08,378.617 2159.55,379.517 2159.65,380.55L2160.1,382.75C2160.2,383.283 2160.28,383.817 2160.35,384.35L2162.35,384.9C2162.58,385 2162.8,385.017 2163,384.95C2163.27,384.85 2163.47,384.683 2163.6,384.45C2163.6,384.35 2163.63,384.267 2163.7,384.2L2163.75,384.15C2164.92,382.117 2165.53,379.917 2165.6,377.55L2165.6,377.15C2165.57,377.05 2165.57,376.967 2165.6,376.9C2165.6,376.6 2165.53,376.35 2165.4,376.15Z" style="fill:rgb(65,65,65);fill-rule:nonzero;"/>
                <path d="M2167.1,412.8C2167.2,412.633 2167.3,412.467 2167.4,412.3L2165.6,410.7C2165.57,410.8 2165.57,410.883 2165.6,410.95C2165.6,411.25 2165.53,411.5 2165.4,411.7C2165.23,411.833 2165.02,411.917 2164.75,411.95L2160.7,412.55C2159.87,412.683 2159.05,412.733 2158.25,412.7C2156.18,412.667 2154.32,412.1 2152.65,411C2152.88,411.033 2153.13,411.05 2153.4,411.05L2155.65,411.05C2156.65,411.05 2157.52,410.683 2158.25,409.95C2159.08,409.217 2159.55,408.333 2159.65,407.3L2160.1,405.1C2160.2,404.567 2160.28,404.033 2160.35,403.5L2162.35,402.95C2162.58,402.817 2162.8,402.8 2163,402.9C2163.27,403 2163.47,403.15 2163.6,403.35C2163.6,403.45 2163.63,403.55 2163.7,403.65L2163.75,403.65L2164.45,401.4C2164.28,401.3 2164.1,401.2 2163.9,401.1C2163.2,400.7 2162.45,400.7 2161.65,401.1L2159.85,401.6C2159.45,401.7 2159.12,401.9 2158.85,402.2C2158.58,402.5 2158.43,402.85 2158.4,403.25C2158.33,403.517 2158.28,403.783 2158.25,404.05C2158.22,404.283 2158.18,404.517 2158.15,404.75L2158.15,404.7L2157.7,406.9C2157.67,406.967 2157.65,407.033 2157.65,407.1C2157.58,407.633 2157.35,408.083 2156.95,408.45C2156.92,408.483 2156.88,408.517 2156.85,408.55C2156.52,408.883 2156.12,409.05 2155.65,409.05L2152.95,409.05C2152.72,408.983 2152.48,408.983 2152.25,409.05C2152.05,409.083 2151.85,409.167 2151.65,409.3C2151.22,409.533 2150.93,409.867 2150.8,410.3C2150.63,410.733 2150.62,411.183 2150.75,411.65C2150.88,412.083 2151.15,412.433 2151.55,412.7C2151.78,412.833 2152.02,412.967 2152.25,413.1C2154.05,414.133 2156.05,414.683 2158.25,414.75C2159.15,414.75 2160.07,414.683 2161,414.55L2165.05,413.95L2165,413.95C2165.67,413.85 2166.22,413.617 2166.65,413.25C2166.82,413.117 2166.97,412.967 2167.1,412.8M2164.75,375.9C2165.02,375.9 2165.23,375.983 2165.4,376.15C2165.53,376.35 2165.6,376.6 2165.6,376.9C2165.57,376.967 2165.57,377.05 2165.6,377.15L2167.4,375.6C2167.3,375.4 2167.2,375.217 2167.1,375.05C2167,374.95 2166.92,374.85 2166.85,374.75C2166.35,374.217 2165.7,373.933 2164.9,373.9L2161,373.35C2160.07,373.183 2159.15,373.1 2158.25,373.1C2156.05,373.133 2154.05,373.683 2152.25,374.75C2152.02,374.883 2151.78,375.033 2151.55,375.2C2151.15,375.433 2150.88,375.783 2150.75,376.25C2150.62,376.683 2150.63,377.117 2150.8,377.55C2150.93,377.983 2151.22,378.333 2151.65,378.6C2151.85,378.7 2152.05,378.783 2152.25,378.85C2152.48,378.883 2152.72,378.883 2152.95,378.85C2153.08,378.817 2153.23,378.8 2153.4,378.8L2155.65,378.8C2156.12,378.8 2156.53,378.967 2156.9,379.3L2156.9,379.35C2157.33,379.75 2157.58,380.217 2157.65,380.75C2157.65,380.817 2157.67,380.883 2157.7,380.95L2158.15,383.15C2158.18,383.35 2158.22,383.567 2158.25,383.8C2158.28,384.067 2158.33,384.333 2158.4,384.6C2158.43,385 2158.58,385.35 2158.85,385.65C2159.12,385.95 2159.45,386.167 2159.85,386.3L2161.55,386.75C2162.28,387.05 2162.98,387.083 2163.65,386.85L2163.7,386.85C2164,386.717 2164.27,386.583 2164.5,386.45L2163.75,384.15L2163.7,384.2C2163.63,384.267 2163.6,384.35 2163.6,384.45C2163.47,384.683 2163.27,384.85 2163,384.95C2162.8,385.017 2162.58,385 2162.35,384.9L2160.35,384.35C2160.28,383.817 2160.2,383.283 2160.1,382.75L2159.65,380.55C2159.55,379.517 2159.08,378.617 2158.25,377.85C2157.52,377.15 2156.65,376.8 2155.65,376.8L2153.4,376.8C2153.13,376.8 2152.88,376.817 2152.65,376.85C2154.32,375.75 2156.18,375.183 2158.25,375.15C2159.05,375.117 2159.87,375.167 2160.7,375.3L2164.75,375.9Z" style="fill:rgb(46,46,46);fill-rule:nonzero;"/>
                <path d="M2169.6,404.05C2169.23,402.817 2168.37,402.383 2167,402.75L2163.75,403.65C2164.92,405.717 2165.53,407.933 2165.6,410.3L2165.6,410.7L2168.85,409.75C2169.15,409.683 2169.4,409.6 2169.6,409.5C2169.83,409.367 2170.02,409.217 2170.15,409.05C2170.58,408.583 2170.7,407.95 2170.5,407.15L2169.65,404.25C2169.65,404.183 2169.63,404.117 2169.6,404.05M2165.6,377.15L2165.6,377.55C2165.53,379.917 2164.92,382.117 2163.75,384.15L2167,385.05C2168.37,385.417 2169.23,385 2169.6,383.8C2169.63,383.733 2169.65,383.667 2169.65,383.6L2170.5,380.7C2170.7,379.9 2170.58,379.25 2170.15,378.75C2170.02,378.583 2169.83,378.45 2169.6,378.35C2169.4,378.25 2169.15,378.167 2168.85,378.1L2165.6,377.15Z" style="fill:rgb(255,208,163);fill-rule:nonzero;"/>
                <path d="M2167,402.75C2168.37,402.383 2169.23,402.817 2169.6,404.05C2169.63,404.117 2169.65,404.183 2169.65,404.25L2170.5,407.15C2170.7,407.95 2170.58,408.583 2170.15,409.05C2170.02,409.217 2169.83,409.367 2169.6,409.5C2169.4,409.6 2169.15,409.683 2168.85,409.75L2165.6,410.7L2167.4,412.3L2169.4,411.7C2169.47,411.667 2169.53,411.65 2169.6,411.65C2170.5,411.383 2171.18,410.967 2171.65,410.4C2172.58,409.5 2172.85,408.267 2172.45,406.7L2172.45,406.6L2171.6,403.8C2171.27,402.433 2170.65,401.533 2169.75,401.1C2169.68,401.067 2169.63,401.033 2169.6,401C2168.8,400.533 2167.75,400.483 2166.45,400.85L2166.5,400.85L2164.45,401.4L2163.75,403.65L2167,402.75M2166.5,387L2166.45,387C2167.75,387.333 2168.8,387.267 2169.6,386.8C2169.63,386.8 2169.67,386.783 2169.7,386.75C2170.6,386.317 2171.23,385.467 2171.6,384.2L2171.6,384.1L2172.45,381.3L2172.45,381.2C2172.82,379.633 2172.55,378.383 2171.65,377.45C2171.22,376.883 2170.53,376.483 2169.6,376.25C2169.53,376.217 2169.47,376.2 2169.4,376.2L2167.4,375.6L2165.6,377.15L2168.85,378.1C2169.15,378.167 2169.4,378.25 2169.6,378.35C2169.83,378.45 2170.02,378.583 2170.15,378.75C2170.58,379.25 2170.7,379.9 2170.5,380.7L2169.65,383.6C2169.65,383.667 2169.63,383.733 2169.6,383.8C2169.23,385 2168.37,385.417 2167,385.05L2163.75,384.15L2164.5,386.45L2166.5,387Z" style="fill:rgb(163,133,104);fill-rule:nonzero;"/>
            </g>
        </g>
    </g>
</svg>
