<?xml version="1.0" encoding="UTF-8" standalone="no"?>
<!DOCTYPE svg PUBLIC "-//W3C//DTD SVG 1.1//EN" "http://www.w3.org/Graphics/SVG/1.1/DTD/svg11.dtd">
<svg width="100%" height="100%" viewBox="0 0 57 57" version="1.1" xmlns="http://www.w3.org/2000/svg" xmlns:xlink="http://www.w3.org/1999/xlink" xml:space="preserve" xmlns:serif="http://www.serif.com/" style="fill-rule:evenodd;clip-rule:evenodd;stroke-linejoin:round;stroke-miterlimit:2;">
    <g transform="matrix(1,0,0,1,-551.207,-131.224)">
        <g transform="matrix(1,0,0,1,-27.4286,-16.4571)">
            <g transform="matrix(1,0,0,1,-243.363,-184.269)">
                <path d="M830.1,365.3C824.667,363.867 821.967,362.1 822,360C821.933,357.933 824.633,356.167 830.1,354.7L832.75,354.05C831.35,349.517 831.75,346.15 833.95,343.95C836.117,341.783 839.45,341.4 843.95,342.8L844.6,340.2C846.1,334.667 847.9,331.917 850,331.95C852.1,331.95 853.867,334.7 855.3,340.2L855.9,342.8C860.433,341.4 863.783,341.783 865.95,343.95C868.15,346.15 868.533,349.5 867.1,354L869.8,354.7C875.267,356.167 878.017,357.917 878.05,359.95C878.017,362.05 875.267,363.833 869.8,365.3L867.1,366C868.533,370.5 868.167,373.817 866,375.95C863.833,378.15 860.467,378.533 855.9,377.1L855.3,379.8C853.833,385.267 852.067,388.017 850,388.05C847.867,388.017 846.067,385.267 844.6,379.8L844.05,377.1C839.517,378.567 836.15,378.2 833.95,376C831.75,373.833 831.367,370.5 832.8,366L830.1,365.3M836.75,352.35L837.85,354.15C834.783,355.717 833.267,357.667 833.3,360C833.233,362.2 834.767,364.133 837.9,365.8L836.85,367.5C834.75,371.167 834.233,373.533 835.3,374.6C836.4,375.7 838.767,375.2 842.4,373.1L844.15,372C845.783,375.133 847.733,376.717 850,376.75C852.3,376.717 854.25,375.15 855.85,372.05L857.55,373.1C861.217,375.267 863.6,375.767 864.7,374.6C865.8,373.567 865.283,371.217 863.15,367.55L862.1,365.8C865.233,364.167 866.783,362.217 866.75,359.95C866.75,357.683 865.2,355.733 862.1,354.1L863.15,352.35C865.283,348.717 865.817,346.367 864.75,345.3C863.617,344.2 861.217,344.683 857.55,346.75L855.8,347.8C854.167,344.7 852.217,343.15 849.95,343.15C847.683,343.15 845.733,344.7 844.1,347.8L842.35,346.85C838.75,344.717 836.4,344.167 835.3,345.2C834.233,346.333 834.717,348.717 836.75,352.35" style="fill:rgb(255,116,25);fill-rule:nonzero;"/>
            </g>
            <g transform="matrix(1,0,0,1,-243.363,-184.269)">
                <path d="M836.75,352.35C834.717,348.717 834.233,346.333 835.3,345.2C836.4,344.167 838.75,344.717 842.35,346.85L844.1,347.8C845.733,344.7 847.683,343.15 849.95,343.15C852.217,343.15 854.167,344.7 855.8,347.8L857.55,346.75C861.217,344.683 863.617,344.2 864.75,345.3C865.817,346.367 865.283,348.717 863.15,352.35L862.1,354.1C865.2,355.733 866.75,357.683 866.75,359.95C866.783,362.217 865.233,364.167 862.1,365.8L863.15,367.55C865.283,371.217 865.8,373.567 864.7,374.6C863.6,375.767 861.217,375.267 857.55,373.1L855.85,372.05C854.25,375.15 852.3,376.717 850,376.75C847.733,376.717 845.783,375.133 844.15,372L842.4,373.1C838.767,375.2 836.4,375.7 835.3,374.6C834.233,373.533 834.75,371.167 836.85,367.5L837.9,365.8C834.767,364.133 833.233,362.2 833.3,360C833.267,357.667 834.783,355.717 837.85,354.15L836.75,352.35" style="fill:rgb(231,105,22);fill-rule:nonzero;"/>
            </g>
            <g transform="matrix(1,0,0,1,-243.363,-184.269)">
                <path d="M840.5,351.95L840.7,352.35L840.55,352.85C840.217,353.883 840.283,355.2 840.75,356.8C841.05,357.8 841.45,358.75 841.95,359.65L842,359.95L841.95,360.4C841.45,361.3 841.083,362.2 840.85,363.1C840.35,364.767 840.283,366.117 840.65,367.15L840.7,367.65L840.45,368L838.65,370.2C836.317,373.1 835.183,374.6 835.25,374.7L839.75,371.35L839.8,371.3L842,369.55L842.35,369.3L842.8,369.35L846.85,369.1C847.783,368.9 848.7,368.567 849.6,368.1C849.733,368 849.867,367.95 850,367.95C850.133,367.95 850.267,368 850.4,368.1L853.05,369.1L853.15,369.15L857.2,369.35L857.6,369.35L858.1,369.55L860.2,371.35L864.7,374.7L861.3,370.25L859.5,368.05L859.3,367.65L859.3,367.25C859.7,366.117 859.65,364.733 859.15,363.1L858.1,360.45L857.95,360L858.05,359.65L859.2,356.75L859.2,356.85C859.667,355.183 859.717,353.85 859.35,352.85L859.3,352.35L859.45,352L861.3,349.75L864.7,345.25C864.467,345.283 862.967,346.417 860.2,348.65L858.1,350.5L857.65,350.6L857.25,350.6L853.15,350.8C852.217,351.067 851.3,351.433 850.4,351.9L849.95,352L849.55,351.9C848.683,351.433 847.767,351.067 846.8,350.8L842.75,350.6L842.35,350.65L841.95,350.5L839.8,348.65L835.25,345.3C835.183,345.433 836.333,346.917 838.7,349.75L840.5,351.95M864.25,371.6C867.483,375.533 868.817,377.767 868.25,378.3C867.717,378.833 865.467,377.5 861.5,374.3L858.9,372.15L853.4,371.9C852.233,371.6 851.083,371.133 849.95,370.5C848.85,371.167 847.733,371.633 846.6,371.9L841.05,372.1L838.45,374.3C834.517,377.5 832.267,378.817 831.7,378.25C831.167,377.717 832.483,375.5 835.65,371.6L837.85,368.9C837.35,367.467 837.433,365.667 838.1,363.5C838.433,362.3 838.883,361.15 839.45,360.05C838.85,358.883 838.367,357.7 838,356.5C837.4,354.333 837.35,352.533 837.85,351.1L835.65,348.5C832.483,344.533 831.167,342.283 831.7,341.75C832.267,341.217 834.517,342.533 838.45,345.7L841,347.9L846.4,348.1C847.633,348.367 848.833,348.817 850,349.45C851.167,348.85 852.333,348.4 853.5,348.1L858.9,347.85L861.55,345.7C865.483,342.533 867.717,341.217 868.25,341.75C868.817,342.317 867.483,344.567 864.25,348.5L862.05,351C862.617,352.5 862.6,354.317 862,356.45C861.633,357.683 861.117,358.867 860.45,360C861.083,361.1 861.55,362.267 861.85,363.5C862.517,365.633 862.6,367.45 862.1,368.95L864.25,371.6" style="fill:rgb(255,204,0);fill-rule:nonzero;"/>
            </g>
            <g transform="matrix(1,0,0,1,-243.363,-184.269)">
                <path d="M840.5,351.95L838.7,349.75C836.333,346.917 835.183,345.433 835.25,345.3L839.8,348.65L841.95,350.5L842.35,350.65L842.75,350.6L846.8,350.8C847.767,351.067 848.683,351.433 849.55,351.9L849.95,352L850.4,351.9C851.3,351.433 852.217,351.067 853.15,350.8L857.25,350.6L857.65,350.6L858.1,350.5L860.2,348.65C862.967,346.417 864.467,345.283 864.7,345.25L861.3,349.75L859.45,352L859.3,352.35L859.35,352.85C859.717,353.85 859.667,355.183 859.2,356.85L859.2,356.75L858.05,359.65L857.95,360L858.1,360.45L859.15,363.1C859.65,364.733 859.7,366.117 859.3,367.25L859.3,367.65L859.5,368.05L861.3,370.25L864.7,374.7L860.2,371.35L858.1,369.55L857.6,369.35L857.2,369.35L853.15,369.15L853.05,369.1L850.4,368.1C850.267,368 850.133,367.95 850,367.95C849.867,367.95 849.733,368 849.6,368.1C848.7,368.567 847.783,368.9 846.85,369.1L842.8,369.35L842.35,369.3L842,369.55L839.8,371.3L839.75,371.35L835.25,374.7C835.183,374.6 836.317,373.1 838.65,370.2L840.45,368L840.7,367.65L840.65,367.15C840.283,366.117 840.35,364.767 840.85,363.1C841.083,362.2 841.45,361.3 841.95,360.4L842,359.95L841.95,359.65C841.45,358.75 841.05,357.8 840.75,356.8C840.283,355.2 840.217,353.883 840.55,352.85L840.7,352.35L840.5,351.95" style="fill:rgb(240,192,0);fill-rule:nonzero;"/>
            </g>
            <g transform="matrix(1,0,0,1,-243.363,-184.269)">
                <path d="M851.25,351L851.5,358.5L859,358.75C861.933,358.95 863.367,359.367 863.3,360C863.367,360.633 861.933,361.05 859,361.25L851.5,361.5L851.25,369C851.05,371.967 850.633,373.4 850,373.3C849.367,373.4 848.95,371.967 848.75,369C848.583,366.9 848.5,364.4 848.5,361.5L841,361.25C838.033,361.05 836.6,360.633 836.7,360C836.6,359.367 838.033,358.95 841,358.75L848.5,358.5C848.5,355.633 848.583,353.133 848.75,351C848.95,348.067 849.367,346.633 850,346.7C850.633,346.633 851.05,348.067 851.25,351" style="fill:white;fill-rule:nonzero;"/>
            </g>
        </g>
    </g>
</svg>
