<?xml version="1.0" encoding="UTF-8" standalone="no"?>
<!DOCTYPE svg PUBLIC "-//W3C//DTD SVG 1.1//EN" "http://www.w3.org/Graphics/SVG/1.1/DTD/svg11.dtd">
<svg width="100%" height="100%" viewBox="0 0 47 45" version="1.1" xmlns="http://www.w3.org/2000/svg" xmlns:xlink="http://www.w3.org/1999/xlink" xml:space="preserve" xmlns:serif="http://www.serif.com/" style="fill-rule:evenodd;clip-rule:evenodd;stroke-linejoin:round;stroke-miterlimit:2;">
    <g transform="matrix(1,0,0,1,-716.208,-137.074)">
        <g transform="matrix(1,0,0,1,-27.4286,-16.4571)">
            <g transform="matrix(1,0,0,1,-243.363,-184.269)">
                <path d="M1004.5,346.75C1004.23,347.45 1003.83,348.033 1003.3,348.5C1002.7,349 1002.05,349.3 1001.35,349.4C999.85,349.633 998.55,350.317 997.45,351.45L997.45,351.5C996.15,352.767 995.45,354.3 995.35,356.1L994.8,357.9L993.5,359.3L993.25,359.5L993.15,359.65C991.717,361.05 991,362.767 991,364.8C991,366.833 991.733,368.583 993.2,370.05C994.333,371.183 995.667,371.867 997.2,372.1C997.8,372.2 998.367,372.433 998.9,372.8C999.433,373.167 999.85,373.633 1000.15,374.2L1001.55,376.05C1002.98,377.483 1004.7,378.2 1006.7,378.2L1006.75,378.2C1008.38,378.233 1009.82,377.8 1011.05,376.9C1011.62,376.5 1012.25,376.267 1012.95,376.2L1014.95,376.45C1015.92,376.85 1016.95,377.067 1018.05,377.1L1018.15,377.1C1020.12,377.067 1021.82,376.35 1023.25,374.95C1024.68,373.483 1025.4,371.733 1025.4,369.7L1025.35,368.9C1025.25,368.267 1025.3,367.65 1025.5,367.05C1025.7,366.45 1026.03,365.933 1026.5,365.5L1026.9,365.1L1026.9,365.05C1028.33,363.617 1029.05,361.883 1029.05,359.85C1029.05,357.983 1028.43,356.367 1027.2,355C1026.8,354.533 1026.52,354.033 1026.35,353.5C1026.15,352.9 1026.1,352.317 1026.2,351.75L1026.3,350.15C1026.3,348.117 1025.6,346.4 1024.2,345C1022.77,343.567 1021.02,342.833 1018.95,342.8L1018.9,342.8L1017.5,342.95C1016.53,343.15 1015.63,343.033 1014.8,342.6C1013.8,342.067 1012.72,341.8 1011.55,341.8L1011.5,341.8C1009.43,341.833 1007.7,342.567 1006.3,344C1005.43,344.833 1004.83,345.75 1004.5,346.75M1026.05,377.75C1023.82,379.983 1021.15,381.1 1018.05,381.1C1016.38,381.067 1014.83,380.75 1013.4,380.15C1011.47,381.55 1009.23,382.233 1006.7,382.2C1003.6,382.2 1000.93,381.083 998.7,378.85C997.833,377.983 997.133,377.05 996.6,376.05C994.2,375.683 992.117,374.617 990.35,372.85C988.117,370.617 987,367.933 987,364.8C987,361.667 988.1,359 990.3,356.8L991.35,355.9C991.483,353.1 992.567,350.683 994.6,348.65C996.333,346.883 998.367,345.817 1000.7,345.45C1001.23,343.883 1002.15,342.45 1003.45,341.15C1005.65,338.95 1008.33,337.833 1011.5,337.8C1013.37,337.8 1015.08,338.217 1016.65,339.05L1018.95,338.8C1022.12,338.833 1024.8,339.95 1027,342.15C1029.2,344.35 1030.3,347.017 1030.3,350.15L1030.15,352.3C1032.08,354.433 1033.05,356.95 1033.05,359.85C1033.05,363.017 1031.93,365.7 1029.7,367.9L1029.3,368.3L1029.4,369.7C1029.4,372.833 1028.28,375.517 1026.05,377.75M1006.7,351.55L1006.65,351.6C1006.82,351.1 1007.13,350.583 1007.6,350.05L1007.9,349.75C1008.77,348.917 1009.82,348.5 1011.05,348.5L1011.1,348.5C1011.83,348.467 1012.5,348.617 1013.1,348.95L1013.2,349C1013.7,349.233 1014.23,349.333 1014.8,349.3L1014.9,349.25L1015.85,349.15L1015.9,349.15C1017.1,349.15 1018.17,349.567 1019.1,350.4L1019.2,350.5C1020.07,351.333 1020.5,352.417 1020.5,353.75L1020.5,353.95L1020.45,354.65L1020.5,355.9L1021.15,357L1021.15,357.1C1021.92,357.9 1022.3,358.867 1022.3,360L1022.3,360.05C1022.3,361.317 1021.85,362.417 1020.95,363.35L1020.7,363.6L1020.7,363.55L1020,364.7L1020,364.65C1019.87,365.017 1019.83,365.417 1019.9,365.85L1019.95,366.3L1019.95,366.4C1019.92,367.767 1019.42,368.9 1018.45,369.8C1017.65,370.567 1016.72,370.983 1015.65,371.05L1015.4,371.05L1013.8,370.8L1013.4,370.7L1012,370.45C1011.5,370.45 1011.07,370.617 1010.7,370.95L1010.65,370.95C1009.92,371.55 1009.05,371.817 1008.05,371.75L1007.95,371.75C1006.68,371.75 1005.62,371.317 1004.75,370.45L1004.5,370.15L1004.15,369.7L1003.9,369.3L1003.05,368.35L1003,368.3L1001.85,367.8L1001.6,367.75C1000.83,367.583 1000.13,367.217 999.5,366.65L999.2,366.4C998.367,365.5 997.95,364.433 997.95,363.2L997.95,363.15C997.917,362.05 998.333,361.033 999.2,360.1L999.3,359.95L999.35,359.9L999.75,359.6L1000.45,358.75L1000.75,357.6L1000.8,357.55C1000.87,356.55 1001.25,355.633 1001.95,354.8L1002.1,354.7C1002.83,353.933 1003.65,353.517 1004.55,353.45L1005.85,352.8L1006.7,351.55M1018.9,356C1018.6,354.867 1018.57,353.75 1018.8,352.65L1018.8,352.4C1018.8,351.933 1018.65,351.55 1018.35,351.25C1018.02,350.95 1017.63,350.8 1017.2,350.8L1017.15,350.8L1016.6,350.85C1014.97,351.117 1013.43,350.867 1012,350.1L1011.35,350L1011.3,350C1010.83,350 1010.43,350.15 1010.1,350.45L1009.75,351.05C1009.28,352.317 1008.53,353.4 1007.5,354.3C1006.47,355.167 1005.28,355.717 1003.95,355.95C1003.68,355.983 1003.43,356.117 1003.2,356.35C1002.93,356.65 1002.78,356.983 1002.75,357.35C1002.68,358.383 1002.4,359.383 1001.9,360.35C1001.4,361.283 1000.72,362.067 999.85,362.7L999.8,362.75C999.5,363.083 999.35,363.45 999.35,363.85L999.35,363.9C999.35,364.367 999.5,364.767 999.8,365.1L1000.65,365.55C1001.78,365.717 1002.83,366.15 1003.8,366.85C1004.73,367.483 1005.48,368.333 1006.05,369.4L1006.4,369.85C1006.7,370.15 1007.07,370.3 1007.5,370.3L1007.6,370.3L1008.45,370.1C1009.52,369.3 1010.72,368.833 1012.05,368.7C1013.38,368.567 1014.65,368.783 1015.85,369.35L1016.55,369.45C1016.95,369.417 1017.3,369.25 1017.6,368.95C1017.93,368.65 1018.1,368.267 1018.1,367.8L1018.1,367.65C1017.93,366.517 1018.03,365.417 1018.4,364.35C1018.8,363.283 1019.38,362.35 1020.15,361.55L1020.45,361.25C1020.78,360.917 1020.95,360.517 1020.95,360.05L1020.95,360C1020.95,359.633 1020.83,359.317 1020.6,359.05C1019.77,358.15 1019.2,357.133 1018.9,356" style="fill:rgb(231,105,22);fill-rule:nonzero;"/>
            </g>
            <g transform="matrix(1,0,0,1,-243.363,-184.269)">
                <path d="M1004.5,346.75C1004.83,345.75 1005.43,344.833 1006.3,344C1007.7,342.567 1009.43,341.833 1011.5,341.8L1011.55,341.8C1012.72,341.8 1013.8,342.067 1014.8,342.6C1015.63,343.033 1016.53,343.15 1017.5,342.95L1018.9,342.8L1018.95,342.8C1021.02,342.833 1022.77,343.567 1024.2,345C1025.6,346.4 1026.3,348.117 1026.3,350.15L1026.2,351.75C1026.1,352.317 1026.15,352.9 1026.35,353.5C1026.52,354.033 1026.8,354.533 1027.2,355C1028.43,356.367 1029.05,357.983 1029.05,359.85C1029.05,361.883 1028.33,363.617 1026.9,365.05L1026.9,365.1L1026.5,365.5C1026.03,365.933 1025.7,366.45 1025.5,367.05C1025.3,367.65 1025.25,368.267 1025.35,368.9L1025.4,369.7C1025.4,371.733 1024.68,373.483 1023.25,374.95C1021.82,376.35 1020.12,377.067 1018.15,377.1L1018.05,377.1C1016.95,377.067 1015.92,376.85 1014.95,376.45L1012.95,376.2C1012.25,376.267 1011.62,376.5 1011.05,376.9C1009.82,377.8 1008.38,378.233 1006.75,378.2L1006.7,378.2C1004.7,378.2 1002.98,377.483 1001.55,376.05L1000.15,374.2C999.85,373.633 999.433,373.167 998.9,372.8C998.367,372.433 997.8,372.2 997.2,372.1C995.667,371.867 994.333,371.183 993.2,370.05C991.733,368.583 991,366.833 991,364.8C991,362.767 991.717,361.05 993.15,359.65L993.25,359.5L993.5,359.3L994.8,357.9L995.35,356.1C995.45,354.3 996.15,352.767 997.45,351.5L997.45,351.45C998.55,350.317 999.85,349.633 1001.35,349.4C1002.05,349.3 1002.7,349 1003.3,348.5C1003.83,348.033 1004.23,347.45 1004.5,346.75M1006.7,351.55L1005.85,352.8L1004.55,353.45C1003.65,353.517 1002.83,353.933 1002.1,354.7L1001.95,354.8C1001.25,355.633 1000.87,356.55 1000.8,357.55L1000.75,357.6L1000.45,358.75L999.75,359.6L999.35,359.9L999.3,359.95L999.2,360.1C998.333,361.033 997.917,362.05 997.95,363.15L997.95,363.2C997.95,364.433 998.367,365.5 999.2,366.4L999.5,366.65C1000.13,367.217 1000.83,367.583 1001.6,367.75L1001.85,367.8L1003,368.3L1003.05,368.35L1003.9,369.3L1004.15,369.7L1004.5,370.15L1004.75,370.45C1005.62,371.317 1006.68,371.75 1007.95,371.75L1008.05,371.75C1009.05,371.817 1009.92,371.55 1010.65,370.95L1010.7,370.95C1011.07,370.617 1011.5,370.45 1012,370.45L1013.4,370.7L1013.8,370.8L1015.4,371.05L1015.65,371.05C1016.72,370.983 1017.65,370.567 1018.45,369.8C1019.42,368.9 1019.92,367.767 1019.95,366.4L1019.95,366.3L1019.9,365.85C1019.83,365.417 1019.87,365.017 1020,364.65L1020,364.7L1020.7,363.55L1020.7,363.6L1020.95,363.35C1021.85,362.417 1022.3,361.317 1022.3,360.05L1022.3,360C1022.3,358.867 1021.92,357.9 1021.15,357.1L1021.15,357L1020.5,355.9L1020.45,354.65L1020.5,353.95L1020.5,353.75C1020.5,352.417 1020.07,351.333 1019.2,350.5L1019.1,350.4C1018.17,349.567 1017.1,349.15 1015.9,349.15L1015.85,349.15L1014.9,349.25L1014.8,349.3C1014.23,349.333 1013.7,349.233 1013.2,349L1013.1,348.95C1012.5,348.617 1011.83,348.467 1011.1,348.5L1011.05,348.5C1009.82,348.5 1008.77,348.917 1007.9,349.75L1007.6,350.05C1007.13,350.583 1006.82,351.1 1006.65,351.6L1006.7,351.55" style="fill:rgb(255,116,25);fill-rule:nonzero;"/>
            </g>
            <g transform="matrix(1,0,0,1,-243.363,-184.269)">
                <path d="M1011.45,358.15C1011.05,358.55 1010.57,358.767 1010,358.8C1009.43,358.767 1008.95,358.55 1008.55,358.15L1001.3,351.3L1008.15,358.55C1008.55,358.95 1008.75,359.45 1008.75,360.05C1008.75,360.583 1008.55,361.05 1008.15,361.45C1005.52,364.083 1003.23,366.5 1001.3,368.7L1008.55,361.85C1008.95,361.45 1009.43,361.267 1010,361.3C1010.57,361.267 1011.05,361.45 1011.45,361.85L1018.7,368.7L1011.85,361.45C1011.45,361.05 1011.25,360.583 1011.25,360.05C1011.25,359.45 1011.45,358.95 1011.85,358.55L1018.7,351.3C1016.5,353.233 1014.08,355.517 1011.45,358.15M1021.1,351.6L1013.3,360C1016.4,363.1 1019,365.9 1021.1,368.4C1024.1,371.8 1025.2,373.8 1024.4,374.4C1023.8,375.2 1021.8,374.1 1018.4,371.1C1015.9,369 1013.1,366.4 1010,363.3C1006.87,366.433 1004.07,369.033 1001.6,371.1C998.167,374.133 996.167,375.233 995.6,374.4C994.767,373.833 995.867,371.833 998.9,368.4C1000.97,365.933 1003.57,363.133 1006.7,360C1003.57,356.867 1000.97,354.067 998.9,351.6C995.867,348.167 994.767,346.167 995.6,345.6C996.167,344.767 998.167,345.867 1001.6,348.9C1004.07,350.967 1006.87,353.567 1010,356.7C1013.1,353.6 1015.9,351 1018.4,348.9C1021.8,345.9 1023.8,344.8 1024.4,345.6C1025.2,346.2 1024.1,348.2 1021.1,351.6M1022.85,373.15L1023.15,372.85L1022.85,372.85L1022.85,373.15M1023.15,347.15L1022.85,346.85L1022.85,347.15L1023.15,347.15" style="fill:rgb(255,204,0);fill-rule:nonzero;"/>
            </g>
            <g transform="matrix(1,0,0,1,-243.363,-184.269)">
                <path d="M1011.45,358.15C1014.08,355.517 1016.5,353.233 1018.7,351.3L1011.85,358.55C1011.45,358.95 1011.25,359.45 1011.25,360.05C1011.25,360.583 1011.45,361.05 1011.85,361.45L1018.7,368.7L1011.45,361.85C1011.05,361.45 1010.57,361.267 1010,361.3C1009.43,361.267 1008.95,361.45 1008.55,361.85L1001.3,368.7C1003.23,366.5 1005.52,364.083 1008.15,361.45C1008.55,361.05 1008.75,360.583 1008.75,360.05C1008.75,359.45 1008.55,358.95 1008.15,358.55L1001.3,351.3L1008.55,358.15C1008.95,358.55 1009.43,358.767 1010,358.8C1010.57,358.767 1011.05,358.55 1011.45,358.15" style="fill:rgb(240,192,0);fill-rule:nonzero;"/>
            </g>
            <g transform="matrix(1,0,0,1,-243.363,-184.269)">
                <path d="M1023.15,347.15L1022.85,347.15L1022.85,346.85L1023.15,347.15M1022.85,373.15L1022.85,372.85L1023.15,372.85L1022.85,373.15" style="fill:rgb(236,188,0);fill-rule:nonzero;"/>
            </g>
        </g>
    </g>
</svg>
