<?xml version="1.0" encoding="UTF-8" standalone="no"?>
<!DOCTYPE svg PUBLIC "-//W3C//DTD SVG 1.1//EN" "http://www.w3.org/Graphics/SVG/1.1/DTD/svg11.dtd">
<svg width="100%" height="100%" viewBox="0 0 60 60" version="1.1" xmlns="http://www.w3.org/2000/svg" xmlns:xlink="http://www.w3.org/1999/xlink" xml:space="preserve" xmlns:serif="http://www.serif.com/" style="fill-rule:evenodd;clip-rule:evenodd;stroke-linejoin:round;stroke-miterlimit:2;">
    <g transform="matrix(1,0,0,1,-469.504,-129.57)">
        <g transform="matrix(1,0,0,1,-27.4286,-16.4571)">
            <g transform="matrix(1,0,0,1,-243.363,-184.269)">
                <path d="M781.3,351.35L777.7,355.45L778.45,357.1L790.45,357.6C796.75,358.067 799.833,358.867 799.7,360C799.8,361.1 796.717,361.9 790.45,362.4L778.45,362.9L777.7,364.55L781.3,368.55C784.3,371.95 785.4,373.967 784.6,374.6C784.033,375.333 782.017,374.233 778.55,371.3L774.6,367.7L772.9,368.45L772.4,380.45C771.933,386.75 771.133,389.833 770,389.7C768.9,389.8 768.1,386.717 767.6,380.45C767.333,376.917 767.167,372.917 767.1,368.45C766.5,368.25 765.95,368 765.45,367.7L761.4,371.25C758,374.25 756,375.367 755.4,374.6C754.633,374 755.733,371.983 758.7,368.55L762.3,364.55L761.55,362.95L749.55,362.4C743.25,361.9 740.167,361.1 740.3,360C740.167,358.867 743.25,358.067 749.55,357.6L761.55,357.1L762.35,355.45L758.7,351.4C755.733,347.933 754.617,345.917 755.35,345.35C755.983,344.583 758,345.7 761.4,348.7L765.5,352.3C766,352 766.533,351.75 767.1,351.55L767.6,339.55C768.1,333.25 768.9,330.167 770,330.3C771.133,330.167 771.933,333.25 772.4,339.55L772.9,351.55C773.467,351.75 774.017,352 774.55,352.3C775.983,350.967 777.333,349.767 778.6,348.7C782.033,345.7 784.05,344.583 784.65,345.35C785.417,345.95 784.3,347.95 781.3,351.35" style="fill:white;fill-rule:nonzero;"/>
            </g>
        </g>
    </g>
</svg>
