<?xml version="1.0" encoding="UTF-8" standalone="no"?>
<!DOCTYPE svg PUBLIC "-//W3C//DTD SVG 1.1//EN" "http://www.w3.org/Graphics/SVG/1.1/DTD/svg11.dtd">
<svg width="100%" height="100%" viewBox="0 0 53 52" version="1.1" xmlns="http://www.w3.org/2000/svg" xmlns:xlink="http://www.w3.org/1999/xlink" xml:space="preserve" xmlns:serif="http://www.serif.com/" style="fill-rule:evenodd;clip-rule:evenodd;stroke-linejoin:round;stroke-miterlimit:2;">
    <g transform="matrix(1,0,0,1,-792.808,-133.524)">
        <g transform="matrix(1,0,0,1,-27.4286,-16.4571)">
            <g transform="matrix(1,0,0,1,-243.363,-184.269)">
                <path d="M1095.7,337.7C1096.17,338.6 1096.4,339.583 1096.4,340.65C1096.4,342.417 1095.77,343.917 1094.5,345.15C1093.57,346.117 1092.48,346.717 1091.25,346.95L1090,347.05C1088.5,347.05 1087.18,346.6 1086.05,345.7L1085.45,345.15C1084.22,343.917 1083.6,342.417 1083.6,340.65L1083.6,340.3C1083.7,338.667 1084.32,337.267 1085.45,336.1C1086.72,334.867 1088.23,334.25 1090,334.25C1091.77,334.25 1093.27,334.867 1094.5,336.1L1095.7,337.7M1087,336.7C1086.2,337.467 1085.82,338.433 1085.85,339.6L1085.85,339.65C1085.85,340.85 1086.23,341.867 1087,342.7L1087.05,342.75C1087.88,343.517 1088.9,343.9 1090.1,343.9L1090.25,343.9C1091.35,343.933 1092.3,343.567 1093.1,342.8L1093.1,342.75C1093.9,341.917 1094.32,340.933 1094.35,339.8L1094.35,339.65L1094,338L1093.1,336.7C1092.23,335.867 1091.23,335.433 1090.1,335.4L1090.05,335.4C1088.88,335.433 1087.87,335.867 1087,336.7M1101.65,342.45C1102.35,341.983 1103.18,341.75 1104.15,341.75C1105.45,341.783 1106.57,342.25 1107.5,343.15C1108.4,344.083 1108.87,345.2 1108.9,346.5C1108.9,347.433 1108.68,348.283 1108.25,349.05L1107.55,349.9C1106.58,350.833 1105.45,351.283 1104.15,351.25L1102.3,350.9L1100.8,349.9C1100.23,349.333 1099.83,348.683 1099.6,347.95L1099.4,346.5C1099.37,345.2 1099.83,344.067 1100.8,343.1L1101.65,342.45M1110.2,354.25C1111.87,354.283 1113.32,354.9 1114.55,356.1C1115.78,357.367 1116.4,358.883 1116.4,360.65C1116.4,362.417 1115.78,363.917 1114.55,365.15L1112.65,366.5L1110,367.05C1108.23,367.05 1106.73,366.417 1105.5,365.15C1104.5,364.183 1103.9,363.067 1103.7,361.8L1103.6,360.65C1103.6,359.217 1104.02,357.95 1104.85,356.85L1105.5,356.1C1106.43,355.167 1107.53,354.583 1108.8,354.35L1110,354.25L1110.2,354.25M1107.6,372.4C1108.07,373.067 1108.3,373.867 1108.3,374.8C1108.27,375.933 1107.85,376.9 1107.05,377.7C1106.25,378.5 1105.28,378.917 1104.15,378.95C1102.95,378.95 1101.97,378.55 1101.2,377.75C1100.37,376.917 1099.97,375.933 1100,374.8L1100.05,374.1C1100.18,373.2 1100.57,372.45 1101.2,371.85C1101.67,371.35 1102.22,371.017 1102.85,370.85L1104.15,370.65C1105.28,370.617 1106.27,371.017 1107.1,371.85L1107.6,372.4M1095.1,379.8L1095.15,380.65C1095.15,382.083 1094.63,383.283 1093.6,384.25C1092.63,385.283 1091.43,385.8 1090,385.8C1088.57,385.8 1087.35,385.283 1086.35,384.25C1085.68,383.617 1085.25,382.867 1085.05,382L1084.85,380.65C1084.85,379.217 1085.35,378 1086.35,377C1086.85,376.5 1087.4,376.133 1088,375.9L1090,375.5C1091.43,375.5 1092.63,376 1093.6,377L1093.75,377.15C1094.48,377.917 1094.93,378.8 1095.1,379.8M1080.5,381C1079.17,382 1077.63,382.483 1075.9,382.45C1073.73,382.45 1071.9,381.717 1070.4,380.25C1068.93,378.75 1068.2,376.917 1068.2,374.75C1068.2,374.183 1068.25,373.633 1068.35,373.1C1068.62,371.7 1069.28,370.45 1070.35,369.35C1071.05,368.65 1071.82,368.117 1072.65,367.75C1073.65,367.283 1074.73,367.05 1075.9,367.05C1077.6,367.083 1079.12,367.6 1080.45,368.6L1081.3,369.35C1082.33,370.383 1083.02,371.567 1083.35,372.9L1083.6,374.75C1083.6,376.917 1082.83,378.767 1081.3,380.3L1080.5,381M1066.85,366.2L1065.5,365.15C1064.23,363.917 1063.6,362.417 1063.6,360.65C1063.6,358.883 1064.23,357.367 1065.5,356.1L1067,355C1067.9,354.5 1068.9,354.25 1070,354.25C1070.97,354.25 1071.85,354.433 1072.65,354.8C1073.35,355.1 1073.98,355.533 1074.55,356.1C1075.12,356.667 1075.55,357.3 1075.85,358L1076.25,359.1L1076.4,360.65L1076.3,361.9L1075.75,363.5L1074.55,365.15L1072.65,366.5L1070,367.05C1068.83,367.05 1067.78,366.767 1066.85,366.2M1071.7,348.7C1071.37,348.067 1071.22,347.35 1071.25,346.55C1071.25,345.25 1071.7,344.15 1072.6,343.25C1073.5,342.35 1074.6,341.9 1075.9,341.9C1076.77,341.867 1077.55,342.067 1078.25,342.5L1079.2,343.2C1080.1,344.133 1080.55,345.25 1080.55,346.55L1080.3,348.05C1080.07,348.717 1079.7,349.317 1079.2,349.85L1077.45,350.95L1075.9,351.2C1074.6,351.2 1073.48,350.75 1072.55,349.85L1071.7,348.7M1073.15,344.15C1072.52,344.75 1072.22,345.517 1072.25,346.45C1072.25,347.283 1072.47,348 1072.9,348.6L1073.15,348.9L1073.2,348.9C1073.87,349.533 1074.67,349.85 1075.6,349.85L1075.7,349.85L1076.3,349.8C1076.9,349.7 1077.45,349.417 1077.95,348.95L1077.95,348.9C1078.48,348.333 1078.8,347.7 1078.9,347L1078.95,346.55L1078.95,346.45C1078.92,345.583 1078.58,344.817 1077.95,344.15L1077.85,344.05C1077.22,343.45 1076.47,343.133 1075.6,343.1L1075.55,343.1C1074.62,343.133 1073.82,343.467 1073.15,344.1L1073.15,344.15M1101.65,345.3C1101.12,345.833 1100.87,346.483 1100.9,347.25L1100.9,347.3C1100.9,348.1 1101.15,348.783 1101.65,349.35L1101.7,349.35C1102.03,349.65 1102.42,349.883 1102.85,350.05L1103.75,350.15L1103.85,350.15C1104.58,350.15 1105.22,349.9 1105.75,349.4L1105.75,349.35L1106.35,348.5L1106.6,347.4L1106.6,347.3C1106.57,346.533 1106.28,345.867 1105.75,345.3C1105.18,344.733 1104.52,344.45 1103.75,344.45L1103.7,344.45C1102.93,344.45 1102.25,344.733 1101.65,345.3M1071.3,372.2C1070.67,372.8 1070.27,373.517 1070.1,374.35C1070,374.75 1069.95,375.167 1069.95,375.6L1069.95,375.65C1069.95,377.05 1070.4,378.25 1071.3,379.25L1071.35,379.3C1072.35,380.2 1073.55,380.65 1074.95,380.65L1075.1,380.65C1076.4,380.683 1077.52,380.25 1078.45,379.35L1078.45,379.3L1079.1,378.55C1079.63,377.717 1079.92,376.8 1079.95,375.8L1079.95,375.65L1079.9,374.85C1079.73,374.05 1079.4,373.333 1078.9,372.7L1078.45,372.2C1077.45,371.2 1076.28,370.683 1074.95,370.65L1074.9,370.65C1074.07,370.683 1073.32,370.867 1072.65,371.2C1072.15,371.433 1071.7,371.75 1071.3,372.15L1071.3,372.2M1067.65,357.6C1066.85,358.367 1066.47,359.333 1066.5,360.5L1066.5,360.55C1066.5,361.75 1066.88,362.767 1067.65,363.6L1067.7,363.65L1068,363.9C1068.77,364.5 1069.68,364.8 1070.75,364.8L1070.9,364.8L1072.65,364.45L1073.75,363.7L1073.75,363.65L1073.9,363.5C1074.43,362.9 1074.78,362.217 1074.95,361.45L1075,360.7L1075,360.55L1074.9,359.75C1074.77,359.117 1074.5,358.533 1074.1,358L1073.75,357.6L1072.65,356.8C1072.05,356.5 1071.42,356.333 1070.75,356.3L1070.7,356.3C1069.63,356.333 1068.68,356.717 1067.85,357.45L1067.65,357.6M1106.1,356.85L1105.9,357.1C1105.2,357.833 1104.87,358.767 1104.9,359.9L1104.9,359.95L1105.05,361.15C1105.22,361.917 1105.57,362.6 1106.1,363.2L1106.15,363.25C1107.05,364.05 1108.13,364.45 1109.4,364.45L1109.55,364.45C1110.45,364.483 1111.25,364.267 1111.95,363.8L1112.55,363.3L1112.55,363.25C1113.42,362.35 1113.87,361.3 1113.9,360.1L1113.9,359.95C1113.87,358.75 1113.42,357.717 1112.55,356.85C1111.68,355.983 1110.7,355.517 1109.6,355.45L1109.35,355.45C1108.08,355.483 1107,355.933 1106.1,356.8L1106.1,356.85M1088.35,378.2L1088.3,378.25C1087.8,378.75 1087.53,379.4 1087.5,380.2L1087.5,380.3C1087.5,381.2 1087.78,381.967 1088.35,382.6L1088.4,382.6C1089.03,383.167 1089.77,383.45 1090.6,383.45L1090.7,383.45C1091.5,383.45 1092.2,383.167 1092.8,382.6C1093.4,381.967 1093.7,381.233 1093.7,380.4L1093.7,380.3C1093.7,379.5 1093.4,378.8 1092.8,378.2C1092.17,377.567 1091.43,377.233 1090.6,377.2C1089.73,377.233 1088.98,377.55 1088.35,378.15L1088.35,378.2M1104,373C1103.33,373 1102.78,373.233 1102.35,373.7C1101.85,374.167 1101.6,374.733 1101.6,375.4C1101.6,376.033 1101.83,376.583 1102.3,377.05L1102.4,377.1C1102.83,377.567 1103.37,377.8 1104,377.8C1104.67,377.8 1105.25,377.567 1105.75,377.1C1106.18,376.633 1106.4,376.067 1106.4,375.4C1106.4,374.767 1106.18,374.217 1105.75,373.75L1105.7,373.65C1105.2,373.217 1104.63,373 1104,373" style="fill:rgb(231,105,22);fill-rule:nonzero;"/>
            </g>
            <g transform="matrix(1,0,0,1,-243.363,-184.269)">
                <path d="M1087,336.7C1087.87,335.867 1088.88,335.433 1090.05,335.4L1090.1,335.4C1091.23,335.433 1092.23,335.867 1093.1,336.7L1094,338L1094.35,339.65L1094.35,339.8C1094.32,340.933 1093.9,341.917 1093.1,342.75L1093.1,342.8C1092.3,343.567 1091.35,343.933 1090.25,343.9L1090.1,343.9C1088.9,343.9 1087.88,343.517 1087.05,342.75L1087,342.7C1086.23,341.867 1085.85,340.85 1085.85,339.65L1085.85,339.6C1085.82,338.433 1086.2,337.467 1087,336.7M1101.65,345.3C1102.25,344.733 1102.93,344.45 1103.7,344.45L1103.75,344.45C1104.52,344.45 1105.18,344.733 1105.75,345.3C1106.28,345.867 1106.57,346.533 1106.6,347.3L1106.6,347.4L1106.35,348.5L1105.75,349.35L1105.75,349.4C1105.22,349.9 1104.58,350.15 1103.85,350.15L1103.75,350.15L1102.85,350.05C1102.42,349.883 1102.03,349.65 1101.7,349.35L1101.65,349.35C1101.15,348.783 1100.9,348.1 1100.9,347.3L1100.9,347.25C1100.87,346.483 1101.12,345.833 1101.65,345.3M1073.15,344.15L1073.15,344.1C1073.82,343.467 1074.62,343.133 1075.55,343.1L1075.6,343.1C1076.47,343.133 1077.22,343.45 1077.85,344.05L1077.95,344.15C1078.58,344.817 1078.92,345.583 1078.95,346.45L1078.95,346.55L1078.9,347C1078.8,347.7 1078.48,348.333 1077.95,348.9L1077.95,348.95C1077.45,349.417 1076.9,349.7 1076.3,349.8L1075.7,349.85L1075.6,349.85C1074.67,349.85 1073.87,349.533 1073.2,348.9L1073.15,348.9L1072.9,348.6C1072.47,348 1072.25,347.283 1072.25,346.45C1072.22,345.517 1072.52,344.75 1073.15,344.15M1067.65,357.6L1067.85,357.45C1068.68,356.717 1069.63,356.333 1070.7,356.3L1070.75,356.3C1071.42,356.333 1072.05,356.5 1072.65,356.8L1073.75,357.6L1074.1,358C1074.5,358.533 1074.77,359.117 1074.9,359.75L1075,360.55L1075,360.7L1074.95,361.45C1074.78,362.217 1074.43,362.9 1073.9,363.5L1073.75,363.65L1073.75,363.7L1072.65,364.45L1070.9,364.8L1070.75,364.8C1069.68,364.8 1068.77,364.5 1068,363.9L1067.7,363.65L1067.65,363.6C1066.88,362.767 1066.5,361.75 1066.5,360.55L1066.5,360.5C1066.47,359.333 1066.85,358.367 1067.65,357.6M1071.3,372.2L1071.3,372.15C1071.7,371.75 1072.15,371.433 1072.65,371.2C1073.32,370.867 1074.07,370.683 1074.9,370.65L1074.95,370.65C1076.28,370.683 1077.45,371.2 1078.45,372.2L1078.9,372.7C1079.4,373.333 1079.73,374.05 1079.9,374.85L1079.95,375.65L1079.95,375.8C1079.92,376.8 1079.63,377.717 1079.1,378.55L1078.45,379.3L1078.45,379.35C1077.52,380.25 1076.4,380.683 1075.1,380.65L1074.95,380.65C1073.55,380.65 1072.35,380.2 1071.35,379.3L1071.3,379.25C1070.4,378.25 1069.95,377.05 1069.95,375.65L1069.95,375.6C1069.95,375.167 1070,374.75 1070.1,374.35C1070.27,373.517 1070.67,372.8 1071.3,372.2M1088.35,378.2L1088.35,378.15C1088.98,377.55 1089.73,377.233 1090.6,377.2C1091.43,377.233 1092.17,377.567 1092.8,378.2C1093.4,378.8 1093.7,379.5 1093.7,380.3L1093.7,380.4C1093.7,381.233 1093.4,381.967 1092.8,382.6C1092.2,383.167 1091.5,383.45 1090.7,383.45L1090.6,383.45C1089.77,383.45 1089.03,383.167 1088.4,382.6L1088.35,382.6C1087.78,381.967 1087.5,381.2 1087.5,380.3L1087.5,380.2C1087.53,379.4 1087.8,378.75 1088.3,378.25L1088.35,378.2M1106.1,356.85L1106.1,356.8C1107,355.933 1108.08,355.483 1109.35,355.45L1109.6,355.45C1110.7,355.517 1111.68,355.983 1112.55,356.85C1113.42,357.717 1113.87,358.75 1113.9,359.95L1113.9,360.1C1113.87,361.3 1113.42,362.35 1112.55,363.25L1112.55,363.3L1111.95,363.8C1111.25,364.267 1110.45,364.483 1109.55,364.45L1109.4,364.45C1108.13,364.45 1107.05,364.05 1106.15,363.25L1106.1,363.2C1105.57,362.6 1105.22,361.917 1105.05,361.15L1104.9,359.95L1104.9,359.9C1104.87,358.767 1105.2,357.833 1105.9,357.1L1106.1,356.85M1104,373C1104.63,373 1105.2,373.217 1105.7,373.65L1105.75,373.75C1106.18,374.217 1106.4,374.767 1106.4,375.4C1106.4,376.067 1106.18,376.633 1105.75,377.1C1105.25,377.567 1104.67,377.8 1104,377.8C1103.37,377.8 1102.83,377.567 1102.4,377.1L1102.3,377.05C1101.83,376.583 1101.6,376.033 1101.6,375.4C1101.6,374.733 1101.85,374.167 1102.35,373.7C1102.78,373.233 1103.33,373 1104,373" style="fill:rgb(255,116,25);fill-rule:nonzero;"/>
            </g>
            <g transform="matrix(1,0,0,1,-243.363,-184.269)">
                <path d="M1095.7,337.7L1097.85,338.05C1099.35,338.583 1100.45,339.55 1101.15,340.95L1101.65,342.45L1100.8,343.1C1099.83,344.067 1099.37,345.2 1099.4,346.5L1099.6,347.95C1099.83,348.683 1100.23,349.333 1100.8,349.9L1102.3,350.9L1104.15,351.25C1105.45,351.283 1106.58,350.833 1107.55,349.9L1108.25,349.05C1109.02,349.45 1109.62,350.083 1110.05,350.95C1110.52,352.017 1110.57,353.117 1110.2,354.25L1110,354.25L1108.8,354.35C1107.53,354.583 1106.43,355.167 1105.5,356.1L1104.85,356.85C1104.02,357.95 1103.6,359.217 1103.6,360.65L1103.7,361.8C1103.9,363.067 1104.5,364.183 1105.5,365.15C1106.73,366.417 1108.23,367.05 1110,367.05L1112.65,366.5L1112.3,368.6C1111.77,370.1 1110.77,371.183 1109.3,371.85L1107.6,372.4L1107.1,371.85C1106.27,371.017 1105.28,370.617 1104.15,370.65L1102.85,370.85C1102.22,371.017 1101.67,371.35 1101.2,371.85C1100.57,372.45 1100.18,373.2 1100.05,374.1L1100,374.8C1099.97,375.933 1100.37,376.917 1101.2,377.75L1101.05,378.2C1100.68,379.133 1100.05,379.817 1099.15,380.25L1096.25,380.4L1095.1,379.8C1094.93,378.8 1094.48,377.917 1093.75,377.15L1093.6,377C1092.63,376 1091.43,375.5 1090,375.5L1088,375.9C1087.4,376.133 1086.85,376.5 1086.35,377C1085.35,378 1084.85,379.217 1084.85,380.65L1085.05,382L1082.1,381.95C1081.47,381.717 1080.93,381.4 1080.5,381L1081.3,380.3C1082.83,378.767 1083.6,376.917 1083.6,374.75L1083.35,372.9C1083.02,371.567 1082.33,370.383 1081.3,369.35L1080.45,368.6C1079.12,367.6 1077.6,367.083 1075.9,367.05C1074.73,367.05 1073.65,367.283 1072.65,367.75C1071.82,368.117 1071.05,368.65 1070.35,369.35C1069.28,370.45 1068.62,371.7 1068.35,373.1L1067.1,371.25C1066.4,369.583 1066.32,367.9 1066.85,366.2C1067.78,366.767 1068.83,367.05 1070,367.05L1072.65,366.5L1074.55,365.15L1075.75,363.5L1076.3,361.9L1076.4,360.65L1076.25,359.1L1075.85,358C1075.55,357.3 1075.12,356.667 1074.55,356.1C1073.98,355.533 1073.35,355.1 1072.65,354.8C1071.85,354.433 1070.97,354.25 1070,354.25C1068.9,354.25 1067.9,354.5 1067,355C1066.9,354.167 1067,353.317 1067.3,352.45C1067.83,350.917 1068.85,349.817 1070.35,349.15C1070.78,348.95 1071.23,348.8 1071.7,348.7L1072.55,349.85C1073.48,350.75 1074.6,351.2 1075.9,351.2L1077.45,350.95L1079.2,349.85C1079.7,349.317 1080.07,348.717 1080.3,348.05L1080.55,346.55C1080.55,345.25 1080.1,344.133 1079.2,343.2L1078.25,342.5C1078.68,341.533 1079.37,340.817 1080.3,340.35L1083.55,340.25L1083.6,340.3L1083.6,340.65C1083.6,342.417 1084.22,343.917 1085.45,345.15L1086.05,345.7C1087.18,346.6 1088.5,347.05 1090,347.05L1091.25,346.95C1092.48,346.717 1093.57,346.117 1094.5,345.15C1095.77,343.917 1096.4,342.417 1096.4,340.65C1096.4,339.583 1096.17,338.6 1095.7,337.7" style="fill-opacity:0.01;fill-rule:nonzero;"/>
            </g>
        </g>
    </g>
</svg>
