<?xml version="1.0" encoding="UTF-8" standalone="no"?>
<!DOCTYPE svg PUBLIC "-//W3C//DTD SVG 1.1//EN" "http://www.w3.org/Graphics/SVG/1.1/DTD/svg11.dtd">
<svg width="100%" height="100%" viewBox="0 0 63 63" version="1.1" xmlns="http://www.w3.org/2000/svg" xmlns:xlink="http://www.w3.org/1999/xlink" xml:space="preserve" xmlns:serif="http://www.serif.com/" style="fill-rule:evenodd;clip-rule:evenodd;stroke-linejoin:round;stroke-miterlimit:2;">
    <g transform="matrix(1,0,0,1,-627.758,-127.774)">
        <g transform="matrix(1,0,0,1,-27.4286,-16.4571)">
            <g transform="matrix(1,0,0,1,-243.363,-184.269)">
                <path d="M907.75,365.75C901.617,364.15 898.55,362.183 898.55,359.85C898.55,357.517 901.617,355.55 907.75,353.95L910.75,353.15C909.15,348.083 909.567,344.333 912,341.9C914.433,339.467 918.15,339.05 923.15,340.65L923.95,337.75C925.583,331.583 927.567,328.5 929.9,328.5C932.233,328.5 934.217,331.583 935.85,337.75L936.55,340.65C941.583,339.083 945.317,339.517 947.75,341.95C950.183,344.383 950.617,348.117 949.05,353.15L952,353.9C958.167,355.533 961.267,357.5 961.3,359.8C961.267,362.167 958.183,364.15 952.05,365.75L949,366.5C950.633,371.533 950.217,375.25 947.75,377.65C945.383,380.083 941.65,380.517 936.55,378.95L935.85,381.95C934.283,388.05 932.3,391.133 929.9,391.2C927.567,391.133 925.567,388.033 923.9,381.9L923.25,378.95C918.183,380.55 914.433,380.133 912,377.7C909.533,375.3 909.117,371.583 910.75,366.55L907.75,365.75M915.15,351.35L916.35,353.3C912.917,355.1 911.217,357.283 911.25,359.85C911.217,362.283 912.933,364.433 916.4,366.3L915.25,368.25C912.917,372.317 912.35,374.95 913.55,376.15C914.783,377.383 917.433,376.833 921.5,374.5L923.4,373.3C925.233,376.733 927.417,378.483 929.95,378.55C932.483,378.55 934.65,376.783 936.45,373.25L938.3,374.5C942.467,376.867 945.15,377.417 946.35,376.15C947.583,374.983 947.017,372.35 944.65,368.25L943.4,366.3C946.933,364.5 948.7,362.333 948.7,359.8C948.667,357.233 946.917,355.05 943.45,353.25L944.65,351.35C947.017,347.25 947.583,344.583 946.35,343.35C945.117,342.183 942.45,342.75 938.35,345.05C937.717,345.417 937.067,345.817 936.4,346.25C934.6,342.75 932.433,341 929.9,341C927.367,341 925.183,342.75 923.35,346.25L921.4,345.1C917.367,342.733 914.75,342.15 913.55,343.35C912.317,344.583 912.85,347.25 915.15,351.35" style="fill:rgb(255,116,25);fill-rule:nonzero;"/>
            </g>
            <g transform="matrix(1,0,0,1,-243.363,-184.269)">
                <path d="M915.15,351.35C912.85,347.25 912.317,344.583 913.55,343.35C914.75,342.15 917.367,342.733 921.4,345.1L923.35,346.25C925.183,342.75 927.367,341 929.9,341C932.433,341 934.6,342.75 936.4,346.25C937.067,345.817 937.717,345.417 938.35,345.05C942.45,342.75 945.117,342.183 946.35,343.35C947.583,344.583 947.017,347.25 944.65,351.35L943.45,353.25C946.917,355.05 948.667,357.233 948.7,359.8C948.7,362.333 946.933,364.5 943.4,366.3L944.65,368.25C947.017,372.35 947.583,374.983 946.35,376.15C945.15,377.417 942.467,376.867 938.3,374.5L936.45,373.25C934.65,376.783 932.483,378.55 929.95,378.55C927.417,378.483 925.233,376.733 923.4,373.3L921.5,374.5C917.433,376.833 914.783,377.383 913.55,376.15C912.35,374.95 912.917,372.317 915.25,368.25L916.4,366.3C912.933,364.433 911.217,362.283 911.25,359.85C911.217,357.283 912.917,355.1 916.35,353.3L915.15,351.35" style="fill:rgb(231,105,22);fill-rule:nonzero;"/>
            </g>
            <g transform="matrix(1,0,0,1,-243.363,-184.269)">
                <path d="M913.35,380.35C907.65,384.983 904.417,386.917 903.65,386.15C902.883,385.383 904.8,382.133 909.4,376.4L912.45,372.75C911.783,370.617 911.917,367.983 912.85,364.85C913.283,363.15 913.933,361.5 914.8,359.9C913.9,358.267 913.233,356.633 912.8,355C911.9,351.833 911.817,349.183 912.55,347.05L909.4,343.3C904.8,337.633 902.883,334.417 903.65,333.65C904.417,332.883 907.633,334.767 913.3,339.3L917.15,342.45L924.95,342.75C926.65,343.317 928.3,343.967 929.9,344.7C931.533,343.867 933.233,343.2 935,342.7L942.75,342.45C943.983,341.35 945.233,340.3 946.5,339.3C952.167,334.767 955.383,332.883 956.15,333.65C956.917,334.417 955.017,337.65 950.45,343.35L947.35,346.95C948.05,349.117 947.967,351.733 947.1,354.8C946.633,356.533 945.933,358.233 945,359.9C945.967,361.533 946.65,363.183 947.05,364.85C947.95,368.017 948.067,370.633 947.4,372.7L950.5,376.5C955.033,382.167 956.917,385.383 956.15,386.15C955.383,386.917 952.15,384.983 946.45,380.35L942.85,377.25C940.683,378.017 938.05,377.983 934.95,377.15C933.217,376.617 931.533,375.9 929.9,375C928.333,375.833 926.667,376.5 924.9,377L917.05,377.35L913.35,380.35M941.5,346.2L940.95,346.55L940.25,346.35L934.5,346.6C933.1,347 931.767,347.567 930.5,348.3L929.9,348.4L929.35,348.35C928.05,347.65 926.75,347.117 925.45,346.75L919.65,346.45L919,346.5L918.4,346.2L915.25,343.55C911.117,340.283 908.967,338.667 908.8,338.7C908.733,338.967 910.35,341.117 913.65,345.15L913.7,345.2L916.3,348.4L916.55,348.85L916.5,349.5C915.967,351.1 916.067,353.067 916.8,355.4C917.167,356.7 917.667,358 918.3,359.3L918.45,359.85L918.3,360.5C917.633,361.767 917.133,363.033 916.8,364.3L916.85,364.35C916.117,366.683 916,368.667 916.5,370.3L916.45,370.85L916.2,371.5L913.65,374.55C910.35,378.65 908.733,380.833 908.8,381.1L915.25,376.15L918.35,373.55C918.517,373.383 918.7,373.3 918.9,373.3L919.5,373.3L925.5,373C926.733,372.633 928,372.133 929.3,371.5C929.467,371.333 929.667,371.267 929.9,371.3C930.133,371.267 930.333,371.333 930.5,371.5C931.767,372.167 933.117,372.717 934.55,373.15L934.5,373.1L940.3,373.3L940.9,373.3L941.45,373.55L944.6,376.2C948.633,379.433 950.8,381.067 951.1,381.1C951.1,380.767 949.483,378.583 946.25,374.55L943.6,371.5L943.4,370.9L943.4,370.3C943.9,368.733 943.817,366.783 943.15,364.45C942.75,363.117 942.217,361.783 941.55,360.45L941.4,359.9C941.4,359.7 941.45,359.483 941.55,359.25C942.25,358.017 942.783,356.683 943.15,355.25C943.817,352.983 943.9,351.033 943.4,349.4C943.233,349.233 943.233,349.067 943.4,348.9L943.6,348.3L946.2,345.2L951.1,338.7C950.867,338.667 948.7,340.3 944.6,343.6L941.5,346.2" style="fill:rgb(255,204,0);fill-rule:nonzero;"/>
            </g>
            <g transform="matrix(1,0,0,1,-243.363,-184.269)">
                <path d="M941.5,346.2L944.6,343.6C948.7,340.3 950.867,338.667 951.1,338.7L946.2,345.2L943.6,348.3L943.4,348.9C943.233,349.067 943.233,349.233 943.4,349.4C943.9,351.033 943.817,352.983 943.15,355.25C942.783,356.683 942.25,358.017 941.55,359.25C941.45,359.483 941.4,359.7 941.4,359.9L941.55,360.45C942.217,361.783 942.75,363.117 943.15,364.45C943.817,366.783 943.9,368.733 943.4,370.3L943.4,370.9L943.6,371.5L946.25,374.55C949.483,378.583 951.1,380.767 951.1,381.1C950.8,381.067 948.633,379.433 944.6,376.2L941.45,373.55L940.9,373.3L940.3,373.3L934.5,373.1L934.55,373.15C933.117,372.717 931.767,372.167 930.5,371.5C930.333,371.333 930.133,371.267 929.9,371.3C929.667,371.267 929.467,371.333 929.3,371.5C928,372.133 926.733,372.633 925.5,373L919.5,373.3L918.9,373.3C918.7,373.3 918.517,373.383 918.35,373.55L915.25,376.15L908.8,381.1C908.733,380.833 910.35,378.65 913.65,374.55L916.2,371.5L916.45,370.85L916.5,370.3C916,368.667 916.117,366.683 916.85,364.35L916.8,364.3C917.133,363.033 917.633,361.767 918.3,360.5L918.45,359.85L918.3,359.3C917.667,358 917.167,356.7 916.8,355.4C916.067,353.067 915.967,351.1 916.5,349.5L916.55,348.85L916.3,348.4L913.7,345.2L913.65,345.15C910.35,341.117 908.733,338.967 908.8,338.7C908.967,338.667 911.117,340.283 915.25,343.55L918.4,346.2L919,346.5L919.65,346.45L925.45,346.75C926.75,347.117 928.05,347.65 929.35,348.35L929.9,348.4L930.5,348.3C931.767,347.567 933.1,347 934.5,346.6L940.25,346.35L940.95,346.55L941.5,346.2" style="fill:rgb(240,192,0);fill-rule:nonzero;"/>
            </g>
            <g transform="matrix(1,0,0,1,-243.363,-184.269)">
                <path d="M940.45,358.25C940.917,358.25 941.3,358.4 941.6,358.7L941.65,358.75C941.917,359.083 942.05,359.45 942.05,359.85L942.05,359.95C942.05,360.35 941.9,360.7 941.6,361L941.55,361.05C941.25,361.35 940.917,361.517 940.55,361.55L940.5,361.6L934.8,362L942.15,370.75L942.4,371.4L942.1,372.1C941.9,372.3 941.667,372.4 941.4,372.4C941.167,372.433 940.933,372.367 940.7,372.2L932,364.8L931.55,370.45L931.6,370.5C931.533,370.967 931.317,371.35 930.95,371.65L929.9,372.1L929.85,372.05C929.417,372.083 929.067,371.967 928.8,371.7L928.7,371.6C928.4,371.3 928.233,370.967 928.2,370.6L928.15,370.55L927.75,364.85L919,372.2L918.3,372.4L917.6,372.1L917.3,371.4C917.3,371.133 917.383,370.917 917.55,370.75L924.95,362.05L919.25,361.65L919.2,361.6C918.767,361.5 918.433,361.333 918.2,361.1L918.1,361C917.833,360.733 917.7,360.367 917.7,359.9C917.7,359.433 917.833,359.067 918.1,358.8L918.2,358.7C918.5,358.4 918.867,358.233 919.3,358.2L924.95,357.75L917.55,349.05C917.383,348.817 917.317,348.583 917.35,348.35C917.35,348.083 917.45,347.85 917.65,347.65C917.85,347.45 918.083,347.35 918.35,347.35L919,347.6L927.75,354.95L928.2,349.3C928.233,348.867 928.4,348.5 928.7,348.2L928.75,348.15C929.083,347.817 929.467,347.667 929.9,347.7C930.333,347.733 930.7,347.867 931,348.1L931.6,349.3L932.05,354.95L940.7,347.6C940.9,347.4 941.117,347.317 941.35,347.35L942.1,347.6C942.3,347.8 942.383,348.05 942.35,348.35L942.15,349.05L934.85,357.75L940.45,358.25" style="fill:white;fill-rule:nonzero;"/>
            </g>
        </g>
    </g>
</svg>
