<?xml version="1.0" encoding="UTF-8" standalone="no"?>
<!DOCTYPE svg PUBLIC "-//W3C//DTD SVG 1.1//EN" "http://www.w3.org/Graphics/SVG/1.1/DTD/svg11.dtd">
<svg width="100%" height="100%" viewBox="0 0 52 43" version="1.1" xmlns="http://www.w3.org/2000/svg" xmlns:xlink="http://www.w3.org/1999/xlink" xml:space="preserve" xmlns:serif="http://www.serif.com/" style="fill-rule:evenodd;clip-rule:evenodd;stroke-linejoin:round;stroke-miterlimit:2;">
    <g transform="matrix(1,0,0,1,-1041.9,-1417)">
        <g transform="matrix(1,0,0,1,-10,-10)">
            <g id="Layer0_456_MEMBER_0_FILL">
                <path d="M1101.9,1432L1098.85,1432C1098.55,1428.67 1096.55,1427 1092.85,1427L1063.95,1427C1060.25,1427 1058.25,1428.67 1057.95,1432L1053.9,1432C1053.33,1432 1052.87,1432.2 1052.5,1432.6C1052.1,1432.97 1051.9,1433.43 1051.9,1434L1051.9,1463.5C1051.9,1465.3 1052.53,1466.83 1053.8,1468.1L1053.75,1468C1054.95,1469.33 1056.47,1470 1058.3,1470L1097.55,1470C1099.32,1470 1100.83,1469.35 1102.1,1468.05C1103.3,1466.78 1103.9,1465.27 1103.9,1463.5L1103.9,1434C1103.9,1433.43 1103.72,1432.97 1103.35,1432.6C1102.95,1432.2 1102.47,1432 1101.9,1432M1096.9,1434L1101.9,1434L1101.9,1463.5C1101.9,1464.73 1101.48,1465.78 1100.65,1466.65C1099.78,1467.55 1098.75,1468 1097.55,1468L1058.3,1468C1057.07,1468 1056.03,1467.55 1055.2,1466.65C1054.33,1465.78 1053.9,1464.73 1053.9,1463.5L1053.9,1434L1059.9,1434L1059.9,1433C1059.9,1430.33 1061.25,1429 1063.95,1429L1092.85,1429C1095.55,1429 1096.9,1430.33 1096.9,1433L1096.9,1434Z" style="fill:rgb(154,105,55);fill-rule:nonzero;"/>
                <path d="M1053.95,1459.65C1053.92,1459.77 1053.9,1459.89 1053.9,1460L1053.9,1463.5C1053.9,1464.73 1054.33,1465.78 1055.2,1466.65C1056.03,1467.55 1057.07,1468 1058.3,1468L1097.55,1468C1098.75,1468 1099.78,1467.55 1100.65,1466.65C1101.48,1465.78 1101.9,1464.73 1101.9,1463.5L1101.9,1460C1101.9,1459.89 1101.88,1459.77 1101.85,1459.65C1101.72,1458.72 1101.32,1457.9 1100.65,1457.2L1055.2,1457.2C1054.5,1457.9 1054.08,1458.72 1053.95,1459.65M1096.9,1433.95L1096.9,1433C1096.9,1430.33 1095.55,1429 1092.85,1429L1063.95,1429C1061.25,1429 1059.9,1430.33 1059.9,1433L1059.9,1433.95L1059.95,1434L1062.9,1434L1062.9,1454.3C1068.03,1452.73 1073.03,1451.97 1077.9,1452C1082.77,1451.97 1087.77,1452.73 1092.9,1454.3L1092.9,1434L1096.85,1434L1096.9,1433.95Z" style="fill:rgb(196,134,71);fill-rule:nonzero;"/>
                <path d="M1092.9,1454.3C1087.77,1452.73 1082.77,1451.97 1077.9,1452C1073.03,1451.97 1068.03,1452.73 1062.9,1454.3C1060.37,1455.07 1057.8,1456.03 1055.2,1457.2L1100.65,1457.2C1098.02,1456.03 1095.43,1455.07 1092.9,1454.3Z" style="fill:rgb(175,120,62);fill-rule:nonzero;"/>
                <path d="M1059.9,1434L1053.9,1434L1053.9,1460C1053.9,1459.89 1053.92,1459.77 1053.95,1459.65C1054.08,1458.72 1054.5,1457.9 1055.2,1457.2C1057.8,1456.03 1060.37,1455.07 1062.9,1454.3L1062.9,1434L1059.9,1434M1101.9,1434L1092.9,1434L1092.9,1454.3C1095.43,1455.07 1098.02,1456.03 1100.65,1457.2C1101.32,1457.9 1101.72,1458.72 1101.85,1459.65C1101.88,1459.77 1101.9,1459.89 1101.9,1460L1101.9,1434Z" style="fill:rgb(215,146,77);fill-rule:nonzero;"/>
                <path d="M1059.95,1434L1059.9,1433.95L1059.9,1434L1059.95,1434M1096.9,1433.95L1096.85,1434L1096.9,1434L1096.9,1433.95Z" style="fill:rgb(53,53,53);fill-rule:nonzero;"/>
            </g>
        </g>
    </g>
</svg>
