<?xml version="1.0" encoding="UTF-8" standalone="no"?>
<!DOCTYPE svg PUBLIC "-//W3C//DTD SVG 1.1//EN" "http://www.w3.org/Graphics/SVG/1.1/DTD/svg11.dtd">
<svg width="100%" height="100%" viewBox="0 0 22 15" version="1.1" xmlns="http://www.w3.org/2000/svg" xmlns:xlink="http://www.w3.org/1999/xlink" xml:space="preserve" xmlns:serif="http://www.serif.com/" style="fill-rule:evenodd;clip-rule:evenodd;stroke-linejoin:round;stroke-miterlimit:2;">
    <g transform="matrix(1,0,0,1,-220.811,-60.608)">
        <g transform="matrix(1,0,0,1,-2049.85,-40)">
            <g id="Layer0_93_MEMBER_1_FILL">
                <path d="M2283.75,103.65L2283.7,103.65C2283.63,103.55 2283.6,103.45 2283.6,103.35C2283.47,103.15 2283.27,103 2283,102.9C2282.8,102.8 2282.58,102.817 2282.35,102.95L2280.35,103.5C2280.28,104.033 2280.2,104.567 2280.1,105.1L2279.65,107.3C2279.55,108.333 2279.08,109.217 2278.25,109.95C2277.52,110.683 2276.65,111.05 2275.65,111.05L2273.4,111.05C2273.13,111.05 2272.88,111.033 2272.65,111C2274.32,112.1 2276.18,112.667 2278.25,112.7C2279.05,112.733 2279.87,112.683 2280.7,112.55L2284.75,111.95C2285.02,111.917 2285.23,111.833 2285.4,111.7C2285.53,111.5 2285.6,111.25 2285.6,110.95C2285.57,110.883 2285.57,110.8 2285.6,110.7L2285.6,110.3C2285.53,107.933 2284.92,105.717 2283.75,103.65Z" style="fill:rgb(194,132,70);fill-rule:nonzero;"/>
                <path d="M2283.75,103.65L2284.45,101.4C2284.28,101.3 2284.1,101.2 2283.9,101.1C2283.2,100.7 2282.45,100.7 2281.65,101.1L2279.85,101.6C2279.45,101.7 2279.12,101.9 2278.85,102.2C2278.58,102.5 2278.43,102.85 2278.4,103.25C2278.33,103.517 2278.28,103.783 2278.25,104.05C2278.22,104.283 2278.18,104.517 2278.15,104.75L2278.15,104.7L2277.7,106.9C2277.67,106.967 2277.65,107.033 2277.65,107.1C2277.58,107.633 2277.35,108.083 2276.95,108.45C2276.92,108.483 2276.88,108.517 2276.85,108.55C2276.52,108.883 2276.12,109.05 2275.65,109.05L2272.95,109.05C2272.72,108.983 2272.48,108.983 2272.25,109.05C2272.05,109.083 2271.85,109.167 2271.65,109.3C2271.22,109.533 2270.93,109.867 2270.8,110.3C2270.63,110.733 2270.62,111.183 2270.75,111.65C2270.88,112.083 2271.15,112.433 2271.55,112.7C2271.78,112.833 2272.02,112.967 2272.25,113.1C2274.05,114.133 2276.05,114.683 2278.25,114.75C2279.15,114.75 2280.07,114.683 2281,114.55L2285.05,113.95L2285,113.95C2285.67,113.85 2286.22,113.617 2286.65,113.25C2286.82,113.117 2286.97,112.967 2287.1,112.8C2287.2,112.633 2287.3,112.467 2287.4,112.3L2285.6,110.7C2285.57,110.8 2285.57,110.883 2285.6,110.95C2285.6,111.25 2285.53,111.5 2285.4,111.7C2285.23,111.833 2285.02,111.917 2284.75,111.95L2280.7,112.55C2279.87,112.683 2279.05,112.733 2278.25,112.7C2276.18,112.667 2274.32,112.1 2272.65,111C2272.88,111.033 2273.13,111.05 2273.4,111.05L2275.65,111.05C2276.65,111.05 2277.52,110.683 2278.25,109.95C2279.08,109.217 2279.55,108.333 2279.65,107.3L2280.1,105.1C2280.2,104.567 2280.28,104.033 2280.35,103.5L2282.35,102.95C2282.58,102.817 2282.8,102.8 2283,102.9C2283.27,103 2283.47,103.15 2283.6,103.35C2283.6,103.45 2283.63,103.55 2283.7,103.65L2283.75,103.65Z" style="fill:rgb(166,113,59);fill-rule:nonzero;"/>
                <path d="M2289.65,104.25C2289.65,104.183 2289.63,104.117 2289.6,104.05C2289.23,102.817 2288.37,102.383 2287,102.75L2283.75,103.65C2284.92,105.717 2285.53,107.933 2285.6,110.3L2285.6,110.7L2288.85,109.75C2289.15,109.683 2289.4,109.6 2289.6,109.5C2289.83,109.367 2290.02,109.217 2290.15,109.05C2290.58,108.583 2290.7,107.95 2290.5,107.15L2289.65,104.25Z" style="fill:rgb(255,208,163);fill-rule:nonzero;"/>
                <path d="M2289.6,104.05C2289.63,104.117 2289.65,104.183 2289.65,104.25L2290.5,107.15C2290.7,107.95 2290.58,108.583 2290.15,109.05C2290.02,109.217 2289.83,109.367 2289.6,109.5C2289.4,109.6 2289.15,109.683 2288.85,109.75L2285.6,110.7L2287.4,112.3L2289.4,111.7C2289.47,111.667 2289.53,111.65 2289.6,111.65C2290.5,111.383 2291.18,110.967 2291.65,110.4C2292.58,109.5 2292.85,108.267 2292.45,106.7L2292.45,106.6L2291.6,103.8C2291.27,102.433 2290.65,101.533 2289.75,101.1C2289.68,101.067 2289.63,101.033 2289.6,101C2288.8,100.533 2287.75,100.483 2286.45,100.85L2286.5,100.85L2284.45,101.4L2283.75,103.65L2287,102.75C2288.37,102.383 2289.23,102.817 2289.6,104.05Z" style="fill:rgb(163,133,104);fill-rule:nonzero;"/>
            </g>
        </g>
    </g>
</svg>
