<?xml version="1.0" encoding="UTF-8" standalone="no"?>
<!DOCTYPE svg PUBLIC "-//W3C//DTD SVG 1.1//EN" "http://www.w3.org/Graphics/SVG/1.1/DTD/svg11.dtd">
<svg width="100%" height="100%" viewBox="0 0 33 43" version="1.1" xmlns="http://www.w3.org/2000/svg" xmlns:xlink="http://www.w3.org/1999/xlink" xml:space="preserve" xmlns:serif="http://www.serif.com/" style="fill-rule:evenodd;clip-rule:evenodd;stroke-linejoin:round;stroke-miterlimit:2;">
    <g transform="matrix(1,0,0,1,-90.15,-32)">
        <g transform="matrix(1,0,0,1,-2049.85,-40)">
            <g id="Layer0_95_MEMBER_1_FILL">
                <path d="M2163.75,103.65L2163.7,103.65C2163.63,103.55 2163.6,103.45 2163.6,103.35C2163.47,103.15 2163.27,103 2163,102.9C2162.8,102.8 2162.58,102.817 2162.35,102.95L2160.35,103.5C2160.28,104.033 2160.2,104.567 2160.1,105.1L2159.65,107.3C2159.55,108.333 2159.08,109.217 2158.25,109.95C2157.52,110.683 2156.65,111.05 2155.65,111.05L2153.4,111.05C2153.13,111.05 2152.88,111.033 2152.65,111C2154.32,112.1 2156.18,112.667 2158.25,112.7C2159.05,112.733 2159.87,112.683 2160.7,112.55L2164.75,111.95C2165.02,111.917 2165.23,111.833 2165.4,111.7C2165.53,111.5 2165.6,111.25 2165.6,110.95C2165.57,110.883 2165.57,110.8 2165.6,110.7L2165.6,110.3C2165.53,107.933 2164.92,105.717 2163.75,103.65M2165.6,77.15C2165.57,77.05 2165.57,76.967 2165.6,76.9C2165.6,76.6 2165.53,76.35 2165.4,76.15C2165.23,75.983 2165.02,75.9 2164.75,75.9L2160.7,75.3C2159.87,75.167 2159.05,75.117 2158.25,75.15C2156.18,75.183 2154.32,75.75 2152.65,76.85C2152.88,76.817 2153.13,76.8 2153.4,76.8L2155.65,76.8C2156.65,76.8 2157.52,77.15 2158.25,77.85C2159.08,78.617 2159.55,79.517 2159.65,80.55L2160.1,82.75C2160.2,83.283 2160.28,83.817 2160.35,84.35L2162.35,84.9C2162.58,85 2162.8,85.017 2163,84.95C2163.27,84.85 2163.47,84.683 2163.6,84.45C2163.6,84.35 2163.63,84.267 2163.7,84.2L2163.75,84.15C2164.92,82.117 2165.53,79.917 2165.6,77.55L2165.6,77.15Z" style="fill:rgb(194,132,70);fill-rule:nonzero;"/>
                <path d="M2167.1,112.8C2167.2,112.633 2167.3,112.467 2167.4,112.3L2165.6,110.7C2165.57,110.8 2165.57,110.883 2165.6,110.95C2165.6,111.25 2165.53,111.5 2165.4,111.7C2165.23,111.833 2165.02,111.917 2164.75,111.95L2160.7,112.55C2159.87,112.683 2159.05,112.733 2158.25,112.7C2156.18,112.667 2154.32,112.1 2152.65,111C2152.88,111.033 2153.13,111.05 2153.4,111.05L2155.65,111.05C2156.65,111.05 2157.52,110.683 2158.25,109.95C2159.08,109.217 2159.55,108.333 2159.65,107.3L2160.1,105.1C2160.2,104.567 2160.28,104.033 2160.35,103.5L2162.35,102.95C2162.58,102.817 2162.8,102.8 2163,102.9C2163.27,103 2163.47,103.15 2163.6,103.35C2163.6,103.45 2163.63,103.55 2163.7,103.65L2163.75,103.65L2164.45,101.4C2164.28,101.3 2164.1,101.2 2163.9,101.1C2163.2,100.7 2162.45,100.7 2161.65,101.1L2159.85,101.6C2159.45,101.7 2159.12,101.9 2158.85,102.2C2158.58,102.5 2158.43,102.85 2158.4,103.25C2158.33,103.517 2158.28,103.783 2158.25,104.05C2158.22,104.283 2158.18,104.517 2158.15,104.75L2158.15,104.7L2157.7,106.9C2157.67,106.967 2157.65,107.033 2157.65,107.1C2157.58,107.633 2157.35,108.083 2156.95,108.45C2156.92,108.483 2156.88,108.517 2156.85,108.55C2156.52,108.883 2156.12,109.05 2155.65,109.05L2152.95,109.05C2152.72,108.983 2152.48,108.983 2152.25,109.05C2152.05,109.083 2151.85,109.167 2151.65,109.3C2151.22,109.533 2150.93,109.867 2150.8,110.3C2150.63,110.733 2150.62,111.183 2150.75,111.65C2150.88,112.083 2151.15,112.433 2151.55,112.7C2151.78,112.833 2152.02,112.967 2152.25,113.1C2154.05,114.133 2156.05,114.683 2158.25,114.75C2159.15,114.75 2160.07,114.683 2161,114.55L2165.05,113.95L2165,113.95C2165.67,113.85 2166.22,113.617 2166.65,113.25C2166.82,113.117 2166.97,112.967 2167.1,112.8M2164.9,73.9L2161,73.35C2160.07,73.183 2159.15,73.1 2158.25,73.1C2156.05,73.133 2154.05,73.683 2152.25,74.75C2152.02,74.883 2151.78,75.033 2151.55,75.2C2151.15,75.433 2150.88,75.783 2150.75,76.25C2150.62,76.683 2150.63,77.117 2150.8,77.55C2150.93,77.983 2151.22,78.333 2151.65,78.6C2151.85,78.7 2152.05,78.783 2152.25,78.85C2152.48,78.883 2152.72,78.883 2152.95,78.85C2153.08,78.817 2153.23,78.8 2153.4,78.8L2155.65,78.8C2156.12,78.8 2156.53,78.967 2156.9,79.3L2156.9,79.35C2157.33,79.75 2157.58,80.217 2157.65,80.75C2157.65,80.817 2157.67,80.883 2157.7,80.95L2158.15,83.15C2158.18,83.35 2158.22,83.567 2158.25,83.8C2158.28,84.067 2158.33,84.333 2158.4,84.6C2158.43,85 2158.58,85.35 2158.85,85.65C2159.12,85.95 2159.45,86.167 2159.85,86.3L2161.55,86.75C2162.28,87.05 2162.98,87.083 2163.65,86.85L2163.7,86.85C2164,86.717 2164.27,86.583 2164.5,86.45L2163.75,84.15L2163.7,84.2C2163.63,84.267 2163.6,84.35 2163.6,84.45C2163.47,84.683 2163.27,84.85 2163,84.95C2162.8,85.017 2162.58,85 2162.35,84.9L2160.35,84.35C2160.28,83.817 2160.2,83.283 2160.1,82.75L2159.65,80.55C2159.55,79.517 2159.08,78.617 2158.25,77.85C2157.52,77.15 2156.65,76.8 2155.65,76.8L2153.4,76.8C2153.13,76.8 2152.88,76.817 2152.65,76.85C2154.32,75.75 2156.18,75.183 2158.25,75.15C2159.05,75.117 2159.87,75.167 2160.7,75.3L2164.75,75.9C2165.02,75.9 2165.23,75.983 2165.4,76.15C2165.53,76.35 2165.6,76.6 2165.6,76.9C2165.57,76.967 2165.57,77.05 2165.6,77.15L2167.4,75.6C2167.3,75.4 2167.2,75.217 2167.1,75.05C2167,74.95 2166.92,74.85 2166.85,74.75C2166.35,74.217 2165.7,73.933 2164.9,73.9Z" style="fill:rgb(166,113,59);fill-rule:nonzero;"/>
                <path d="M2169.6,104.05C2169.23,102.817 2168.37,102.383 2167,102.75L2163.75,103.65C2164.92,105.717 2165.53,107.933 2165.6,110.3L2165.6,110.7L2168.85,109.75C2169.15,109.683 2169.4,109.6 2169.6,109.5C2169.83,109.367 2170.02,109.217 2170.15,109.05C2170.58,108.583 2170.7,107.95 2170.5,107.15L2169.65,104.25C2169.65,104.183 2169.63,104.117 2169.6,104.05M2165.6,77.15L2165.6,77.55C2165.53,79.917 2164.92,82.117 2163.75,84.15L2167,85.05C2168.37,85.417 2169.23,85 2169.6,83.8C2169.63,83.733 2169.65,83.667 2169.65,83.6L2170.5,80.7C2170.7,79.9 2170.58,79.25 2170.15,78.75C2170.02,78.583 2169.83,78.45 2169.6,78.35C2169.4,78.25 2169.15,78.167 2168.85,78.1L2165.6,77.15Z" style="fill:rgb(255,208,163);fill-rule:nonzero;"/>
                <path d="M2167,102.75C2168.37,102.383 2169.23,102.817 2169.6,104.05C2169.63,104.117 2169.65,104.183 2169.65,104.25L2170.5,107.15C2170.7,107.95 2170.58,108.583 2170.15,109.05C2170.02,109.217 2169.83,109.367 2169.6,109.5C2169.4,109.6 2169.15,109.683 2168.85,109.75L2165.6,110.7L2167.4,112.3L2169.4,111.7C2169.47,111.667 2169.53,111.65 2169.6,111.65C2170.5,111.383 2171.18,110.967 2171.65,110.4C2172.58,109.5 2172.85,108.267 2172.45,106.7L2172.45,106.6L2171.6,103.8C2171.27,102.433 2170.65,101.533 2169.75,101.1C2169.68,101.067 2169.63,101.033 2169.6,101C2168.8,100.533 2167.75,100.483 2166.45,100.85L2166.5,100.85L2164.45,101.4L2163.75,103.65L2167,102.75M2163.75,84.15L2164.5,86.45L2166.5,87L2166.45,87C2167.75,87.333 2168.8,87.267 2169.6,86.8C2169.63,86.8 2169.67,86.783 2169.7,86.75C2170.6,86.317 2171.23,85.467 2171.6,84.2L2171.6,84.1L2172.45,81.3L2172.45,81.2C2172.82,79.633 2172.55,78.383 2171.65,77.45C2171.22,76.883 2170.53,76.483 2169.6,76.25C2169.53,76.217 2169.47,76.2 2169.4,76.2L2167.4,75.6L2165.6,77.15L2168.85,78.1C2169.15,78.167 2169.4,78.25 2169.6,78.35C2169.83,78.45 2170.02,78.583 2170.15,78.75C2170.58,79.25 2170.7,79.9 2170.5,80.7L2169.65,83.6C2169.65,83.667 2169.63,83.733 2169.6,83.8C2169.23,85 2168.37,85.417 2167,85.05L2163.75,84.15Z" style="fill:rgb(163,133,104);fill-rule:nonzero;"/>
            </g>
        </g>
        <g transform="matrix(1,0,0,1,-2049.85,-40)">
            <g id="Layer0_95_MEMBER_2_FILL">
                <path d="M2159.95,105.1C2160.22,103.733 2160.43,102.35 2160.6,100.95C2160.5,101.05 2160.42,101.133 2160.35,101.2C2158.68,102.867 2156.7,103.8 2154.4,104C2154.1,104.067 2153.8,104.1 2153.5,104.1C2150.3,104.1 2147.58,103.133 2145.35,101.2C2145.02,100.9 2144.72,100.6 2144.45,100.3L2145.35,107.95C2145.58,109.383 2146.2,110.583 2147.2,111.55C2148.3,112.517 2149.52,113 2150.85,113L2153.9,113C2155.23,113 2156.42,112.517 2157.45,111.55C2158.58,110.55 2159.22,109.333 2159.35,107.9L2159.35,108L2159.95,105.1M2145.35,79L2145.35,79.1L2144.35,87.35C2144.65,86.983 2144.98,86.65 2145.35,86.35C2147.58,84.417 2150.3,83.45 2153.5,83.45C2153.8,83.45 2154.1,83.483 2154.4,83.55C2156.7,83.717 2158.68,84.65 2160.35,86.35C2160.45,86.45 2160.57,86.567 2160.7,86.7C2160.5,85.067 2160.25,83.467 2159.95,81.9L2159.35,79C2159.22,77.6 2158.58,76.4 2157.45,75.4L2157.45,75.35C2156.42,74.45 2155.23,74 2153.9,74L2150.85,74C2149.52,74 2148.3,74.467 2147.2,75.4C2146.2,76.367 2145.58,77.567 2145.35,79Z" style="fill:rgb(205,140,74);fill-rule:nonzero;"/>
                <path d="M2162.5,101.85L2160.6,100.95C2160.43,102.35 2160.22,103.733 2159.95,105.1L2159.35,108L2159.35,107.9C2159.22,109.333 2158.58,110.55 2157.45,111.55C2156.42,112.517 2155.23,113 2153.9,113L2150.85,113C2149.52,113 2148.3,112.517 2147.2,111.55C2146.2,110.583 2145.58,109.383 2145.35,107.95L2144.45,100.3L2142.55,101.2L2143.4,108.2C2143.37,108.233 2143.37,108.267 2143.4,108.3C2143.7,110.167 2144.5,111.733 2145.8,113C2145.83,113 2145.87,113.017 2145.9,113.05C2147.37,114.35 2149.02,115 2150.85,115L2153.9,115C2155.73,115 2157.37,114.35 2158.8,113.05C2158.8,113.017 2158.82,113 2158.85,113C2160.32,111.7 2161.15,110.117 2161.35,108.25L2161.9,105.5L2161.95,105.5C2162.15,104.267 2162.33,103.05 2162.5,101.85M2145.9,73.9C2145.87,73.9 2145.83,73.917 2145.8,73.95C2144.5,75.217 2143.7,76.8 2143.4,78.7C2143.37,78.8 2143.35,78.9 2143.35,79L2143.35,79.1L2142.45,86.5L2144.35,87.35L2145.35,79.1L2145.35,79C2145.58,77.567 2146.2,76.367 2147.2,75.4C2148.3,74.467 2149.52,74 2150.85,74L2153.9,74C2155.23,74 2156.42,74.45 2157.45,75.35L2157.45,75.4C2158.58,76.4 2159.22,77.6 2159.35,79L2159.95,81.9C2160.25,83.467 2160.5,85.067 2160.7,86.7L2162.6,85.85C2162.43,84.383 2162.22,82.95 2161.95,81.55L2161.9,81.5L2161.3,78.6L2161.35,78.8C2161.18,77 2160.43,75.467 2159.1,74.2C2159,74.067 2158.9,73.95 2158.8,73.85C2157.37,72.617 2155.73,72 2153.9,72L2150.85,72C2149.05,72 2147.4,72.633 2145.9,73.9Z" style="fill:rgb(166,113,59);fill-rule:nonzero;"/>
                <path d="M2163.55,91.15L2162.9,90.55C2163.13,91.383 2163.25,92.317 2163.25,93.35L2163.25,94.2C2163.25,94.667 2163.23,95.117 2163.2,95.55L2163.45,95.3C2164.85,93.9 2164.88,92.517 2163.55,91.15Z" style="fill:rgb(229,186,146);fill-rule:nonzero;"/>
                <path d="M2164.9,89.7L2164.65,89.45C2164.18,88.117 2163.5,86.917 2162.6,85.85L2160.7,86.7C2161.73,87.833 2162.47,89.117 2162.9,90.55L2163.55,91.15C2164.88,92.517 2164.85,93.9 2163.45,95.3L2163.2,95.55C2162.9,97.617 2162.03,99.417 2160.6,100.95L2162.5,101.85C2163.8,100.283 2164.65,98.517 2165.05,96.55C2167.22,94.25 2167.2,91.983 2165,89.75C2164.97,89.717 2164.93,89.7 2164.9,89.7Z" style="fill:rgb(163,133,104);fill-rule:nonzero;"/>
                <path d="M2153.6,84.95C2153.53,85.25 2153.55,85.55 2153.65,85.85C2153.95,86.75 2155.02,87.633 2156.85,88.5C2158.28,89.067 2159,90.817 2159,93.75C2159,96.683 2158.28,98.45 2156.85,99.05C2155.02,99.917 2153.95,100.833 2153.65,101.8C2153.55,102.033 2153.53,102.283 2153.6,102.55C2153.7,103.05 2153.97,103.533 2154.4,104C2156.7,103.8 2158.68,102.867 2160.35,101.2C2160.42,101.133 2160.5,101.05 2160.6,100.95C2162.03,99.417 2162.9,97.617 2163.2,95.55C2163.23,95.117 2163.25,94.667 2163.25,94.2L2163.25,93.35C2163.25,92.317 2163.13,91.383 2162.9,90.55C2162.47,89.117 2161.73,87.833 2160.7,86.7C2160.57,86.567 2160.45,86.45 2160.35,86.35C2158.68,84.65 2156.7,83.717 2154.4,83.55C2153.97,84.017 2153.7,84.483 2153.6,84.95Z" style="fill:rgb(255,208,163);fill-rule:nonzero;"/>
                <path d="M2142,94.2L2142,93.35C2142,91.083 2142.78,89.083 2144.35,87.35L2142.45,86.5C2140.82,88.467 2140,90.75 2140,93.35L2140,94.2C2140,96.833 2140.85,99.167 2142.55,101.2L2144.45,100.3C2142.82,98.567 2142,96.533 2142,94.2Z" style="fill:rgb(128,88,46);fill-rule:nonzero;"/>
                <path d="M2142,93.35L2142,94.2C2142,96.533 2142.82,98.567 2144.45,100.3C2144.72,100.6 2145.02,100.9 2145.35,101.2C2147.58,103.133 2150.3,104.1 2153.5,104.1C2153.8,104.1 2154.1,104.067 2154.4,104C2153.97,103.533 2153.7,103.05 2153.6,102.55C2153.53,102.283 2153.55,102.033 2153.65,101.8C2153.95,100.833 2155.02,99.917 2156.85,99.05C2158.28,98.45 2159,96.683 2159,93.75C2159,90.817 2158.28,89.067 2156.85,88.5C2155.02,87.633 2153.95,86.75 2153.65,85.85C2153.55,85.55 2153.53,85.25 2153.6,84.95C2153.7,84.483 2153.97,84.017 2154.4,83.55C2154.1,83.483 2153.8,83.45 2153.5,83.45C2150.3,83.45 2147.58,84.417 2145.35,86.35C2144.98,86.65 2144.65,86.983 2144.35,87.35C2142.78,89.083 2142,91.083 2142,93.35Z" style="fill:rgb(177,121,64);fill-rule:nonzero;"/>
            </g>
        </g>
    </g>
</svg>
