<?xml version="1.0" encoding="UTF-8" standalone="no"?>
<!DOCTYPE svg PUBLIC "-//W3C//DTD SVG 1.1//EN" "http://www.w3.org/Graphics/SVG/1.1/DTD/svg11.dtd">
<svg width="100%" height="100%" viewBox="0 0 33 43" version="1.1" xmlns="http://www.w3.org/2000/svg" xmlns:xlink="http://www.w3.org/1999/xlink" xml:space="preserve" xmlns:serif="http://www.serif.com/" style="fill-rule:evenodd;clip-rule:evenodd;stroke-linejoin:round;stroke-miterlimit:2;">
    <g transform="matrix(1,0,0,1,-150.15,-32)">
        <g transform="matrix(1,0,0,1,-2049.85,-40)">
            <g id="Layer0_94_MEMBER_1_FILL">
                <path d="M2223.6,103.35C2223.47,103.15 2223.27,103 2223,102.9C2222.8,102.8 2222.58,102.817 2222.35,102.95L2220.35,103.5C2220.28,104.033 2220.2,104.567 2220.1,105.1L2219.65,107.3C2219.55,108.333 2219.08,109.217 2218.25,109.95C2217.52,110.683 2216.65,111.05 2215.65,111.05L2213.4,111.05C2213.13,111.05 2212.88,111.033 2212.65,111C2214.32,112.1 2216.18,112.667 2218.25,112.7C2219.05,112.733 2219.87,112.683 2220.7,112.55L2224.75,111.95C2225.02,111.917 2225.23,111.833 2225.4,111.7C2225.53,111.5 2225.6,111.25 2225.6,110.95C2225.57,110.883 2225.57,110.8 2225.6,110.7L2225.6,110.3C2225.53,107.933 2224.92,105.717 2223.75,103.65L2223.7,103.65C2223.63,103.55 2223.6,103.45 2223.6,103.35Z" style="fill:rgb(194,132,70);fill-rule:nonzero;"/>
                <path d="M2223.75,103.65L2224.45,101.4C2224.28,101.3 2224.1,101.2 2223.9,101.1C2223.2,100.7 2222.45,100.7 2221.65,101.1L2219.85,101.6C2219.45,101.7 2219.12,101.9 2218.85,102.2C2218.58,102.5 2218.43,102.85 2218.4,103.25C2218.33,103.517 2218.28,103.783 2218.25,104.05C2218.22,104.283 2218.18,104.517 2218.15,104.75L2218.15,104.7L2217.7,106.9C2217.67,106.967 2217.65,107.033 2217.65,107.1C2217.58,107.633 2217.35,108.083 2216.95,108.45C2216.92,108.483 2216.88,108.517 2216.85,108.55C2216.52,108.883 2216.12,109.05 2215.65,109.05L2212.95,109.05C2212.72,108.983 2212.48,108.983 2212.25,109.05C2212.05,109.083 2211.85,109.167 2211.65,109.3C2211.22,109.533 2210.93,109.867 2210.8,110.3C2210.63,110.733 2210.62,111.183 2210.75,111.65C2210.88,112.083 2211.15,112.433 2211.55,112.7C2211.78,112.833 2212.02,112.967 2212.25,113.1C2214.05,114.133 2216.05,114.683 2218.25,114.75C2219.15,114.75 2220.07,114.683 2221,114.55L2225.05,113.95L2225,113.95C2225.67,113.85 2226.22,113.617 2226.65,113.25C2226.82,113.117 2226.97,112.967 2227.1,112.8C2227.2,112.633 2227.3,112.467 2227.4,112.3L2225.6,110.7C2225.57,110.8 2225.57,110.883 2225.6,110.95C2225.6,111.25 2225.53,111.5 2225.4,111.7C2225.23,111.833 2225.02,111.917 2224.75,111.95L2220.7,112.55C2219.87,112.683 2219.05,112.733 2218.25,112.7C2216.18,112.667 2214.32,112.1 2212.65,111C2212.88,111.033 2213.13,111.05 2213.4,111.05L2215.65,111.05C2216.65,111.05 2217.52,110.683 2218.25,109.95C2219.08,109.217 2219.55,108.333 2219.65,107.3L2220.1,105.1C2220.2,104.567 2220.28,104.033 2220.35,103.5L2222.35,102.95C2222.58,102.817 2222.8,102.8 2223,102.9C2223.27,103 2223.47,103.15 2223.6,103.35C2223.6,103.45 2223.63,103.55 2223.7,103.65L2223.75,103.65Z" style="fill:rgb(166,113,59);fill-rule:nonzero;"/>
                <path d="M2229.65,104.25C2229.65,104.183 2229.63,104.117 2229.6,104.05C2229.23,102.817 2228.37,102.383 2227,102.75L2223.75,103.65C2224.92,105.717 2225.53,107.933 2225.6,110.3L2225.6,110.7L2228.85,109.75C2229.15,109.683 2229.4,109.6 2229.6,109.5C2229.83,109.367 2230.02,109.217 2230.15,109.05C2230.58,108.583 2230.7,107.95 2230.5,107.15L2229.65,104.25Z" style="fill:rgb(255,208,163);fill-rule:nonzero;"/>
                <path d="M2229.75,101.1C2229.68,101.067 2229.63,101.033 2229.6,101C2228.8,100.533 2227.75,100.483 2226.45,100.85L2226.5,100.85L2224.45,101.4L2223.75,103.65L2227,102.75C2228.37,102.383 2229.23,102.817 2229.6,104.05C2229.63,104.117 2229.65,104.183 2229.65,104.25L2230.5,107.15C2230.7,107.95 2230.58,108.583 2230.15,109.05C2230.02,109.217 2229.83,109.367 2229.6,109.5C2229.4,109.6 2229.15,109.683 2228.85,109.75L2225.6,110.7L2227.4,112.3L2229.4,111.7C2229.47,111.667 2229.53,111.65 2229.6,111.65C2230.5,111.383 2231.18,110.967 2231.65,110.4C2232.58,109.5 2232.85,108.267 2232.45,106.7L2232.45,106.6L2231.6,103.8C2231.27,102.433 2230.65,101.533 2229.75,101.1Z" style="fill:rgb(163,133,104);fill-rule:nonzero;"/>
            </g>
        </g>
        <g transform="matrix(1,0,0,1,-2049.85,-40)">
            <g id="Layer0_94_MEMBER_2_FILL">
                <path d="M2219.95,105.1C2220.22,103.733 2220.43,102.35 2220.6,100.95C2220.5,101.05 2220.42,101.133 2220.35,101.2C2218.68,102.867 2216.7,103.8 2214.4,104C2214.1,104.067 2213.8,104.1 2213.5,104.1C2210.3,104.1 2207.58,103.133 2205.35,101.2C2205.02,100.9 2204.72,100.6 2204.45,100.3L2205.35,107.95C2205.58,109.383 2206.2,110.583 2207.2,111.55C2208.3,112.517 2209.52,113 2210.85,113L2213.9,113C2215.23,113 2216.42,112.517 2217.45,111.55C2218.58,110.55 2219.22,109.333 2219.35,107.9L2219.35,108L2219.95,105.1M2213.9,74L2210.85,74C2209.52,74 2208.3,74.467 2207.2,75.4C2206.2,76.367 2205.58,77.567 2205.35,79L2205.35,79.1L2204.35,87.35C2204.65,86.983 2204.98,86.65 2205.35,86.35C2207.58,84.417 2210.3,83.45 2213.5,83.45C2213.8,83.45 2214.1,83.483 2214.4,83.55C2216.7,83.717 2218.68,84.65 2220.35,86.35C2220.45,86.45 2220.57,86.567 2220.7,86.7C2220.5,85.067 2220.25,83.467 2219.95,81.9L2219.35,79C2219.22,77.6 2218.58,76.4 2217.45,75.4L2217.45,75.35C2216.42,74.45 2215.23,74 2213.9,74Z" style="fill:rgb(205,140,74);fill-rule:nonzero;"/>
                <path d="M2222.5,101.85L2220.6,100.95C2220.43,102.35 2220.22,103.733 2219.95,105.1L2219.35,108L2219.35,107.9C2219.22,109.333 2218.58,110.55 2217.45,111.55C2216.42,112.517 2215.23,113 2213.9,113L2210.85,113C2209.52,113 2208.3,112.517 2207.2,111.55C2206.2,110.583 2205.58,109.383 2205.35,107.95L2204.45,100.3L2202.55,101.2L2203.4,108.2C2203.37,108.233 2203.37,108.267 2203.4,108.3C2203.7,110.167 2204.5,111.733 2205.8,113C2205.83,113 2205.87,113.017 2205.9,113.05C2207.37,114.35 2209.02,115 2210.85,115L2213.9,115C2215.73,115 2217.37,114.35 2218.8,113.05C2218.8,113.017 2218.82,113 2218.85,113C2220.32,111.7 2221.15,110.117 2221.35,108.25L2221.9,105.5L2221.95,105.5C2222.15,104.267 2222.33,103.05 2222.5,101.85M2210.85,74L2213.9,74C2215.23,74 2216.42,74.45 2217.45,75.35L2217.45,75.4C2218.58,76.4 2219.22,77.6 2219.35,79L2219.95,81.9C2220.25,83.467 2220.5,85.067 2220.7,86.7L2222.6,85.85C2222.43,84.383 2222.22,82.95 2221.95,81.55L2221.9,81.5L2221.3,78.6L2221.35,78.8C2221.18,77 2220.43,75.467 2219.1,74.2C2219,74.067 2218.9,73.95 2218.8,73.85C2217.37,72.617 2215.73,72 2213.9,72L2210.85,72C2209.05,72 2207.4,72.633 2205.9,73.9C2205.87,73.9 2205.83,73.917 2205.8,73.95C2204.5,75.217 2203.7,76.8 2203.4,78.7C2203.37,78.8 2203.35,78.9 2203.35,79L2203.35,79.1L2202.45,86.5L2204.35,87.35L2205.35,79.1L2205.35,79C2205.58,77.567 2206.2,76.367 2207.2,75.4C2208.3,74.467 2209.52,74 2210.85,74Z" style="fill:rgb(166,113,59);fill-rule:nonzero;"/>
                <path d="M2223.55,91.15L2222.9,90.55C2223.13,91.383 2223.25,92.317 2223.25,93.35L2223.25,94.2C2223.25,94.667 2223.23,95.117 2223.2,95.55L2223.45,95.3C2224.85,93.9 2224.88,92.517 2223.55,91.15Z" style="fill:rgb(229,186,146);fill-rule:nonzero;"/>
                <path d="M2224.9,89.7L2224.65,89.45C2224.18,88.117 2223.5,86.917 2222.6,85.85L2220.7,86.7C2221.73,87.833 2222.47,89.117 2222.9,90.55L2223.55,91.15C2224.88,92.517 2224.85,93.9 2223.45,95.3L2223.2,95.55C2222.9,97.617 2222.03,99.417 2220.6,100.95L2222.5,101.85C2223.8,100.283 2224.65,98.517 2225.05,96.55C2227.22,94.25 2227.2,91.983 2225,89.75C2224.97,89.717 2224.93,89.7 2224.9,89.7Z" style="fill:rgb(163,133,104);fill-rule:nonzero;"/>
                <path d="M2213.6,84.95C2213.53,85.25 2213.55,85.55 2213.65,85.85C2213.95,86.75 2215.02,87.633 2216.85,88.5C2218.28,89.067 2219,90.817 2219,93.75C2219,96.683 2218.28,98.45 2216.85,99.05C2215.02,99.917 2213.95,100.833 2213.65,101.8C2213.55,102.033 2213.53,102.283 2213.6,102.55C2213.7,103.05 2213.97,103.533 2214.4,104C2216.7,103.8 2218.68,102.867 2220.35,101.2C2220.42,101.133 2220.5,101.05 2220.6,100.95C2222.03,99.417 2222.9,97.617 2223.2,95.55C2223.23,95.117 2223.25,94.667 2223.25,94.2L2223.25,93.35C2223.25,92.317 2223.13,91.383 2222.9,90.55C2222.47,89.117 2221.73,87.833 2220.7,86.7C2220.57,86.567 2220.45,86.45 2220.35,86.35C2218.68,84.65 2216.7,83.717 2214.4,83.55C2213.97,84.017 2213.7,84.483 2213.6,84.95Z" style="fill:rgb(255,208,163);fill-rule:nonzero;"/>
                <path d="M2202,94.2L2202,93.35C2202,91.083 2202.78,89.083 2204.35,87.35L2202.45,86.5C2200.82,88.467 2200,90.75 2200,93.35L2200,94.2C2200,96.833 2200.85,99.167 2202.55,101.2L2204.45,100.3C2202.82,98.567 2202,96.533 2202,94.2Z" style="fill:rgb(128,88,46);fill-rule:nonzero;"/>
                <path d="M2202,93.35L2202,94.2C2202,96.533 2202.82,98.567 2204.45,100.3C2204.72,100.6 2205.02,100.9 2205.35,101.2C2207.58,103.133 2210.3,104.1 2213.5,104.1C2213.8,104.1 2214.1,104.067 2214.4,104C2213.97,103.533 2213.7,103.05 2213.6,102.55C2213.53,102.283 2213.55,102.033 2213.65,101.8C2213.95,100.833 2215.02,99.917 2216.85,99.05C2218.28,98.45 2219,96.683 2219,93.75C2219,90.817 2218.28,89.067 2216.85,88.5C2215.02,87.633 2213.95,86.75 2213.65,85.85C2213.55,85.55 2213.53,85.25 2213.6,84.95C2213.7,84.483 2213.97,84.017 2214.4,83.55C2214.1,83.483 2213.8,83.45 2213.5,83.45C2210.3,83.45 2207.58,84.417 2205.35,86.35C2204.98,86.65 2204.65,86.983 2204.35,87.35C2202.78,89.083 2202,91.083 2202,93.35Z" style="fill:rgb(177,121,64);fill-rule:nonzero;"/>
            </g>
        </g>
    </g>
</svg>
