<?xml version="1.0" encoding="UTF-8" standalone="no"?>
<!DOCTYPE svg PUBLIC "-//W3C//DTD SVG 1.1//EN" "http://www.w3.org/Graphics/SVG/1.1/DTD/svg11.dtd">
<svg width="100%" height="100%" viewBox="0 0 22 42" version="1.1" xmlns="http://www.w3.org/2000/svg" xmlns:xlink="http://www.w3.org/1999/xlink" xml:space="preserve" xmlns:serif="http://www.serif.com/" style="fill-rule:evenodd;clip-rule:evenodd;stroke-linejoin:round;stroke-miterlimit:2;">
    <g transform="matrix(1,0,0,1,-280.811,-33.1)">
        <g transform="matrix(1,0,0,1,-2049.85,-40)">
            <g id="Layer0_92_MEMBER_1_FILL">
                <path d="M2345.6,110.3L2345.6,110.7L2348.85,109.75C2349.15,109.683 2349.4,109.6 2349.6,109.5C2349.83,109.367 2350.02,109.217 2350.15,109.05C2350.58,108.583 2350.7,107.95 2350.5,107.15L2349.65,104.25C2349.65,104.183 2349.63,104.117 2349.6,104.05C2349.23,102.817 2348.37,102.383 2347,102.75L2343.75,103.65C2344.92,105.717 2345.53,107.933 2345.6,110.3M2350.15,78.75C2350.02,78.583 2349.83,78.45 2349.6,78.35C2349.4,78.25 2349.15,78.167 2348.85,78.1L2345.6,77.15L2345.6,77.55C2345.53,79.917 2344.92,82.117 2343.75,84.15L2347,85.05C2348.37,85.417 2349.23,85 2349.6,83.8C2349.63,83.733 2349.65,83.667 2349.65,83.6L2350.5,80.7C2350.7,79.9 2350.58,79.25 2350.15,78.75Z" style="fill:rgb(255,208,163);fill-rule:nonzero;"/>
                <path d="M2340.1,105.1C2340.2,104.567 2340.28,104.033 2340.35,103.5L2342.35,102.95C2342.58,102.817 2342.8,102.8 2343,102.9C2343.27,103 2343.47,103.15 2343.6,103.35C2343.6,103.45 2343.63,103.55 2343.7,103.65L2343.75,103.65L2344.45,101.4C2344.28,101.3 2344.1,101.2 2343.9,101.1C2343.2,100.7 2342.45,100.7 2341.65,101.1L2339.85,101.6C2339.45,101.7 2339.12,101.9 2338.85,102.2C2338.58,102.5 2338.43,102.85 2338.4,103.25C2338.33,103.517 2338.28,103.783 2338.25,104.05C2338.22,104.283 2338.18,104.517 2338.15,104.75L2338.15,104.7L2337.7,106.9C2337.67,106.967 2337.65,107.033 2337.65,107.1C2337.58,107.633 2337.35,108.083 2336.95,108.45C2336.92,108.483 2336.88,108.517 2336.85,108.55C2336.52,108.883 2336.12,109.05 2335.65,109.05L2332.95,109.05C2332.72,108.983 2332.48,108.983 2332.25,109.05C2332.05,109.083 2331.85,109.167 2331.65,109.3C2331.22,109.533 2330.93,109.867 2330.8,110.3C2330.63,110.733 2330.62,111.183 2330.75,111.65C2330.88,112.083 2331.15,112.433 2331.55,112.7C2331.78,112.833 2332.02,112.967 2332.25,113.1C2334.05,114.133 2336.05,114.683 2338.25,114.75C2339.15,114.75 2340.07,114.683 2341,114.55L2345.05,113.95L2345,113.95C2345.67,113.85 2346.22,113.617 2346.65,113.25C2346.82,113.117 2346.97,112.967 2347.1,112.8C2347.2,112.633 2347.3,112.467 2347.4,112.3L2345.6,110.7C2345.57,110.8 2345.57,110.883 2345.6,110.95C2345.6,111.25 2345.53,111.5 2345.4,111.7C2345.23,111.833 2345.02,111.917 2344.75,111.95L2340.7,112.55C2339.87,112.683 2339.05,112.733 2338.25,112.7C2336.18,112.667 2334.32,112.1 2332.65,111C2332.88,111.033 2333.13,111.05 2333.4,111.05L2335.65,111.05C2336.65,111.05 2337.52,110.683 2338.25,109.95C2339.08,109.217 2339.55,108.333 2339.65,107.3L2340.1,105.1M2344.9,73.9L2341,73.35C2340.07,73.183 2339.15,73.1 2338.25,73.1C2336.05,73.133 2334.05,73.683 2332.25,74.75C2332.02,74.883 2331.78,75.033 2331.55,75.2C2331.15,75.433 2330.88,75.783 2330.75,76.25C2330.62,76.683 2330.63,77.117 2330.8,77.55C2330.93,77.983 2331.22,78.333 2331.65,78.6C2331.85,78.7 2332.05,78.783 2332.25,78.85C2332.48,78.883 2332.72,78.883 2332.95,78.85C2333.08,78.817 2333.23,78.8 2333.4,78.8L2335.65,78.8C2336.12,78.8 2336.53,78.967 2336.9,79.3L2336.9,79.35C2337.33,79.75 2337.58,80.217 2337.65,80.75C2337.65,80.817 2337.67,80.883 2337.7,80.95L2338.15,83.15C2338.18,83.35 2338.22,83.567 2338.25,83.8C2338.28,84.067 2338.33,84.333 2338.4,84.6C2338.43,85 2338.58,85.35 2338.85,85.65C2339.12,85.95 2339.45,86.167 2339.85,86.3L2341.55,86.75C2342.28,87.05 2342.98,87.083 2343.65,86.85L2343.7,86.85C2344,86.717 2344.27,86.583 2344.5,86.45L2343.75,84.15L2343.7,84.2C2343.63,84.267 2343.6,84.35 2343.6,84.45C2343.47,84.683 2343.27,84.85 2343,84.95C2342.8,85.017 2342.58,85 2342.35,84.9L2340.35,84.35C2340.28,83.817 2340.2,83.283 2340.1,82.75L2339.65,80.55C2339.55,79.517 2339.08,78.617 2338.25,77.85C2337.52,77.15 2336.65,76.8 2335.65,76.8L2333.4,76.8C2333.13,76.8 2332.88,76.817 2332.65,76.85C2334.32,75.75 2336.18,75.183 2338.25,75.15C2339.05,75.117 2339.87,75.167 2340.7,75.3L2344.75,75.9C2345.02,75.9 2345.23,75.983 2345.4,76.15C2345.53,76.35 2345.6,76.6 2345.6,76.9C2345.57,76.967 2345.57,77.05 2345.6,77.15L2347.4,75.6C2347.3,75.4 2347.2,75.217 2347.1,75.05C2347,74.95 2346.92,74.85 2346.85,74.75C2346.35,74.217 2345.7,73.933 2344.9,73.9Z" style="fill:rgb(166,113,59);fill-rule:nonzero;"/>
                <path d="M2340.35,103.5C2340.28,104.033 2340.2,104.567 2340.1,105.1L2339.65,107.3C2339.55,108.333 2339.08,109.217 2338.25,109.95C2337.52,110.683 2336.65,111.05 2335.65,111.05L2333.4,111.05C2333.13,111.05 2332.88,111.033 2332.65,111C2334.32,112.1 2336.18,112.667 2338.25,112.7C2339.05,112.733 2339.87,112.683 2340.7,112.55L2344.75,111.95C2345.02,111.917 2345.23,111.833 2345.4,111.7C2345.53,111.5 2345.6,111.25 2345.6,110.95C2345.57,110.883 2345.57,110.8 2345.6,110.7L2345.6,110.3C2345.53,107.933 2344.92,105.717 2343.75,103.65L2343.7,103.65C2343.63,103.55 2343.6,103.45 2343.6,103.35C2343.47,103.15 2343.27,103 2343,102.9C2342.8,102.8 2342.58,102.817 2342.35,102.95L2340.35,103.5M2345.6,77.55L2345.6,77.15C2345.57,77.05 2345.57,76.967 2345.6,76.9C2345.6,76.6 2345.53,76.35 2345.4,76.15C2345.23,75.983 2345.02,75.9 2344.75,75.9L2340.7,75.3C2339.87,75.167 2339.05,75.117 2338.25,75.15C2336.18,75.183 2334.32,75.75 2332.65,76.85C2332.88,76.817 2333.13,76.8 2333.4,76.8L2335.65,76.8C2336.65,76.8 2337.52,77.15 2338.25,77.85C2339.08,78.617 2339.55,79.517 2339.65,80.55L2340.1,82.75C2340.2,83.283 2340.28,83.817 2340.35,84.35L2342.35,84.9C2342.58,85 2342.8,85.017 2343,84.95C2343.27,84.85 2343.47,84.683 2343.6,84.45C2343.6,84.35 2343.63,84.267 2343.7,84.2L2343.75,84.15C2344.92,82.117 2345.53,79.917 2345.6,77.55Z" style="fill:rgb(194,132,70);fill-rule:nonzero;"/>
                <path d="M2346.5,100.85L2344.45,101.4L2343.75,103.65L2347,102.75C2348.37,102.383 2349.23,102.817 2349.6,104.05C2349.63,104.117 2349.65,104.183 2349.65,104.25L2350.5,107.15C2350.7,107.95 2350.58,108.583 2350.15,109.05C2350.02,109.217 2349.83,109.367 2349.6,109.5C2349.4,109.6 2349.15,109.683 2348.85,109.75L2345.6,110.7L2347.4,112.3L2349.4,111.7C2349.47,111.667 2349.53,111.65 2349.6,111.65C2350.5,111.383 2351.18,110.967 2351.65,110.4C2352.58,109.5 2352.85,108.267 2352.45,106.7L2352.45,106.6L2351.6,103.8C2351.27,102.433 2350.65,101.533 2349.75,101.1C2349.68,101.067 2349.63,101.033 2349.6,101C2348.8,100.533 2347.75,100.483 2346.45,100.85L2346.5,100.85M2349.6,78.35C2349.83,78.45 2350.02,78.583 2350.15,78.75C2350.58,79.25 2350.7,79.9 2350.5,80.7L2349.65,83.6C2349.65,83.667 2349.63,83.733 2349.6,83.8C2349.23,85 2348.37,85.417 2347,85.05L2343.75,84.15L2344.5,86.45L2346.5,87L2346.45,87C2347.75,87.333 2348.8,87.267 2349.6,86.8C2349.63,86.8 2349.67,86.783 2349.7,86.75C2350.6,86.317 2351.23,85.467 2351.6,84.2L2351.6,84.1L2352.45,81.3L2352.45,81.2C2352.82,79.633 2352.55,78.383 2351.65,77.45C2351.22,76.883 2350.53,76.483 2349.6,76.25C2349.53,76.217 2349.47,76.2 2349.4,76.2L2347.4,75.6L2345.6,77.15L2348.85,78.1C2349.15,78.167 2349.4,78.25 2349.6,78.35Z" style="fill:rgb(163,133,104);fill-rule:nonzero;"/>
            </g>
        </g>
    </g>
</svg>
