<?xml version="1.0" encoding="UTF-8" standalone="no"?>
<!DOCTYPE svg PUBLIC "-//W3C//DTD SVG 1.1//EN" "http://www.w3.org/Graphics/SVG/1.1/DTD/svg11.dtd">
<svg width="100%" height="100%" viewBox="0 0 27 43" version="1.1" xmlns="http://www.w3.org/2000/svg" xmlns:xlink="http://www.w3.org/1999/xlink" xml:space="preserve" xmlns:serif="http://www.serif.com/" style="fill-rule:evenodd;clip-rule:evenodd;stroke-linejoin:round;stroke-miterlimit:2;">
    <g transform="matrix(1,0,0,1,-30.15,-32)">
        <g transform="matrix(1,0,0,1,-2049.85,-40)">
            <g id="Layer0_96_MEMBER_1_FILL">
                <path d="M2099.95,105.1C2100.22,103.733 2100.43,102.35 2100.6,100.95C2100.5,101.05 2100.42,101.133 2100.35,101.2C2098.68,102.867 2096.7,103.8 2094.4,104C2094.1,104.067 2093.8,104.1 2093.5,104.1C2090.3,104.1 2087.58,103.133 2085.35,101.2C2085.02,100.9 2084.72,100.6 2084.45,100.3L2085.35,107.95C2085.58,109.383 2086.2,110.583 2087.2,111.55C2088.3,112.517 2089.52,113 2090.85,113L2093.9,113C2095.23,113 2096.42,112.517 2097.45,111.55C2098.58,110.55 2099.22,109.333 2099.35,107.9L2099.35,108L2099.95,105.1M2093.9,74L2090.85,74C2089.52,74 2088.3,74.467 2087.2,75.4C2086.2,76.367 2085.58,77.567 2085.35,79L2085.35,79.1L2084.35,87.35C2084.65,86.983 2084.98,86.65 2085.35,86.35C2087.58,84.417 2090.3,83.45 2093.5,83.45C2093.8,83.45 2094.1,83.483 2094.4,83.55C2096.7,83.717 2098.68,84.65 2100.35,86.35C2100.45,86.45 2100.57,86.567 2100.7,86.7C2100.5,85.067 2100.25,83.467 2099.95,81.9L2099.35,79C2099.22,77.6 2098.58,76.4 2097.45,75.4L2097.45,75.35C2096.42,74.45 2095.23,74 2093.9,74Z" style="fill:rgb(205,140,74);fill-rule:nonzero;"/>
                <path d="M2102.5,101.85L2100.6,100.95C2100.43,102.35 2100.22,103.733 2099.95,105.1L2099.35,108L2099.35,107.9C2099.22,109.333 2098.58,110.55 2097.45,111.55C2096.42,112.517 2095.23,113 2093.9,113L2090.85,113C2089.52,113 2088.3,112.517 2087.2,111.55C2086.2,110.583 2085.58,109.383 2085.35,107.95L2084.45,100.3L2082.55,101.2L2083.4,108.2C2083.37,108.233 2083.37,108.267 2083.4,108.3C2083.7,110.167 2084.5,111.733 2085.8,113C2085.83,113 2085.87,113.017 2085.9,113.05C2087.37,114.35 2089.02,115 2090.85,115L2093.9,115C2095.73,115 2097.37,114.35 2098.8,113.05C2098.8,113.017 2098.82,113 2098.85,113C2100.32,111.7 2101.15,110.117 2101.35,108.25L2101.9,105.5L2101.95,105.5C2102.15,104.267 2102.33,103.05 2102.5,101.85M2090.85,74L2093.9,74C2095.23,74 2096.42,74.45 2097.45,75.35L2097.45,75.4C2098.58,76.4 2099.22,77.6 2099.35,79L2099.95,81.9C2100.25,83.467 2100.5,85.067 2100.7,86.7L2102.6,85.85C2102.43,84.383 2102.22,82.95 2101.95,81.55L2101.9,81.5L2101.3,78.6L2101.35,78.8C2101.18,77 2100.43,75.467 2099.1,74.2C2099,74.067 2098.9,73.95 2098.8,73.85C2097.37,72.617 2095.73,72 2093.9,72L2090.85,72C2089.05,72 2087.4,72.633 2085.9,73.9C2085.87,73.9 2085.83,73.917 2085.8,73.95C2084.5,75.217 2083.7,76.8 2083.4,78.7C2083.37,78.8 2083.35,78.9 2083.35,79L2083.35,79.1L2082.45,86.5L2084.35,87.35L2085.35,79.1L2085.35,79C2085.58,77.567 2086.2,76.367 2087.2,75.4C2088.3,74.467 2089.52,74 2090.85,74Z" style="fill:rgb(166,113,59);fill-rule:nonzero;"/>
                <path d="M2103.55,91.15L2102.9,90.55C2103.13,91.383 2103.25,92.317 2103.25,93.35L2103.25,94.2C2103.25,94.667 2103.23,95.117 2103.2,95.55L2103.45,95.3C2104.85,93.9 2104.88,92.517 2103.55,91.15Z" style="fill:rgb(229,186,146);fill-rule:nonzero;"/>
                <path d="M2104.9,89.7L2104.65,89.45C2104.18,88.117 2103.5,86.917 2102.6,85.85L2100.7,86.7C2101.73,87.833 2102.47,89.117 2102.9,90.55L2103.55,91.15C2104.88,92.517 2104.85,93.9 2103.45,95.3L2103.2,95.55C2102.9,97.617 2102.03,99.417 2100.6,100.95L2102.5,101.85C2103.8,100.283 2104.65,98.517 2105.05,96.55C2107.22,94.25 2107.2,91.983 2105,89.75C2104.97,89.717 2104.93,89.7 2104.9,89.7Z" style="fill:rgb(163,133,104);fill-rule:nonzero;"/>
                <path d="M2093.6,84.95C2093.53,85.25 2093.55,85.55 2093.65,85.85C2093.95,86.75 2095.02,87.633 2096.85,88.5C2098.28,89.067 2099,90.817 2099,93.75C2099,96.683 2098.28,98.45 2096.85,99.05C2095.02,99.917 2093.95,100.833 2093.65,101.8C2093.55,102.033 2093.53,102.283 2093.6,102.55C2093.7,103.05 2093.97,103.533 2094.4,104C2096.7,103.8 2098.68,102.867 2100.35,101.2C2100.42,101.133 2100.5,101.05 2100.6,100.95C2102.03,99.417 2102.9,97.617 2103.2,95.55C2103.23,95.117 2103.25,94.667 2103.25,94.2L2103.25,93.35C2103.25,92.317 2103.13,91.383 2102.9,90.55C2102.47,89.117 2101.73,87.833 2100.7,86.7C2100.57,86.567 2100.45,86.45 2100.35,86.35C2098.68,84.65 2096.7,83.717 2094.4,83.55C2093.97,84.017 2093.7,84.483 2093.6,84.95Z" style="fill:rgb(255,208,163);fill-rule:nonzero;"/>
                <path d="M2084.35,87.35C2082.78,89.083 2082,91.083 2082,93.35L2082,94.2C2082,96.533 2082.82,98.567 2084.45,100.3C2084.72,100.6 2085.02,100.9 2085.35,101.2C2087.58,103.133 2090.3,104.1 2093.5,104.1C2093.8,104.1 2094.1,104.067 2094.4,104C2093.97,103.533 2093.7,103.05 2093.6,102.55C2093.53,102.283 2093.55,102.033 2093.65,101.8C2093.95,100.833 2095.02,99.917 2096.85,99.05C2098.28,98.45 2099,96.683 2099,93.75C2099,90.817 2098.28,89.067 2096.85,88.5C2095.02,87.633 2093.95,86.75 2093.65,85.85C2093.55,85.55 2093.53,85.25 2093.6,84.95C2093.7,84.483 2093.97,84.017 2094.4,83.55C2094.1,83.483 2093.8,83.45 2093.5,83.45C2090.3,83.45 2087.58,84.417 2085.35,86.35C2084.98,86.65 2084.65,86.983 2084.35,87.35Z" style="fill:rgb(177,121,64);fill-rule:nonzero;"/>
                <path d="M2080,93.35L2080,94.2C2080,96.833 2080.85,99.167 2082.55,101.2L2084.45,100.3C2082.82,98.567 2082,96.533 2082,94.2L2082,93.35C2082,91.083 2082.78,89.083 2084.35,87.35L2082.45,86.5C2080.82,88.467 2080,90.75 2080,93.35Z" style="fill:rgb(128,88,46);fill-rule:nonzero;"/>
            </g>
        </g>
    </g>
</svg>
