<?xml version="1.0" encoding="UTF-8" standalone="no"?>
<!DOCTYPE svg PUBLIC "-//W3C//DTD SVG 1.1//EN" "http://www.w3.org/Graphics/SVG/1.1/DTD/svg11.dtd">
<svg width="100%" height="100%" viewBox="0 0 57 57" version="1.1" xmlns="http://www.w3.org/2000/svg" xmlns:xlink="http://www.w3.org/1999/xlink" xml:space="preserve" xmlns:serif="http://www.serif.com/" style="fill-rule:evenodd;clip-rule:evenodd;stroke-linejoin:round;stroke-miterlimit:2;">
    <g transform="matrix(1,0,0,1,-549.409,-206.244)">
        <g transform="matrix(1,0,0,1,-27.4286,-16.4571)">
            <g transform="matrix(1,0,0,1,-245.161,-199.248)">
                <path d="M835,433.1C837.133,431.7 840.117,431.6 843.95,432.8L844.6,430.2C846.1,424.667 847.9,421.917 850,421.95C852.1,421.95 853.867,424.7 855.3,430.2L855.9,432.8C859.8,431.6 862.817,431.717 864.95,433.15L862.75,434.75C861.483,434.85 859.75,435.517 857.55,436.75L856.2,437.55L855.7,437.6C854.1,434.633 852.183,433.15 849.95,433.15C847.717,433.15 845.8,434.65 844.2,437.65L843.75,437.6C843.283,437.3 842.817,437.05 842.35,436.85C840.183,435.55 838.467,434.85 837.2,434.75L835,433.1M866.9,435.1C868.233,437.267 868.3,440.233 867.1,444L869.8,444.7C875.267,446.167 878.017,447.917 878.05,449.95C878.017,452.05 875.267,453.833 869.8,455.3L867.1,456C868.333,459.833 868.25,462.817 866.85,464.95L865.25,462.85C865.183,461.583 864.483,459.817 863.15,457.55L862.4,456.3L862.35,455.7C865.317,454.067 866.783,452.15 866.75,449.95C866.75,447.75 865.317,445.867 862.45,444.3L862.45,443.5L863.15,442.35C864.417,440.217 865.117,438.517 865.25,437.25L866.9,435.1M864.9,466.85C862.733,468.217 859.733,468.3 855.9,467.1L855.3,469.8C853.833,475.267 852.067,478.017 850,478.05C847.867,478.017 846.067,475.267 844.6,469.8L844.05,467.1C840.217,468.333 837.217,468.267 835.05,466.9L837.4,465.15C838.667,464.983 840.333,464.3 842.4,463.1L843.55,462.45L844.35,462.4C845.95,465.267 847.833,466.717 850,466.75C852.233,466.717 854.133,465.267 855.7,462.4L856.45,462.45L857.55,463.1C859.65,464.367 861.35,465.067 862.65,465.2L864.9,466.85M833.1,464.95C831.667,462.817 831.567,459.833 832.8,456L830.1,455.3C824.667,453.867 821.967,452.1 822,450C821.933,447.933 824.633,446.167 830.1,444.7L832.75,444.05C831.55,440.217 831.667,437.217 833.1,435.05L834.8,437.4C834.967,438.667 835.617,440.317 836.75,442.35L837.55,443.6L837.6,444.3C834.7,445.833 833.267,447.733 833.3,450C833.233,452.133 834.683,454.017 837.65,455.65L837.55,456.35L836.85,457.5C835.583,459.7 834.9,461.433 834.8,462.7L833.1,464.95" style="fill:rgb(142,140,128);fill-rule:nonzero;"/>
            </g>
            <g transform="matrix(1,0,0,1,-245.161,-199.248)">
                <path d="M864.95,433.15C866.783,431.85 867.883,431.383 868.25,431.75C868.617,432.117 868.167,433.233 866.9,435.1L865.25,437.25L864.25,438.5L862.05,441C862.35,441.767 862.483,442.6 862.45,443.5L862.45,444.3L862,446.45L861.05,448.95L859,448.75L858.5,448.75L859.2,446.75L859.2,446.85C859.667,445.183 859.717,443.85 859.35,442.85L859.3,442.35L859.45,442L861.3,439.75L864.7,435.25C864.467,435.283 862.967,436.417 860.2,438.65L858.1,440.5L857.65,440.6L857.25,440.6L853.15,440.8L851.3,441.5L851.25,441L851.05,438.95C851.85,438.583 852.667,438.3 853.5,438.1L855.7,437.6L856.2,437.55L858.9,437.85L861.55,435.7L862.75,434.75L864.95,433.15M866.85,464.95C868.15,466.817 868.617,467.933 868.25,468.3C867.883,468.667 866.767,468.183 864.9,466.85L862.65,465.2L861.5,464.3L858.9,462.15L856.45,462.45L855.7,462.4L853.4,461.9L851.05,461.05L851.25,459L851.3,458.5L853.05,459.1L853.15,459.15L857.2,459.35L857.6,459.35L858.1,459.55L860.2,461.35L864.65,464.7L864.7,464.7L864.7,464.65L861.3,460.25L859.5,458.05L859.3,457.65L859.3,457.25C859.7,456.117 859.65,454.733 859.15,453.1L858.5,451.3L861,451.05L861.85,453.5L862.35,455.7L862.4,456.3C862.467,457.267 862.367,458.15 862.1,458.95L864.25,461.6L865.25,462.85L866.85,464.95M835.05,466.9C833.183,468.167 832.067,468.617 831.7,468.25C831.333,467.883 831.8,466.783 833.1,464.95L834.8,462.7L835.65,461.6L837.85,458.9C837.583,458.133 837.483,457.283 837.55,456.35L837.65,455.65L838.1,453.5L839,451.05L841.5,451.3L840.85,453.1C840.35,454.767 840.283,456.117 840.65,457.15L840.7,457.65L840.45,458L838.65,460.2C836.617,462.7 835.5,464.167 835.3,464.6L835.25,464.7L835.4,464.7L839.75,461.35L839.8,461.3L842,459.55L842.35,459.3L842.8,459.35L846.85,459.1L848.75,458.55L848.75,459L848.95,461.05L846.6,461.9L844.35,462.4L843.55,462.45L841.05,462.1L838.45,464.3L837.4,465.15L835.05,466.9M833.1,435.05C831.8,433.217 831.333,432.117 831.7,431.75C832.067,431.383 833.167,431.833 835,433.1L837.2,434.75L838.45,435.7L841,437.9L843.75,437.6L844.2,437.65L846.4,438.1L848.95,438.95L848.75,441L848.75,441.5L846.8,440.8L842.75,440.6L842.35,440.65L841.95,440.5L839.8,438.65L835.25,435.3C835.183,435.433 836.333,436.917 838.7,439.75L840.5,441.95L840.7,442.35L840.55,442.85C840.217,443.883 840.283,445.2 840.75,446.8L841.5,448.75L841,448.75L838.95,448.95L838,446.5L837.6,444.3L837.55,443.6C837.483,442.667 837.583,441.833 837.85,441.1L835.65,438.5L834.8,437.4L833.1,435.05" style="fill:rgb(255,204,0);fill-rule:nonzero;"/>
            </g>
            <g transform="matrix(1,0,0,1,-245.161,-199.248)">
                <path d="M837.2,434.75C838.467,434.85 840.183,435.55 842.35,436.85C842.817,437.05 843.283,437.3 843.75,437.6L841,437.9L838.45,435.7L837.2,434.75M844.2,437.65C845.8,434.65 847.717,433.15 849.95,433.15C852.183,433.15 854.1,434.633 855.7,437.6L853.5,438.1C852.667,438.3 851.85,438.583 851.05,438.95C850.817,437.417 850.467,436.667 850,436.7C849.533,436.667 849.183,437.417 848.95,438.95L846.4,438.1L844.2,437.65M856.2,437.55L857.55,436.75C859.75,435.517 861.483,434.85 862.75,434.75L861.55,435.7L858.9,437.85L856.2,437.55M861.05,448.95L862,446.45L862.45,444.3C865.317,445.867 866.75,447.75 866.75,449.95C866.783,452.15 865.317,454.067 862.35,455.7L861.85,453.5L861,451.05C862.567,450.817 863.333,450.467 863.3,450C863.333,449.533 862.583,449.183 861.05,448.95M862.45,443.5C862.483,442.6 862.35,441.767 862.05,441L864.25,438.5L865.25,437.25C865.117,438.517 864.417,440.217 863.15,442.35L862.45,443.5M834.8,437.4L835.65,438.5L837.85,441.1C837.583,441.833 837.483,442.667 837.55,443.6L836.75,442.35C835.617,440.317 834.967,438.667 834.8,437.4M837.6,444.3L838,446.5L838.95,448.95C837.383,449.183 836.633,449.533 836.7,450C836.633,450.467 837.4,450.817 839,451.05L838.1,453.5L837.65,455.65C834.683,454.017 833.233,452.133 833.3,450C833.267,447.733 834.7,445.833 837.6,444.3M837.55,456.35C837.483,457.283 837.583,458.133 837.85,458.9L835.65,461.6L834.8,462.7C834.9,461.433 835.583,459.7 836.85,457.5L837.55,456.35M848.95,461.05C849.183,462.617 849.533,463.367 850,463.3C850.467,463.367 850.817,462.617 851.05,461.05L853.4,461.9L855.7,462.4C854.133,465.267 852.233,466.717 850,466.75C847.833,466.717 845.95,465.267 844.35,462.4L846.6,461.9L848.95,461.05M837.4,465.15L838.45,464.3L841.05,462.1L843.55,462.45L842.4,463.1C840.333,464.3 838.667,464.983 837.4,465.15M862.4,456.3L863.15,457.55C864.483,459.817 865.183,461.583 865.25,462.85L864.25,461.6L862.1,458.95C862.367,458.15 862.467,457.267 862.4,456.3M856.45,462.45L858.9,462.15L861.5,464.3L862.65,465.2C861.35,465.067 859.65,464.367 857.55,463.1L856.45,462.45" style="fill:rgb(131,129,118);fill-rule:nonzero;"/>
            </g>
            <g transform="matrix(1,0,0,1,-245.161,-199.248)">
                <path d="M851.05,438.95L851.25,441L851.3,441.5L851.5,448.5L858.5,448.75L859,448.75L861.05,448.95C862.583,449.183 863.333,449.533 863.3,450C863.333,450.467 862.567,450.817 861,451.05L858.5,451.3L851.5,451.5L851.3,458.5L851.25,459L851.05,461.05C850.817,462.617 850.467,463.367 850,463.3C849.533,463.367 849.183,462.617 848.95,461.05L848.75,459L848.75,458.55C848.583,456.517 848.5,454.167 848.5,451.5L841.5,451.3L839,451.05C837.4,450.817 836.633,450.467 836.7,450C836.633,449.533 837.383,449.183 838.95,448.95L841,448.75L841.5,448.75L848.5,448.5C848.5,445.833 848.583,443.5 848.75,441.5L848.75,441L848.95,438.95C849.183,437.417 849.533,436.667 850,436.7C850.467,436.667 850.817,437.417 851.05,438.95" style="fill:rgb(233,230,211);fill-rule:nonzero;"/>
            </g>
            <g transform="matrix(1,0,0,1,-245.161,-199.248)">
                <path d="M851.3,441.5L853.15,440.8L857.25,440.6L857.65,440.6L858.1,440.5L860.2,438.65C862.967,436.417 864.467,435.283 864.7,435.25L861.3,439.75L859.45,442L859.3,442.35L859.35,442.85C859.717,443.85 859.667,445.183 859.2,446.85L859.2,446.75L858.5,448.75L851.5,448.5L851.3,441.5M841.5,448.75L840.75,446.8C840.283,445.2 840.217,443.883 840.55,442.85L840.7,442.35L840.5,441.95L838.7,439.75C836.333,436.917 835.183,435.433 835.25,435.3L839.8,438.65L841.95,440.5L842.35,440.65L842.75,440.6L846.8,440.8L848.75,441.5C848.583,443.5 848.5,445.833 848.5,448.5L841.5,448.75M848.75,458.55L846.85,459.1L842.8,459.35L842.35,459.3L842,459.55L839.8,461.3L839.75,461.35L835.4,464.7L835.25,464.7L835.3,464.6C835.5,464.167 836.617,462.7 838.65,460.2L840.45,458L840.7,457.65L840.65,457.15C840.283,456.117 840.35,454.767 840.85,453.1L841.5,451.3L848.5,451.5C848.5,454.167 848.583,456.517 848.75,458.55M851.3,458.5L851.5,451.5L858.5,451.3L859.15,453.1C859.65,454.733 859.7,456.117 859.3,457.25L859.3,457.65L859.5,458.05L861.3,460.25L864.7,464.65L864.7,464.7L864.65,464.7L860.2,461.35L858.1,459.55L857.6,459.35L857.2,459.35L853.15,459.15L853.05,459.1L851.3,458.5" style="fill:rgb(240,192,0);fill-rule:nonzero;"/>
            </g>
        </g>
    </g>
</svg>
