<?xml version="1.0" encoding="UTF-8" standalone="no"?>
<!DOCTYPE svg PUBLIC "-//W3C//DTD SVG 1.1//EN" "http://www.w3.org/Graphics/SVG/1.1/DTD/svg11.dtd">
<svg width="100%" height="100%" viewBox="0 0 60 60" version="1.1" xmlns="http://www.w3.org/2000/svg" xmlns:xlink="http://www.w3.org/1999/xlink" xml:space="preserve" xmlns:serif="http://www.serif.com/" style="fill-rule:evenodd;clip-rule:evenodd;stroke-linejoin:round;stroke-miterlimit:2;">
    <g transform="matrix(1,0,0,1,-467.706,-204.591)">
        <g transform="matrix(1,0,0,1,-27.4286,-16.4571)">
            <g transform="matrix(1,0,0,1,-245.161,-199.248)">
                <path d="M781.3,441.35L777.7,445.45L778.45,447.1L790.45,447.6C796.75,448.067 799.833,448.867 799.7,450C799.8,451.1 796.717,451.9 790.45,452.4L778.45,452.9L777.7,454.55L781.3,458.55C784.3,461.95 785.4,463.967 784.6,464.6C784.033,465.333 782.017,464.233 778.55,461.3L774.6,457.7L772.9,458.45L772.4,470.45C771.933,476.75 771.133,479.833 770,479.7C768.9,479.8 768.1,476.717 767.6,470.45C767.333,466.917 767.167,462.917 767.1,458.45C766.5,458.25 765.95,458 765.45,457.7L761.4,461.25C758,464.25 756,465.367 755.4,464.6C754.633,464 755.733,461.983 758.7,458.55L762.3,454.55L761.55,452.95L749.55,452.4C743.25,451.9 740.167,451.1 740.3,450C740.167,448.867 743.25,448.067 749.55,447.6L761.55,447.1L762.35,445.45L758.7,441.4C755.733,437.933 754.617,435.917 755.35,435.35C755.983,434.583 758,435.7 761.4,438.7L765.5,442.3C766,442 766.533,441.75 767.1,441.55L767.6,429.55C768.1,423.25 768.9,420.167 770,420.3C771.133,420.167 771.933,423.25 772.4,429.55L772.9,441.55C773.467,441.75 774.017,442 774.55,442.3C775.983,440.967 777.333,439.767 778.6,438.7C782.033,435.7 784.05,434.583 784.65,435.35C785.417,435.95 784.3,437.95 781.3,441.35" style="fill:rgb(233,230,211);fill-rule:nonzero;"/>
            </g>
        </g>
    </g>
</svg>
