<?xml version="1.0" encoding="UTF-8" standalone="no"?>
<!DOCTYPE svg PUBLIC "-//W3C//DTD SVG 1.1//EN" "http://www.w3.org/Graphics/SVG/1.1/DTD/svg11.dtd">
<svg width="100%" height="100%" viewBox="0 0 47 45" version="1.1" xmlns="http://www.w3.org/2000/svg" xmlns:xlink="http://www.w3.org/1999/xlink" xml:space="preserve" xmlns:serif="http://www.serif.com/" style="fill-rule:evenodd;clip-rule:evenodd;stroke-linejoin:round;stroke-miterlimit:2;">
    <g transform="matrix(1,0,0,1,-714.411,-212.095)">
        <g transform="matrix(1,0,0,1,-27.4286,-16.4571)">
            <g transform="matrix(1,0,0,1,-245.161,-199.248)">
                <path d="M998.15,436.2C998.95,435.833 999.8,435.583 1000.7,435.45C1001.23,433.883 1002.15,432.45 1003.45,431.15C1005.65,428.95 1008.33,427.833 1011.5,427.8C1013.37,427.8 1015.08,428.217 1016.65,429.05L1018.95,428.8C1022.12,428.833 1024.8,429.95 1027,432.15C1029.2,434.35 1030.3,437.017 1030.3,440.15L1030.15,442.3C1032.08,444.433 1033.05,446.95 1033.05,449.85C1033.05,453.017 1031.93,455.7 1029.7,457.9L1029.3,458.3L1029.4,459.7C1029.4,462.833 1028.28,465.517 1026.05,467.75C1023.82,469.983 1021.15,471.1 1018.05,471.1C1016.38,471.067 1014.83,470.75 1013.4,470.15C1011.47,471.55 1009.23,472.233 1006.7,472.2C1003.6,472.2 1000.93,471.083 998.7,468.85C997.833,467.983 997.133,467.05 996.6,466.05C994.2,465.683 992.117,464.617 990.35,462.85C988.117,460.617 987,457.933 987,454.8C987,451.667 988.1,449 990.3,446.8L991.35,445.9C991.483,443.1 992.567,440.683 994.6,438.65L995.85,437.55C996.283,438.383 997.067,439.467 998.2,440.8L997.45,441.45L997.45,441.5C996.15,442.767 995.45,444.3 995.35,446.1L994.8,447.9L993.5,449.3L993.25,449.5L993.15,449.65C991.717,451.05 991,452.767 991,454.8C991,456.833 991.733,458.583 993.2,460.05C994.067,460.917 995.067,461.533 996.2,461.9C995.3,463.233 995.1,464.067 995.6,464.4C996.033,465.033 997.25,464.583 999.25,463.05C999.617,463.383 999.917,463.767 1000.15,464.2L1001.55,466.05C1002.98,467.483 1004.7,468.2 1006.7,468.2L1006.75,468.2C1008.38,468.233 1009.82,467.8 1011.05,466.9C1011.62,466.5 1012.25,466.267 1012.95,466.2L1014.95,466.45C1015.92,466.85 1016.95,467.067 1018.05,467.1L1018.15,467.1C1020.12,467.067 1021.82,466.35 1023.25,464.95L1023.55,464.65C1023.95,464.717 1024.23,464.633 1024.4,464.4C1024.7,464.2 1024.75,463.817 1024.55,463.25C1025.12,462.183 1025.4,461 1025.4,459.7L1025.35,458.9C1025.25,458.267 1025.3,457.65 1025.5,457.05C1025.7,456.45 1026.03,455.933 1026.5,455.5L1026.9,455.1L1026.9,455.05C1028.33,453.617 1029.05,451.883 1029.05,449.85C1029.05,447.983 1028.43,446.367 1027.2,445C1026.8,444.533 1026.52,444.033 1026.35,443.5C1026.15,442.9 1026.1,442.317 1026.2,441.75L1026.3,440.15C1026.3,438.117 1025.6,436.4 1024.2,435C1022.77,433.567 1021.02,432.833 1018.95,432.8L1018.9,432.8L1017.5,432.95C1016.53,433.15 1015.63,433.033 1014.8,432.6C1013.8,432.067 1012.72,431.8 1011.55,431.8L1011.5,431.8C1009.43,431.833 1007.7,432.567 1006.3,434C1005.43,434.833 1004.83,435.75 1004.5,436.75C1004.23,437.45 1003.83,438.033 1003.3,438.5L1002,439.25L1001.6,438.9C1000.23,437.667 999.083,436.767 998.15,436.2M1005.95,442.75L1006.7,441.55L1006.65,441.6C1006.82,441.1 1007.13,440.583 1007.6,440.05L1007.9,439.75C1008.77,438.917 1009.82,438.5 1011.05,438.5L1011.1,438.5C1011.83,438.467 1012.5,438.617 1013.1,438.95L1013.2,439C1013.7,439.233 1014.23,439.333 1014.8,439.3L1014.9,439.25L1015.85,439.15L1015.9,439.15L1017.7,439.5L1016.1,440.95C1014.63,441.083 1013.27,440.8 1012,440.1L1011.35,440L1011.3,440C1010.83,440 1010.43,440.15 1010.1,440.45L1009.75,441.05C1009.28,442.317 1008.55,443.4 1007.55,444.3L1005.95,442.75M1020.35,442.5L1020.5,443.75L1020.5,443.95L1020.45,444.65L1020.5,445.9L1021.15,447L1021.15,447.1C1021.92,447.9 1022.3,448.867 1022.3,450L1022.3,450.05C1022.3,451.317 1021.85,452.417 1020.95,453.35L1020.7,453.6L1020.7,453.55L1020,454.7L1020,454.65C1019.87,455.017 1019.83,455.417 1019.9,455.85L1019.95,456.3L1019.95,456.4L1019.9,457L1018.2,455.1L1018.4,454.35C1018.8,453.283 1019.38,452.35 1020.15,451.55L1020.45,451.25C1020.78,450.917 1020.95,450.517 1020.95,450.05L1020.95,450C1020.95,449.633 1020.83,449.317 1020.6,449.05C1019.77,448.15 1019.2,447.133 1018.9,446L1018.65,444.4L1020.35,442.5M1003.2,446.4C1002.93,446.667 1002.78,446.983 1002.75,447.35C1002.68,448.383 1002.4,449.383 1001.9,450.35C1001.4,451.283 1000.72,452.067 999.85,452.7L999.8,452.75C999.5,453.083 999.35,453.45 999.35,453.85L999.35,453.9C999.35,454.367 999.5,454.767 999.8,455.1L1000.65,455.55L1001.3,455.7L1000.05,457.1L999.5,456.65L999.2,456.4C998.367,455.5 997.95,454.433 997.95,453.2L997.95,453.15C997.917,452.05 998.333,451.033 999.2,450.1L999.3,449.95L999.35,449.9L999.75,449.6L1000.45,448.75L1000.75,447.6L1000.8,447.55C1000.87,446.617 1001.22,445.75 1001.85,444.95L1003.2,446.4M1005.1,458L1006.05,459.4L1006.4,459.85C1006.7,460.15 1007.07,460.3 1007.5,460.3L1007.6,460.3L1008.45,460.1C1009.52,459.3 1010.72,458.833 1012.05,458.7C1013.38,458.567 1014.65,458.783 1015.85,459.35L1016.5,459.45L1017.65,460.45C1017.05,460.817 1016.38,461.017 1015.65,461.05L1015.4,461.05L1013.8,460.8L1013.4,460.7L1012,460.45C1011.5,460.45 1011.07,460.617 1010.7,460.95L1010.65,460.95C1009.92,461.55 1009.05,461.817 1008.05,461.75L1007.95,461.75C1006.68,461.75 1005.62,461.317 1004.75,460.45L1004.5,460.15L1004.15,459.7L1003.9,459.3L1003.85,459.2L1005.1,458" style="fill:rgb(131,129,118);fill-rule:nonzero;"/>
            </g>
            <g transform="matrix(1,0,0,1,-245.161,-199.248)">
                <path d="M1002,439.25L1003.3,438.5C1003.83,438.033 1004.23,437.45 1004.5,436.75C1004.83,435.75 1005.43,434.833 1006.3,434C1007.7,432.567 1009.43,431.833 1011.5,431.8L1011.55,431.8C1012.72,431.8 1013.8,432.067 1014.8,432.6C1015.63,433.033 1016.53,433.15 1017.5,432.95L1018.9,432.8L1018.95,432.8C1021.02,432.833 1022.77,433.567 1024.2,435C1025.6,436.4 1026.3,438.117 1026.3,440.15L1026.2,441.75C1026.1,442.317 1026.15,442.9 1026.35,443.5C1026.52,444.033 1026.8,444.533 1027.2,445C1028.43,446.367 1029.05,447.983 1029.05,449.85C1029.05,451.883 1028.33,453.617 1026.9,455.05L1026.9,455.1L1026.5,455.5C1026.03,455.933 1025.7,456.45 1025.5,457.05C1025.3,457.65 1025.25,458.267 1025.35,458.9L1025.4,459.7C1025.4,461 1025.12,462.183 1024.55,463.25C1024.18,462.217 1023.03,460.6 1021.1,458.4L1019.9,457L1019.95,456.4L1019.95,456.3L1019.9,455.85C1019.83,455.417 1019.87,455.017 1020,454.65L1020,454.7L1020.7,453.55L1020.7,453.6L1020.95,453.35C1021.85,452.417 1022.3,451.317 1022.3,450.05L1022.3,450C1022.3,448.867 1021.92,447.9 1021.15,447.1L1021.15,447L1020.5,445.9L1020.45,444.65L1020.5,443.95L1020.5,443.75L1020.35,442.5L1021.1,441.6C1024.1,438.2 1025.2,436.2 1024.4,435.6C1023.8,434.8 1021.8,435.9 1018.4,438.9L1017.7,439.5L1015.9,439.15L1015.85,439.15L1014.9,439.25L1014.8,439.3C1014.23,439.333 1013.7,439.233 1013.2,439L1013.1,438.95C1012.5,438.617 1011.83,438.467 1011.1,438.5L1011.05,438.5C1009.82,438.5 1008.77,438.917 1007.9,439.75L1007.6,440.05C1007.13,440.583 1006.82,441.1 1006.65,441.6L1006.7,441.55L1005.95,442.75L1002,439.25M1023.55,464.65L1023.25,464.95C1021.82,466.35 1020.12,467.067 1018.15,467.1L1018.05,467.1C1016.95,467.067 1015.92,466.85 1014.95,466.45L1012.95,466.2C1012.25,466.267 1011.62,466.5 1011.05,466.9C1009.82,467.8 1008.38,468.233 1006.75,468.2L1006.7,468.2C1004.7,468.2 1002.98,467.483 1001.55,466.05L1000.15,464.2C999.917,463.767 999.617,463.383 999.25,463.05L1001.6,461.1L1003.85,459.2L1003.9,459.3L1004.15,459.7L1004.5,460.15L1004.75,460.45C1005.62,461.317 1006.68,461.75 1007.95,461.75L1008.05,461.75C1009.05,461.817 1009.92,461.55 1010.65,460.95L1010.7,460.95C1011.07,460.617 1011.5,460.45 1012,460.45L1013.4,460.7L1013.8,460.8L1015.4,461.05L1015.65,461.05C1016.38,461.017 1017.05,460.817 1017.65,460.45L1018.4,461.1C1020.83,463.267 1022.55,464.45 1023.55,464.65M996.2,461.9C995.067,461.533 994.067,460.917 993.2,460.05C991.733,458.583 991,456.833 991,454.8C991,452.767 991.717,451.05 993.15,449.65L993.25,449.5L993.5,449.3L994.8,447.9L995.35,446.1C995.45,444.3 996.15,442.767 997.45,441.5L997.45,441.45L998.2,440.8L998.9,441.6L1001.85,444.95C1001.22,445.75 1000.87,446.617 1000.8,447.55L1000.75,447.6L1000.45,448.75L999.75,449.6L999.35,449.9L999.3,449.95L999.2,450.1C998.333,451.033 997.917,452.05 997.95,453.15L997.95,453.2C997.95,454.433 998.367,455.5 999.2,456.4L999.5,456.65L1000.05,457.1L998.9,458.4C997.667,459.8 996.767,460.967 996.2,461.9" style="fill:rgb(142,140,128);fill-rule:nonzero;"/>
            </g>
            <g transform="matrix(1,0,0,1,-245.161,-199.248)">
                <path d="M996.2,461.9C996.767,460.967 997.667,459.8 998.9,458.4L1000.05,457.1L1001.3,455.7L1006.7,450L1003.2,446.4L1001.85,444.95L998.9,441.6L998.2,440.8C997.067,439.467 996.283,438.383 995.85,437.55C995.25,436.55 995.167,435.9 995.6,435.6C995.933,435.1 996.783,435.3 998.15,436.2C999.083,436.767 1000.23,437.667 1001.6,438.9L1002,439.25L1005.95,442.75L1007.55,444.3L1010,446.7L1016.1,440.95L1017.7,439.5L1018.4,438.9C1021.8,435.9 1023.8,434.8 1024.4,435.6C1025.2,436.2 1024.1,438.2 1021.1,441.6L1020.35,442.5L1018.65,444.4L1013.3,450L1018.2,455.1L1019.9,457L1021.1,458.4C1023.03,460.6 1024.18,462.217 1024.55,463.25C1024.75,463.817 1024.7,464.2 1024.4,464.4C1024.23,464.633 1023.95,464.717 1023.55,464.65C1022.55,464.45 1020.83,463.267 1018.4,461.1L1017.65,460.45L1016.5,459.45L1010,453.3L1005.1,458L1003.85,459.2L1001.6,461.1L999.25,463.05C997.25,464.583 996.033,465.033 995.6,464.4C995.1,464.067 995.3,463.233 996.2,461.9M1011.45,448.15C1011.05,448.55 1010.57,448.767 1010,448.8C1009.43,448.767 1008.95,448.55 1008.55,448.15L1005.75,445.4L1003.85,443.6L1001.3,441.3L1003.5,443.7L1005.3,445.6L1008.15,448.55C1008.55,448.95 1008.75,449.45 1008.75,450.05C1008.75,450.583 1008.55,451.05 1008.15,451.45L1003.3,456.5L1002.05,457.85L1001.3,458.7L1003.55,456.7L1008.55,451.85C1008.95,451.45 1009.43,451.267 1010,451.3C1010.57,451.267 1011.05,451.45 1011.45,451.85L1018.1,458.15L1018.7,458.7L1018.1,458L1011.85,451.45C1011.45,451.05 1011.25,450.583 1011.25,450.05C1011.25,449.45 1011.45,448.95 1011.85,448.55L1018.55,441.5L1018.7,441.3L1018.55,441.45L1011.45,448.15M1023.15,437.15L1022.85,436.85L1022.85,437.15L1023.15,437.15M1022.85,463.15L1023.15,462.85L1022.85,462.85L1022.85,463.15" style="fill:rgb(255,204,0);fill-rule:nonzero;"/>
            </g>
            <g transform="matrix(1,0,0,1,-245.161,-199.248)">
                <path d="M1011.45,448.15L1018.55,441.45L1018.7,441.3L1018.55,441.5L1011.85,448.55C1011.45,448.95 1011.25,449.45 1011.25,450.05C1011.25,450.583 1011.45,451.05 1011.85,451.45L1018.1,458L1018.7,458.7L1018.1,458.15L1011.45,451.85C1011.05,451.45 1010.57,451.267 1010,451.3C1009.43,451.267 1008.95,451.45 1008.55,451.85L1003.55,456.7L1001.3,458.7L1002.05,457.85L1003.3,456.5L1008.15,451.45C1008.55,451.05 1008.75,450.583 1008.75,450.05C1008.75,449.45 1008.55,448.95 1008.15,448.55L1005.3,445.6L1003.5,443.7L1001.3,441.3L1003.85,443.6L1005.75,445.4L1008.55,448.15C1008.95,448.55 1009.43,448.767 1010,448.8C1010.57,448.767 1011.05,448.55 1011.45,448.15" style="fill:rgb(240,192,0);fill-rule:nonzero;"/>
            </g>
            <g transform="matrix(1,0,0,1,-245.161,-199.248)">
                <path d="M1023.15,437.15L1022.85,437.15L1022.85,436.85L1023.15,437.15M1022.85,463.15L1022.85,462.85L1023.15,462.85L1022.85,463.15" style="fill:rgb(236,188,0);fill-rule:nonzero;"/>
            </g>
        </g>
    </g>
</svg>
