<?xml version="1.0" encoding="UTF-8" standalone="no"?>
<!DOCTYPE svg PUBLIC "-//W3C//DTD SVG 1.1//EN" "http://www.w3.org/Graphics/SVG/1.1/DTD/svg11.dtd">
<svg width="100%" height="100%" viewBox="0 0 63 63" version="1.1" xmlns="http://www.w3.org/2000/svg" xmlns:xlink="http://www.w3.org/1999/xlink" xml:space="preserve" xmlns:serif="http://www.serif.com/" style="fill-rule:evenodd;clip-rule:evenodd;stroke-linejoin:round;stroke-miterlimit:2;">
    <g transform="matrix(1,0,0,1,-626.111,-202.895)">
        <g transform="matrix(1,0,0,1,-27.4286,-16.4571)">
            <g transform="matrix(1,0,0,1,-245.161,-199.248)">
                <path d="M934.05,466.95C932.65,466.417 931.317,465.8 930.05,465.1C928.717,465.8 927.333,466.367 925.9,466.8L925.05,467.1C921.95,468 919.333,468.117 917.2,467.45L914.75,469.5L913.45,470.45C907.783,475.083 904.55,477.017 903.75,476.25C902.983,475.483 904.917,472.233 909.55,466.5L910.45,465.35L912.6,462.85C911.933,460.717 912.05,458.083 912.95,454.95L913.2,454.1C913.6,452.7 914.183,451.333 914.95,450C914.15,448.567 913.55,447.167 913.15,445.8L912.95,445.1C912.017,441.9 911.933,439.25 912.7,437.15L910.4,434.6L909.5,433.4C904.9,427.733 902.983,424.517 903.75,423.75C904.55,422.983 907.767,424.867 913.4,429.4L914.65,430.4L917.25,432.55L925.05,432.85L925.75,433.05C927.217,433.55 928.633,434.133 930,434.8C931.367,434.1 932.8,433.533 934.3,433.1L935.1,432.8L942.9,432.55L945.35,430.4L946.6,429.4C952.3,424.867 955.533,422.983 956.3,423.75C957.1,424.517 955.183,427.75 950.55,433.45L949.55,434.65L947.45,437C948.183,439.2 948.1,441.833 947.2,444.9L946.95,445.75C946.517,447.183 945.917,448.6 945.15,450C945.917,451.333 946.517,452.683 946.95,454.05L947.2,454.95C948.1,458.117 948.217,460.733 947.55,462.8L949.55,465.3L950.6,466.6C955.2,472.267 957.1,475.483 956.3,476.25C955.533,477.017 952.3,475.083 946.6,470.45L945.3,469.5L942.95,467.35C940.783,468.117 938.183,468.083 935.15,467.25L934.05,466.95M941.85,449.05C942.45,447.883 942.917,446.65 943.25,445.35L943.75,443.4L943.75,443.05C943.917,441.75 943.85,440.567 943.55,439.5C943.417,439.333 943.417,439.167 943.55,439C943.517,438.733 943.567,438.533 943.7,438.4L946.35,435.3L947,434.5L948.5,432.65C950.333,430.283 951.233,429 951.2,428.8C951.033,428.733 949.767,429.667 947.4,431.6L945.7,432.95L944.75,433.7L941.6,436.3L941.05,436.65L940.35,436.45L936.65,436.25L936.5,436.3L934.6,436.7C933.367,437.067 932.183,437.55 931.05,438.15L930,437.8C929.633,437.767 929.283,437.883 928.95,438.15L925.55,436.85L919.75,436.55L919.1,436.6L918.5,436.25L915.35,433.65L914.45,432.95L912.65,431.5L908.95,428.8C908.85,429 909.733,430.25 911.6,432.55L913.15,434.4L913.75,435.25L913.8,435.3L916.4,438.5L916.65,438.95L916.65,439.6C916.283,440.633 916.2,441.833 916.4,443.2L916.45,443.4L916.95,445.5C917.25,446.633 917.667,447.767 918.2,448.9C917.967,449.167 917.85,449.533 917.85,450C917.817,450.467 917.933,450.817 918.2,451.05C917.633,452.117 917.217,453.233 916.95,454.4L916.95,454.45L916.45,456.45L916.45,456.55C916.183,458.017 916.233,459.3 916.6,460.4L916.55,460.95L916.3,461.6L913.75,464.65L913.15,465.35L911.65,467.3C909.75,469.7 908.833,471 908.9,471.2L912.75,468.35L914.6,466.8L915.35,466.2L918.45,463.6C918.617,463.433 918.8,463.367 919,463.4L919.6,463.4L923.1,463.7L923.55,463.65L925.6,463.1L928.95,461.85L929.95,462.15L930.1,462.2L931,461.8L934.7,463.25L934.6,463.2L936.45,463.65L937.2,463.75L940.4,463.35L941,463.4C941.267,463.367 941.467,463.433 941.6,463.6L944.75,466.3L945.45,466.85L947.35,468.35C949.683,470.25 950.967,471.183 951.2,471.15C951.2,470.917 950.267,469.617 948.4,467.25L947,465.45L946.35,464.65L943.7,461.6L943.55,461L943.5,460.4C943.867,459.333 943.95,458.117 943.75,456.75L943.7,456.3L943.25,454.55L941.85,450.95L942.2,450.05L942.15,449.95L941.85,449.05" style="fill:rgb(255,204,0);fill-rule:nonzero;"/>
            </g>
            <g transform="matrix(1,0,0,1,-245.161,-199.248)">
                <path d="M945.35,430.4L942.9,432.55L935.1,432.8L934.3,433.1C932.967,431.767 931.55,431.083 930.05,431.05C928.483,431.117 927.05,431.783 925.75,433.05L925.05,432.85L917.25,432.55L914.65,430.4C916.883,429.5 919.75,429.617 923.25,430.75L924.05,427.8C925.683,421.667 927.667,418.6 930,418.6C932.367,418.6 934.367,421.683 936,427.85L936.65,430.75C940.217,429.65 943.117,429.533 945.35,430.4M949.55,434.65C950.383,436.883 950.25,439.75 949.15,443.25L952.15,444C958.283,445.633 961.367,447.583 961.4,449.85C961.367,452.25 958.283,454.25 952.15,455.85L949.15,456.6C950.283,460.133 950.417,463.033 949.55,465.3L947.55,462.8C948.217,460.733 948.1,458.117 947.2,454.95L946.95,454.05C948.183,452.783 948.817,451.383 948.85,449.85C948.817,448.35 948.183,446.983 946.95,445.75L947.2,444.9C948.1,441.833 948.183,439.2 947.45,437L949.55,434.65M945.3,469.5C943.067,470.333 940.183,470.183 936.65,469.05L935.95,472.05C934.383,478.15 932.417,481.217 930.05,481.25C927.683,481.217 925.683,478.133 924.05,472L923.4,469.05C919.867,470.183 916.983,470.333 914.75,469.5L917.2,467.45C919.333,468.117 921.95,468 925.05,467.1L925.9,466.8C927.167,468 928.55,468.617 930.05,468.65C931.517,468.65 932.85,468.083 934.05,466.95L935.15,467.25C938.183,468.083 940.783,468.117 942.95,467.35L945.3,469.5M910.45,465.35C909.617,463.117 909.75,460.217 910.85,456.65L907.9,455.85C901.767,454.25 898.7,452.283 898.7,449.95C898.7,447.617 901.75,445.633 907.85,444L910.85,443.2C909.717,439.667 909.567,436.8 910.4,434.6L912.7,437.15C911.933,439.25 912.017,441.9 912.95,445.1L913.15,445.8C911.95,447.033 911.35,448.417 911.35,449.95C911.35,451.417 911.967,452.8 913.2,454.1L912.95,454.95C912.05,458.083 911.933,460.717 912.6,462.85L910.45,465.35" style="fill:rgb(142,140,128);fill-rule:nonzero;"/>
            </g>
            <g transform="matrix(1,0,0,1,-245.161,-199.248)">
                <path d="M931.05,438.15C932.183,437.55 933.367,437.067 934.6,436.7L936.5,436.3L936.65,436.25L940.35,436.45L941.05,436.65L941.6,436.3L944.75,433.7L945.7,432.95L947.4,431.6C949.767,429.667 951.033,428.733 951.2,428.8C951.233,429 950.333,430.283 948.5,432.65L947,434.5L946.35,435.3L943.7,438.4C943.567,438.533 943.517,438.733 943.55,439C943.417,439.167 943.417,439.333 943.55,439.5C943.85,440.567 943.917,441.75 943.75,443.05L943.75,443.4L943.25,445.35C942.917,446.65 942.45,447.883 941.85,449.05L941.75,448.85L941.7,448.8C941.4,448.5 941.017,448.35 940.55,448.35L934.95,447.8L942.25,439.15L942.5,438.45L942.2,437.7L941.55,437.45C941.25,437.417 941,437.5 940.8,437.7L932.15,445.05L931.7,439.4C931.667,438.9 931.467,438.483 931.1,438.15L931.05,438.15M941.85,450.95L943.25,454.55L943.7,456.3L943.75,456.75C943.95,458.117 943.867,459.333 943.5,460.4L943.55,461L943.7,461.6L946.35,464.65L947,465.45L948.4,467.25C950.267,469.617 951.2,470.917 951.2,471.15C950.967,471.183 949.683,470.25 947.35,468.35L945.45,466.85L944.75,466.3L941.6,463.6C941.467,463.433 941.267,463.367 941,463.4L940.4,463.35L937.2,463.75L936.45,463.65L934.6,463.2L934.7,463.25L931,461.8L931.05,461.75C931.45,461.45 931.667,461.067 931.7,460.6L931.7,460.55L932.1,454.9L940.8,462.3L941.55,462.5L942.2,462.2L942.55,461.5L942.25,460.85L934.9,452.1L940.6,451.7L940.65,451.65C941.017,451.617 941.35,451.45 941.65,451.15L941.85,450.95M928.95,461.85L925.6,463.1L923.55,463.65L923.1,463.7L919.6,463.4L919,463.4C918.8,463.367 918.617,463.433 918.45,463.6L915.35,466.2L914.6,466.8L912.75,468.35L908.9,471.2C908.833,471 909.75,469.7 911.65,467.3L913.15,465.35L913.75,464.65L916.3,461.6L916.55,460.95L916.6,460.4C916.233,459.3 916.183,458.017 916.45,456.55L916.45,456.45L916.95,454.45L916.95,454.4C917.217,453.233 917.633,452.117 918.2,451.05L918.3,451.2L919.3,451.65L919.35,451.75L925.05,452.15L917.65,460.85C917.483,461.017 917.417,461.233 917.45,461.5L917.75,462.2L918.4,462.5L919.1,462.3L927.85,454.9L928.25,460.65L928.3,460.7C928.333,461.067 928.5,461.4 928.8,461.7L928.95,461.85M918.2,448.9C917.667,447.767 917.25,446.633 916.95,445.5L916.45,443.4L916.4,443.2C916.2,441.833 916.283,440.633 916.65,439.6L916.65,438.95L916.4,438.5L913.8,435.3L913.75,435.25L913.15,434.4L911.6,432.55C909.733,430.25 908.85,429 908.95,428.8L912.65,431.5L914.45,432.95L915.35,433.65L918.5,436.25L919.1,436.6L919.75,436.55L925.55,436.85L928.95,438.15L928.8,438.3C928.5,438.6 928.333,438.967 928.3,439.4L927.85,445.05L919.1,437.7L918.45,437.45C918.183,437.45 917.95,437.55 917.75,437.75L917.45,438.45L917.65,439.15L925.05,447.85L919.4,448.3C918.967,448.333 918.6,448.5 918.3,448.8L918.2,448.9" style="fill:rgb(240,192,0);fill-rule:nonzero;"/>
            </g>
            <g transform="matrix(1,0,0,1,-245.161,-199.248)">
                <path d="M941.85,449.05L942.15,449.95L942.2,450.05L941.85,450.95L941.65,451.15C941.35,451.45 941.017,451.617 940.65,451.65L940.6,451.7L934.9,452.1L942.25,460.85L942.55,461.5L942.2,462.2L941.55,462.5L940.8,462.3L932.1,454.9L931.7,460.55L931.7,460.6C931.667,461.067 931.45,461.45 931.05,461.75L931,461.8L930.1,462.2L929.95,462.15L928.95,461.85L928.8,461.7C928.5,461.4 928.333,461.067 928.3,460.7L928.25,460.65L927.85,454.9L919.1,462.3L918.4,462.5L917.75,462.2L917.45,461.5C917.417,461.233 917.483,461.017 917.65,460.85L925.05,452.15L919.35,451.75L919.3,451.65L918.3,451.2L918.2,451.05C917.933,450.817 917.817,450.467 917.85,450C917.85,449.533 917.967,449.167 918.2,448.9L918.3,448.8C918.6,448.5 918.967,448.333 919.4,448.3L925.05,447.85L917.65,439.15L917.45,438.45L917.75,437.75C917.95,437.55 918.183,437.45 918.45,437.45L919.1,437.7L927.85,445.05L928.3,439.4C928.333,438.967 928.5,438.6 928.8,438.3L928.95,438.15C929.283,437.883 929.633,437.767 930,437.8L931.05,438.15L931.1,438.15C931.467,438.483 931.667,438.9 931.7,439.4L932.15,445.05L940.8,437.7C941,437.5 941.25,437.417 941.55,437.45L942.2,437.7L942.5,438.45L942.25,439.15L934.95,447.8L940.55,448.35C941.017,448.35 941.4,448.5 941.7,448.8L941.75,448.85L941.85,449.05" style="fill:rgb(233,230,211);fill-rule:nonzero;"/>
            </g>
            <g transform="matrix(1,0,0,1,-245.161,-199.248)">
                <path d="M925.75,433.05C927.05,431.783 928.483,431.117 930.05,431.05C931.55,431.083 932.967,431.767 934.3,433.1C932.8,433.533 931.367,434.1 930,434.8C928.633,434.133 927.217,433.55 925.75,433.05M946.95,445.75C948.183,446.983 948.817,448.35 948.85,449.85C948.817,451.383 948.183,452.783 946.95,454.05C946.517,452.683 945.917,451.333 945.15,450C945.917,448.6 946.517,447.183 946.95,445.75M913.2,454.1C911.967,452.8 911.35,451.417 911.35,449.95C911.35,448.417 911.95,447.033 913.15,445.8C913.55,447.167 914.15,448.567 914.95,450C914.183,451.333 913.6,452.7 913.2,454.1M934.05,466.95C932.85,468.083 931.517,468.65 930.05,468.65C928.55,468.617 927.167,468 925.9,466.8C927.333,466.367 928.717,465.8 930.05,465.1C931.317,465.8 932.65,466.417 934.05,466.95" style="fill:rgb(131,129,118);fill-rule:nonzero;"/>
            </g>
        </g>
    </g>
</svg>
