<?xml version="1.0" encoding="UTF-8" standalone="no"?>
<!DOCTYPE svg PUBLIC "-//W3C//DTD SVG 1.1//EN" "http://www.w3.org/Graphics/SVG/1.1/DTD/svg11.dtd">
<svg width="100%" height="100%" viewBox="0 0 42 44" version="1.1" xmlns="http://www.w3.org/2000/svg" xmlns:xlink="http://www.w3.org/1999/xlink" xml:space="preserve" xmlns:serif="http://www.serif.com/" style="fill-rule:evenodd;clip-rule:evenodd;stroke-linejoin:round;stroke-miterlimit:2;">
    <g transform="matrix(1,0,0,1,-1490.66,-676.836)">
        <g transform="matrix(1,0,0,1,-10,-10)">
            <g id="Layer0_24_MEMBER_0_FILL">
                <path d="M1521.75,714.95L1518.8,705.95C1518.67,705.55 1518.45,705.233 1518.15,705C1517.85,704.733 1517.5,704.583 1517.1,704.55L1507.45,703.6C1507.02,703.567 1506.62,703.667 1506.25,703.9C1505.88,704.1 1505.62,704.4 1505.45,704.8L1500.85,715.15C1500.62,715.65 1500.6,716.15 1500.8,716.65C1500.97,717.117 1501.28,717.483 1501.75,717.75L1506.85,720.3L1511.95,729.1C1512.15,729.467 1512.43,729.733 1512.8,729.9C1513.13,730.067 1513.52,730.133 1513.95,730.1C1514.35,730.033 1514.7,729.867 1515,729.6L1524.85,720.65C1525.12,720.383 1525.32,720.067 1525.45,719.7C1525.55,719.333 1525.55,718.967 1525.45,718.6C1525.32,718.233 1525.12,717.917 1524.85,717.65L1521.75,714.95M1506.05,717.7L1502.65,715.95L1507.25,705.6L1514.05,706.3L1516.9,706.55L1518.3,710.9L1520,716.1L1523.5,719.15L1513.65,728.1L1509.9,721.65L1508.25,718.8L1506.05,717.7M1535.5,686.95L1528.3,689.3C1527.83,689.467 1527.47,689.75 1527.2,690.15L1522.8,697.25C1522.53,697.683 1522.45,698.167 1522.55,698.7C1522.65,699.2 1522.92,699.617 1523.35,699.95L1530.25,705C1530.58,705.233 1530.98,705.35 1531.45,705.35C1531.88,705.35 1532.27,705.217 1532.6,704.95L1541.4,698.35C1541.8,698.05 1542.05,697.667 1542.15,697.2C1542.25,696.733 1542.2,696.283 1542,695.85L1537.9,687.95C1537.8,687.783 1537.72,687.65 1537.65,687.55C1537.42,687.317 1537.15,687.133 1536.85,687C1536.38,686.8 1535.93,686.783 1535.5,686.95M1528.9,691.2L1536.1,688.85L1536.35,689.35L1540.2,696.75L1531.4,703.35L1527.95,700.85L1524.5,698.3L1528.9,691.2Z" style="fill:rgb(130,158,175);fill-rule:nonzero;"/>
                <path d="M1509.9,721.65L1513.65,728.1L1523.5,719.15L1520,716.1L1518.3,710.9L1509.9,721.65M1502.65,715.95L1506.05,717.7L1514.05,706.3L1507.25,705.6L1502.65,715.95M1536.1,688.85L1528.9,691.2L1524.5,698.3L1527.95,700.85L1536.35,689.35L1536.1,688.85Z" style="fill:rgb(189,231,255);fill-rule:nonzero;"/>
                <path d="M1518.3,710.9L1516.9,706.55L1514.05,706.3L1506.05,717.7L1508.25,718.8L1509.9,721.65L1518.3,710.9M1527.95,700.85L1531.4,703.35L1540.2,696.75L1536.35,689.35L1527.95,700.85Z" style="fill:rgb(215,240,255);fill-rule:nonzero;"/>
            </g>
        </g>
    </g>
</svg>
