<?xml version="1.0" encoding="UTF-8" standalone="no"?>
<!DOCTYPE svg PUBLIC "-//W3C//DTD SVG 1.1//EN" "http://www.w3.org/Graphics/SVG/1.1/DTD/svg11.dtd">
<svg width="100%" height="100%" viewBox="0 0 56 54" version="1.1" xmlns="http://www.w3.org/2000/svg" xmlns:xlink="http://www.w3.org/1999/xlink" xml:space="preserve" xmlns:serif="http://www.serif.com/" style="fill-rule:evenodd;clip-rule:evenodd;stroke-linejoin:round;stroke-miterlimit:2;">
    <g transform="matrix(1,0,0,1,-1632.69,-745.354)">
        <g transform="matrix(1,0,0,1,-10,-10)">
            <g id="Layer0_400_MEMBER_0_FILL">
                <path d="M1680.35,790.3C1680.22,790.7 1680.23,791.1 1680.4,791.5L1683.1,798.6C1683.27,799.1 1683.6,799.467 1684.1,799.7C1684.57,799.933 1685.07,799.967 1685.6,799.8L1689.05,798.7L1695.4,800.4C1695.77,800.5 1696.15,800.483 1696.55,800.35C1696.95,800.217 1697.27,799.983 1697.5,799.65C1697.73,799.317 1697.87,798.95 1697.9,798.55L1698.35,789.6C1698.38,789.233 1698.3,788.883 1698.1,788.55C1697.9,788.183 1697.63,787.917 1697.3,787.75C1696.97,787.55 1696.62,787.467 1696.25,787.5L1693.7,787.7L1688.15,784.9C1687.78,784.733 1687.42,784.683 1687.05,784.75C1686.65,784.783 1686.3,784.917 1686,785.15L1681,789.25C1680.67,789.517 1680.45,789.867 1680.35,790.3M1685.75,787.9L1687.25,786.7L1689.95,788.1L1693.25,789.7L1696.35,789.5L1695.9,798.45L1691.1,797.15L1688.95,796.6L1687.35,797.1L1684.95,797.9L1682.25,790.8L1685.75,787.9M1656.8,763.6C1656.61,764.055 1656.6,764.505 1656.75,764.95L1658.35,769.8C1658.5,770.274 1658.79,770.641 1659.2,770.9L1663.95,773.85C1664.4,774.125 1664.89,774.208 1665.4,774.1C1665.91,773.996 1666.31,773.73 1666.6,773.3L1669.95,768.6C1670.22,768.247 1670.35,767.847 1670.35,767.4C1670.35,766.983 1670.21,766.599 1669.95,766.25L1665.55,760.4C1665.26,760.009 1664.87,759.759 1664.4,759.65C1663.92,759.541 1663.45,759.591 1663,759.8L1657.7,762.55C1657.28,762.794 1656.98,763.144 1656.8,763.6M1658.65,764.35L1659,764.15L1663.95,761.6L1668.35,767.45L1666.75,769.8L1665,772.15L1660.25,769.2L1658.65,764.35Z" style="fill:rgb(130,158,175);fill-rule:nonzero;"/>
                <path d="M1696.35,789.5L1693.25,789.7L1689.95,788.1L1691.1,797.15L1695.9,798.45L1696.35,789.5M1685.75,787.9L1682.25,790.8L1684.95,797.9L1687.35,797.1L1685.75,787.9M1659,764.15L1658.65,764.35L1660.25,769.2L1665,772.15L1666.75,769.8L1659,764.15Z" style="fill:rgb(189,231,255);fill-rule:nonzero;"/>
                <path d="M1687.25,786.7L1685.75,787.9L1687.35,797.1L1688.95,796.6L1691.1,797.15L1689.95,788.1L1687.25,786.7M1666.75,769.8L1668.35,767.45L1663.95,761.6L1659,764.15L1666.75,769.8Z" style="fill:rgb(215,240,255);fill-rule:nonzero;"/>
                <path d="M1680.5,755.45C1679.87,755.283 1679.23,755.333 1678.6,755.6C1678.53,755.633 1678.48,755.667 1678.45,755.7L1674.45,758C1673.68,758.367 1673.18,758.95 1672.95,759.75C1672.75,760.417 1672.85,761.117 1673.25,761.85L1680.95,775.2C1680.98,775.267 1681.03,775.317 1681.1,775.35C1681.5,775.983 1682,776.35 1682.6,776.45C1683.17,776.617 1683.72,776.633 1684.25,776.5C1684.38,776.433 1684.53,776.367 1684.7,776.3L1687,774.95C1687.47,774.617 1687.83,774.2 1688.1,773.7C1688.13,773.633 1688.15,773.583 1688.15,773.55L1689.2,771C1689.37,770.633 1689.42,770.25 1689.35,769.85L1689.35,769.55C1689.25,769.15 1689.15,768.85 1689.05,768.65L1682.2,756.7C1681.83,756.067 1681.27,755.65 1680.5,755.45M1679.4,757.45C1679.6,757.35 1679.78,757.333 1679.95,757.4C1680.15,757.433 1680.3,757.533 1680.4,757.7L1687.3,769.65C1687.3,769.717 1687.32,769.833 1687.35,770C1687.38,770.1 1687.37,770.183 1687.3,770.25L1686.35,772.85C1686.25,772.983 1686.12,773.1 1685.95,773.2L1683.7,774.5C1683.5,774.567 1683.3,774.567 1683.1,774.5C1682.97,774.467 1682.83,774.367 1682.7,774.2L1674.95,760.8C1674.85,760.633 1674.82,760.45 1674.85,760.25C1674.92,760.05 1675.05,759.9 1675.25,759.8L1679.4,757.45M1653.05,778.85L1653.05,778.7C1652.82,778 1652.43,777.5 1651.9,777.2C1651.83,777.167 1651.77,777.133 1651.7,777.1C1651.03,776.767 1650.33,776.717 1649.6,776.95L1649.7,776.95L1647.75,777.45L1647.8,777.45C1647.07,777.65 1646.52,778.017 1646.15,778.55L1643.3,782.9C1643,783.267 1642.82,783.667 1642.75,784.1C1642.65,784.533 1642.68,784.967 1642.85,785.4L1645.4,794.85C1645.53,795.55 1645.93,796.083 1646.6,796.45C1646.63,796.483 1646.67,796.5 1646.7,796.5L1646.75,796.55L1649.5,798.25L1651.1,804.35C1651.23,805.083 1651.67,805.65 1652.4,806.05L1656.1,808.15C1656.6,808.45 1657.18,808.567 1657.85,808.5C1657.98,808.467 1658.12,808.45 1658.25,808.45C1659.02,808.15 1659.55,807.683 1659.85,807.05C1659.85,807.017 1659.87,806.983 1659.9,806.95C1660.13,806.45 1660.2,805.917 1660.1,805.35C1660.13,805.25 1660.13,805.133 1660.1,805L1653.05,778.85M1650.8,778.9C1650.93,778.967 1651.03,779.117 1651.1,779.35L1658.15,805.55C1658.18,805.75 1658.15,805.95 1658.05,806.15C1657.98,806.317 1657.85,806.433 1657.65,806.5C1657.42,806.5 1657.23,806.467 1657.1,806.4L1653.4,804.3C1653.2,804.2 1653.07,804.05 1653,803.85L1651.2,796.95L1647.65,794.75C1647.48,794.683 1647.37,794.55 1647.3,794.35L1644.75,784.75C1644.68,784.65 1644.7,784.55 1644.8,784.45C1644.77,784.35 1644.78,784.25 1644.85,784.15L1647.85,779.7C1647.95,779.533 1648.08,779.417 1648.25,779.35L1650.2,778.85C1650.4,778.783 1650.6,778.8 1650.8,778.9Z" style="fill:rgb(149,101,54);fill-rule:nonzero;"/>
                <path d="M1679.95,757.4C1679.78,757.333 1679.6,757.35 1679.4,757.45L1675.25,759.8C1675.05,759.9 1674.92,760.05 1674.85,760.25C1674.82,760.45 1674.85,760.633 1674.95,760.8L1682.7,774.2C1682.83,774.367 1682.97,774.467 1683.1,774.5C1683.3,774.567 1683.5,774.567 1683.7,774.5L1685.95,773.2C1686.12,773.1 1686.25,772.983 1686.35,772.85L1687.3,770.25C1687.37,770.183 1687.38,770.1 1687.35,770C1687.32,769.833 1687.3,769.717 1687.3,769.65L1680.4,757.7C1680.3,757.533 1680.15,757.433 1679.95,757.4M1651.1,779.35C1651.03,779.117 1650.93,778.967 1650.8,778.9C1650.6,778.8 1650.4,778.783 1650.2,778.85L1648.25,779.35C1648.08,779.417 1647.95,779.533 1647.85,779.7L1644.85,784.15C1644.78,784.25 1644.77,784.35 1644.8,784.45C1644.7,784.55 1644.68,784.65 1644.75,784.75L1647.3,794.35C1647.37,794.55 1647.48,794.683 1647.65,794.75L1651.2,796.95L1653,803.85C1653.07,804.05 1653.2,804.2 1653.4,804.3L1657.1,806.4C1657.23,806.467 1657.42,806.5 1657.65,806.5C1657.85,806.433 1657.98,806.317 1658.05,806.15C1658.15,805.95 1658.18,805.75 1658.15,805.55L1651.1,779.35Z" style="fill:rgb(196,134,71);fill-rule:nonzero;"/>
            </g>
        </g>
    </g>
</svg>
