<?xml version="1.0" encoding="UTF-8" standalone="no"?>
<!DOCTYPE svg PUBLIC "-//W3C//DTD SVG 1.1//EN" "http://www.w3.org/Graphics/SVG/1.1/DTD/svg11.dtd">
<svg width="100%" height="100%" viewBox="0 0 50 45" version="1.1" xmlns="http://www.w3.org/2000/svg" xmlns:xlink="http://www.w3.org/1999/xlink" xml:space="preserve" xmlns:serif="http://www.serif.com/" style="fill-rule:evenodd;clip-rule:evenodd;stroke-linejoin:round;stroke-miterlimit:2;">
    <g transform="matrix(1,0,0,1,-1559.81,-751.238)">
        <g transform="matrix(1,0,0,1,-10,-10)">
            <g id="Layer0_395_MEMBER_0_FILL">
                <path d="M1573.65,779.8C1573.18,780.067 1572.88,780.467 1572.75,781L1571.2,786.7C1571.03,787.233 1571.1,787.75 1571.4,788.25L1571.5,788.4L1571.35,788.5C1570.85,788.8 1570.53,789.217 1570.4,789.75L1569.9,791.65C1569.73,792.183 1569.8,792.683 1570.1,793.15C1570.37,793.617 1570.77,793.933 1571.3,794.1L1600.4,801.9C1600.9,802.033 1601.4,801.967 1601.9,801.7C1602,801.633 1602.12,801.55 1602.25,801.45L1607.7,802.95L1609.6,804.25C1609.8,804.383 1610.02,804.483 1610.25,804.55L1614.2,805.6C1614.73,805.733 1615.23,805.667 1615.7,805.4C1616.17,805.1 1616.48,804.683 1616.65,804.15L1618.05,798.75C1618.15,798.25 1618.1,797.783 1617.9,797.35C1618.3,797.083 1618.58,796.7 1618.75,796.2L1619.5,793.5C1619.63,792.933 1619.57,792.417 1619.3,791.95C1619,791.483 1618.6,791.183 1618.1,791.05L1601.1,786.5C1600.87,786.4 1600.63,786.367 1600.4,786.4L1598.5,786.6L1586.75,783.45C1586.72,783.383 1586.68,783.333 1586.65,783.3C1586.38,782.8 1585.98,782.483 1585.45,782.35L1575.2,779.6C1574.67,779.433 1574.15,779.5 1573.65,779.8M1572.3,790.25L1574.25,789.15L1573.1,787.2L1573.85,784.45L1574.65,781.5L1584.9,784.25L1584.7,784.95L1594.8,787.7L1598.35,788.6L1600.55,788.4L1617.55,792.95L1616.8,795.65L1615.15,796.6L1616.1,798.25L1615.95,798.85L1614.7,803.65L1610.75,802.6L1608.6,801.1L1604.25,799.95L1601.15,799.1L1600.9,799.95L1571.8,792.15L1572.3,790.25Z" style="fill:rgb(149,101,54);fill-rule:nonzero;"/>
                <path d="M1610.75,802.6L1614.7,803.65L1615.95,798.85L1605.35,796L1604.25,799.95L1608.6,801.1L1610.75,802.6M1574.65,781.5L1573.85,784.45L1594.2,789.9L1594.8,787.7L1584.7,784.95L1584.9,784.25L1574.65,781.5Z" style="fill:rgb(208,142,74);fill-rule:nonzero;"/>
                <path d="M1574.25,789.15L1572.3,790.25L1571.8,792.15L1600.9,799.95L1601.15,799.1L1604.25,799.95L1605.35,796L1615.95,798.85L1616.1,798.25L1615.15,796.6L1616.8,795.65L1617.55,792.95L1600.55,788.4L1598.35,788.6L1594.8,787.7L1594.2,789.9L1573.85,784.45L1573.1,787.2L1574.25,789.15Z" style="fill:rgb(196,134,71);fill-rule:nonzero;"/>
            </g>
        </g>
        <g transform="matrix(1,0,0,1,-10,-10)">
            <g id="Layer0_395_MEMBER_1_FILL">
                <path d="M1606,761.55C1605.5,761.25 1604.98,761.167 1604.45,761.3L1585.15,766.5C1584.58,766.633 1584.18,766.95 1583.95,767.45C1583.65,767.883 1583.58,768.383 1583.75,768.95L1586.85,780.55C1586.98,781.083 1587.3,781.5 1587.8,781.8C1588.23,782.033 1588.73,782.083 1589.3,781.95L1608.6,776.75C1609.13,776.617 1609.55,776.333 1609.85,775.9C1610.12,775.4 1610.18,774.883 1610.05,774.35L1606.95,762.75C1606.78,762.183 1606.47,761.783 1606,761.55M1588.8,780.05L1585.7,768.45L1605,763.25L1608.1,774.85L1588.8,780.05Z" style="fill:rgb(100,133,135);fill-rule:nonzero;"/>
                <path d="M1585.7,768.45L1588.8,780.05L1608.1,774.85L1605,763.25L1585.7,768.45M1597.85,774.45L1594.8,774.95L1594.3,771.85L1597.35,771.35L1597.85,774.45M1598.45,772.35L1599.05,767.35L1604.1,767.9L1603.5,772.9L1598.45,772.35Z" style="fill:rgb(156,192,194);fill-rule:nonzero;"/>
                <path d="M1599.05,767.35L1598.45,772.35L1603.5,772.9L1604.1,767.9L1599.05,767.35Z" style="fill:rgb(144,178,180);fill-rule:nonzero;"/>
                <path d="M1594.8,774.95L1597.85,774.45L1597.35,771.35L1594.3,771.85L1594.8,774.95Z" style="fill:rgb(166,201,203);fill-rule:nonzero;"/>
            </g>
        </g>
        <g transform="matrix(1,0,0,1,-10,-10)">
            <g id="Layer0_395_MEMBER_2_FILL">
                <path d="M1593.9,790.05C1593.63,790.55 1593.53,791.05 1593.6,791.55C1593.8,792.117 1594.12,792.533 1594.55,792.8L1604.95,798.8C1605.48,799.067 1606,799.117 1606.5,798.95C1607.07,798.85 1607.5,798.567 1607.8,798.1L1617.75,780.75C1618.05,780.25 1618.12,779.75 1617.95,779.25C1617.85,778.717 1617.53,778.317 1617,778.05L1606.6,772.05C1606.13,771.717 1605.62,771.633 1605.05,771.8C1604.58,771.933 1604.2,772.25 1603.9,772.75L1593.9,790.05M1605.6,773.75L1616,779.75L1606,797.05L1595.6,791.05L1605.6,773.75Z" style="fill:rgb(100,133,135);fill-rule:nonzero;"/>
                <path d="M1616,779.75L1605.6,773.75L1595.6,791.05L1606,797.05L1616,779.75M1607.85,781.35L1609.05,784.25L1606.1,785.5L1604.95,782.55L1607.85,781.35M1601.4,789L1604.55,785.7L1607.85,788.95L1604.6,792.2L1601.4,789Z" style="fill:rgb(156,192,194);fill-rule:nonzero;"/>
                <path d="M1604.55,785.7L1601.4,789L1604.6,792.2L1607.85,788.95L1604.55,785.7Z" style="fill:rgb(144,178,180);fill-rule:nonzero;"/>
                <path d="M1609.05,784.25L1607.85,781.35L1604.95,782.55L1606.1,785.5L1609.05,784.25Z" style="fill:rgb(166,201,203);fill-rule:nonzero;"/>
            </g>
        </g>
    </g>
</svg>
