<?xml version="1.0" encoding="UTF-8" standalone="no"?>
<!DOCTYPE svg PUBLIC "-//W3C//DTD SVG 1.1//EN" "http://www.w3.org/Graphics/SVG/1.1/DTD/svg11.dtd">
<svg width="100%" height="100%" viewBox="0 0 39 36" version="1.1" xmlns="http://www.w3.org/2000/svg" xmlns:xlink="http://www.w3.org/1999/xlink" xml:space="preserve" xmlns:serif="http://www.serif.com/" style="fill-rule:evenodd;clip-rule:evenodd;stroke-linejoin:round;stroke-miterlimit:2;">
    <g transform="matrix(1,0,0,1,-1641.7,-679.426)">
        <g transform="matrix(1,0,0,1,-10,-10)">
            <g id="Layer0_399_MEMBER_0_FILL">
                <path d="M1690.35,716.85C1690.32,716.75 1690.28,716.65 1690.25,716.55C1690.05,716.183 1689.87,715.917 1689.7,715.75L1680,706C1679.47,705.467 1678.82,705.2 1678.05,705.2C1677.38,705.2 1676.78,705.417 1676.25,705.85C1676.18,705.883 1676.13,705.933 1676.1,706L1672.85,709.25C1672.18,709.783 1671.85,710.467 1671.85,711.3C1671.82,712.033 1672.1,712.7 1672.7,713.3L1683.6,724.2C1683.63,724.233 1683.68,724.267 1683.75,724.3C1684.32,724.767 1684.9,724.983 1685.5,724.95C1686.07,724.95 1686.6,724.817 1687.1,724.55C1687.23,724.45 1687.37,724.35 1687.5,724.25L1689.35,722.4C1689.75,721.933 1690,721.433 1690.1,720.9C1690.13,720.833 1690.15,720.783 1690.15,720.75L1690.45,718C1690.52,717.6 1690.48,717.217 1690.35,716.85M1688.25,717.15C1688.32,717.217 1688.38,717.317 1688.45,717.45C1688.48,717.55 1688.48,717.65 1688.45,717.75L1688.15,720.5C1688.12,720.667 1688.03,720.817 1687.9,720.95L1686.05,722.8C1685.88,722.9 1685.7,722.95 1685.5,722.95C1685.33,722.95 1685.17,722.883 1685,722.75L1674.1,711.85C1673.93,711.683 1673.85,711.5 1673.85,711.3C1673.85,711.1 1673.93,710.933 1674.1,710.8L1677.5,707.4C1677.67,707.267 1677.85,707.2 1678.05,707.2C1678.25,707.2 1678.42,707.267 1678.55,707.4L1688.25,717.15M1661.75,690.55C1661.28,690.583 1660.88,690.733 1660.55,691C1660.15,691.233 1659.87,691.567 1659.7,692L1654.8,700.45C1654.4,701.05 1654.3,701.717 1654.5,702.45C1654.5,702.483 1654.52,702.517 1654.55,702.55L1654.55,702.65L1655.3,705.75L1652.1,711.2C1651.67,711.8 1651.58,712.517 1651.85,713.35L1653,717.45C1653.1,717.983 1653.42,718.467 1653.95,718.9C1654.05,719 1654.17,719.083 1654.3,719.15C1655.03,719.517 1655.73,719.567 1656.4,719.3C1656.43,719.3 1656.47,719.283 1656.5,719.25C1657,719.05 1657.43,718.733 1657.8,718.3C1657.87,718.233 1657.93,718.15 1658,718.05L1671.55,694.55C1671.55,694.517 1671.57,694.483 1671.6,694.45C1671.93,693.783 1672.02,693.167 1671.85,692.6C1671.85,692.533 1671.83,692.467 1671.8,692.4C1671.57,691.667 1671.1,691.117 1670.4,690.75L1670.5,690.85L1668.75,689.85L1668.8,689.85C1668.13,689.45 1667.48,689.333 1666.85,689.5L1661.75,690.55M1661.5,692.85C1661.53,692.75 1661.6,692.683 1661.7,692.65C1661.77,692.583 1661.85,692.55 1661.95,692.55L1667.25,691.45C1667.42,691.417 1667.58,691.45 1667.75,691.55L1669.5,692.55C1669.7,692.65 1669.83,692.8 1669.9,693C1669.93,693.167 1669.9,693.35 1669.8,693.55L1656.25,717.05C1656.12,717.217 1655.95,717.333 1655.75,717.4C1655.58,717.467 1655.4,717.45 1655.2,717.35C1655.03,717.217 1654.93,717.067 1654.9,716.9L1653.75,712.8C1653.68,712.567 1653.7,712.367 1653.8,712.2L1657.4,706.05L1656.45,702C1656.38,701.8 1656.4,701.617 1656.5,701.45L1661.5,692.85Z" style="fill:rgb(149,101,54);fill-rule:nonzero;"/>
                <path d="M1688.45,717.45C1688.38,717.317 1688.32,717.217 1688.25,717.15L1678.55,707.4C1678.42,707.267 1678.25,707.2 1678.05,707.2C1677.85,707.2 1677.67,707.267 1677.5,707.4L1674.1,710.8C1673.93,710.933 1673.85,711.1 1673.85,711.3C1673.85,711.5 1673.93,711.683 1674.1,711.85L1685,722.75C1685.17,722.883 1685.33,722.95 1685.5,722.95C1685.7,722.95 1685.88,722.9 1686.05,722.8L1687.9,720.95C1688.03,720.817 1688.12,720.667 1688.15,720.5L1688.45,717.75C1688.48,717.65 1688.48,717.55 1688.45,717.45M1661.7,692.65C1661.6,692.683 1661.53,692.75 1661.5,692.85L1656.5,701.45C1656.4,701.617 1656.38,701.8 1656.45,702L1657.4,706.05L1653.8,712.2C1653.7,712.367 1653.68,712.567 1653.75,712.8L1654.9,716.9C1654.93,717.067 1655.03,717.217 1655.2,717.35C1655.4,717.45 1655.58,717.467 1655.75,717.4C1655.95,717.333 1656.12,717.217 1656.25,717.05L1669.8,693.55C1669.9,693.35 1669.93,693.167 1669.9,693C1669.83,692.8 1669.7,692.65 1669.5,692.55L1667.75,691.55C1667.58,691.45 1667.42,691.417 1667.25,691.45L1661.95,692.55C1661.85,692.55 1661.77,692.583 1661.7,692.65Z" style="fill:rgb(196,134,71);fill-rule:nonzero;"/>
            </g>
        </g>
    </g>
</svg>
