<?xml version="1.0" encoding="UTF-8" standalone="no"?>
<!DOCTYPE svg PUBLIC "-//W3C//DTD SVG 1.1//EN" "http://www.w3.org/Graphics/SVG/1.1/DTD/svg11.dtd">
<svg width="100%" height="100%" viewBox="0 0 46 40" version="1.1" xmlns="http://www.w3.org/2000/svg" xmlns:xlink="http://www.w3.org/1999/xlink" xml:space="preserve" xmlns:serif="http://www.serif.com/" style="fill-rule:evenodd;clip-rule:evenodd;stroke-linejoin:round;stroke-miterlimit:2;">
    <g transform="matrix(1,0,0,1,-1192.95,-1419)">
        <g transform="matrix(1,0,0,1,-10,-10)">
            <g id="Layer0_460_MEMBER_0_FILL">
                <path d="M1244.95,1436L1244.95,1435.8C1244.55,1431.27 1241.88,1429 1236.95,1429L1213.95,1429C1211.45,1429 1209.65,1429.62 1208.55,1430.85C1207.25,1432.02 1206.72,1433.8 1206.95,1436.2L1206.95,1454L1206.85,1454C1204.68,1454.07 1203.4,1455.25 1203,1457.55C1202.97,1457.68 1202.95,1457.8 1202.95,1457.9L1202.95,1458C1202.95,1465.33 1206.62,1469 1213.95,1469L1237.95,1469C1244.62,1469 1248.27,1465.6 1248.9,1458.8L1248.9,1458.55C1248.8,1455.52 1247.53,1454 1245.1,1454L1244.95,1454L1244.95,1436M1242.95,1456L1244.95,1456C1246.18,1456.07 1246.83,1456.95 1246.9,1458.65C1246.4,1464.22 1243.42,1467 1237.95,1467L1213.95,1467C1207.95,1467 1204.95,1464 1204.95,1458L1204.95,1457.9C1205.18,1456.7 1205.85,1456.07 1206.95,1456L1208.95,1456L1208.95,1436C1208.62,1432.67 1210.28,1431 1213.95,1431L1236.95,1431C1240.62,1431 1242.62,1432.67 1242.95,1436L1242.95,1456Z" style="fill:rgb(154,105,55);fill-rule:nonzero;"/>
                <path d="M1244.95,1456L1240.95,1456C1240.05,1456 1239.38,1456.33 1238.95,1457L1238.95,1458C1238.58,1458.67 1238.25,1459 1237.95,1459L1213.95,1459C1213.28,1459 1212.95,1458.67 1212.95,1458C1212.75,1456.73 1211.75,1456.07 1209.95,1456L1206.95,1456C1205.85,1456.07 1205.18,1456.7 1204.95,1457.9L1204.95,1458C1204.95,1464 1207.95,1467 1213.95,1467L1237.95,1467C1243.42,1467 1246.4,1464.22 1246.9,1458.65C1246.83,1456.95 1246.18,1456.07 1244.95,1456Z" style="fill:rgb(224,153,80);fill-rule:nonzero;"/>
                <path d="M1240.95,1456L1242.95,1456L1242.95,1436C1242.62,1432.67 1240.62,1431 1236.95,1431L1213.95,1431C1210.28,1431 1208.62,1432.67 1208.95,1436L1208.95,1456L1209.95,1456C1211.75,1456.07 1212.75,1456.73 1212.95,1458C1212.95,1458.67 1213.28,1459 1213.95,1459L1237.95,1459C1238.25,1459 1238.58,1458.67 1238.95,1458L1238.95,1457C1239.38,1456.33 1240.05,1456 1240.95,1456Z" style="fill:rgb(201,137,72);fill-rule:nonzero;"/>
            </g>
        </g>
    </g>
</svg>
