<?xml version="1.0" encoding="UTF-8" standalone="no"?>
<!DOCTYPE svg PUBLIC "-//W3C//DTD SVG 1.1//EN" "http://www.w3.org/Graphics/SVG/1.1/DTD/svg11.dtd">
<svg width="100%" height="100%" viewBox="0 0 46 40" version="1.1" xmlns="http://www.w3.org/2000/svg" xmlns:xlink="http://www.w3.org/1999/xlink" xml:space="preserve" xmlns:serif="http://www.serif.com/" style="fill-rule:evenodd;clip-rule:evenodd;stroke-linejoin:round;stroke-miterlimit:2;">
    <g transform="matrix(1,0,0,1,-1266.95,-1419)">
        <g transform="matrix(1,0,0,1,-10,-10)">
            <g id="Layer0_461_MEMBER_0_FILL">
                <path d="M1318.85,1435C1318.22,1431 1315.58,1429 1310.95,1429L1287.95,1429C1285.45,1429 1283.65,1429.62 1282.55,1430.85C1281.48,1431.82 1280.93,1433.2 1280.9,1435L1279.95,1435C1279.38,1435 1278.92,1435.2 1278.55,1435.6C1278.15,1435.97 1277.95,1436.43 1277.95,1437L1277.95,1455.35C1277.48,1455.88 1277.17,1456.62 1277,1457.55C1276.97,1457.65 1276.95,1457.77 1276.95,1457.9L1276.95,1458C1276.95,1465.33 1280.62,1469 1287.95,1469L1311.95,1469C1318.65,1469 1322.3,1465.62 1322.9,1458.85L1322.9,1458.6C1322.83,1457.2 1322.52,1456.13 1321.95,1455.4L1321.95,1437C1321.95,1436.43 1321.77,1435.97 1321.4,1435.6C1321,1435.2 1320.52,1435 1319.95,1435L1318.85,1435M1316.95,1436L1316.95,1437L1319.95,1437L1319.95,1456.3C1320.55,1456.7 1320.87,1457.48 1320.9,1458.65C1320.4,1464.22 1317.42,1467 1311.95,1467L1287.95,1467C1281.95,1467 1278.95,1464 1278.95,1458L1278.95,1457.9C1279.12,1457.13 1279.45,1456.6 1279.95,1456.3L1279.95,1437L1282.95,1437L1282.95,1436C1282.62,1432.67 1284.28,1431 1287.95,1431L1310.95,1431C1314.62,1431 1316.62,1432.67 1316.95,1436Z" style="fill:rgb(154,105,55);fill-rule:nonzero;"/>
                <path d="M1282.95,1437L1279.95,1437L1279.95,1456.3C1280.22,1456.13 1280.55,1456.03 1280.95,1456L1283.95,1456C1285.75,1456.07 1286.75,1456.73 1286.95,1458L1286.95,1437L1282.95,1437M1319.95,1437L1312.95,1437L1312.95,1457C1313.38,1456.33 1314.05,1456 1314.95,1456L1318.95,1456C1319.35,1456.03 1319.68,1456.13 1319.95,1456.3L1319.95,1437Z" style="fill:rgb(182,124,65);fill-rule:nonzero;"/>
                <path d="M1320.9,1458.65C1320.87,1457.48 1320.55,1456.7 1319.95,1456.3C1319.68,1456.13 1319.35,1456.03 1318.95,1456L1314.95,1456C1314.05,1456 1313.38,1456.33 1312.95,1457L1312.95,1458C1312.58,1458.67 1312.25,1459 1311.95,1459L1287.95,1459C1287.32,1459 1286.98,1458.68 1286.95,1458.05L1286.95,1458C1286.75,1456.73 1285.75,1456.07 1283.95,1456L1280.95,1456C1280.55,1456.03 1280.22,1456.13 1279.95,1456.3C1279.45,1456.6 1279.12,1457.13 1278.95,1457.9L1278.95,1458C1278.95,1464 1281.95,1467 1287.95,1467L1311.95,1467C1317.42,1467 1320.4,1464.22 1320.9,1458.65Z" style="fill:rgb(224,153,80);fill-rule:nonzero;"/>
                <path d="M1316.95,1437L1316.95,1436C1316.62,1432.67 1314.62,1431 1310.95,1431L1287.95,1431C1284.28,1431 1282.62,1432.67 1282.95,1436L1282.95,1437L1286.95,1437L1286.95,1458.05C1286.98,1458.68 1287.32,1459 1287.95,1459L1311.95,1459C1312.25,1459 1312.58,1458.67 1312.95,1458L1312.95,1437L1316.95,1437Z" style="fill:rgb(201,137,72);fill-rule:nonzero;"/>
            </g>
        </g>
    </g>
</svg>
