<?xml version="1.0" encoding="UTF-8" standalone="no"?>
<!DOCTYPE svg PUBLIC "-//W3C//DTD SVG 1.1//EN" "http://www.w3.org/Graphics/SVG/1.1/DTD/svg11.dtd">
<svg width="100%" height="100%" viewBox="0 0 46 40" version="1.1" xmlns="http://www.w3.org/2000/svg" xmlns:xlink="http://www.w3.org/1999/xlink" xml:space="preserve" xmlns:serif="http://www.serif.com/" style="fill-rule:evenodd;clip-rule:evenodd;stroke-linejoin:round;stroke-miterlimit:2;">
    <g transform="matrix(1,0,0,1,-1118.95,-1419)">
        <g transform="matrix(1,0,0,1,-10,-10)">
            <g id="Layer0_459_MEMBER_0_FILL">
                <path d="M1128.95,1457.9L1128.95,1458C1128.95,1465.33 1132.62,1469 1139.95,1469L1163.95,1469C1170.62,1469 1174.27,1465.6 1174.9,1458.8L1174.9,1458.55C1174.8,1455.52 1173.53,1454 1171.1,1454L1170.95,1454L1170.95,1435.8C1170.55,1431.27 1167.88,1429 1162.95,1429L1139.95,1429C1137.45,1429 1135.65,1429.62 1134.55,1430.85C1133.25,1432.02 1132.72,1433.8 1132.95,1436.2L1132.95,1454L1132.85,1454C1130.68,1454.07 1129.4,1455.25 1129,1457.55C1128.97,1457.68 1128.95,1457.8 1128.95,1457.9M1130.95,1458L1130.95,1457.9C1131.18,1456.7 1131.85,1456.07 1132.95,1456L1134.95,1456L1134.95,1436C1134.62,1432.67 1136.28,1431 1139.95,1431L1162.95,1431C1166.62,1431 1168.62,1432.67 1168.95,1436L1168.95,1456L1170.95,1456C1172.18,1456.07 1172.83,1456.95 1172.9,1458.65C1172.4,1464.22 1169.42,1467 1163.95,1467L1139.95,1467C1133.95,1467 1130.95,1464 1130.95,1458Z" style="fill:rgb(154,105,55);fill-rule:nonzero;"/>
                <path d="M1139.95,1435L1162.95,1435C1163.95,1435 1164.62,1435.33 1164.95,1436L1164.95,1457C1165.38,1456.33 1166.05,1456 1166.95,1456L1168.95,1456L1168.95,1436C1168.62,1432.67 1166.62,1431 1162.95,1431L1139.95,1431C1136.28,1431 1134.62,1432.67 1134.95,1436L1134.95,1456L1135.95,1456C1137.75,1456.07 1138.75,1456.73 1138.95,1458L1138.95,1436C1138.62,1435.33 1138.95,1435 1139.95,1435Z" style="fill:rgb(201,137,72);fill-rule:nonzero;"/>
                <path d="M1162.95,1435L1139.95,1435C1138.95,1435 1138.62,1435.33 1138.95,1436L1138.95,1458C1138.95,1458.67 1139.28,1459 1139.95,1459L1163.95,1459C1164.25,1459 1164.58,1458.67 1164.95,1458L1164.95,1436C1164.62,1435.33 1163.95,1435 1162.95,1435Z" style="fill:rgb(187,127,67);fill-rule:nonzero;"/>
                <path d="M1130.95,1457.9L1130.95,1458C1130.95,1464 1133.95,1467 1139.95,1467L1163.95,1467C1169.42,1467 1172.4,1464.22 1172.9,1458.65C1172.83,1456.95 1172.18,1456.07 1170.95,1456L1166.95,1456C1166.05,1456 1165.38,1456.33 1164.95,1457L1164.95,1458C1164.58,1458.67 1164.25,1459 1163.95,1459L1139.95,1459C1139.28,1459 1138.95,1458.67 1138.95,1458C1138.75,1456.73 1137.75,1456.07 1135.95,1456L1132.95,1456C1131.85,1456.07 1131.18,1456.7 1130.95,1457.9Z" style="fill:rgb(224,153,80);fill-rule:nonzero;"/>
            </g>
        </g>
    </g>
</svg>
