<?xml version="1.0" encoding="UTF-8" standalone="no"?>
<!DOCTYPE svg PUBLIC "-//W3C//DTD SVG 1.1//EN" "http://www.w3.org/Graphics/SVG/1.1/DTD/svg11.dtd">
<svg width="100%" height="100%" viewBox="0 0 51 50" version="1.1" xmlns="http://www.w3.org/2000/svg" xmlns:xlink="http://www.w3.org/1999/xlink" xml:space="preserve" xmlns:serif="http://www.serif.com/" style="fill-rule:evenodd;clip-rule:evenodd;stroke-linejoin:round;stroke-miterlimit:2;">
    <g transform="matrix(1,0,0,1,-152.538,-131.52)">
        <g transform="matrix(1,0,0,1,-27.4286,-16.4571)">
            <path d="M191.75,151.6L191.8,151.55C192.467,150.817 193.217,150.433 194.05,150.4L193.95,150.45C195.717,150.217 196.933,150.667 197.6,151.8L197.65,151.9C198.017,152.467 198.267,153.217 198.4,154.15L198.4,154.35L198.35,155.95L198.35,156L198.4,156.6C198.767,156.867 199.283,157.067 199.95,157.2L200,157.2L201.05,157.25L201.9,156.95L202.05,156.8L202.1,156.5L202.15,156.25L202.1,155.65L201.85,153.9L201.85,153.85C201.817,152.317 202.133,151.05 202.8,150.05L202.85,150C203.283,149.233 203.867,148.7 204.6,148.4L204.55,148.4C205.45,147.967 206.317,147.867 207.15,148.1L207.2,148.15C207.767,148.283 208.283,148.517 208.75,148.85L208.8,148.85L209.45,149.45L209.7,149.75C210.2,150.517 210.65,151 211.05,151.2L211.4,151.3C212.333,151.633 212.917,152.283 213.15,153.25L213.15,153.3C213.283,153.833 213.25,154.583 213.05,155.55L212.95,156.2L213,156.25L213.05,156.45L213.3,156.55L213.45,156.6L213.8,156.5L213.85,156.45L214.15,156.25L214.3,156L214.7,155.45L215.3,154.2C215.633,153.667 216,153.283 216.4,153.05L216.35,153.1C216.95,152.667 217.583,152.45 218.25,152.45L218.65,152.5C219.217,152.6 219.767,152.833 220.3,153.2L220.45,153.3C221.083,153.8 221.517,154.417 221.75,155.15L221.75,155.25C221.917,155.85 221.883,156.5 221.65,157.2L221.55,157.45L220.7,158.7L220.8,158.55L219.7,159.45L220,159.9L220.05,159.95C220.517,160.617 220.8,161.233 220.9,161.8L220.95,162.2C220.983,162.867 220.75,163.6 220.25,164.4L220.1,164.6L219.55,165.3L219.5,165.35L219.25,165.55L219.75,165.9L219.85,165.9L221.7,166.55L224.15,166.95L224.5,167L225.7,167C226.833,167.067 227.717,167.333 228.35,167.8C229.15,168.233 229.667,168.983 229.9,170.05C230.167,171.317 229.9,172.333 229.1,173.1C229.033,173.1 228.983,173.133 228.95,173.2C228.383,173.733 227.65,173.967 226.75,173.9L226.6,173.9L225.25,173.6L225.2,173.6L224.35,173.2L224.2,173.2L224.2,173.3L224.45,174.85C224.45,175.983 223.983,176.883 223.05,177.55L222.95,177.65C222.083,178.25 221.233,178.417 220.4,178.15L220.65,178.55L221.75,180.2C222.35,181.2 222.517,182.25 222.25,183.35C222.083,184.083 221.717,184.7 221.15,185.2C220.35,185.867 219.483,186.05 218.55,185.75L218.5,185.7L218.4,185.7L216.75,185L216.45,184.85L216.4,185.1L216.4,185.2L216.55,186.5L217.1,187.9L217.5,188.5L217.55,188.6C217.983,189.267 218.217,189.883 218.25,190.45L218.25,190.35C218.483,191.817 217.967,193.017 216.7,193.95L216.75,193.9C215.35,194.967 214.017,195.067 212.75,194.2L212.7,194.2C211.367,193.467 210.75,191.967 210.85,189.7L210.85,189.5L209.8,188.4L208.8,187.15L208.8,187.2L209,188.6L209,188.5L209.05,190.6L209,190.7L208.55,192L208.45,192.15C207.883,192.883 207.267,193.283 206.6,193.35L206.45,193.35L206.55,194.25C206.583,195.583 205.983,196.633 204.75,197.4C203.55,198.067 202.4,198.15 201.3,197.65L201.25,197.65C200.517,197.35 199.95,196.85 199.55,196.15C199.15,195.483 198.95,194.767 198.95,194C198.95,193.4 199.067,192.617 199.3,191.65L199.35,191.6L199.7,190L199.6,189.6L199.1,188.95L199.15,188.95C198.65,188.517 198.117,188.167 197.55,187.9L195.9,187.45L195.8,187.8L195.75,187.85L194.9,189.75L193.45,191.05L193.35,191.1L191.1,191.25C190.4,191.083 189.817,190.617 189.35,189.85L189.35,189.8C189.017,189.267 188.85,188.683 188.85,188.05L188.9,187.8C189,186.6 189.7,185.5 191,184.5L191.05,184.45L191.9,183.9L191.85,183.85L191.85,183.75L191.5,183.05C190.9,182.05 190.15,181.3 189.25,180.8L189.2,180.75C188.8,180.917 188.233,181.2 187.5,181.6L187.45,181.6L185.05,182.6L182.75,182.55L182.8,182.55C181.967,182.283 181.317,181.817 180.85,181.15L180.8,181.1C180.133,180.2 179.867,179.167 180,178C180.133,176.633 180.717,175.633 181.75,175L181.9,174.9C182.467,174.567 183.233,174.367 184.2,174.3L184.1,174.3L185.65,174.2L186.95,174L187.05,173.95L187.9,173.4L187.95,173.35C188.617,172.75 189.033,172.117 189.2,171.45L189.2,171.4L189.25,171.25L188.65,171.1L186.75,170.7L186.65,170.65L185.15,169.85L185.2,169.9C184.4,169.333 183.867,168.65 183.6,167.85L183.6,167.75C183.267,166.683 183.367,165.65 183.9,164.65C184.367,163.517 185.133,162.767 186.2,162.4C187.267,161.9 188.417,162.033 189.65,162.8L189.5,162.7L190.7,163.6L191.3,164.3L191.95,164.8L192.35,163.25L192.3,163.3L192.3,161.35C192.233,160.017 191.917,158.683 191.35,157.35L191.35,157.25L190.85,155.95L190.85,155.85C190.617,155.117 190.533,154.45 190.6,153.85L190.65,153.55C190.85,152.817 191.217,152.167 191.75,151.6M204.5,151.05C204.033,151.783 203.817,152.717 203.85,153.85L204.05,155.25L204.1,156.65L203.75,157.8L202.95,158.6L201.35,159.2L199.65,159.15C198.517,158.983 197.633,158.617 197,158.05C196.5,157.583 196.283,156.85 196.35,155.85L196.4,154.35L195.95,152.95C195.617,152.483 195.033,152.3 194.2,152.4C193.833,152.433 193.5,152.617 193.2,152.95C192.9,153.25 192.7,153.6 192.6,154L192.75,155.3L193.2,156.55C193.867,158.15 194.233,159.717 194.3,161.25L194.3,163.5L193.7,165.7L192.9,166.6L191.8,166.85C191.067,166.717 190.4,166.317 189.8,165.65L189.25,165L188.6,164.5C188,164.133 187.45,164.05 186.95,164.25C186.383,164.45 185.967,164.85 185.7,165.45C185.4,166.017 185.333,166.6 185.5,167.2C185.633,167.6 185.9,167.933 186.3,168.2L187.45,168.8L188.9,169.1L190.35,169.5C190.717,169.733 190.967,170.083 191.1,170.55C191.233,170.983 191.25,171.417 191.15,171.85C190.917,172.917 190.3,173.9 189.3,174.8L187.65,175.85L185.75,176.2L184.3,176.3C183.7,176.333 183.217,176.45 182.85,176.65C182.35,176.983 182.067,177.5 182,178.2C181.933,178.867 182.083,179.45 182.45,179.95L183.4,180.65C183.767,180.783 184.133,180.783 184.5,180.65L186.55,179.8L188.55,178.85L189.4,178.75L190.25,179.05C191.417,179.717 192.4,180.7 193.2,182L193.75,183.2C193.917,183.7 193.95,184.15 193.85,184.55L193.15,185.4L192.2,186.1C191.4,186.7 190.95,187.35 190.85,188.05L191.05,188.8L191.65,189.3L192.55,189.25L193.2,188.65L193.85,187.2L194.45,185.75C194.583,185.55 194.8,185.433 195.1,185.4L195.85,185.4C196.717,185.467 197.55,185.683 198.35,186.05C199.15,186.417 199.867,186.9 200.5,187.5L201.4,188.75C201.633,189.25 201.733,189.733 201.7,190.2L201.25,192.1C201.05,192.9 200.95,193.533 200.95,194C200.95,194.4 201.05,194.767 201.25,195.1L202.05,195.8L203.7,195.65C204.267,195.317 204.55,194.85 204.55,194.25L203.75,191.45L203.9,191.05C204,190.95 204.1,190.9 204.2,190.9L205.25,191.1L206.25,191.35L206.8,190.95L207.05,190.25L207,188.85L206.8,187.4L206.85,185.95C206.883,185.383 207.017,184.917 207.25,184.55C207.417,184.25 207.667,184.017 208,183.85C208.333,183.717 208.65,183.717 208.95,183.85L209.8,184.75L210.4,185.85L211.25,187.05L212.25,188.05L212.75,188.8L212.85,189.7C212.783,191.1 213.1,192.033 213.8,192.5C214.333,192.833 214.9,192.767 215.5,192.3C216.1,191.867 216.35,191.317 216.25,190.65L215.85,189.65L215.3,188.8L214.6,187C214.433,186.367 214.367,185.733 214.4,185.1L214.65,183.95L215.3,183.05C215.633,182.783 215.933,182.667 216.2,182.7C216.6,182.733 217.083,182.9 217.65,183.2L219.1,183.8L219.85,183.65L220.3,182.9C220.433,182.3 220.333,181.717 220,181.15C219.667,180.55 219.2,180.183 218.6,180.05L216.6,180.45L216.2,180.05L216.05,179.45C215.917,178.117 216.083,176.883 216.55,175.75L217.2,174.75C217.533,174.483 217.883,174.367 218.25,174.4C218.683,174.433 219.117,174.667 219.55,175.1L220.65,176.1L221.85,175.95C222.25,175.683 222.45,175.317 222.45,174.85L222.25,173.75L222,172.7C221.967,172.367 222.017,172.05 222.15,171.75C222.283,171.417 222.5,171.217 222.8,171.15L224.35,171.2L225.85,171.7L226.75,171.9L227.65,171.65C227.95,171.35 228.05,170.95 227.95,170.45C227.85,169.983 227.617,169.65 227.25,169.45C226.85,169.183 226.3,169.033 225.6,169L223.85,168.9L221.35,168.5C220.417,168.3 219.617,168.033 218.95,167.7C218.117,167.333 217.567,166.85 217.3,166.25C217.1,165.683 217.283,165 217.85,164.2L218.55,163.3L218.95,162.2L218.4,161.1L217.7,160.1L217.4,159.25C217.333,158.883 217.4,158.6 217.6,158.4L218.4,157.85L219.25,157.25L219.75,156.55L219.8,155.7L219.2,154.85L218.25,154.45C217.983,154.45 217.733,154.533 217.5,154.7L216.95,155.3L216.45,156.35L215.8,157.3L214.65,158.3L213.15,158.55C212.65,158.517 212.183,158.317 211.75,157.95C211.35,157.583 211.1,157.133 211,156.6C210.933,156.267 210.967,155.783 211.1,155.15L211.2,153.7C211.133,153.433 210.967,153.25 210.7,153.15C209.8,152.983 208.9,152.2 208,150.8L207.65,150.5L206.65,150.05L205.4,150.2C205.033,150.367 204.733,150.65 204.5,151.05M205.5,192.25L205.45,192.3L205.45,192.35L205.5,192.25" style="fill:rgb(56,52,40);fill-rule:nonzero;"/>
            <path d="M194.35,154.15L194.55,154.3L194.4,154.4L194.35,154.15M195.5,166.55L196.15,164.55C196.55,162.483 197.833,161.367 200,161.2L201.7,161.2C202.567,161.033 203.35,160.733 204.05,160.3C204.65,159.967 205.133,159.45 205.5,158.75L205.5,158.85L206.1,157.35L206.9,154.35C207.4,152.717 207.933,153 208.5,155.2C209.033,157.367 209.667,158.783 210.4,159.45L210.45,159.5C211.25,160.167 212.117,160.517 213.05,160.55L212.9,160.55L213.85,160.55C216.117,160.85 216.683,162.067 215.55,164.2C215.083,165.2 215.05,166.117 215.45,166.95L215.5,167.05C215.9,168.05 216.75,168.867 218.05,169.5L218.15,169.55L218.75,169.8C220.717,170.667 220.467,171.4 218,172C217.333,172.233 216.65,172.633 215.95,173.2L215.8,173.35C215.333,173.783 214.967,174.333 214.7,175C214.1,176.433 213.883,177.983 214.05,179.65L214.1,179.7L214.1,180C213.867,182.667 212.5,183.383 210,182.15L209.85,182.05L209.75,182.05L207.25,182L207.1,182.05C206.4,182.417 205.867,182.933 205.5,183.6C205.133,184.133 204.917,184.617 204.85,185.05L204.25,187.1C203.917,188 203.15,187.667 201.95,186.1L201.9,186.05L199.75,184.45L197.4,183.4C196.467,183.033 195.667,182.3 195,181.2C194.333,180.067 193.617,179.15 192.85,178.45C191.717,177.283 191.567,175.867 192.4,174.2L193.1,172.3C193.267,171.5 193.233,170.717 193,169.95L193.05,170L193.2,168.9L193.65,168.5L194.05,168.25C194.65,167.85 195.117,167.317 195.45,166.65L195.5,166.55M211,163L210.7,162.3C210.533,162.1 210.3,162 210,162C209.733,162 209.5,162.1 209.3,162.3C209.1,162.5 209,162.733 209,163C209,163.3 209.1,163.533 209.3,163.7L210,164L210.7,163.7L211,163M201,178L200.7,177.3C200.533,177.1 200.3,177 200,177C199.733,177 199.5,177.1 199.3,177.3C199.1,177.5 199,177.733 199,178C199,178.3 199.1,178.533 199.3,178.7C199.5,178.9 199.733,179 200,179C200.3,179 200.533,178.9 200.7,178.7L201,178M199,174C199,173.433 198.8,172.95 198.4,172.55C198.033,172.183 197.567,172 197,172C196.433,172 195.95,172.183 195.55,172.55C195.183,172.95 195,173.433 195,174C195,174.567 195.183,175.033 195.55,175.4C195.95,175.8 196.433,176 197,176C197.567,176 198.033,175.8 198.4,175.4C198.8,175.033 199,174.567 199,174" style="fill:rgb(64,60,47);fill-rule:nonzero;"/>
            <path d="M199,174C199,174.567 198.8,175.033 198.4,175.4C198.033,175.8 197.567,176 197,176C196.433,176 195.95,175.8 195.55,175.4C195.183,175.033 195,174.567 195,174C195,173.433 195.183,172.95 195.55,172.55C195.95,172.183 196.433,172 197,172C197.567,172 198.033,172.183 198.4,172.55C198.8,172.95 199,173.433 199,174M204.5,151.05C204.733,150.65 205.033,150.367 205.4,150.2L206.65,150.05L207.65,150.5L208,150.8C208.9,152.2 209.8,152.983 210.7,153.15C210.967,153.25 211.133,153.433 211.2,153.7L211.1,155.15C210.967,155.783 210.933,156.267 211,156.6C211.1,157.133 211.35,157.583 211.75,157.95C212.183,158.317 212.65,158.517 213.15,158.55L214.65,158.3L215.8,157.3L216.45,156.35L216.95,155.3L217.5,154.7C217.733,154.533 217.983,154.45 218.25,154.45L219.2,154.85L219.8,155.7L219.75,156.55L219.25,157.25L218.4,157.85L217.6,158.4C217.4,158.6 217.333,158.883 217.4,159.25L217.7,160.1L218.4,161.1L218.95,162.2L218.55,163.3L217.85,164.2C217.283,165 217.1,165.683 217.3,166.25C217.567,166.85 218.117,167.333 218.95,167.7C219.617,168.033 220.417,168.3 221.35,168.5L223.85,168.9L225.6,169C226.3,169.033 226.85,169.183 227.25,169.45C227.617,169.65 227.85,169.983 227.95,170.45C228.05,170.95 227.95,171.35 227.65,171.65L226.75,171.9L225.85,171.7L224.35,171.2L222.8,171.15C222.5,171.217 222.283,171.417 222.15,171.75C222.017,172.05 221.967,172.367 222,172.7L222.25,173.75L222.45,174.85C222.45,175.317 222.25,175.683 221.85,175.95L220.65,176.1L219.55,175.1C219.117,174.667 218.683,174.433 218.25,174.4C217.883,174.367 217.533,174.483 217.2,174.75L216.55,175.75C216.083,176.883 215.917,178.117 216.05,179.45L216.2,180.05L216.6,180.45L218.6,180.05C219.2,180.183 219.667,180.55 220,181.15C220.333,181.717 220.433,182.3 220.3,182.9L219.85,183.65L219.1,183.8L217.65,183.2C217.083,182.9 216.6,182.733 216.2,182.7C215.933,182.667 215.633,182.783 215.3,183.05L214.65,183.95L214.4,185.1C214.367,185.733 214.433,186.367 214.6,187L215.3,188.8L215.85,189.65L216.25,190.65C216.35,191.317 216.1,191.867 215.5,192.3C214.9,192.767 214.333,192.833 213.8,192.5C213.1,192.033 212.783,191.1 212.85,189.7L212.75,188.8L212.25,188.05L211.25,187.05L210.4,185.85L209.8,184.75L208.95,183.85C208.65,183.717 208.333,183.717 208,183.85C207.667,184.017 207.417,184.25 207.25,184.55C207.017,184.917 206.883,185.383 206.85,185.95L206.8,187.4L207,188.85L207.05,190.25L206.8,190.95L206.25,191.35L205.25,191.1L204.2,190.9C204.1,190.9 204,190.95 203.9,191.05L203.75,191.45L204.55,194.25C204.55,194.85 204.267,195.317 203.7,195.65L202.05,195.8L201.25,195.1C201.05,194.767 200.95,194.4 200.95,194C200.95,193.533 201.05,192.9 201.25,192.1L201.7,190.2C201.733,189.733 201.633,189.25 201.4,188.75L200.5,187.5C199.867,186.9 199.15,186.417 198.35,186.05C197.55,185.683 196.717,185.467 195.85,185.4L195.1,185.4C194.8,185.433 194.583,185.55 194.45,185.75L193.85,187.2L193.2,188.65L192.55,189.25L191.65,189.3L191.05,188.8L190.85,188.05C190.95,187.35 191.4,186.7 192.2,186.1L193.15,185.4L193.85,184.55C193.95,184.15 193.917,183.7 193.75,183.2L193.2,182C192.4,180.7 191.417,179.717 190.25,179.05L189.4,178.75L188.55,178.85L186.55,179.8L184.5,180.65C184.133,180.783 183.767,180.783 183.4,180.65L182.45,179.95C182.083,179.45 181.933,178.867 182,178.2C182.067,177.5 182.35,176.983 182.85,176.65C183.217,176.45 183.7,176.333 184.3,176.3L185.75,176.2L187.65,175.85L189.3,174.8C190.3,173.9 190.917,172.917 191.15,171.85C191.25,171.417 191.233,170.983 191.1,170.55C190.967,170.083 190.717,169.733 190.35,169.5L188.9,169.1L187.45,168.8L186.3,168.2C185.9,167.933 185.633,167.6 185.5,167.2C185.333,166.6 185.4,166.017 185.7,165.45C185.967,164.85 186.383,164.45 186.95,164.25C187.45,164.05 188,164.133 188.6,164.5L189.25,165L189.8,165.65C190.4,166.317 191.067,166.717 191.8,166.85L192.9,166.6L193.7,165.7L194.3,163.5L194.3,161.25C194.233,159.717 193.867,158.15 193.2,156.55L192.75,155.3L192.6,154C192.7,153.6 192.9,153.25 193.2,152.95C193.5,152.617 193.833,152.433 194.2,152.4C195.033,152.3 195.617,152.483 195.95,152.95L196.4,154.35L196.35,155.85C196.283,156.85 196.5,157.583 197,158.05C197.633,158.617 198.517,158.983 199.65,159.15L201.35,159.2L202.95,158.6L203.75,157.8L204.1,156.65L204.05,155.25L203.85,153.85C203.817,152.717 204.033,151.783 204.5,151.05M194.35,154.15L194.4,154.4L194.55,154.3L194.35,154.15M195.5,166.55L195.45,166.65C195.117,167.317 194.65,167.85 194.05,168.25L193.65,168.5L193.2,168.9L193.05,170L193,169.95C193.233,170.717 193.267,171.5 193.1,172.3L192.4,174.2C191.567,175.867 191.717,177.283 192.85,178.45C193.617,179.15 194.333,180.067 195,181.2C195.667,182.3 196.467,183.033 197.4,183.4L199.75,184.45L201.9,186.05L201.95,186.1C203.15,187.667 203.917,188 204.25,187.1L204.85,185.05C204.917,184.617 205.133,184.133 205.5,183.6C205.867,182.933 206.4,182.417 207.1,182.05L207.25,182L209.75,182.05L209.85,182.05L210,182.15C212.5,183.383 213.867,182.667 214.1,180L214.1,179.7L214.05,179.65C213.883,177.983 214.1,176.433 214.7,175C214.967,174.333 215.333,173.783 215.8,173.35L215.95,173.2C216.65,172.633 217.333,172.233 218,172C220.467,171.4 220.717,170.667 218.75,169.8L218.15,169.55L218.05,169.5C216.75,168.867 215.9,168.05 215.5,167.05L215.45,166.95C215.05,166.117 215.083,165.2 215.55,164.2C216.683,162.067 216.117,160.85 213.85,160.55L212.9,160.55L213.05,160.55C212.117,160.517 211.25,160.167 210.45,159.5L210.4,159.45C209.667,158.783 209.033,157.367 208.5,155.2C207.933,153 207.4,152.717 206.9,154.35L206.1,157.35L205.5,158.85L205.5,158.75C205.133,159.45 204.65,159.967 204.05,160.3C203.35,160.733 202.567,161.033 201.7,161.2L200,161.2C197.833,161.367 196.55,162.483 196.15,164.55L195.5,166.55M201,178L200.7,178.7C200.533,178.9 200.3,179 200,179C199.733,179 199.5,178.9 199.3,178.7C199.1,178.533 199,178.3 199,178C199,177.733 199.1,177.5 199.3,177.3C199.5,177.1 199.733,177 200,177C200.3,177 200.533,177.1 200.7,177.3L201,178M211,163L210.7,163.7L210,164L209.3,163.7C209.1,163.533 209,163.3 209,163C209,162.733 209.1,162.5 209.3,162.3C209.5,162.1 209.733,162 210,162C210.3,162 210.533,162.1 210.7,162.3L211,163" style="fill:rgb(72,68,54);fill-rule:nonzero;"/>
        </g>
    </g>
</svg>
