<?xml version="1.0" encoding="UTF-8" standalone="no"?>
<!DOCTYPE svg PUBLIC "-//W3C//DTD SVG 1.1//EN" "http://www.w3.org/Graphics/SVG/1.1/DTD/svg11.dtd">
<svg width="100%" height="100%" viewBox="0 0 14 14" version="1.1" xmlns="http://www.w3.org/2000/svg" xmlns:xlink="http://www.w3.org/1999/xlink" xml:space="preserve" xmlns:serif="http://www.serif.com/" style="fill-rule:evenodd;clip-rule:evenodd;stroke-linejoin:round;stroke-miterlimit:2;">
    <g transform="matrix(1,0,0,1,-169.571,-188.543)">
        <g transform="matrix(1,0,0,1,-27.4286,-16.4571)">
            <path d="M201,213L201.5,212.95L202.15,213.8L203.05,214.5L203,215C203,215.567 203.183,216.033 203.55,216.4C203.95,216.8 204.433,217 205,217C205.567,217 206.033,216.8 206.4,216.4C206.8,216.033 207,215.567 207,215L206.95,214.5L207.8,213.8C208.6,213.033 209,212.1 209,211C209,209.9 208.6,208.95 207.8,208.15C207.033,207.383 206.1,207 205,207C203.9,207 202.95,207.383 202.15,208.15L201.5,209.05L201,209C200.433,209 199.95,209.183 199.55,209.55C199.183,209.95 199,210.433 199,211C199,211.567 199.183,212.033 199.55,212.4C199.95,212.8 200.433,213 201,213M205,205C206.667,205 208.083,205.583 209.25,206.75C210.417,207.917 211,209.333 211,211C211,212.633 210.417,214.033 209.25,215.2L209,215.45C208.9,216.35 208.533,217.117 207.9,217.75L207.75,217.9C207.017,218.633 206.1,219 205,219C203.867,219 202.917,218.617 202.15,217.85C201.483,217.217 201.117,216.433 201.05,215.5L201,215L200.5,215C199.6,214.867 198.817,214.483 198.15,213.85C197.383,213.083 197,212.133 197,211C197,209.9 197.367,208.967 198.1,208.2L198.2,208.1C198.833,207.5 199.6,207.15 200.5,207.05L200.7,206.8L200.8,206.7C201.967,205.567 203.367,205 205,205" style="fill:rgb(56,52,40);fill-rule:nonzero;"/>
            <path d="M203.6,212.4L204.1,212.8C204.433,213 204.7,213.3 204.9,213.7L205.1,213.75C205.267,213.35 205.517,213.05 205.85,212.85L206.4,212.4L206.45,212.35C206.817,211.983 207,211.533 207,211C207,210.467 206.8,210 206.4,209.6C206,209.2 205.533,209 205,209C204.433,209 203.95,209.2 203.55,209.6L203.6,209.6L203.3,209.95L202.4,210.85C202.233,210.917 202.267,211.017 202.5,211.15L203.25,212L203.6,212.4M201,213C200.433,213 199.95,212.8 199.55,212.4C199.183,212.033 199,211.567 199,211C199,210.433 199.183,209.95 199.55,209.55C199.95,209.183 200.433,209 201,209L201.5,209.05L202.15,208.15C202.95,207.383 203.9,207 205,207C206.1,207 207.033,207.383 207.8,208.15C208.6,208.95 209,209.9 209,211C209,212.1 208.6,213.033 207.8,213.8L206.95,214.5L207,215C207,215.567 206.8,216.033 206.4,216.4C206.033,216.8 205.567,217 205,217C204.433,217 203.95,216.8 203.55,216.4C203.183,216.033 203,215.567 203,215L203.05,214.5L202.15,213.8L201.5,212.95L201,213" style="fill:rgb(72,68,54);fill-rule:nonzero;"/>
            <path d="M203.6,212.4L203.25,212L202.5,211.15C202.267,211.017 202.233,210.917 202.4,210.85L203.3,209.95L203.6,209.6L203.55,209.6C203.95,209.2 204.433,209 205,209C205.533,209 206,209.2 206.4,209.6C206.8,210 207,210.467 207,211C207,211.533 206.817,211.983 206.45,212.35L206.4,212.4L205.85,212.85C205.517,213.05 205.267,213.35 205.1,213.75L204.9,213.7C204.7,213.3 204.433,213 204.1,212.8L203.6,212.4" style="fill:rgb(64,60,47);fill-rule:nonzero;"/>
        </g>
    </g>
</svg>
