<?xml version="1.0" encoding="UTF-8" standalone="no"?>
<!DOCTYPE svg PUBLIC "-//W3C//DTD SVG 1.1//EN" "http://www.w3.org/Graphics/SVG/1.1/DTD/svg11.dtd">
<svg width="100%" height="100%" viewBox="0 0 54 54" version="1.1" xmlns="http://www.w3.org/2000/svg" xmlns:xlink="http://www.w3.org/1999/xlink" xml:space="preserve" xmlns:serif="http://www.serif.com/" style="fill-rule:evenodd;clip-rule:evenodd;stroke-linejoin:round;stroke-miterlimit:2;">
    <g transform="matrix(1,0,0,1,-1634,-819.349)">
        <g transform="matrix(1,0,0,1,-10,-10)">
            <g id="Layer0_398_MEMBER_0_FILL">
                <path d="M1689.75,861.9C1689.08,862.533 1688.75,863.333 1688.75,864.3C1688.75,865.267 1689.08,866.083 1689.75,866.75C1690.38,867.383 1691.18,867.7 1692.15,867.7C1693.12,867.7 1693.93,867.383 1694.6,866.75C1695.23,866.083 1695.55,865.267 1695.55,864.3C1695.55,863.333 1695.23,862.533 1694.6,861.9C1693.93,861.233 1693.12,860.9 1692.15,860.9C1691.18,860.9 1690.38,861.233 1689.75,861.9M1693.55,864.3C1693.55,864.7 1693.42,865.033 1693.15,865.3C1692.88,865.567 1692.55,865.7 1692.15,865.7C1691.75,865.7 1691.42,865.567 1691.15,865.3C1690.88,865.033 1690.75,864.7 1690.75,864.3C1690.75,863.9 1690.88,863.567 1691.15,863.3C1691.42,863.033 1691.75,862.9 1692.15,862.9C1692.55,862.9 1692.88,863.033 1693.15,863.3C1693.42,863.567 1693.55,863.9 1693.55,864.3M1654.1,845.85C1654.1,844.45 1653.62,843.267 1652.65,842.3C1651.65,841.3 1650.45,840.8 1649.05,840.8C1647.65,840.8 1646.47,841.3 1645.5,842.3C1644.5,843.267 1644,844.45 1644,845.85C1644,847.25 1644.5,848.45 1645.5,849.45C1646.47,850.417 1647.65,850.9 1649.05,850.9C1650.45,850.9 1651.65,850.417 1652.65,849.45C1653.62,848.45 1654.1,847.25 1654.1,845.85M1652.1,845.85C1652.1,846.683 1651.8,847.4 1651.2,848C1650.6,848.6 1649.88,848.9 1649.05,848.9C1648.22,848.9 1647.5,848.6 1646.9,848C1646.3,847.4 1646,846.683 1646,845.85C1646,845.017 1646.3,844.3 1646.9,843.7C1647.5,843.1 1648.22,842.8 1649.05,842.8C1649.88,842.8 1650.6,843.1 1651.2,843.7C1651.8,844.3 1652.1,845.017 1652.1,845.85M1668.8,829.45C1666.23,829.083 1663.92,829.717 1661.85,831.35C1659.78,832.95 1658.57,835.033 1658.2,837.6C1658.2,837.767 1658.18,837.983 1658.15,838.25C1658.18,838.383 1658.18,838.483 1658.15,838.55C1658.22,839.317 1658.33,840.05 1658.5,840.75C1658.57,840.85 1658.6,840.933 1658.6,841C1659,842.133 1659.25,843.283 1659.35,844.45C1659.35,844.483 1659.37,844.533 1659.4,844.6C1660.07,848.7 1658.32,851.8 1654.15,853.9C1651.85,854.833 1649.83,856.3 1648.1,858.3L1648.05,858.35C1646.95,859.683 1646.28,861.3 1646.05,863.2C1645.72,866.1 1646.47,868.717 1648.3,871.05C1649.9,873.117 1651.92,874.417 1654.35,874.95L1654.45,874.9L1654.5,874.95L1654.7,874.95C1654.7,874.983 1654.72,874.983 1654.75,874.95C1657.05,875.183 1659.2,876.617 1661.2,879.25L1661.25,879.35C1661.28,879.417 1661.32,879.467 1661.35,879.5C1663.08,881.333 1665.23,882.417 1667.8,882.75C1667.93,882.783 1668.05,882.783 1668.15,882.75C1670.95,883.017 1673.45,882.283 1675.65,880.55C1677.95,878.783 1679.27,876.5 1679.6,873.7C1679.73,873.267 1679.78,872.833 1679.75,872.4L1679.75,872.25C1678.92,867.35 1679.57,863.667 1681.7,861.2C1681.77,861.167 1681.82,861.133 1681.85,861.1C1684.08,859.267 1686.63,858.233 1689.5,858C1689.73,858.033 1689.95,858.033 1690.15,858C1691.78,857.967 1693.27,857.417 1694.6,856.35L1694.6,856.3C1696.4,854.9 1697.45,853.133 1697.75,851C1697.85,850.833 1697.9,850.667 1697.9,850.5C1698.23,848.033 1697.62,845.817 1696.05,843.85C1695.48,843.117 1694.83,842.483 1694.1,841.95C1693.93,841.817 1693.77,841.7 1693.6,841.6C1691.83,840.633 1689.67,840.417 1687.1,840.95L1687.05,840.95C1684.75,841.383 1682.55,841.083 1680.45,840.05C1680.42,839.983 1680.37,839.95 1680.3,839.95C1678.63,838.717 1677.2,836.883 1676,834.45L1675.95,834.4C1675.65,833.767 1675.37,833.283 1675.1,832.95C1673.5,830.883 1671.38,829.7 1668.75,829.4L1668.8,829.45M1660.55,840.4C1660.55,840.333 1660.53,840.283 1660.5,840.25C1660.3,839.683 1660.2,839.1 1660.2,838.5C1660.23,838.267 1660.25,838.05 1660.25,837.85C1660.52,835.783 1661.45,834.133 1663.05,832.9C1664.68,831.6 1666.52,831.1 1668.55,831.4C1670.58,831.667 1672.23,832.6 1673.5,834.2C1673.7,834.467 1673.93,834.833 1674.2,835.3C1675.57,838.1 1677.22,840.183 1679.15,841.55C1679.18,841.583 1679.2,841.617 1679.2,841.65C1679.33,841.75 1679.45,841.8 1679.55,841.8C1682.05,843.067 1684.68,843.433 1687.45,842.9L1687.55,842.9C1689.55,842.433 1691.25,842.583 1692.65,843.35C1693.35,843.783 1693.97,844.367 1694.5,845.1C1695.7,846.6 1696.17,848.317 1695.9,850.25C1695.7,852.083 1694.87,853.583 1693.4,854.75C1692.33,855.617 1691.15,856.033 1689.85,856C1689.78,856.033 1689.7,856.033 1689.6,856C1686.23,856.267 1683.23,857.45 1680.6,859.55C1680.53,859.583 1680.45,859.65 1680.35,859.75C1677.65,862.583 1676.78,866.85 1677.75,872.55C1677.78,872.783 1677.75,873.017 1677.65,873.25C1677.42,875.617 1676.35,877.533 1674.45,879C1672.58,880.467 1670.45,881.05 1668.05,880.75C1665.98,880.483 1664.23,879.6 1662.8,878.1L1662.75,878.05C1660.42,874.85 1657.8,873.167 1654.9,873C1654.9,872.967 1654.87,872.95 1654.8,872.95L1654.75,872.9C1652.75,872.5 1651.12,871.467 1649.85,869.8C1648.35,867.933 1647.75,865.8 1648.05,863.4C1648.25,861.9 1648.77,860.633 1649.6,859.6C1651.1,857.867 1652.88,856.6 1654.95,855.8C1654.98,855.8 1655.03,855.767 1655.1,855.7C1660.17,853.1 1662.25,849.283 1661.35,844.25C1661.22,842.917 1660.95,841.633 1660.55,840.4Z" style="fill:rgb(95,95,95);fill-rule:nonzero;"/>
                <path d="M1693.15,865.3C1693.42,865.033 1693.55,864.7 1693.55,864.3C1693.55,863.9 1693.42,863.567 1693.15,863.3C1692.88,863.033 1692.55,862.9 1692.15,862.9C1691.75,862.9 1691.42,863.033 1691.15,863.3C1690.88,863.567 1690.75,863.9 1690.75,864.3C1690.75,864.7 1690.88,865.033 1691.15,865.3C1691.42,865.567 1691.75,865.7 1692.15,865.7C1692.55,865.7 1692.88,865.567 1693.15,865.3M1651.2,848C1651.8,847.4 1652.1,846.683 1652.1,845.85C1652.1,845.017 1651.8,844.3 1651.2,843.7C1650.6,843.1 1649.88,842.8 1649.05,842.8C1648.22,842.8 1647.5,843.1 1646.9,843.7C1646.3,844.3 1646,845.017 1646,845.85C1646,846.683 1646.3,847.4 1646.9,848C1647.5,848.6 1648.22,848.9 1649.05,848.9C1649.88,848.9 1650.6,848.6 1651.2,848M1660.5,840.25C1660.53,840.283 1660.55,840.333 1660.55,840.4C1660.95,841.633 1661.22,842.917 1661.35,844.25C1662.25,849.283 1660.17,853.1 1655.1,855.7C1655.03,855.767 1654.98,855.8 1654.95,855.8C1652.88,856.6 1651.1,857.867 1649.6,859.6C1648.77,860.633 1648.25,861.9 1648.05,863.4C1647.75,865.8 1648.35,867.933 1649.85,869.8C1651.12,871.467 1652.75,872.5 1654.75,872.9L1654.8,872.95C1654.87,872.95 1654.9,872.967 1654.9,873C1657.8,873.167 1660.42,874.85 1662.75,878.05L1662.8,878.1C1664.23,879.6 1665.98,880.483 1668.05,880.75C1670.45,881.05 1672.58,880.467 1674.45,879C1676.35,877.533 1677.42,875.617 1677.65,873.25C1677.75,873.017 1677.78,872.783 1677.75,872.55C1676.78,866.85 1677.65,862.583 1680.35,859.75C1680.45,859.65 1680.53,859.583 1680.6,859.55C1683.23,857.45 1686.23,856.267 1689.6,856C1689.7,856.033 1689.78,856.033 1689.85,856C1691.15,856.033 1692.33,855.617 1693.4,854.75C1694.87,853.583 1695.7,852.083 1695.9,850.25C1696.17,848.317 1695.7,846.6 1694.5,845.1C1693.97,844.367 1693.35,843.783 1692.65,843.35C1691.25,842.583 1689.55,842.433 1687.55,842.9L1687.45,842.9C1684.68,843.433 1682.05,843.067 1679.55,841.8C1679.45,841.8 1679.33,841.75 1679.2,841.65C1679.2,841.617 1679.18,841.583 1679.15,841.55C1677.22,840.183 1675.57,838.1 1674.2,835.3C1673.93,834.833 1673.7,834.467 1673.5,834.2C1672.23,832.6 1670.58,831.667 1668.55,831.4C1666.52,831.1 1664.68,831.6 1663.05,832.9C1661.45,834.133 1660.52,835.783 1660.25,837.85C1660.25,838.05 1660.23,838.267 1660.2,838.5C1660.2,839.1 1660.3,839.683 1660.5,840.25Z" style="fill:rgb(74,74,74);fill-rule:nonzero;"/>
            </g>
        </g>
    </g>
</svg>
