<?xml version="1.0" encoding="UTF-8" standalone="no"?>
<!DOCTYPE svg PUBLIC "-//W3C//DTD SVG 1.1//EN" "http://www.w3.org/Graphics/SVG/1.1/DTD/svg11.dtd">
<svg width="100%" height="100%" viewBox="0 0 55 49" version="1.1" xmlns="http://www.w3.org/2000/svg" xmlns:xlink="http://www.w3.org/1999/xlink" xml:space="preserve" xmlns:serif="http://www.serif.com/" style="fill-rule:evenodd;clip-rule:evenodd;stroke-linejoin:round;stroke-miterlimit:2;">
    <g transform="matrix(1,0,0,1,-1559,-822.15)">
        <g transform="matrix(1,0,0,1,-10,-10)">
            <g id="Layer0_12_MEMBER_0_FILL">
                <path d="M1620.8,849.5C1620.77,849.467 1620.73,849.45 1620.7,849.45C1619.03,847.817 1618.23,845.367 1618.3,842.1L1618.3,841.8C1618.07,839.267 1617.05,837.083 1615.25,835.25C1615.15,835.15 1615.05,835.083 1614.95,835.05C1612.92,833.117 1610.5,832.15 1607.7,832.15C1604.8,832.15 1602.35,833.15 1600.35,835.15C1599.98,835.417 1599.68,835.733 1599.45,836.1C1599.38,836.167 1599.35,836.217 1599.35,836.25C1597.02,840.583 1594.23,843.067 1591,843.7L1590.85,843.7C1587.95,843.733 1585.3,842.967 1582.9,841.4C1582.73,841.233 1582.57,841.117 1582.4,841.05C1581.07,840.05 1579.55,839.567 1577.85,839.6L1577.8,839.6C1575.53,839.633 1573.62,840.4 1572.05,841.9C1571.88,841.967 1571.75,842.067 1571.65,842.2C1569.88,843.933 1569,846.05 1569,848.55C1569,849.483 1569.13,850.383 1569.4,851.25C1569.43,851.45 1569.5,851.65 1569.6,851.85C1570.37,853.717 1571.93,855.217 1574.3,856.35L1574.35,856.4C1576.42,857.467 1577.97,859.05 1579,861.15C1579,861.217 1579.02,861.283 1579.05,861.35C1579.62,863.317 1579.62,865.65 1579.05,868.35L1579.05,868.4C1578.92,869.067 1578.85,869.617 1578.85,870.05C1578.85,872.65 1579.78,874.883 1581.65,876.75L1581.65,876.7C1583.45,878.567 1585.67,879.5 1588.3,879.5C1590.9,879.5 1593.13,878.583 1595,876.75C1595.13,876.617 1595.28,876.467 1595.45,876.3C1595.52,876.2 1595.58,876.117 1595.65,876.05C1596.08,875.417 1596.43,874.767 1596.7,874.1C1596.73,874 1596.77,873.917 1596.8,873.85C1597.17,872.717 1597.67,871.65 1598.3,870.65C1598.33,870.617 1598.37,870.583 1598.4,870.55C1600.37,866.883 1603.65,865.5 1608.25,866.4C1610.65,867.1 1613.15,867.183 1615.75,866.65L1615.8,866.65C1617.47,866.283 1618.98,865.433 1620.35,864.1C1622.42,862 1623.45,859.467 1623.45,856.5C1623.45,853.9 1622.65,851.65 1621.05,849.75C1621.02,849.717 1620.83,849.533 1620.8,849.5M1613.8,836.7L1613.8,836.65C1615.27,838.15 1616.1,839.933 1616.3,842L1616.3,842.05C1616.2,846.017 1617.22,848.967 1619.35,850.9C1619.38,850.933 1619.5,851.05 1619.5,851.05C1620.8,852.583 1621.45,854.4 1621.45,856.5C1621.45,858.9 1620.6,860.95 1618.9,862.65C1617.83,863.717 1616.65,864.4 1615.35,864.7C1613.08,865.167 1610.9,865.083 1608.8,864.45C1608.73,864.417 1608.67,864.4 1608.6,864.4C1603,863.333 1599,865.067 1596.6,869.6C1595.9,870.733 1595.33,871.917 1594.9,873.15C1594.87,873.183 1594.85,873.217 1594.85,873.25C1594.65,873.817 1594.37,874.35 1594,874.85C1593.83,875.017 1593.68,875.167 1593.55,875.3C1592.08,876.767 1590.33,877.5 1588.3,877.5C1586.23,877.5 1584.48,876.767 1583.05,875.3C1581.58,873.833 1580.85,872.083 1580.85,870.05C1580.85,869.717 1580.9,869.283 1581,868.75C1581.63,865.683 1581.62,863.017 1580.95,860.75L1580.95,860.65C1580.92,860.517 1580.87,860.4 1580.8,860.3C1579.57,857.8 1577.72,855.9 1575.25,854.6C1575.22,854.567 1575.18,854.55 1575.15,854.55C1573.28,853.65 1572.03,852.483 1571.4,851.05L1571.45,851.05C1571.15,850.283 1571,849.45 1571,848.55C1571,846.617 1571.68,844.967 1573.05,843.6L1573.05,843.65C1574.35,842.317 1575.95,841.633 1577.85,841.6C1579.22,841.567 1580.4,841.967 1581.4,842.8C1581.47,842.833 1581.53,842.883 1581.6,842.95C1584.4,844.817 1587.48,845.733 1590.85,845.7L1591.15,845.7C1595.05,845.133 1598.37,842.3 1601.1,837.2C1601.23,837 1601.4,836.833 1601.6,836.7C1603.27,835 1605.3,834.15 1607.7,834.15C1610.07,834.15 1612.1,835 1613.8,836.7Z" style="fill:rgb(95,95,95);fill-rule:nonzero;"/>
                <path d="M1613.8,836.65L1613.8,836.7C1612.1,835 1610.07,834.15 1607.7,834.15C1605.3,834.15 1603.27,835 1601.6,836.7C1601.4,836.833 1601.23,837 1601.1,837.2C1598.37,842.3 1595.05,845.133 1591.15,845.7L1590.85,845.7C1587.48,845.733 1584.4,844.817 1581.6,842.95C1581.53,842.883 1581.47,842.833 1581.4,842.8C1580.4,841.967 1579.22,841.567 1577.85,841.6C1575.95,841.633 1574.35,842.317 1573.05,843.65L1573.05,843.6C1571.68,844.967 1571,846.617 1571,848.55C1571,849.45 1571.15,850.283 1571.45,851.05L1571.4,851.05C1572.03,852.483 1573.28,853.65 1575.15,854.55C1575.18,854.55 1575.22,854.567 1575.25,854.6C1577.72,855.9 1579.57,857.8 1580.8,860.3C1580.87,860.4 1580.92,860.517 1580.95,860.65L1580.95,860.75C1581.62,863.017 1581.63,865.683 1581,868.75C1580.9,869.283 1580.85,869.717 1580.85,870.05C1580.85,872.083 1581.58,873.833 1583.05,875.3C1584.48,876.767 1586.23,877.5 1588.3,877.5C1590.33,877.5 1592.08,876.767 1593.55,875.3C1593.68,875.167 1593.83,875.017 1594,874.85C1594.37,874.35 1594.65,873.817 1594.85,873.25C1594.85,873.217 1594.87,873.183 1594.9,873.15C1595.33,871.917 1595.9,870.733 1596.6,869.6C1599,865.067 1603,863.333 1608.6,864.4C1608.67,864.4 1608.73,864.417 1608.8,864.45C1610.9,865.083 1613.08,865.167 1615.35,864.7C1616.65,864.4 1617.83,863.717 1618.9,862.65C1620.6,860.95 1621.45,858.9 1621.45,856.5C1621.45,854.4 1620.8,852.583 1619.5,851.05C1619.5,851.05 1619.38,850.933 1619.35,850.9C1617.22,848.967 1616.2,846.017 1616.3,842.05L1616.3,842C1616.1,839.933 1615.27,838.15 1613.8,836.65Z" style="fill:rgb(74,74,74);fill-rule:nonzero;"/>
            </g>
        </g>
        <g transform="matrix(1,0,0,1,-10,-10)">
            <g id="Layer0_12_MEMBER_1_FILL">
                <path d="M1603.95,846L1603.2,846C1598.93,846.067 1595.23,847.533 1592.1,850.4L1592.2,850.35C1591.93,850.517 1591.7,850.717 1591.5,850.95C1588.17,854.317 1586.5,858.333 1586.5,863C1586.5,867.733 1588.17,871.75 1591.5,875.05C1591.63,875.15 1591.78,875.3 1591.95,875.5C1591.98,875.567 1592.05,875.633 1592.15,875.7C1595.35,878.567 1599.13,880 1603.5,880C1608.2,880 1612.2,878.35 1615.5,875.05L1615.55,875C1618.85,871.7 1620.5,867.7 1620.5,863C1620.5,858.333 1618.85,854.317 1615.55,850.95C1612.35,847.717 1608.48,846.067 1603.95,846M1603.2,848L1603.9,848C1607.9,848.067 1611.3,849.517 1614.1,852.35C1617.03,855.317 1618.5,858.867 1618.5,863C1618.5,867.167 1617.03,870.7 1614.1,873.6C1611.2,876.533 1607.67,878 1603.5,878C1599.63,878 1596.28,876.733 1593.45,874.2C1593.25,873.967 1593.07,873.767 1592.9,873.6C1589.97,870.7 1588.5,867.167 1588.5,863C1588.5,858.867 1589.97,855.317 1592.9,852.35C1593.07,852.183 1593.25,852.017 1593.45,851.85C1596.22,849.35 1599.47,848.067 1603.2,848Z" style="fill:rgb(100,133,135);fill-rule:nonzero;"/>
                <path d="M1603.9,848L1603.2,848C1599.47,848.067 1596.22,849.35 1593.45,851.85C1593.25,852.017 1593.07,852.183 1592.9,852.35C1589.97,855.317 1588.5,858.867 1588.5,863C1588.5,867.167 1589.97,870.7 1592.9,873.6C1593.07,873.767 1593.25,873.967 1593.45,874.2C1596.28,876.733 1599.63,878 1603.5,878C1607.67,878 1611.2,876.533 1614.1,873.6C1617.03,870.7 1618.5,867.167 1618.5,863C1618.5,858.867 1617.03,855.317 1614.1,852.35C1611.3,849.517 1607.9,848.067 1603.9,848M1603.25,851.75L1603.85,851.75C1606.85,851.817 1609.38,852.917 1611.45,855.05C1613.65,857.25 1614.75,859.9 1614.75,863C1614.75,866.133 1613.65,868.8 1611.45,871C1609.28,873.167 1606.63,874.25 1603.5,874.25C1600.6,874.25 1598.08,873.283 1595.95,871.35C1595.82,871.25 1595.7,871.133 1595.6,871C1593.37,868.8 1592.25,866.133 1592.25,863C1592.25,859.9 1593.37,857.25 1595.6,855.05C1595.7,854.917 1595.82,854.8 1595.95,854.7C1598.05,852.8 1600.48,851.817 1603.25,851.75Z" style="fill:rgb(156,192,194);fill-rule:nonzero;"/>
                <path d="M1603.85,851.75L1603.25,851.75C1600.48,851.817 1598.05,852.8 1595.95,854.7C1595.82,854.8 1595.7,854.917 1595.6,855.05C1593.37,857.25 1592.25,859.9 1592.25,863C1592.25,866.133 1593.37,868.8 1595.6,871C1595.7,871.133 1595.82,871.25 1595.95,871.35C1598.08,873.283 1600.6,874.25 1603.5,874.25C1606.63,874.25 1609.28,873.167 1611.45,871C1613.65,868.8 1614.75,866.133 1614.75,863C1614.75,859.9 1613.65,857.25 1611.45,855.05C1609.38,852.917 1606.85,851.817 1603.85,851.75Z" style="fill:rgb(74,74,74);fill-rule:nonzero;"/>
            </g>
        </g>
        <g transform="matrix(1,0,0,1,-10,-10)">
            <g id="Layer0_12_MEMBER_1_MEMBER_0_FILL">
                <path d="M1602.8,855.05L1602.2,854.9C1599,854.1 1595.92,854.483 1592.95,856.05C1592.88,856.05 1592.82,856.083 1592.75,856.15C1592.65,856.183 1592.55,856.25 1592.45,856.35C1589.22,858.15 1587.15,860.817 1586.25,864.35C1585.28,867.883 1585.73,871.233 1587.6,874.4C1587.63,874.533 1587.68,874.667 1587.75,874.8C1587.78,874.867 1587.83,874.933 1587.9,875C1589.73,877.833 1592.3,879.7 1595.6,880.6C1599.17,881.533 1602.52,881.1 1605.65,879.3C1608.82,877.433 1610.88,874.717 1611.85,871.15L1611.85,871.2C1612.78,867.633 1612.35,864.283 1610.55,861.15L1610.55,861.2C1608.82,858.1 1606.25,856.067 1602.85,855.1L1602.8,855.05M1601.7,856.85L1602.3,857C1605.17,857.833 1607.33,859.55 1608.8,862.15C1610.33,864.817 1610.7,867.65 1609.9,870.65C1609.1,873.683 1607.35,875.983 1604.65,877.55C1601.98,879.083 1599.13,879.45 1596.1,878.65C1593.3,877.883 1591.12,876.3 1589.55,873.9C1589.48,873.767 1589.42,873.617 1589.35,873.45C1587.75,870.75 1587.35,867.883 1588.15,864.85C1588.95,861.85 1590.73,859.583 1593.5,858.05C1593.63,857.95 1593.75,857.867 1593.85,857.8C1596.38,856.5 1599,856.183 1601.7,856.85Z" style="fill:rgb(166,74,15);fill-rule:nonzero;"/>
                <path d="M1602.3,857L1601.7,856.85C1599,856.183 1596.38,856.5 1593.85,857.8C1593.75,857.867 1593.63,857.95 1593.5,858.05C1590.73,859.583 1588.95,861.85 1588.15,864.85C1587.35,867.883 1587.75,870.75 1589.35,873.45C1589.42,873.617 1589.48,873.767 1589.55,873.9C1591.12,876.3 1593.3,877.883 1596.1,878.65C1599.13,879.45 1601.98,879.083 1604.65,877.55C1607.35,875.983 1609.1,873.683 1609.9,870.65C1610.7,867.65 1610.33,864.817 1608.8,862.15C1607.33,859.55 1605.17,857.833 1602.3,857M1600.35,866.15C1600.28,866.117 1600.27,866.083 1600.3,866.05C1599.9,865.45 1599.8,864.817 1600,864.15C1600.17,863.517 1600.57,863.017 1601.2,862.65C1601.2,862.617 1601.25,862.567 1601.35,862.5C1601.85,862.267 1602.42,862.233 1603.05,862.4L1603.2,862.4C1603.83,862.567 1604.28,862.95 1604.55,863.55C1604.92,864.183 1605.02,864.817 1604.85,865.45C1604.65,866.117 1604.25,866.617 1603.65,866.95C1603.05,867.283 1602.43,867.367 1601.8,867.2C1601.13,867.033 1600.65,866.683 1600.35,866.15Z" style="fill:rgb(215,96,17);fill-rule:nonzero;"/>
                <path d="M1600.3,866.05C1600.27,866.083 1600.28,866.117 1600.35,866.15C1600.65,866.683 1601.13,867.033 1601.8,867.2C1602.43,867.367 1603.05,867.283 1603.65,866.95C1604.25,866.617 1604.65,866.117 1604.85,865.45C1605.02,864.817 1604.92,864.183 1604.55,863.55C1604.28,862.95 1603.83,862.567 1603.2,862.4L1603.05,862.4C1602.42,862.233 1601.85,862.267 1601.35,862.5C1601.25,862.567 1601.2,862.617 1601.2,862.65C1600.57,863.017 1600.17,863.517 1600,864.15C1599.8,864.817 1599.9,865.45 1600.3,866.05Z" style="fill:rgb(232,106,23);fill-rule:nonzero;"/>
            </g>
        </g>
    </g>
</svg>
