<?xml version="1.0" encoding="UTF-8" standalone="no"?>
<!DOCTYPE svg PUBLIC "-//W3C//DTD SVG 1.1//EN" "http://www.w3.org/Graphics/SVG/1.1/DTD/svg11.dtd">
<svg width="100%" height="100%" viewBox="0 0 36 34" version="1.1" xmlns="http://www.w3.org/2000/svg" xmlns:xlink="http://www.w3.org/1999/xlink" xml:space="preserve" xmlns:serif="http://www.serif.com/" style="fill-rule:evenodd;clip-rule:evenodd;stroke-linejoin:round;stroke-miterlimit:2;">
    <g transform="matrix(1,0,0,1,-1494,-607)">
        <g transform="matrix(1,0,0,1,-10,-10)">
            <g id="Layer0_16_MEMBER_0_FILL">
                <path d="M1525.9,617.2C1525.6,617.067 1525.3,617 1525,617L1514,617C1513.63,617 1513.3,617.1 1513,617.3C1512.67,617.467 1512.42,617.717 1512.25,618.05L1504.25,633.05C1504.08,633.35 1504,633.667 1504,634L1504,644C1504,644.467 1504.15,644.883 1504.45,645.25C1504.72,645.583 1505.07,645.817 1505.5,645.95L1524.5,650.95C1524.67,650.983 1524.83,651 1525,651L1536,651C1536.53,651 1537,650.817 1537.4,650.45C1537.77,650.083 1537.97,649.65 1538,649.15L1539,634.15C1539.03,633.617 1538.88,633.15 1538.55,632.75L1526.55,617.75C1526.38,617.517 1526.17,617.333 1525.9,617.2M1506,634L1514,619L1525,619L1537,634L1536,649L1525,649L1506,644L1506,634Z" style="fill:rgb(100,133,135);fill-rule:nonzero;"/>
                <path d="M1529,641L1514,638L1506,644L1525,649L1536,649L1529,641Z" style="fill:rgb(135,166,168);fill-rule:nonzero;"/>
                <path d="M1521,627L1525,619L1514,619L1519,627L1521,627Z" style="fill:rgb(170,210,212);fill-rule:nonzero;"/>
                <path d="M1537,634L1529,637L1529,641L1536,649L1537,634M1514,636L1506,634L1506,644L1514,638L1514,636Z" style="fill:rgb(146,180,182);fill-rule:nonzero;"/>
                <path d="M1521,627L1529,637L1537,634L1525,619L1521,627M1514,619L1506,634L1514,636L1519,627L1514,619Z" style="fill:rgb(163,201,203);fill-rule:nonzero;"/>
                <path d="M1514,636L1514,638L1529,641L1529,637L1521,627L1519,627L1514,636Z" style="fill:rgb(156,192,194);fill-rule:nonzero;"/>
            </g>
        </g>
    </g>
</svg>
