<?xml version="1.0" encoding="UTF-8" standalone="no"?>
<!DOCTYPE svg PUBLIC "-//W3C//DTD SVG 1.1//EN" "http://www.w3.org/Graphics/SVG/1.1/DTD/svg11.dtd">
<svg width="100%" height="100%" viewBox="0 0 29 29" version="1.1" xmlns="http://www.w3.org/2000/svg" xmlns:xlink="http://www.w3.org/1999/xlink" xml:space="preserve" xmlns:serif="http://www.serif.com/" style="fill-rule:evenodd;clip-rule:evenodd;stroke-linejoin:round;stroke-miterlimit:2;">
    <g transform="matrix(1,0,0,1,-17.5214,-213.543)">
        <g transform="matrix(1,0,0,1,-27.4286,-16.4571)">
            <path d="M54,236.2L49.8,232L46.95,234.85L56.15,244.05L51.6,248.65L47,253.2L49.8,256.05L58.95,246.9L64.3,252.25L68.15,256.05L71,253.2L67.15,249.4L61.8,244.05L71,234.85L68.2,232L63.6,236.65L59,241.2L54,236.2M51.25,230.6L59,238.35L66.8,230.6C67.167,230.2 67.633,230 68.2,230C68.767,230 69.25,230.2 69.65,230.6L72.45,233.45C72.817,233.85 73,234.317 73,234.85C73,235.417 72.817,235.9 72.45,236.3L64.65,244.05L72.4,251.8C72.8,252.167 73,252.633 73,253.2C73,253.767 72.817,254.25 72.45,254.65L69.6,257.5C69.2,257.867 68.717,258.05 68.15,258.05C67.617,258.05 67.15,257.867 66.75,257.5L59,249.75L51.25,257.5C50.85,257.867 50.367,258.05 49.8,258.05C49.233,258.05 48.767,257.85 48.4,257.45L45.6,254.6C45.2,254.2 45,253.733 45,253.2C45,252.633 45.2,252.167 45.6,251.8L53.3,244.05L45.55,236.3C45.15,235.9 44.95,235.417 44.95,234.85C44.95,234.283 45.15,233.817 45.55,233.45L48.4,230.6C48.767,230.2 49.233,230 49.8,230C50.367,230 50.85,230.2 51.25,230.6" style="fill:rgb(77,92,93);fill-rule:nonzero;"/>
            <path d="M51.15,239.05L46.95,234.85L49.8,232L54,236.2L51.15,239.05M57.6,239.8L59,241.2L56.15,244.05L54.75,242.65L57.6,239.8M63.6,236.65L68.2,232L71,234.85L66.4,239.45L63.6,236.65M61.8,244.05L63.25,245.5L60.4,248.35L58.95,246.9L61.8,244.05M67.15,249.4L71,253.2L68.15,256.05L64.3,252.25L67.15,249.4M54.4,251.45L49.8,256.05L47,253.2L51.6,248.65L54.4,251.45" style="fill:rgb(125,150,152);fill-rule:nonzero;"/>
            <path d="M54.4,251.45L51.6,248.65L56.15,244.05L59,241.2L63.6,236.65L66.4,239.45L54.4,251.45M54,236.2L57.6,239.8L54.75,242.65L51.15,239.05L54,236.2M63.25,245.5L67.15,249.4L64.3,252.25L60.4,248.35L63.25,245.5" style="fill:rgb(137,164,166);fill-rule:nonzero;"/>
        </g>
    </g>
</svg>
