<?xml version="1.0" encoding="UTF-8" standalone="no"?>
<!DOCTYPE svg PUBLIC "-//W3C//DTD SVG 1.1//EN" "http://www.w3.org/Graphics/SVG/1.1/DTD/svg11.dtd">
<svg width="100%" height="100%" viewBox="0 0 52 16" version="1.1" xmlns="http://www.w3.org/2000/svg" xmlns:xlink="http://www.w3.org/1999/xlink" xml:space="preserve" xmlns:serif="http://www.serif.com/" style="fill-rule:evenodd;clip-rule:evenodd;stroke-linejoin:round;stroke-miterlimit:2;">
    <g transform="matrix(1,0,0,1,-258.571,-245.543)">
        <g transform="matrix(1,0,0,1,-27.4286,-16.4571)">
            <path d="M292,268L288,268L288,272L292,272L292,276L296,276L296,272L328,272L328,276L332,276L332,272L336,272L336,268L332,268L332,264L328,264L328,268L296,268L296,264L292,264L292,268M326,266L326,264C326,263.433 326.2,262.967 326.6,262.6C326.967,262.2 327.433,262 328,262L332,262C332.567,262 333.05,262.2 333.45,262.6C333.817,262.967 334,263.433 334,264L334,266L336,266C336.567,266 337.05,266.2 337.45,266.6C337.817,266.967 338,267.433 338,268L338,272C338,272.567 337.817,273.05 337.45,273.45C337.05,273.817 336.567,274 336,274L334,274L334,276C334,276.567 333.817,277.05 333.45,277.45C333.05,277.817 332.567,278 332,278L328,278C327.433,278 326.967,277.817 326.6,277.45C326.2,277.05 326,276.567 326,276L326,274L298,274L298,276C298,276.567 297.817,277.05 297.45,277.45C297.05,277.817 296.567,278 296,278L292,278C291.433,278 290.967,277.817 290.6,277.45C290.2,277.05 290,276.567 290,276L290,274L288,274C287.433,274 286.967,273.817 286.6,273.45C286.2,273.05 286,272.567 286,272L286,268C286,267.433 286.2,266.967 286.6,266.6C286.967,266.2 287.433,266 288,266L290,266L290,264C290,263.433 290.2,262.967 290.6,262.6C290.967,262.2 291.433,262 292,262L296,262C296.567,262 297.05,262.2 297.45,262.6C297.817,262.967 298,263.433 298,264L298,266L326,266" style="fill:rgb(77,92,93);fill-rule:nonzero;"/>
            <path d="M324,272L324,268L332,268L332,272L324,272M316,268L316,272L308,272L308,268L316,268M296,268L300,268L300,272L292,272L292,268L296,268" style="fill:rgb(137,164,166);fill-rule:nonzero;"/>
            <path d="M324,268L324,272L316,272L316,268L324,268M332,272L332,268L336,268L336,272L332,272M308,268L308,272L300,272L300,268L308,268M292,272L288,272L288,268L292,268L292,272" style="fill:rgb(255,204,0);fill-rule:nonzero;"/>
            <path d="M292,272L296,272L296,276L292,276L292,272M328,272L332,272L332,276L328,276L328,272M332,268L328,268L328,264L332,264L332,268M292,268L292,264L296,264L296,268L292,268" style="fill:rgb(105,126,128);fill-rule:nonzero;"/>
        </g>
    </g>
</svg>
