<?xml version="1.0" encoding="UTF-8" standalone="no"?>
<!DOCTYPE svg PUBLIC "-//W3C//DTD SVG 1.1//EN" "http://www.w3.org/Graphics/SVG/1.1/DTD/svg11.dtd">
<svg width="100%" height="100%" viewBox="0 0 48 16" version="1.1" xmlns="http://www.w3.org/2000/svg" xmlns:xlink="http://www.w3.org/1999/xlink" xml:space="preserve" xmlns:serif="http://www.serif.com/" style="fill-rule:evenodd;clip-rule:evenodd;stroke-linejoin:round;stroke-miterlimit:2;">
    <g transform="matrix(1,0,0,1,-259.571,-216.543)">
        <g transform="matrix(1,0,0,1,-27.4286,-16.4571)">
            <path d="M333,245L331,245L331,247C331,247.567 330.817,248.05 330.45,248.45C330.05,248.817 329.567,249 329,249L325,249C324.433,249 323.967,248.817 323.6,248.45C323.2,248.05 323,247.567 323,247L323,245L299,245L299,247C299,247.567 298.817,248.05 298.45,248.45C298.05,248.817 297.567,249 297,249L293,249C292.433,249 291.967,248.817 291.6,248.45C291.2,248.05 291,247.567 291,247L291,245L289,245C288.433,245 287.967,244.817 287.6,244.45C287.2,244.05 287,243.567 287,243L287,239C287,238.433 287.2,237.967 287.6,237.6C287.967,237.2 288.433,237 289,237L291,237L291,235C291,234.433 291.2,233.967 291.6,233.6C291.967,233.2 292.433,233 293,233L297,233C297.567,233 298.05,233.2 298.45,233.6C298.817,233.967 299,234.433 299,235L299,237L323,237L323,235C323,234.433 323.2,233.967 323.6,233.6C323.967,233.2 324.433,233 325,233L329,233C329.567,233 330.05,233.2 330.45,233.6C330.817,233.967 331,234.433 331,235L331,237L333,237C333.567,237 334.05,237.2 334.45,237.6C334.817,237.967 335,238.433 335,239L335,243C335,243.567 334.817,244.05 334.45,244.45C334.05,244.817 333.567,245 333,245M329,239L329,235L325,235L325,239L297,239L297,235L293,235L293,239L289,239L289,243L293,243L293,247L297,247L297,243L325,243L325,247L329,247L329,243L333,243L333,239L329,239" style="fill:rgb(77,92,93);fill-rule:nonzero;"/>
            <path d="M329,239L325,239L325,235L329,235L329,239M329,243L329,247L325,247L325,243L329,243M297,243L297,247L293,247L293,243L297,243M293,239L293,235L297,235L297,239L293,239" style="fill:rgb(105,126,128);fill-rule:nonzero;"/>
            <path d="M293,239L301,239L297,243L289,243L293,239M329,239L333,239L329,243L321,243L325,239L329,239M313,243L305,243L309,239L317,239L313,243" style="fill:rgb(208,68,53);fill-rule:nonzero;"/>
            <path d="M313,243L317,239L325,239L321,243L313,243M333,239L333,243L329,243L333,239M305,243L297,243L301,239L309,239L305,243M289,243L289,239L293,239L289,243" style="fill:rgb(137,164,166);fill-rule:nonzero;"/>
        </g>
    </g>
</svg>
