<?xml version="1.0" encoding="UTF-8" standalone="no"?>
<!DOCTYPE svg PUBLIC "-//W3C//DTD SVG 1.1//EN" "http://www.w3.org/Graphics/SVG/1.1/DTD/svg11.dtd">
<svg width="100%" height="100%" viewBox="0 0 28 28" version="1.1" xmlns="http://www.w3.org/2000/svg" xmlns:xlink="http://www.w3.org/1999/xlink" xml:space="preserve" xmlns:serif="http://www.serif.com/" style="fill-rule:evenodd;clip-rule:evenodd;stroke-linejoin:round;stroke-miterlimit:2;">
    <g transform="matrix(1,0,0,1,-213.571,-213.543)">
        <g transform="matrix(1,0,0,1,-27.4286,-16.4571)">
            <path d="M255.65,257.9C255.217,258.033 254.8,258.033 254.4,257.9L242.4,253.9L241.4,253.15C241.133,252.817 241,252.433 241,252L241,236C241,235.567 241.133,235.167 241.4,234.8C241.633,234.467 241.967,234.233 242.4,234.1L254.4,230.1C254.8,229.967 255.217,229.967 255.65,230.1L267.65,234.1L267.75,234.15L268.65,234.8L269,236L269,252C269,252.433 268.883,252.817 268.65,253.15L267.75,253.9L267.65,253.9L255.65,257.9M247,237.85L249.35,237.05L250.05,236.85L250.75,236.6L248.6,241.5L247,237.85M246,247.35L246,240.65L247.5,244L246,247.35M252,238.7L252,249.3L249.7,244L252,238.7M255,232L243,236L243,252L255,256L267,252L267,236L255,232M250.75,251.4L250.05,251.2L249.35,250.95L247,250.15L248.6,246.55L250.75,251.4" style="fill:rgb(77,92,93);fill-rule:nonzero;"/>
            <path d="M250.75,251.4L248.6,246.55L247,250.15L249.35,250.95L250.05,251.2L250.75,251.4M247,237.85L248.6,241.5L250.75,236.6L250.05,236.85L249.35,237.05L247,237.85M252,238.7L249.7,244L252,249.3L252,238.7M246,247.35L247.5,244L246,240.65L246,247.35M263.05,237.85L261.5,241.5L259.4,236.65L263.05,237.85M258,249.45L258,238.55L260.4,244L258,249.45M255,256L243,252L243,236L255,232L255,256M264,240.75L264,247.25L262.6,244L264,240.75M263.05,250.15L259.4,251.35L261.5,246.55L263.05,250.15" style="fill:rgb(105,126,128);fill-rule:nonzero;"/>
            <path d="M263.05,250.15L261.5,246.55L259.4,251.35L263.05,250.15M258,249.45L260.4,244L258,238.55L258,249.45M263.05,237.85L259.4,236.65L261.5,241.5L263.05,237.85M255,232L267,236L267,252L255,256L255,232M264,240.75L262.6,244L264,247.25L264,240.75" style="fill:rgb(119,143,145);fill-rule:nonzero;"/>
        </g>
    </g>
</svg>
