<?xml version="1.0" encoding="UTF-8" standalone="no"?>
<!DOCTYPE svg PUBLIC "-//W3C//DTD SVG 1.1//EN" "http://www.w3.org/Graphics/SVG/1.1/DTD/svg11.dtd">
<svg width="100%" height="100%" viewBox="0 0 28 28" version="1.1" xmlns="http://www.w3.org/2000/svg" xmlns:xlink="http://www.w3.org/1999/xlink" xml:space="preserve" xmlns:serif="http://www.serif.com/" style="fill-rule:evenodd;clip-rule:evenodd;stroke-linejoin:round;stroke-miterlimit:2;">
    <g transform="matrix(1,0,0,1,-139.571,-213.543)">
        <g transform="matrix(1,0,0,1,-27.4286,-16.4571)">
            <path d="M169,230L193,230C193.567,230 194.05,230.2 194.45,230.6C194.817,230.967 195,231.433 195,232L195,256C195,256.567 194.817,257.05 194.45,257.45C194.05,257.817 193.567,258 193,258L169,258C168.433,258 167.967,257.817 167.6,257.45C167.2,257.05 167,256.567 167,256L167,232C167,231.433 167.2,230.967 167.6,230.6C167.967,230.2 168.433,230 169,230M181,240L177,236L185,236L181,240M175,242L177,244L173,248L173,240L175,242M185,244L189,240L189,248L185,244M183,250L185,252L177,252L181,248L183,250M169,232L169,256L193,256L193,232L169,232" style="fill:rgb(77,92,93);fill-rule:nonzero;"/>
            <path d="M179,238L181,240L177,244L175,242L179,238M173,240L173,236L177,236L173,240M185,244L187,246L183,250L181,248L185,244M185,252L189,248L189,252L185,252M177,252L173,252L173,248L177,252M189,240L185,236L189,236L189,240" style="fill:rgb(105,126,128);fill-rule:nonzero;"/>
            <path d="M189,240L177,252L173,248L185,236L177,236L179,238L175,242L173,240L177,236L173,236L173,252L185,252L183,250L187,246L189,248L189,236L185,236L189,240M185,252L189,252L189,248L185,252M169,232L193,232L193,256L169,256L169,232" style="fill:rgb(119,143,145);fill-rule:nonzero;"/>
        </g>
    </g>
</svg>
