<?xml version="1.0" encoding="UTF-8" standalone="no"?>
<!DOCTYPE svg PUBLIC "-//W3C//DTD SVG 1.1//EN" "http://www.w3.org/Graphics/SVG/1.1/DTD/svg11.dtd">
<svg width="100%" height="100%" viewBox="0 0 65 64" version="1.1" xmlns="http://www.w3.org/2000/svg" xmlns:xlink="http://www.w3.org/1999/xlink" xml:space="preserve" xmlns:serif="http://www.serif.com/" style="fill-rule:evenodd;clip-rule:evenodd;stroke-linejoin:round;stroke-miterlimit:2;">
    <g transform="matrix(1,0,0,1,-326.571,-213.543)">
        <g transform="matrix(1,0,0,1,-27.4286,-16.4571)">
            <path d="M409.05,271.6C408.883,270.967 408.85,270.317 408.95,269.65C409.117,269.017 409.4,268.433 409.8,267.9C411.233,266.167 411.967,264.15 412,261.85L412,261.8C412,259.533 411.283,257.533 409.85,255.8C409.45,255.3 409.167,254.733 409,254.1C408.867,253.433 408.9,252.783 409.1,252.15C409.367,251.217 409.5,250.217 409.5,249.15C409.5,246.183 408.467,243.65 406.4,241.55L406.35,241.5C404.25,239.467 401.733,238.45 398.8,238.45L397,238.65L396.85,238.7L395.35,239L393.6,238.95C393.033,238.783 392.517,238.517 392.05,238.15L391.15,237.45L391.05,237.4C389.983,236.7 388.8,236.283 387.5,236.15L387.2,236.1L386.1,236L384.3,236.2L384.25,236.2L382.8,236.6C381.867,236.967 380.983,237.5 380.15,238.2C379.65,238.6 379.083,238.867 378.45,239L376.5,238.95L374.3,238.6L374.15,238.6L373.55,238.55C370.583,238.583 368.033,239.633 365.9,241.7L365.85,241.75C363.75,243.883 362.7,246.417 362.7,249.35C362.7,250.45 362.817,251.45 363.05,252.35C363.217,252.983 363.233,253.617 363.1,254.25L362.25,256C360.783,257.767 360.033,259.817 360,262.15C359.967,264.45 360.667,266.433 362.1,268.1C362.533,268.6 362.833,269.167 363,269.8C363.167,270.433 363.15,271.083 362.95,271.75C362.717,272.717 362.583,273.717 362.55,274.75C362.583,277.65 363.633,280.133 365.7,282.2L365.75,282.25C367.817,284.317 370.333,285.35 373.3,285.35L374,285.35L376.05,284.95L378,284.9C378.667,285.033 379.25,285.333 379.75,285.8L382.35,287.4L382.5,287.45L383.9,287.85L384.05,287.9L385.9,288.05L387.05,288C388.583,287.8 389.967,287.25 391.2,286.35L392.1,285.65C392.633,285.217 393.217,284.95 393.85,284.85L395.75,284.95L396.5,285.1L398.5,285.25L398.55,285.25C401.55,285.217 404.1,284.15 406.2,282.05L406.25,282C408.35,279.9 409.417,277.367 409.45,274.4C409.45,273.4 409.317,272.467 409.05,271.6M374.55,234.6L377.6,235.1C378.8,234.1 380.067,233.35 381.4,232.85L383.55,232.25L386.1,232L387.9,232.15C389.867,232.35 391.683,233 393.35,234.1L394.6,235.05L396.1,234.75L398.8,234.45C402.867,234.45 406.333,235.867 409.2,238.7C412.067,241.6 413.5,245.083 413.5,249.15C413.5,250.617 413.317,251.983 412.95,253.25C414.983,255.717 416,258.583 416,261.85C415.967,265.117 414.933,267.983 412.9,270.45C413.267,271.683 413.45,273 413.45,274.4C413.417,278.5 411.95,281.983 409.05,284.85C406.15,287.75 402.65,289.217 398.55,289.25L395.9,289.05L394.6,288.75L393.55,289.6C391.75,290.9 389.75,291.683 387.55,291.95L385.9,292.05L383.3,291.8L380.9,291.1C379.567,290.567 378.317,289.8 377.15,288.8L374.15,289.35L373.3,289.35C369.2,289.35 365.733,287.917 362.9,285.05C360,282.183 358.55,278.717 358.55,274.65C358.583,273.283 358.767,271.967 359.1,270.7C357,268.3 355.967,265.433 356,262.1C356.033,258.8 357.1,255.9 359.2,253.4C358.867,252.167 358.7,250.817 358.7,249.35C358.7,245.317 360.15,241.833 363.05,238.9C365.95,236.033 369.45,234.583 373.55,234.55L374.55,234.6" style="fill:rgb(194,101,54);fill-rule:nonzero;"/>
            <path d="M409.05,271.6C409.317,272.467 409.45,273.4 409.45,274.4C409.417,277.367 408.35,279.9 406.25,282L406.2,282.05C404.1,284.15 401.55,285.217 398.55,285.25L398.5,285.25L396.5,285.1L395.75,284.95L393.85,284.85C393.217,284.95 392.633,285.217 392.1,285.65L391.2,286.35C389.967,287.25 388.583,287.8 387.05,288L385.9,288.05L384.05,287.9L383.9,287.85L382.5,287.45L382.35,287.4L379.75,285.8C379.25,285.333 378.667,285.033 378,284.9L376.05,284.95L374,285.35L373.3,285.35C370.333,285.35 367.817,284.317 365.75,282.25L365.7,282.2C363.633,280.133 362.583,277.65 362.55,274.75C362.583,273.717 362.717,272.717 362.95,271.75C363.15,271.083 363.167,270.433 363,269.8C362.833,269.167 362.533,268.6 362.1,268.1C360.667,266.433 359.967,264.45 360,262.15C360.033,259.817 360.783,257.767 362.25,256L363.1,254.25C363.233,253.617 363.217,252.983 363.05,252.35C362.817,251.45 362.7,250.45 362.7,249.35C362.7,246.417 363.75,243.883 365.85,241.75L365.9,241.7C368.033,239.633 370.583,238.583 373.55,238.55L374.15,238.6L374.3,238.6L376.5,238.95L378.45,239C379.083,238.867 379.65,238.6 380.15,238.2C380.983,237.5 381.867,236.967 382.8,236.6L384.25,236.2L384.3,236.2L386.1,236L387.2,236.1L387.5,236.15C388.8,236.283 389.983,236.7 391.05,237.4L391.15,237.45L392.05,238.15C392.517,238.517 393.033,238.783 393.6,238.95L395.35,239L396.85,238.7L397,238.65L398.8,238.45C401.733,238.45 404.25,239.467 406.35,241.5L406.4,241.55C408.467,243.65 409.5,246.183 409.5,249.15C409.5,250.217 409.367,251.217 409.1,252.15C408.9,252.783 408.867,253.433 409,254.1C409.167,254.733 409.45,255.3 409.85,255.8C411.283,257.533 412,259.533 412,261.8L412,261.85C411.967,264.15 411.233,266.167 409.8,267.9C409.4,268.433 409.117,269.017 408.95,269.65C408.85,270.317 408.883,270.967 409.05,271.6M379.85,278.1L379.95,278.05L380,278C380.4,277.533 380.6,276.95 380.6,276.25C380.6,275.55 380.333,274.933 379.8,274.4C379.3,273.867 378.683,273.6 377.95,273.6C377.25,273.567 376.65,273.767 376.15,274.2L376.1,274.25L376.05,274.35C375.05,275.317 374.4,276.35 374.1,277.45C373.767,278.517 373.85,279.283 374.35,279.75C374.883,280.35 375.683,280.467 376.75,280.1C377.817,279.8 378.85,279.133 379.85,278.1M373.15,273.55L373.3,273.5C374.1,273.467 374.767,273.167 375.3,272.6C375.9,272 376.217,271.283 376.25,270.45C376.217,269.55 375.883,268.8 375.25,268.2C374.75,267.667 374.117,267.367 373.35,267.3L373.25,267.35L373.1,267.3C371.5,267.3 370.133,267.583 369,268.15C367.867,268.817 367.283,269.583 367.25,270.45C367.217,271.283 367.8,272.017 369,272.65C370.133,273.283 371.5,273.583 373.1,273.55L373.15,273.55M404.85,254.5C405.55,253.867 405.833,253.233 405.7,252.6C405.5,251.967 404.933,251.55 404,251.35L400.75,251.45L400.7,251.45L400.6,251.55C400.1,251.717 399.683,252.067 399.35,252.6C399.017,253.1 398.967,253.683 399.2,254.35C399.333,254.983 399.667,255.467 400.2,255.8L401.85,256.05L401.95,256L402,256C403.167,255.667 404.117,255.167 404.85,254.5M401.25,247.7L401.3,247.55C401.733,246.017 401.8,244.633 401.5,243.4C401.167,242.133 400.583,241.383 399.75,241.15C398.95,240.917 398.1,241.283 397.2,242.25C396.3,243.183 395.633,244.417 395.2,245.95L395.2,246.15C395.067,246.917 395.2,247.65 395.6,248.35C396,249.05 396.617,249.533 397.45,249.8C398.283,250 399.083,249.867 399.85,249.4C400.55,249.067 401.017,248.533 401.25,247.8L401.25,247.7M393.8,248.75L393.75,248.6L393.7,248.55C393.033,247.35 392.2,246.467 391.2,245.9C390.233,245.267 389.45,245.133 388.85,245.5C388.183,245.867 387.867,246.617 387.9,247.75C387.933,248.85 388.3,250.017 389,251.25L389.05,251.35L389.15,251.4C389.483,251.967 389.983,252.317 390.65,252.45L392.7,252.2C393.367,251.833 393.783,251.3 393.95,250.6C394.15,249.933 394.1,249.317 393.8,248.75" style="fill:rgb(208,108,59);fill-rule:nonzero;"/>
            <path d="M374.55,234.6L373.55,234.55C369.45,234.583 365.95,236.033 363.05,238.9C360.15,241.833 358.7,245.317 358.7,249.35C358.7,250.817 358.867,252.167 359.2,253.4C357.1,255.9 356.033,258.8 356,262.1C355.967,265.433 357,268.3 359.1,270.7C358.767,271.967 358.583,273.283 358.55,274.65C358.55,278.717 360,282.183 362.9,285.05C365.733,287.917 369.2,289.35 373.3,289.35L374.15,289.35L377.15,288.8C378.317,289.8 379.567,290.567 380.9,291.1L383.3,291.8L385.9,292.05L387.55,291.95C389.75,291.683 391.75,290.9 393.55,289.6L394.6,288.75L395.9,289.05L398.55,289.25C402.65,289.217 406.15,287.75 409.05,284.85C411.95,281.983 413.417,278.5 413.45,274.4C413.45,273 413.267,271.683 412.9,270.45C414.933,267.983 415.967,265.117 416,261.85C416,258.583 414.983,255.717 412.95,253.25C413.317,251.983 413.5,250.617 413.5,249.15C413.5,245.083 412.067,241.6 409.2,238.7C406.333,235.867 402.867,234.45 398.8,234.45L396.1,234.75L394.6,235.05L393.35,234.1C391.683,233 389.867,232.35 387.9,232.15L386.1,232L383.55,232.25L381.4,232.85C380.067,233.35 378.8,234.1 377.6,235.1L374.55,234.6M418,261.9C417.967,265.267 416.983,268.267 415.05,270.9C415.317,272 415.45,273.167 415.45,274.4L415.45,274.45C415.417,279.083 413.75,283.033 410.45,286.3C407.183,289.567 403.217,291.217 398.55,291.25L395.6,291.05L395.05,290.95L394.8,291.15L394.7,291.25C392.633,292.683 390.333,293.567 387.8,293.9L385.9,294L382.9,293.7L382.95,293.75L380.15,292.9L380.1,292.9C378.9,292.433 377.75,291.8 376.65,291L374.35,291.35L373.3,291.35C368.633,291.35 364.683,289.717 361.45,286.45L361.45,286.5C358.183,283.233 356.55,279.283 356.55,274.65L356.55,274.6C356.583,273.433 356.7,272.3 356.9,271.2C354.933,268.6 353.967,265.567 354,262.1C354.033,258.667 355.05,255.617 357.05,252.95C356.817,251.817 356.7,250.617 356.7,249.35C356.7,244.783 358.333,240.833 361.6,237.5C364.9,234.233 368.867,232.583 373.5,232.55L373.55,232.55L374.75,232.6L377.15,232.95C378.283,232.083 379.467,231.433 380.7,231C381.5,230.667 382.333,230.433 383.2,230.3L383.15,230.3L386.1,230L388.1,230.15C390.4,230.383 392.517,231.15 394.45,232.45L394.5,232.45L395.1,232.95L395.7,232.8L395.65,232.8L398.8,232.45C403.433,232.45 407.367,234.067 410.6,237.3C413.867,240.6 415.5,244.55 415.5,249.15C415.5,250.45 415.367,251.667 415.1,252.8C417.033,255.433 418,258.45 418,261.85L418,261.9" style="fill:rgb(149,78,40);fill-rule:nonzero;"/>
            <path d="M393.8,248.75C394.1,249.317 394.15,249.933 393.95,250.6C393.783,251.3 393.367,251.833 392.7,252.2L390.65,252.45C389.983,252.317 389.483,251.967 389.15,251.4L389.05,251.35L389,251.25C388.3,250.017 387.933,248.85 387.9,247.75C387.867,246.617 388.183,245.867 388.85,245.5C389.45,245.133 390.233,245.267 391.2,245.9C392.2,246.467 393.033,247.35 393.7,248.55L393.75,248.6L393.8,248.75M401.25,247.7L401.25,247.8C401.017,248.533 400.55,249.067 399.85,249.4C399.083,249.867 398.283,250 397.45,249.8C396.617,249.533 396,249.05 395.6,248.35C395.2,247.65 395.067,246.917 395.2,246.15L395.2,245.95C395.633,244.417 396.3,243.183 397.2,242.25C398.1,241.283 398.95,240.917 399.75,241.15C400.583,241.383 401.167,242.133 401.5,243.4C401.8,244.633 401.733,246.017 401.3,247.55L401.25,247.7M404.85,254.5C404.117,255.167 403.167,255.667 402,256L401.95,256L401.85,256.05L400.2,255.8C399.667,255.467 399.333,254.983 399.2,254.35C398.967,253.683 399.017,253.1 399.35,252.6C399.683,252.067 400.1,251.717 400.6,251.55L400.7,251.45L400.75,251.45L404,251.35C404.933,251.55 405.5,251.967 405.7,252.6C405.833,253.233 405.55,253.867 404.85,254.5M373.15,273.55L373.1,273.55C371.5,273.583 370.133,273.283 369,272.65C367.8,272.017 367.217,271.283 367.25,270.45C367.283,269.583 367.867,268.817 369,268.15C370.133,267.583 371.5,267.3 373.1,267.3L373.25,267.35L373.35,267.3C374.117,267.367 374.75,267.667 375.25,268.2C375.883,268.8 376.217,269.55 376.25,270.45C376.217,271.283 375.9,272 375.3,272.6C374.767,273.167 374.1,273.467 373.3,273.5L373.15,273.55M379.85,278.1C378.85,279.133 377.817,279.8 376.75,280.1C375.683,280.467 374.883,280.35 374.35,279.75C373.85,279.283 373.767,278.517 374.1,277.45C374.4,276.35 375.05,275.317 376.05,274.35L376.1,274.25L376.15,274.2C376.65,273.767 377.25,273.567 377.95,273.6C378.683,273.6 379.3,273.867 379.8,274.4C380.333,274.933 380.6,275.55 380.6,276.25C380.6,276.95 380.4,277.533 380,278L379.95,278.05L379.85,278.1" style="fill:rgb(229,119,65);fill-rule:nonzero;"/>
        </g>
    </g>
</svg>
