<?xml version="1.0" encoding="UTF-8" standalone="no"?>
<!DOCTYPE svg PUBLIC "-//W3C//DTD SVG 1.1//EN" "http://www.w3.org/Graphics/SVG/1.1/DTD/svg11.dtd">
<svg width="100%" height="100%" viewBox="0 0 36 36" version="1.1" xmlns="http://www.w3.org/2000/svg" xmlns:xlink="http://www.w3.org/1999/xlink" xml:space="preserve" xmlns:serif="http://www.serif.com/" style="fill-rule:evenodd;clip-rule:evenodd;stroke-linejoin:round;stroke-miterlimit:2;">
    <g transform="matrix(1,0,0,1,-406.571,-134.593)">
        <g transform="matrix(1,0,0,1,-27.4286,-16.4571)">
            <path d="M452,181C453.5,181 454.817,180.15 455.95,178.45C457.917,178.883 459.433,178.567 460.5,177.5C461.567,176.433 461.9,174.9 461.5,172.9C463.167,171.767 464,170.467 464,169C464,167.5 463.167,166.183 461.5,165.05C461.9,163.083 461.567,161.583 460.5,160.55C459.467,159.483 457.95,159.15 455.95,159.55C454.817,157.85 453.5,157 452,157C450.533,157 449.233,157.85 448.1,159.55C446.133,159.117 444.617,159.45 443.55,160.55C442.517,161.55 442.2,163.05 442.6,165.05C440.867,166.183 440,167.5 440,169C440,170.5 440.85,171.8 442.55,172.9C442.15,174.9 442.483,176.433 443.55,177.5C444.583,178.567 446.1,178.883 448.1,178.45C449.233,180.15 450.533,181 452,181M452,185C450.033,185 448.3,183.867 446.8,181.6C444.133,182.167 442.1,181.733 440.7,180.3C439.3,178.9 438.867,176.867 439.4,174.2C437.133,172.733 436,171 436,169C436,167 437.15,165.25 439.45,163.75C438.917,161.083 439.333,159.067 440.7,157.7C442.133,156.267 444.167,155.833 446.8,156.4C448.3,154.133 450.033,153 452,153C454,153 455.75,154.133 457.25,156.4C459.917,155.867 461.95,156.3 463.35,157.7C464.75,159.1 465.183,161.117 464.65,163.75C466.883,165.25 468,167 468,169C468,170.967 466.883,172.7 464.65,174.2C465.183,176.867 464.75,178.9 463.35,180.3C461.917,181.733 459.883,182.167 457.25,181.6C455.75,183.867 454,185 452,185" style="fill:rgb(52,180,105);fill-rule:nonzero;"/>
            <path d="M452,181C450.533,181 449.233,180.15 448.1,178.45C446.1,178.883 444.583,178.567 443.55,177.5C442.483,176.433 442.15,174.9 442.55,172.9C440.85,171.8 440,170.5 440,169C440,167.5 440.867,166.183 442.6,165.05C442.2,163.05 442.517,161.55 443.55,160.55C444.617,159.45 446.133,159.117 448.1,159.55C449.233,157.85 450.533,157 452,157C453.5,157 454.817,157.85 455.95,159.55C457.95,159.15 459.467,159.483 460.5,160.55C461.567,161.583 461.9,163.083 461.5,165.05C463.167,166.183 464,167.5 464,169C464,170.467 463.167,171.767 461.5,172.9C461.9,174.9 461.567,176.433 460.5,177.5C459.433,178.567 457.917,178.883 455.95,178.45C454.817,180.15 453.5,181 452,181M458.05,170.25L458,170.2L457.95,170.2C457.683,169.933 457.333,169.8 456.9,169.8C456.467,169.8 456.083,169.967 455.75,170.3C455.417,170.6 455.25,170.983 455.25,171.45C455.25,171.883 455.383,172.25 455.65,172.55L455.65,172.6L455.7,172.6C456.3,173.233 456.95,173.633 457.65,173.8L459.05,173.65C459.417,173.317 459.483,172.833 459.25,172.2C459.083,171.533 458.683,170.883 458.05,170.25M455.25,174.4L455.2,174.3C455.167,173.8 454.983,173.383 454.65,173.05C454.283,172.683 453.833,172.5 453.3,172.5C452.767,172.5 452.317,172.7 451.95,173.1C451.617,173.4 451.433,173.783 451.4,174.25L451.4,174.4C451.4,175.4 451.567,176.25 451.9,176.95C452.3,177.65 452.767,178 453.3,178C453.833,178.033 454.283,177.683 454.65,176.95C455.05,176.25 455.25,175.4 455.25,174.4M450.1,162.75L450.15,162.85C450.25,163.35 450.5,163.717 450.9,163.95C451.3,164.283 451.75,164.417 452.25,164.35C452.783,164.25 453.217,163.983 453.55,163.55C453.817,163.25 453.933,162.85 453.9,162.35L453.9,162.2C453.767,161.2 453.483,160.383 453.05,159.75C452.55,159.083 452.033,158.8 451.5,158.9C451,158.933 450.617,159.333 450.35,160.1C450.05,160.867 449.967,161.75 450.1,162.75" style="fill:rgb(57,194,114);fill-rule:nonzero;"/>
            <path d="M452,185C454,185 455.75,183.867 457.25,181.6C459.883,182.167 461.917,181.733 463.35,180.3C464.75,178.9 465.183,176.867 464.65,174.2C466.883,172.7 468,170.967 468,169C468,167 466.883,165.25 464.65,163.75C465.183,161.117 464.75,159.1 463.35,157.7C461.95,156.3 459.917,155.867 457.25,156.4C455.75,154.133 454,153 452,153C450.033,153 448.3,154.133 446.8,156.4C444.167,155.833 442.133,156.267 440.7,157.7C439.333,159.067 438.917,161.083 439.45,163.75C437.15,165.25 436,167 436,169C436,171 437.133,172.733 439.4,174.2C438.867,176.867 439.3,178.9 440.7,180.3C442.1,181.733 444.133,182.167 446.8,181.6C448.3,183.867 450.033,185 452,185M452,187.05C449.8,187.05 447.85,185.767 446.15,183.2C443.15,183.833 440.867,183.35 439.3,181.75C437.733,180.183 437.25,177.9 437.85,174.9C435.283,173.233 434,171.283 434,169.05C434,166.783 435.3,164.8 437.9,163.1C437.3,160.1 437.767,157.833 439.3,156.3C440.9,154.7 443.183,154.217 446.15,154.85C447.85,152.317 449.8,151.05 452,151.05C454.267,151.05 456.233,152.317 457.9,154.85C460.9,154.25 463.183,154.733 464.75,156.3C466.35,157.9 466.85,160.167 466.25,163.1C468.75,164.8 470,166.783 470,169.05C470,171.25 468.75,173.2 466.25,174.9C466.85,177.9 466.35,180.183 464.75,181.75C463.15,183.35 460.867,183.833 457.9,183.2C456.233,185.767 454.267,187.05 452,187.05" style="fill:rgb(26,123,68);fill-rule:nonzero;"/>
            <path d="M450.1,162.75C449.967,161.75 450.05,160.867 450.35,160.1C450.617,159.333 451,158.933 451.5,158.9C452.033,158.8 452.55,159.083 453.05,159.75C453.483,160.383 453.767,161.2 453.9,162.2L453.9,162.35C453.933,162.85 453.817,163.25 453.55,163.55C453.217,163.983 452.783,164.25 452.25,164.35C451.75,164.417 451.3,164.283 450.9,163.95C450.5,163.717 450.25,163.35 450.15,162.85L450.1,162.75M455.25,174.4C455.25,175.4 455.05,176.25 454.65,176.95C454.283,177.683 453.833,178.033 453.3,178C452.767,178 452.3,177.65 451.9,176.95C451.567,176.25 451.4,175.4 451.4,174.4L451.4,174.25C451.433,173.783 451.617,173.4 451.95,173.1C452.317,172.7 452.767,172.5 453.3,172.5C453.833,172.5 454.283,172.683 454.65,173.05C454.983,173.383 455.167,173.8 455.2,174.3L455.25,174.4M458.05,170.25C458.683,170.883 459.083,171.533 459.25,172.2C459.483,172.833 459.417,173.317 459.05,173.65L457.65,173.8C456.95,173.633 456.3,173.233 455.7,172.6L455.65,172.6L455.65,172.55C455.383,172.25 455.25,171.883 455.25,171.45C455.25,170.983 455.417,170.6 455.75,170.3C456.083,169.967 456.467,169.8 456.9,169.8C457.333,169.8 457.683,169.933 457.95,170.2L458,170.2L458.05,170.25" style="fill:rgb(67,205,125);fill-rule:nonzero;"/>
        </g>
    </g>
</svg>
