<?xml version="1.0" encoding="UTF-8" standalone="no"?>
<!DOCTYPE svg PUBLIC "-//W3C//DTD SVG 1.1//EN" "http://www.w3.org/Graphics/SVG/1.1/DTD/svg11.dtd">
<svg width="100%" height="100%" viewBox="0 0 36 36" version="1.1" xmlns="http://www.w3.org/2000/svg" xmlns:xlink="http://www.w3.org/1999/xlink" xml:space="preserve" xmlns:serif="http://www.serif.com/" style="fill-rule:evenodd;clip-rule:evenodd;stroke-linejoin:round;stroke-miterlimit:2;">
    <g transform="matrix(1,0,0,1,-406.571,-214.593)">
        <g transform="matrix(1,0,0,1,-27.4286,-16.4571)">
            <path d="M434,249.05C434,246.85 435.283,244.9 437.85,243.2C437.217,240.2 437.7,237.917 439.3,236.35C440.867,234.783 443.15,234.3 446.15,234.9C447.817,232.333 449.767,231.05 452,231.05C454.267,231.05 456.25,232.35 457.95,234.95C460.95,234.35 463.217,234.817 464.75,236.35C466.35,237.95 466.833,240.233 466.2,243.2C468.733,244.9 470,246.85 470,249.05C470,251.317 468.733,253.283 466.2,254.95C466.8,257.95 466.317,260.233 464.75,261.8C463.15,263.4 460.883,263.9 457.95,263.3C456.25,265.8 454.267,267.05 452,267.05C449.8,267.05 447.85,265.8 446.15,263.3C443.15,263.9 440.867,263.4 439.3,261.8C437.7,260.2 437.217,257.917 437.85,254.95C435.283,253.283 434,251.317 434,249.05M436.05,249.05C436.05,251.05 437.183,252.8 439.45,254.3C438.883,256.933 439.317,258.967 440.75,260.4C442.15,261.8 444.183,262.233 446.85,261.7C448.35,263.933 450.083,265.05 452.05,265.05C454.05,265.05 455.8,263.933 457.3,261.7C459.933,262.233 461.95,261.8 463.35,260.4C464.75,259 465.183,256.967 464.65,254.3C466.917,252.8 468.05,251.05 468.05,249.05C468.05,247.083 466.917,245.35 464.65,243.85C465.217,241.217 464.783,239.183 463.35,237.75C461.983,236.383 459.967,235.967 457.3,236.5C455.8,234.2 454.05,233.05 452.05,233.05C450.05,233.05 448.317,234.183 446.85,236.45C444.183,235.917 442.15,236.35 440.75,237.75C439.317,239.15 438.883,241.183 439.45,243.85C437.183,245.35 436.05,247.083 436.05,249.05" style="fill:rgb(149,78,40);fill-rule:nonzero;"/>
            <path d="M436.05,249.05C436.05,247.083 437.183,245.35 439.45,243.85C438.883,241.183 439.317,239.15 440.75,237.75C442.15,236.35 444.183,235.917 446.85,236.45C448.317,234.183 450.05,233.05 452.05,233.05C454.05,233.05 455.8,234.2 457.3,236.5C459.967,235.967 461.983,236.383 463.35,237.75C464.783,239.183 465.217,241.217 464.65,243.85C466.917,245.35 468.05,247.083 468.05,249.05C468.05,251.05 466.917,252.8 464.65,254.3C465.183,256.967 464.75,259 463.35,260.4C461.95,261.8 459.933,262.233 457.3,261.7C455.8,263.933 454.05,265.05 452.05,265.05C450.083,265.05 448.35,263.933 446.85,261.7C444.183,262.233 442.15,261.8 440.75,260.4C439.317,258.967 438.883,256.933 439.45,254.3C437.183,252.8 436.05,251.05 436.05,249.05M440.05,249.05C440.05,250.55 440.9,251.867 442.6,253C442.167,254.967 442.483,256.483 443.55,257.55C444.617,258.617 446.15,258.95 448.15,258.55C449.283,260.217 450.583,261.05 452.05,261.05C453.55,261.05 454.867,260.217 456,258.55C457.967,258.95 459.467,258.617 460.5,257.55C461.567,256.517 461.9,255 461.5,253C463.2,251.867 464.05,250.55 464.05,249.05C464.05,247.583 463.2,246.283 461.5,245.15C461.933,243.183 461.6,241.667 460.5,240.6C459.5,239.567 458,239.25 456,239.65C454.867,237.917 453.55,237.05 452.05,237.05C450.55,237.05 449.25,237.9 448.15,239.6C446.15,239.2 444.617,239.533 443.55,240.6C442.483,241.633 442.167,243.15 442.6,245.15C440.9,246.283 440.05,247.583 440.05,249.05" style="fill:rgb(194,101,54);fill-rule:nonzero;"/>
            <path d="M440.05,249.05C440.05,247.583 440.9,246.283 442.6,245.15C442.167,243.15 442.483,241.633 443.55,240.6C444.617,239.533 446.15,239.2 448.15,239.6C449.25,237.9 450.55,237.05 452.05,237.05C453.55,237.05 454.867,237.917 456,239.65C458,239.25 459.5,239.567 460.5,240.6C461.6,241.667 461.933,243.183 461.5,245.15C463.2,246.283 464.05,247.583 464.05,249.05C464.05,250.55 463.2,251.867 461.5,253C461.9,255 461.567,256.517 460.5,257.55C459.467,258.617 457.967,258.95 456,258.55C454.867,260.217 453.55,261.05 452.05,261.05C450.583,261.05 449.283,260.217 448.15,258.55C446.15,258.95 444.617,258.617 443.55,257.55C442.483,256.483 442.167,254.967 442.6,253C440.9,251.867 440.05,250.55 440.05,249.05M450.8,255.1L450.85,255.05L450.85,255C451.117,254.733 451.25,254.383 451.25,253.95C451.25,253.517 451.083,253.133 450.75,252.8C450.45,252.467 450.067,252.3 449.6,252.3C449.167,252.3 448.8,252.433 448.5,252.7L448.45,252.7L448.45,252.75C447.817,253.35 447.417,254 447.25,254.7C447.05,255.333 447.1,255.8 447.4,256.1C447.733,256.467 448.217,256.533 448.85,256.3C449.517,256.133 450.167,255.733 450.8,255.1M446.65,252.3L446.75,252.25C447.25,252.217 447.667,252.033 448,251.7C448.367,251.333 448.55,250.883 448.55,250.35C448.55,249.817 448.35,249.367 447.95,249C447.65,248.667 447.267,248.483 446.8,248.45L446.65,248.45C445.65,248.45 444.8,248.617 444.1,248.95C443.4,249.35 443.05,249.817 443.05,250.35C443.017,250.883 443.367,251.333 444.1,251.7C444.8,252.1 445.65,252.3 446.65,252.3M458.3,247.15L458.2,247.2C457.7,247.3 457.333,247.55 457.1,247.95C456.767,248.35 456.633,248.8 456.7,249.3C456.8,249.833 457.067,250.267 457.5,250.6C457.8,250.867 458.2,250.983 458.7,250.95L458.85,250.95C459.85,250.817 460.667,250.533 461.3,250.1C461.967,249.6 462.25,249.083 462.15,248.55C462.117,248.05 461.717,247.667 460.95,247.4L458.3,247.15" style="fill:rgb(208,108,59);fill-rule:nonzero;"/>
            <path d="M458.3,247.15L460.95,247.4C461.717,247.667 462.117,248.05 462.15,248.55C462.25,249.083 461.967,249.6 461.3,250.1C460.667,250.533 459.85,250.817 458.85,250.95L458.7,250.95C458.2,250.983 457.8,250.867 457.5,250.6C457.067,250.267 456.8,249.833 456.7,249.3C456.633,248.8 456.767,248.35 457.1,247.95C457.333,247.55 457.7,247.3 458.2,247.2L458.3,247.15M446.65,252.3C445.65,252.3 444.8,252.1 444.1,251.7C443.367,251.333 443.017,250.883 443.05,250.35C443.05,249.817 443.4,249.35 444.1,248.95C444.8,248.617 445.65,248.45 446.65,248.45L446.8,248.45C447.267,248.483 447.65,248.667 447.95,249C448.35,249.367 448.55,249.817 448.55,250.35C448.55,250.883 448.367,251.333 448,251.7C447.667,252.033 447.25,252.217 446.75,252.25L446.65,252.3M450.8,255.1C450.167,255.733 449.517,256.133 448.85,256.3C448.217,256.533 447.733,256.467 447.4,256.1C447.1,255.8 447.05,255.333 447.25,254.7C447.417,254 447.817,253.35 448.45,252.75L448.45,252.7L448.5,252.7C448.8,252.433 449.167,252.3 449.6,252.3C450.067,252.3 450.45,252.467 450.75,252.8C451.083,253.133 451.25,253.517 451.25,253.95C451.25,254.383 451.117,254.733 450.85,255L450.85,255.05L450.8,255.1" style="fill:rgb(229,119,65);fill-rule:nonzero;"/>
        </g>
    </g>
</svg>
