<?xml version="1.0" encoding="UTF-8" standalone="no"?>
<!DOCTYPE svg PUBLIC "-//W3C//DTD SVG 1.1//EN" "http://www.w3.org/Graphics/SVG/1.1/DTD/svg11.dtd">
<svg width="100%" height="100%" viewBox="0 0 46 46" version="1.1" xmlns="http://www.w3.org/2000/svg" xmlns:xlink="http://www.w3.org/1999/xlink" xml:space="preserve" xmlns:serif="http://www.serif.com/" style="fill-rule:evenodd;clip-rule:evenodd;stroke-linejoin:round;stroke-miterlimit:2;">
    <g transform="matrix(1,0,0,1,-1342.16,-674.988)">
        <g transform="matrix(1,0,0,1,-10,-10)">
            <g id="Layer0_368_MEMBER_0_FILL">
                <path d="M1370.75,719.15C1370.88,719.617 1371.2,720 1371.7,720.3L1389,730.3C1389.5,730.567 1390,730.667 1390.5,730.6C1391.07,730.4 1391.48,730.083 1391.75,729.65L1397.75,719.25C1398.02,718.717 1398.07,718.2 1397.9,717.7C1397.8,717.133 1397.52,716.7 1397.05,716.4L1379.7,706.45C1379.2,706.15 1378.7,706.083 1378.2,706.25C1377.67,706.35 1377.27,706.667 1377,707.2L1371,717.6C1370.67,718.067 1370.58,718.583 1370.75,719.15M1396,718.2L1390,728.6L1372.7,718.6L1378.7,708.2L1396,718.2Z" style="fill:rgb(100,133,135);fill-rule:nonzero;"/>
                <path d="M1390,728.6L1396,718.2L1378.7,708.2L1372.7,718.6L1390,728.6M1380.3,716.35L1383.2,715.15L1384.45,718.1L1381.5,719.25L1380.3,716.35M1387.95,722.8L1384.65,719.65L1387.9,716.35L1391.15,719.6L1387.95,722.8Z" style="fill:rgb(156,192,194);fill-rule:nonzero;"/>
                <path d="M1384.65,719.65L1387.95,722.8L1391.15,719.6L1387.9,716.35L1384.65,719.65Z" style="fill:rgb(144,178,180);fill-rule:nonzero;"/>
                <path d="M1383.2,715.15L1380.3,716.35L1381.5,719.25L1384.45,718.1L1383.2,715.15Z" style="fill:rgb(166,201,203);fill-rule:nonzero;"/>
            </g>
        </g>
        <g transform="matrix(1,0,0,1,-10,-10)">
            <g id="Layer0_368_MEMBER_1_FILL">
                <path d="M1374.5,685.3C1374,685 1373.48,684.917 1372.95,685.05L1353.65,690.25C1353.08,690.383 1352.68,690.7 1352.45,691.2C1352.15,691.633 1352.08,692.133 1352.25,692.7L1355.35,704.3C1355.48,704.833 1355.8,705.25 1356.3,705.55C1356.73,705.783 1357.23,705.833 1357.8,705.7L1377.1,700.5C1377.63,700.367 1378.05,700.083 1378.35,699.65C1378.62,699.15 1378.68,698.633 1378.55,698.1L1375.45,686.5C1375.28,685.933 1374.97,685.533 1374.5,685.3M1354.2,692.2L1373.5,687L1376.6,698.6L1357.3,703.8L1354.2,692.2Z" style="fill:rgb(100,133,135);fill-rule:nonzero;"/>
                <path d="M1373.5,687L1354.2,692.2L1357.3,703.8L1376.6,698.6L1373.5,687M1367.55,691.1L1372.6,691.65L1372,696.65L1366.95,696.1L1367.55,691.1M1363.3,698.7L1362.8,695.6L1365.85,695.1L1366.35,698.2L1363.3,698.7Z" style="fill:rgb(156,192,194);fill-rule:nonzero;"/>
                <path d="M1362.8,695.6L1363.3,698.7L1366.35,698.2L1365.85,695.1L1362.8,695.6Z" style="fill:rgb(166,201,203);fill-rule:nonzero;"/>
                <path d="M1372.6,691.65L1367.55,691.1L1366.95,696.1L1372,696.65L1372.6,691.65Z" style="fill:rgb(144,178,180);fill-rule:nonzero;"/>
            </g>
        </g>
    </g>
</svg>
