<?xml version="1.0" encoding="UTF-8" standalone="no"?>
<!DOCTYPE svg PUBLIC "-//W3C//DTD SVG 1.1//EN" "http://www.w3.org/Graphics/SVG/1.1/DTD/svg11.dtd">
<svg width="100%" height="100%" viewBox="0 0 46 46" version="1.1" xmlns="http://www.w3.org/2000/svg" xmlns:xlink="http://www.w3.org/1999/xlink" xml:space="preserve" xmlns:serif="http://www.serif.com/" style="fill-rule:evenodd;clip-rule:evenodd;stroke-linejoin:round;stroke-miterlimit:2;">
    <g transform="matrix(1,0,0,1,-1342.16,-748.988)">
        <g transform="matrix(1,0,0,1,-10,-10)">
            <g id="Layer0_374_MEMBER_0_FILL">
                <path d="M1397.05,790.4L1379.7,780.45C1379.2,780.15 1378.7,780.083 1378.2,780.25C1377.67,780.35 1377.27,780.667 1377,781.2L1371,791.6C1370.67,792.067 1370.58,792.583 1370.75,793.15C1370.88,793.617 1371.2,794 1371.7,794.3L1389,804.3C1389.5,804.567 1390,804.667 1390.5,804.6C1391.07,804.4 1391.48,804.083 1391.75,803.65L1397.75,793.25C1398.02,792.717 1398.07,792.2 1397.9,791.7C1397.8,791.133 1397.52,790.7 1397.05,790.4M1396,792.2L1390,802.6L1372.7,792.6L1378.7,782.2L1396,792.2M1374.5,759.3C1374,759 1373.48,758.917 1372.95,759.05L1353.65,764.25C1353.08,764.383 1352.68,764.7 1352.45,765.2C1352.15,765.633 1352.08,766.133 1352.25,766.7L1355.35,778.3C1355.48,778.833 1355.8,779.25 1356.3,779.55C1356.73,779.783 1357.23,779.833 1357.8,779.7L1377.1,774.5C1377.63,774.367 1378.05,774.083 1378.35,773.65C1378.62,773.15 1378.68,772.633 1378.55,772.1L1375.45,760.5C1375.28,759.933 1374.97,759.533 1374.5,759.3M1376.6,772.6L1357.3,777.8L1354.2,766.2L1373.5,761L1376.6,772.6Z" style="fill:rgb(166,74,15);fill-rule:nonzero;"/>
                <path d="M1390,802.6L1396,792.2L1378.7,782.2L1372.7,792.6L1390,802.6M1380.3,790.35L1383.2,789.15L1384.45,792.1L1381.5,793.25L1380.3,790.35M1391.15,793.6L1387.95,796.8L1384.65,793.65L1387.9,790.35L1391.15,793.6M1357.3,777.8L1376.6,772.6L1373.5,761L1354.2,766.2L1357.3,777.8M1367.55,765.1L1372.6,765.65L1372,770.65L1366.95,770.1L1367.55,765.1M1363.3,772.7L1362.8,769.6L1365.85,769.1L1366.35,772.2L1363.3,772.7Z" style="fill:rgb(232,106,23);fill-rule:nonzero;"/>
                <path d="M1387.95,796.8L1391.15,793.6L1387.9,790.35L1384.65,793.65L1387.95,796.8M1372.6,765.65L1367.55,765.1L1366.95,770.1L1372,770.65L1372.6,765.65Z" style="fill:rgb(219,100,21);fill-rule:nonzero;"/>
                <path d="M1383.2,789.15L1380.3,790.35L1381.5,793.25L1384.45,792.1L1383.2,789.15M1362.8,769.6L1363.3,772.7L1366.35,772.2L1365.85,769.1L1362.8,769.6Z" style="fill:rgb(247,113,24);fill-rule:nonzero;"/>
            </g>
        </g>
    </g>
</svg>
