<?xml version="1.0" encoding="UTF-8" standalone="no"?>
<!DOCTYPE svg PUBLIC "-//W3C//DTD SVG 1.1//EN" "http://www.w3.org/Graphics/SVG/1.1/DTD/svg11.dtd">
<svg width="100%" height="100%" viewBox="0 0 21 27" version="1.1" xmlns="http://www.w3.org/2000/svg" xmlns:xlink="http://www.w3.org/1999/xlink" xml:space="preserve" xmlns:serif="http://www.serif.com/" style="fill-rule:evenodd;clip-rule:evenodd;stroke-linejoin:round;stroke-miterlimit:2;">
    <g transform="matrix(1,0,0,1,-1425.44,-685.138)">
        <g transform="matrix(1,0,0,1,-10,-10)">
            <g id="Layer0_367_MEMBER_0_FILL">
                <path d="M1456.1,700.8C1456.27,700.267 1456.25,699.767 1456.05,699.3C1455.75,698.8 1455.33,698.467 1454.8,698.3L1443.2,695.2C1442.6,695.067 1442.08,695.15 1441.65,695.45C1441.15,695.75 1440.83,696.15 1440.7,696.65L1435.55,716C1435.35,716.533 1435.42,717.033 1435.75,717.5C1435.95,717.967 1436.35,718.267 1436.95,718.4L1448.55,721.5C1449.08,721.667 1449.6,721.617 1450.1,721.35C1450.53,721.083 1450.82,720.667 1450.95,720.1L1456.1,700.8M1442.6,697.15L1454.2,700.25L1449.05,719.6L1437.45,716.45L1442.6,697.15Z" style="fill:rgb(100,133,135);fill-rule:nonzero;"/>
                <path d="M1454.2,700.25L1442.6,697.15L1437.45,716.45L1449.05,719.6L1454.2,700.25M1445.45,710.15L1446.1,714.3L1442,714.9L1441.35,710.8L1445.45,710.15M1446.4,710.5L1446.6,708.3L1448.8,708.6L1448.6,710.8L1446.4,710.5Z" style="fill:rgb(156,192,194);fill-rule:nonzero;"/>
                <path d="M1446.6,708.3L1446.4,710.5L1448.6,710.8L1448.8,708.6L1446.6,708.3M1446.1,714.3L1445.45,710.15L1441.35,710.8L1442,714.9L1446.1,714.3Z" style="fill:rgb(144,178,180);fill-rule:nonzero;"/>
            </g>
        </g>
    </g>
</svg>
