<?xml version="1.0" encoding="UTF-8" standalone="no"?>
<!DOCTYPE svg PUBLIC "-//W3C//DTD SVG 1.1//EN" "http://www.w3.org/Graphics/SVG/1.1/DTD/svg11.dtd">
<svg width="100%" height="100%" viewBox="0 0 29 28" version="1.1" xmlns="http://www.w3.org/2000/svg" xmlns:xlink="http://www.w3.org/1999/xlink" xml:space="preserve" xmlns:serif="http://www.serif.com/" style="fill-rule:evenodd;clip-rule:evenodd;stroke-linejoin:round;stroke-miterlimit:2;">
    <g transform="matrix(1,0,0,1,-1868.01,-388.012)">
        <g transform="matrix(1,0,0,1,-10,-10)">
            <g id="Layer0_14_MEMBER_0_FILL">
                <path d="M1904.8,400.4C1904.57,400.1 1904.28,399.9 1903.95,399.8L1899.4,398.15C1898.87,397.95 1898.37,397.967 1897.9,398.2C1897.4,398.4 1897.05,398.767 1896.85,399.3L1894.85,404.35L1878.7,418.7C1878.4,418.933 1878.2,419.233 1878.1,419.6C1878,419.933 1877.98,420.283 1878.05,420.65C1878.12,421.017 1878.28,421.333 1878.55,421.6L1881.3,424.5C1881.63,424.867 1882.07,425.067 1882.6,425.1C1883.07,425.133 1883.52,425 1883.95,424.7L1899.7,413.1L1903.25,413.1C1903.62,413.1 1903.97,413.017 1904.3,412.85C1904.6,412.65 1904.83,412.4 1905,412.1L1906.65,409.1C1906.85,408.733 1906.93,408.367 1906.9,408C1906.87,407.633 1906.75,407.283 1906.55,406.95C1906.32,406.617 1906.03,406.383 1905.7,406.25L1903.85,405.5L1905.1,402.45C1905.23,402.083 1905.28,401.733 1905.25,401.4C1905.18,401.033 1905.03,400.7 1904.8,400.4M1903.25,411.1L1899.05,411.1L1882.75,423.1L1880,420.2L1896.55,405.5L1898.7,400L1903.25,401.65L1901.2,406.55L1904.9,408.1L1903.25,411.1Z" style="fill:rgb(149,101,54);fill-rule:nonzero;"/>
                <path d="M1899.05,411.1L1903.25,411.1L1904.9,408.1L1901.2,406.55L1903.25,401.65L1898.7,400L1896.55,405.5L1880,420.2L1882.75,423.1L1899.05,411.1Z" style="fill:rgb(196,134,71);fill-rule:nonzero;"/>
            </g>
        </g>
    </g>
</svg>
