<?xml version="1.0" encoding="UTF-8" standalone="no"?>
<!DOCTYPE svg PUBLIC "-//W3C//DTD SVG 1.1//EN" "http://www.w3.org/Graphics/SVG/1.1/DTD/svg11.dtd">
<svg width="100%" height="100%" viewBox="0 0 57 57" version="1.1" xmlns="http://www.w3.org/2000/svg" xmlns:xlink="http://www.w3.org/1999/xlink" xml:space="preserve" xmlns:serif="http://www.serif.com/" style="fill-rule:evenodd;clip-rule:evenodd;stroke-linejoin:round;stroke-miterlimit:2;">
    <g transform="matrix(1,0,0,1,-1558,-669)">
        <g transform="matrix(1,0,0,1,-10,-10)">
            <g id="Layer0_394_MEMBER_0_FILL">
                <path d="M1611.8,679C1611.23,679 1610.77,679.2 1610.4,679.6L1593.85,696.15C1593.68,696.317 1593.55,696.5 1593.45,696.7L1592.4,699L1580.5,710.85C1580.33,710.817 1580.17,710.8 1580,710.8C1579.43,710.8 1578.97,711 1578.6,711.4L1568.6,721.4C1568.2,721.767 1568,722.233 1568,722.8C1568,723.367 1568.2,723.85 1568.6,724.25L1574.15,729.8C1574.52,730.167 1574.98,730.35 1575.55,730.35L1576.55,730.35L1576.55,731.35C1576.55,731.917 1576.75,732.4 1577.15,732.8L1579,734.65C1579.37,735.017 1579.83,735.2 1580.4,735.2C1580.97,735.2 1581.45,735.017 1581.85,734.65L1610.25,706.25C1610.62,705.85 1610.8,705.367 1610.8,704.8C1610.8,704.533 1610.77,704.3 1610.7,704.1L1616.4,698.35L1619.2,697.1C1619.4,696.967 1619.6,696.833 1619.8,696.7L1623.65,692.85C1624.02,692.45 1624.2,691.967 1624.2,691.4C1624.2,690.833 1624.02,690.367 1623.65,690L1618.4,684.75C1618,684.35 1617.52,684.15 1616.95,684.15L1616.4,684.15L1616.4,683.65C1616.4,683.383 1616.35,683.117 1616.25,682.85C1616.15,682.583 1616.02,682.367 1615.85,682.2L1613.25,679.6C1612.85,679.2 1612.37,679 1611.8,679M1616.95,686.15L1622.2,691.4L1618.35,695.25L1615.2,696.7L1607.95,703.95L1608.8,704.8L1580.4,733.2L1578.55,731.35L1578.55,728.35L1575.55,728.35L1570,722.8L1580,712.8L1580.7,713.5L1590.55,703.6L1594,700.2L1595.25,697.55L1611.8,681L1614.4,683.6L1614.35,686.15L1616.95,686.15Z" style="fill:rgb(149,101,54);fill-rule:nonzero;"/>
                <path d="M1580.7,713.5L1580,712.8L1570,722.8L1572.85,725.65L1592.75,705.8L1590.55,703.6L1580.7,713.5M1611,700.9L1615.2,696.7L1618.35,695.25L1622.2,691.4L1617.5,686.7L1607.15,697.05L1611,700.9Z" style="fill:rgb(208,142,74);fill-rule:nonzero;"/>
                <path d="M1617.5,686.7L1616.95,686.15L1614.35,686.15L1614.4,683.6L1611.8,681L1595.25,697.55L1594,700.2L1590.55,703.6L1592.75,705.8L1572.85,725.65L1575.55,728.35L1578.55,728.35L1578.55,731.35L1580.4,733.2L1608.8,704.8L1607.95,703.95L1611,700.9L1607.15,697.05L1617.5,686.7Z" style="fill:rgb(196,134,71);fill-rule:nonzero;"/>
            </g>
        </g>
    </g>
</svg>
