<?xml version="1.0" encoding="UTF-8" standalone="no"?>
<!DOCTYPE svg PUBLIC "-//W3C//DTD SVG 1.1//EN" "http://www.w3.org/Graphics/SVG/1.1/DTD/svg11.dtd">
<svg width="100%" height="100%" viewBox="0 0 29 29" version="1.1" xmlns="http://www.w3.org/2000/svg" xmlns:xlink="http://www.w3.org/1999/xlink" xml:space="preserve" xmlns:serif="http://www.serif.com/" style="fill-rule:evenodd;clip-rule:evenodd;stroke-linejoin:round;stroke-miterlimit:2;">
    <g transform="matrix(1,0,0,1,-57.5214,-213.543)">
        <g transform="matrix(1,0,0,1,-27.4286,-16.4571)">
            <path d="M103.25,245.5L101.8,244.05L111,234.85L108.2,232L106.65,233.6L105.1,232.35L106.8,230.6C107.167,230.2 107.633,230 108.2,230C108.767,230 109.25,230.2 109.65,230.6L112.45,233.45C112.817,233.85 113,234.317 113,234.85C113,235.417 112.817,235.9 112.45,236.3L106.7,242.05L105.25,243.45L104.65,244.05L112.4,251.8C112.8,252.167 113,252.633 113,253.2C113,253.767 112.817,254.25 112.45,254.65L109.6,257.5C109.2,257.867 108.717,258.05 108.15,258.05C107.617,258.05 107.15,257.867 106.75,257.5L99,249.75L96.4,252.4C95.8,252 95.3,251.533 94.9,251L94.95,251.05L94.9,250.95L98.95,246.9L104.3,252.25L108.15,256.05L111,253.2L107.15,249.4L103.25,245.5M89,239.75L85.55,236.3C85.15,235.9 84.95,235.417 84.95,234.85C84.95,234.283 85.15,233.817 85.55,233.45L88.4,230.6C88.767,230.2 89.233,230 89.8,230C90.367,230 90.85,230.2 91.25,230.6L93.85,233.2L93.3,233.7C92.967,234 92.683,234.317 92.45,234.65L89.8,232L86.95,234.85L90.5,238.4L89.3,239.55L89.35,239.5L89,239.75M92.8,256L91.25,257.5C90.85,257.867 90.367,258.05 89.8,258.05C89.233,258.05 88.767,257.85 88.4,257.45L85.6,254.6C85.2,254.2 85,253.733 85,253.2C85,252.633 85.2,252.167 85.6,251.8L93.3,244.05L92.65,243.4L94.1,242L96.15,244.05L92.7,247.6L91.15,247.5C90.483,247.7 89.983,248.1 89.65,248.7C89.317,249.267 89.233,249.883 89.4,250.55L89.45,250.8L87,253.2L89.8,256.05L91.3,254.55L92.8,256M96.15,238.35L96.45,237.8L96.75,237.3L96.9,237.15L97.4,236.75L99,238.35L101.3,236.1L102,236.35L101.95,236.35L103.1,237.15L99,241.2L96.15,238.35" style="fill:rgb(135,92,48);fill-rule:nonzero;"/>
            <path d="M96.15,238.35L94.7,241L94.1,242L92.65,243.4C91.717,244.067 90.583,244.583 89.25,244.95L88.85,245.05C88.183,245.217 87.567,245.133 87,244.8C86.4,244.467 86,243.967 85.8,243.3C85.633,242.6 85.717,241.967 86.05,241.4C86.383,240.833 86.883,240.45 87.55,240.25L87.95,240.1L89,239.75L89.35,239.5L89.3,239.55L90.5,238.4L90.7,238L90.85,237.75C91.15,236.617 91.683,235.583 92.45,234.65C92.683,234.317 92.967,234 93.3,233.7L93.85,233.2C94.683,232.433 95.6,231.867 96.6,231.5C97.633,231.1 98.767,230.9 100,230.9C101.9,230.9 103.6,231.383 105.1,232.35L106.65,233.6L107.05,234C107.517,234.5 107.75,235.083 107.75,235.75C107.75,236.417 107.517,237.017 107.05,237.55C106.517,238.017 105.917,238.25 105.25,238.25L105.2,238.25C104.533,238.25 103.967,238.017 103.5,237.55L103.1,237.15L101.95,236.35L102,236.35L101.3,236.1L100,235.9C99,235.9 98.133,236.183 97.4,236.75L96.9,237.15L96.75,237.3L96.45,237.8L96.15,238.35M108.85,239.9L109.65,241.05C110.383,242.217 110.85,243.45 111.05,244.75C111.183,245.85 111.1,247 110.8,248.2L110.35,249.75L108.75,248.15L108.85,247.75L109.1,245.55L109.2,245.55L109.95,245.4L110.25,245.15L110.3,244.8L110.05,244.5L109.7,244.45L108.95,244.6C108.75,243.7 108.417,242.867 107.95,242.1L107.4,241.35L108.85,239.9M104.95,255.7C103.883,256.633 102.617,257.283 101.15,257.65L98.6,258.05L97.2,257.9C96.1,257.767 95.017,257.383 93.95,256.75L92.8,256L91.3,254.55C90.467,253.517 89.867,252.317 89.5,250.95L89.45,250.8L89.4,250.55C89.233,249.883 89.317,249.267 89.65,248.7C89.983,248.1 90.483,247.7 91.15,247.5L92.7,247.6L93.05,247.75C93.617,248.083 94,248.583 94.2,249.25L94.35,249.65C94.483,250.15 94.667,250.583 94.9,250.95L94.95,251.05L94.9,251C95.3,251.533 95.8,252 96.4,252.4L96.45,252.4C97.15,252.8 97.867,253.017 98.6,253.05L99.85,252.85C100.417,252.683 100.933,252.45 101.4,252.15L102.85,253.6L102.8,253.65C102.1,254.183 101.3,254.567 100.4,254.8L98.6,255.05C97.5,255.017 96.45,254.717 95.45,254.15L94.95,253.85C94.417,253.483 93.967,253.05 93.6,252.55L94.3,252.25L94.55,251.95L94.5,251.55L94.4,251.45L94.2,251.35L93.8,251.4L93.05,251.75C92.783,251.283 92.567,250.767 92.4,250.2L92.3,249.8L92.05,249.5L91.7,249.45L91.35,249.7L91.35,250.05L91.45,250.45C91.717,251.45 92.15,252.333 92.75,253.1L94.25,254.55L94.95,255C95.617,255.4 96.333,255.683 97.1,255.85L96.95,256.6L97,256.95C97.067,257.083 97.167,257.167 97.3,257.2L97.65,257.15L97.9,256.85L98.05,256.05L98.05,256L98.6,256.05L100.65,255.75C101.75,255.45 102.7,254.967 103.5,254.3L103.55,254.3L104.95,255.7M94.7,235.1L93.9,236.1L93.2,237.15L92.95,237.75L92.45,239L91.95,239.85L90.9,240.85L90.55,240.2C90.483,240.067 90.383,239.983 90.25,239.95L89.9,239.95C89.767,240.017 89.683,240.117 89.65,240.25L89.6,240.35L89.65,240.65L90.05,241.4L90.1,241.4L88.5,242.05L88.1,242.15L87.8,242.4C87.733,242.5 87.717,242.617 87.75,242.75L88,243.1L88.35,243.1L88.75,243C89.65,242.767 90.45,242.4 91.15,241.9L92.65,240.55L93.3,239.5L94.05,237.75L94.35,237.15L94.6,236.8L95.4,235.8L95.95,235.3C97.117,234.367 98.467,233.9 100,233.9L102.4,234.35L101.95,234.95L101.85,235.35L101.9,235.5L102.05,235.65L102.45,235.75L102.75,235.55L103.25,234.85L103.3,234.8L104.55,235.75L104.9,236.1L105.25,236.25L105.6,236.1L105.75,235.75L105.6,235.4L105.25,235.05L103.6,233.8C102.533,233.2 101.333,232.9 100,232.9L97.8,233.25L97.5,232.5L97.2,232.2L96.85,232.2L96.55,232.45L96.55,232.85L96.85,233.6C96.283,233.867 95.75,234.2 95.25,234.6L94.7,235.1M106.05,245.45C105.983,244.85 105.767,244.267 105.4,243.7L105.25,243.45L106.7,242.05L107.1,242.65C108.033,244.117 108.317,245.683 107.95,247.35L106.05,245.45" style="fill:rgb(77,92,93);fill-rule:nonzero;"/>
            <path d="M94.7,235.1L95.25,234.6C95.75,234.2 96.283,233.867 96.85,233.6L96.55,232.85L96.55,232.45L96.85,232.2L97.2,232.2L97.5,232.5L97.8,233.25L100,232.9C101.333,232.9 102.533,233.2 103.6,233.8L105.25,235.05L105.6,235.4L105.75,235.75L105.6,236.1L105.25,236.25L104.9,236.1L104.55,235.75L103.3,234.8L103.25,234.85L102.75,235.55L102.45,235.75L102.05,235.65L101.9,235.5L101.85,235.35L101.95,234.95L102.4,234.35L100,233.9C98.467,233.9 97.117,234.367 95.95,235.3L95.4,235.8L94.6,236.8L94.35,237.15L94.05,237.75L93.3,239.5L92.65,240.55L91.15,241.9C90.45,242.4 89.65,242.767 88.75,243L88.35,243.1L88,243.1L87.75,242.75C87.717,242.617 87.733,242.5 87.8,242.4L88.1,242.15L88.5,242.05L90.1,241.4L90.05,241.4L89.65,240.65L89.6,240.35L89.65,240.25C89.683,240.117 89.767,240.017 89.9,239.95L90.25,239.95C90.383,239.983 90.483,240.067 90.55,240.2L90.9,240.85L91.95,239.85L92.45,239L92.95,237.75L93.2,237.15L93.9,236.1L94.7,235.1M107.95,247.35C108.317,245.683 108.033,244.117 107.1,242.65L106.7,242.05L107.4,241.35L107.95,242.1C108.417,242.867 108.75,243.7 108.95,244.6L109.7,244.45L110.05,244.5L110.3,244.8L110.25,245.15L109.95,245.4L109.2,245.55L109.1,245.55L108.85,247.75L108.75,248.15L107.95,247.35M103.55,254.3L103.5,254.3C102.7,254.967 101.75,255.45 100.65,255.75L98.6,256.05L98.05,256L98.05,256.05L97.9,256.85L97.65,257.15L97.3,257.2C97.167,257.167 97.067,257.083 97,256.95L96.95,256.6L97.1,255.85C96.333,255.683 95.617,255.4 94.95,255L94.25,254.55L92.75,253.1C92.15,252.333 91.717,251.45 91.45,250.45L91.35,250.05L91.35,249.7L91.7,249.45L92.05,249.5L92.3,249.8L92.4,250.2C92.567,250.767 92.783,251.283 93.05,251.75L93.8,251.4L94.2,251.35L94.4,251.45L94.5,251.55L94.55,251.95L94.3,252.25L93.6,252.55C93.967,253.05 94.417,253.483 94.95,253.85L95.45,254.15C96.45,254.717 97.5,255.017 98.6,255.05L100.4,254.8C101.3,254.567 102.1,254.183 102.8,253.65L102.85,253.6L103.55,254.3" style="fill:rgb(119,143,145);fill-rule:nonzero;"/>
            <path d="M90.5,238.4L86.95,234.85L89.8,232L92.45,234.65C91.683,235.583 91.15,236.617 90.85,237.75L90.7,238L90.5,238.4M97.6,239.8L99,241.2L96.15,244.05L94.75,242.65L97.6,239.8M98.95,246.9L101.8,244.05L103.25,245.5L100.4,248.35L98.95,246.9M106.4,239.45L105.2,238.25L105.25,238.25C105.917,238.25 106.517,238.017 107.05,237.55C107.517,237.017 107.75,236.417 107.75,235.75C107.75,235.083 107.517,234.5 107.05,234L106.65,233.6L108.2,232L111,234.85L106.4,239.45M107.15,249.4L111,253.2L108.15,256.05L104.3,252.25L107.15,249.4M91.3,254.55L89.8,256.05L87,253.2L89.45,250.8L89.5,250.95C89.867,252.317 90.467,253.517 91.3,254.55" style="fill:rgb(175,120,63);fill-rule:nonzero;"/>
            <path d="M96.15,238.35L97.6,239.8L94.75,242.65L94.1,242L94.7,241L96.15,238.35M99,241.2L103.1,237.15L103.5,237.55C103.967,238.017 104.533,238.25 105.2,238.25L106.4,239.45L94.9,250.95C94.667,250.583 94.483,250.15 94.35,249.65L94.2,249.25C94,248.583 93.617,248.083 93.05,247.75L92.7,247.6L96.15,244.05L99,241.2M103.25,245.5L107.15,249.4L104.3,252.25L100.4,248.35L103.25,245.5" style="fill:rgb(187,128,68);fill-rule:nonzero;"/>
        </g>
    </g>
</svg>
