<?xml version="1.0" encoding="UTF-8" standalone="no"?>
<!DOCTYPE svg PUBLIC "-//W3C//DTD SVG 1.1//EN" "http://www.w3.org/Graphics/SVG/1.1/DTD/svg11.dtd">
<svg width="100%" height="100%" viewBox="0 0 24 24" version="1.1" xmlns="http://www.w3.org/2000/svg" xmlns:xlink="http://www.w3.org/1999/xlink" xml:space="preserve" xmlns:serif="http://www.serif.com/" style="fill-rule:evenodd;clip-rule:evenodd;stroke-linejoin:round;stroke-miterlimit:2;">
    <g transform="matrix(1,0,0,1,-46.5214,-131.543)">
        <g transform="matrix(1,0,0,1,-27.4286,-16.4571)">
            <path d="M93,152.9C91.033,150.967 88.683,150 85.95,150C83.183,150 80.833,150.967 78.9,152.9C76.933,154.867 75.95,157.233 75.95,160C75.95,162.733 76.933,165.083 78.9,167.05C80.833,169.017 83.183,170 85.95,170C88.683,170 91.033,169.017 93,167.05C94.967,165.083 95.95,162.733 95.95,160C95.95,157.233 94.967,154.867 93,152.9M77.5,168.5C75.133,166.133 73.95,163.3 73.95,160C73.95,156.667 75.133,153.833 77.5,151.5C79.8,149.167 82.617,148 85.95,148C89.217,148 92.033,149.167 94.4,151.5L94.45,151.5C96.783,153.833 97.95,156.667 97.95,160C97.95,163.3 96.783,166.133 94.45,168.5C92.083,170.833 89.25,172 85.95,172C82.617,172 79.8,170.817 77.5,168.45L77.5,168.5" style="fill:rgb(101,122,123);fill-rule:nonzero;"/>
            <path d="M93,152.9C94.967,154.867 95.95,157.233 95.95,160C95.95,162.733 94.967,165.083 93,167.05C91.033,169.017 88.683,170 85.95,170C83.183,170 80.833,169.017 78.9,167.05C76.933,165.083 75.95,162.733 75.95,160C75.95,157.233 76.933,154.867 78.9,152.9C80.833,150.967 83.183,150 85.95,150C88.683,150 91.033,150.967 93,152.9M91.6,154.35C90.033,152.783 88.15,152 85.95,152C83.75,152 81.883,152.783 80.35,154.35C78.75,155.917 77.95,157.8 77.95,160C77.95,162.167 78.75,164.05 80.35,165.65C81.883,167.217 83.75,168 85.95,168C88.117,168 90,167.217 91.6,165.65C93.167,164.05 93.95,162.167 93.95,160C93.95,157.8 93.167,155.917 91.6,154.35" style="fill:rgb(137,164,166);fill-rule:nonzero;"/>
            <path d="M91.6,154.35C93.167,155.917 93.95,157.8 93.95,160C93.95,162.167 93.167,164.05 91.6,165.65C90,167.217 88.117,168 85.95,168C83.75,168 81.883,167.217 80.35,165.65C78.75,164.05 77.95,162.167 77.95,160C77.95,157.8 78.75,155.917 80.35,154.35C81.883,152.783 83.75,152 85.95,152C88.15,152 90.033,152.783 91.6,154.35M85.95,154C84.317,154 82.933,154.583 81.8,155.75L81.75,155.8C80.55,156.967 79.95,158.367 79.95,160C79.95,161.633 80.567,163.05 81.8,164.25C82.933,165.417 84.317,166 85.95,166C87.583,166 89,165.417 90.2,164.25C91.367,163.05 91.95,161.633 91.95,160C91.95,158.367 91.367,156.967 90.2,155.8C89,154.6 87.583,154 85.95,154M89,157.5L88.55,158.55C88.25,158.85 87.9,159 87.5,159C87.067,159 86.717,158.85 86.45,158.55C86.15,158.25 86,157.9 86,157.5C86,157.1 86.15,156.75 86.45,156.45C86.717,156.15 87.067,156 87.5,156C87.9,156 88.25,156.15 88.55,156.45C88.85,156.75 89,157.1 89,157.5" style="fill:rgb(39,175,96);fill-rule:nonzero;"/>
            <path d="M89,157.5C89,157.1 88.85,156.75 88.55,156.45C88.25,156.15 87.9,156 87.5,156C87.067,156 86.717,156.15 86.45,156.45C86.15,156.75 86,157.1 86,157.5C86,157.9 86.15,158.25 86.45,158.55C86.717,158.85 87.067,159 87.5,159C87.9,159 88.25,158.85 88.55,158.55L89,157.5M85.95,154C87.583,154 89,154.6 90.2,155.8C91.367,156.967 91.95,158.367 91.95,160C91.95,161.633 91.367,163.05 90.2,164.25C89,165.417 87.583,166 85.95,166C84.317,166 82.933,165.417 81.8,164.25C80.567,163.05 79.95,161.633 79.95,160C79.95,158.367 80.55,156.967 81.75,155.8L81.8,155.75C82.933,154.583 84.317,154 85.95,154" style="fill:rgb(46,204,113);fill-rule:nonzero;"/>
        </g>
    </g>
</svg>
