<?xml version="1.0" encoding="UTF-8" standalone="no"?>
<!DOCTYPE svg PUBLIC "-//W3C//DTD SVG 1.1//EN" "http://www.w3.org/Graphics/SVG/1.1/DTD/svg11.dtd">
<svg width="100%" height="100%" viewBox="0 0 20 28" version="1.1" xmlns="http://www.w3.org/2000/svg" xmlns:xlink="http://www.w3.org/1999/xlink" xml:space="preserve" xmlns:serif="http://www.serif.com/" style="fill-rule:evenodd;clip-rule:evenodd;stroke-linejoin:round;stroke-miterlimit:2;">
    <g transform="matrix(1,0,0,1,-108.571,-167.543)">
        <g transform="matrix(1,0,0,1,-27.4286,-16.4571)">
            <path d="M136,188L136,186C136,185.433 136.2,184.967 136.6,184.6C136.967,184.2 137.433,184 138,184L154,184C154.533,184 155,184.2 155.4,184.6C155.767,184.967 155.967,185.433 156,186L156,188L154,188L154,186L138,186L138,188L136,188" style="fill:rgb(101,122,123);fill-rule:nonzero;"/>
            <path d="M140,190L138,190L138,188L140,188L140,190M138,194L152,194L152,190L154,190L154,194L155,195L154,196L154,198L152,198L152,196L140,196L140,204L152,204L152,202L154,202L154,204L155,205L154,206L154,210L152,210L152,206L140,206L140,208L138,208L138,206L137,205L138,204L138,196L137,195L138,194" style="fill:rgb(105,126,128);fill-rule:nonzero;"/>
            <path d="M138,194L138,190L140,190L142,192L140,194L138,194M150,188L154,188L154,190L152,190L150,188M138,208L140,208L142,210L138,210L138,208M154,202L150,202L148,200L150,198L154,198L154,202" style="fill:rgb(187,128,68);fill-rule:nonzero;"/>
            <path d="M138,188L138,186L140,186L140,188L150,188L152,190L152,194L140,194L142,192L140,190L140,188L138,188M152,186L154,186L154,188L152,188L152,186M140,208L140,206L152,206L152,210L142,210L140,208M152,202L152,204L140,204L140,196L152,196L152,198L150,198L148,200L150,202L152,202" style="fill:rgb(119,143,145);fill-rule:nonzero;"/>
            <path d="M156,190L156,198L154,198L154,196L155,195L154,194L154,190L156,190M156,202L156,210C156,210.533 155.817,211 155.45,211.4C155.05,211.8 154.567,212 154,212L142,212L142,210L154,210L154,206L155,205L154,204L154,202L156,202M136,208L136,194L138,194L137,195L138,196L138,204L137,205L138,206L138,208L136,208M136,190L136,188L138,188L138,190L136,190" style="fill:rgb(77,92,93);fill-rule:nonzero;"/>
            <path d="M140,186L152,186L152,188L140,188L140,186" style="fill:rgb(137,164,166);fill-rule:nonzero;"/>
            <path d="M156,188L156,190L154,190L154,188L156,188M156,198L156,202L154,202L154,198L156,198M142,212L138,212C137.433,212 136.967,211.817 136.6,211.45C136.2,211.05 136,210.567 136,210L136,208L138,208L138,210L142,210L142,212M136,194L136,190L138,190L138,194L136,194" style="fill:rgb(145,99,52);fill-rule:nonzero;"/>
        </g>
    </g>
</svg>
