<?xml version="1.0" encoding="UTF-8" standalone="no"?>
<!DOCTYPE svg PUBLIC "-//W3C//DTD SVG 1.1//EN" "http://www.w3.org/Graphics/SVG/1.1/DTD/svg11.dtd">
<svg width="100%" height="100%" viewBox="0 0 24 24" version="1.1" xmlns="http://www.w3.org/2000/svg" xmlns:xlink="http://www.w3.org/1999/xlink" xml:space="preserve" xmlns:serif="http://www.serif.com/" style="fill-rule:evenodd;clip-rule:evenodd;stroke-linejoin:round;stroke-miterlimit:2;">
    <g transform="matrix(1,0,0,1,-16.5214,-131.543)">
        <g transform="matrix(1,0,0,1,-27.4286,-16.4571)">
            <path d="M47.5,168.5C45.133,166.133 43.95,163.3 43.95,160C43.95,156.667 45.133,153.833 47.5,151.5C49.8,149.167 52.617,148 55.95,148C59.217,148 62.033,149.167 64.4,151.5L64.45,151.5C66.783,153.833 67.95,156.667 67.95,160C67.95,163.3 66.783,166.133 64.45,168.5C62.083,170.833 59.25,172 55.95,172C52.617,172 49.8,170.817 47.5,168.45L47.5,168.5M63,152.9C61.033,150.967 58.683,150 55.95,150C53.183,150 50.833,150.967 48.9,152.9C46.933,154.867 45.95,157.233 45.95,160C45.95,162.733 46.933,165.083 48.9,167.05C50.833,169.017 53.183,170 55.95,170C58.683,170 61.033,169.017 63,167.05C64.967,165.083 65.95,162.733 65.95,160C65.95,157.233 64.967,154.867 63,152.9" style="fill:rgb(101,122,123);fill-rule:nonzero;"/>
            <path d="M63,152.9C64.967,154.867 65.95,157.233 65.95,160C65.95,162.733 64.967,165.083 63,167.05C61.033,169.017 58.683,170 55.95,170C53.183,170 50.833,169.017 48.9,167.05C46.933,165.083 45.95,162.733 45.95,160C45.95,157.233 46.933,154.867 48.9,152.9C50.833,150.967 53.183,150 55.95,150C58.683,150 61.033,150.967 63,152.9M61.6,154.35C60.033,152.783 58.15,152 55.95,152C53.75,152 51.883,152.783 50.35,154.35C48.75,155.917 47.95,157.8 47.95,160C47.95,162.167 48.75,164.05 50.35,165.65C51.883,167.217 53.75,168 55.95,168C58.117,168 60,167.217 61.6,165.65C63.167,164.05 63.95,162.167 63.95,160C63.95,157.8 63.167,155.917 61.6,154.35" style="fill:rgb(137,164,166);fill-rule:nonzero;"/>
            <path d="M61.6,154.35C63.167,155.917 63.95,157.8 63.95,160C63.95,162.167 63.167,164.05 61.6,165.65C60,167.217 58.117,168 55.95,168C53.75,168 51.883,167.217 50.35,165.65C48.75,164.05 47.95,162.167 47.95,160C47.95,157.8 48.75,155.917 50.35,154.35C51.883,152.783 53.75,152 55.95,152C58.15,152 60.033,152.783 61.6,154.35M55.95,154C54.317,154 52.933,154.583 51.8,155.75L51.75,155.8C50.55,156.967 49.95,158.367 49.95,160C49.95,161.633 50.567,163.05 51.8,164.25C52.933,165.417 54.317,166 55.95,166C57.583,166 59,165.417 60.2,164.25C61.367,163.05 61.95,161.633 61.95,160C61.95,158.367 61.367,156.967 60.2,155.8C59,154.6 57.583,154 55.95,154M59,157.5C59,157.9 58.85,158.25 58.55,158.55C58.25,158.85 57.9,159 57.5,159C57.067,159 56.717,158.85 56.45,158.55C56.15,158.25 56,157.9 56,157.5C56,157.1 56.15,156.75 56.45,156.45C56.717,156.15 57.067,156 57.5,156C57.9,156 58.25,156.15 58.55,156.45C58.85,156.75 59,157.1 59,157.5" style="fill:rgb(208,68,54);fill-rule:nonzero;"/>
            <path d="M59,157.5C59,157.1 58.85,156.75 58.55,156.45C58.25,156.15 57.9,156 57.5,156C57.067,156 56.717,156.15 56.45,156.45C56.15,156.75 56,157.1 56,157.5C56,157.9 56.15,158.25 56.45,158.55C56.717,158.85 57.067,159 57.5,159C57.9,159 58.25,158.85 58.55,158.55C58.85,158.25 59,157.9 59,157.5M55.95,154C57.583,154 59,154.6 60.2,155.8C61.367,156.967 61.95,158.367 61.95,160C61.95,161.633 61.367,163.05 60.2,164.25C59,165.417 57.583,166 55.95,166C54.317,166 52.933,165.417 51.8,164.25C50.567,163.05 49.95,161.633 49.95,160C49.95,158.367 50.55,156.967 51.75,155.8L51.8,155.75C52.933,154.583 54.317,154 55.95,154" style="fill:rgb(231,76,60);fill-rule:nonzero;"/>
        </g>
    </g>
</svg>
